%FSLAX45Y45*%
G04 Gerber Fmt 4.5, Leading zero omitted, Abs format (unit mm)*
G04 Created by KiCad (PCBNEW (5.1.9)-1) date 2021-12-13 22:42:06*
%MOMM*%
%LPD*%
G01*
G04 APERTURE LIST*
%TA.AperFunction,Profile*%
%ADD10C,0.050000*%
%TD*%
%ADD11C,0.200000*%
%ADD12C,0.300000*%
G04 APERTURE END LIST*
D10*
X13360400Y-2374900D02*
X14465300Y-3060700D01*
X12750800Y-3225800D02*
X13360400Y-2374900D01*
X13766800Y-3873500D02*
X12750800Y-3225800D01*
X13766800Y-4838700D02*
X13766800Y-3873500D01*
X12585700Y-4241800D02*
X13766800Y-4838700D01*
X12026900Y-5105400D02*
X12585700Y-4241800D01*
X13131800Y-5765800D02*
X12026900Y-5105400D01*
X13106400Y-6642100D02*
X13131800Y-5765800D01*
X12280900Y-7073900D02*
X13106400Y-6642100D01*
X11404600Y-6629400D02*
X12280900Y-7073900D01*
X11480800Y-5346700D02*
X11404600Y-6629400D01*
X10325100Y-5219700D02*
X11480800Y-5346700D01*
X10261600Y-6680200D02*
X10325100Y-5219700D01*
X9347200Y-6223000D02*
X10261600Y-6680200D01*
X9258300Y-4876800D02*
X9347200Y-6223000D01*
X8178800Y-4940300D02*
X9258300Y-4876800D01*
X8280400Y-6311900D02*
X8178800Y-4940300D01*
X7086600Y-6883400D02*
X8280400Y-6311900D01*
X7543800Y-7835900D02*
X7086600Y-6883400D01*
X8648700Y-7302500D02*
X7543800Y-7835900D01*
X9499600Y-7785100D02*
X8648700Y-7302500D01*
X8394700Y-8458200D02*
X9499600Y-7785100D01*
X8902700Y-9385300D02*
X8394700Y-8458200D01*
X10033000Y-8788400D02*
X8902700Y-9385300D01*
X10820400Y-9245600D02*
X10033000Y-8788400D01*
X10833100Y-10121900D02*
X10820400Y-9245600D01*
X9994900Y-10629900D02*
X10833100Y-10121900D01*
X8851900Y-9918700D02*
X9994900Y-10629900D01*
X8153400Y-10845800D02*
X8851900Y-9918700D01*
X9448800Y-11607800D02*
X8153400Y-10845800D01*
X8572500Y-12141200D02*
X9448800Y-11607800D01*
X7327900Y-11531600D02*
X8572500Y-12141200D01*
X6858000Y-12446000D02*
X7327900Y-11531600D01*
X8128000Y-13068300D02*
X6858000Y-12446000D01*
X8039100Y-14325600D02*
X8128000Y-13068300D01*
X9131300Y-14401800D02*
X8039100Y-14325600D01*
X9207500Y-13246100D02*
X9131300Y-14401800D01*
X10083800Y-12763500D02*
X9207500Y-13246100D01*
X10109200Y-14033500D02*
X10083800Y-12763500D01*
X11214100Y-14071600D02*
X10109200Y-14033500D01*
X11239500Y-12839700D02*
X11214100Y-14071600D01*
X12065000Y-12407900D02*
X11239500Y-12839700D01*
X12865100Y-12865100D02*
X12065000Y-12407900D01*
X12903200Y-13792200D02*
X12865100Y-12865100D01*
X11684000Y-14376400D02*
X12903200Y-13792200D01*
X12153900Y-15417800D02*
X11684000Y-14376400D01*
X13525500Y-14744700D02*
X12153900Y-15417800D01*
X13538200Y-15735300D02*
X13525500Y-14744700D01*
X12382500Y-16459200D02*
X13538200Y-15735300D01*
X12979400Y-17310100D02*
X12382500Y-16459200D01*
X14185900Y-16573500D02*
X12979400Y-17310100D01*
X15290800Y-17272000D02*
X14185900Y-16573500D01*
X15913100Y-16395700D02*
X15290800Y-17272000D01*
X14884400Y-15760700D02*
X15913100Y-16395700D01*
X14884400Y-14795500D02*
X14884400Y-15760700D01*
X16078200Y-15405100D02*
X14884400Y-14795500D01*
X16624300Y-14528800D02*
X16078200Y-15405100D01*
X15519400Y-13868400D02*
X16624300Y-14528800D01*
X15570200Y-12979400D02*
X15519400Y-13868400D01*
X16370300Y-12573000D02*
X15570200Y-12979400D01*
X17221200Y-12992100D02*
X16370300Y-12573000D01*
X17157700Y-14300200D02*
X17221200Y-12992100D01*
X18326100Y-14414500D02*
X17157700Y-14300200D01*
X18389600Y-12954000D02*
X18326100Y-14414500D01*
X19304000Y-13411200D02*
X18389600Y-12954000D01*
X19380200Y-14757400D02*
X19304000Y-13411200D01*
X20472400Y-14693900D02*
X19380200Y-14757400D01*
X20370800Y-13322300D02*
X20472400Y-14693900D01*
X21564600Y-12750800D02*
X20370800Y-13322300D01*
X21094700Y-11798300D02*
X21564600Y-12750800D01*
X20002500Y-12331700D02*
X21094700Y-11798300D01*
X19138900Y-11849100D02*
X20002500Y-12331700D01*
X20243800Y-11163300D02*
X19138900Y-11849100D01*
X19735800Y-10261600D02*
X20243800Y-11163300D01*
X18618200Y-10845800D02*
X19735800Y-10261600D01*
X17818100Y-10363200D02*
X18618200Y-10845800D01*
X17843500Y-9512300D02*
X17818100Y-10363200D01*
X18656300Y-9017000D02*
X17843500Y-9512300D01*
X19799300Y-9715500D02*
X18656300Y-9017000D01*
X20497800Y-8788400D02*
X19799300Y-9715500D01*
X19202400Y-8026400D02*
X20497800Y-8788400D01*
X20078700Y-7493000D02*
X19202400Y-8026400D01*
X21323300Y-8115300D02*
X20078700Y-7493000D01*
X21805900Y-7188200D02*
X21323300Y-8115300D01*
X20510500Y-6565900D02*
X21805900Y-7188200D01*
X20612100Y-5295900D02*
X20510500Y-6565900D01*
X19519900Y-5232400D02*
X20612100Y-5295900D01*
X19443700Y-6388100D02*
X19519900Y-5232400D01*
X18567400Y-6870700D02*
X19443700Y-6388100D01*
X18529300Y-5600700D02*
X18567400Y-6870700D01*
X17437100Y-5562600D02*
X18529300Y-5600700D01*
X17411700Y-6781800D02*
X17437100Y-5562600D01*
X16535400Y-7200900D02*
X17411700Y-6781800D01*
X15798800Y-6705600D02*
X16535400Y-7200900D01*
X15748000Y-5829300D02*
X15798800Y-6705600D01*
X16967200Y-5245100D02*
X15748000Y-5829300D01*
X16484600Y-4216400D02*
X16967200Y-5245100D01*
X15125700Y-4876800D02*
X16484600Y-4216400D01*
X15113000Y-3898900D02*
X15125700Y-4876800D01*
X16268700Y-3175000D02*
X15113000Y-3898900D01*
X15659100Y-2336800D02*
X16268700Y-3175000D01*
X14465300Y-3060700D02*
X15659100Y-2336800D01*
D11*
X14202200Y-3331000D02*
X14652200Y-3781000D01*
X14652200Y-3331000D02*
X14202200Y-3781000D01*
D12*
X7141928Y-17778314D02*
X7141928Y-17478314D01*
X7213357Y-17478314D01*
X7256214Y-17492600D01*
X7284786Y-17521172D01*
X7299071Y-17549743D01*
X7313357Y-17606886D01*
X7313357Y-17649743D01*
X7299071Y-17706886D01*
X7284786Y-17735457D01*
X7256214Y-17764029D01*
X7213357Y-17778314D01*
X7141928Y-17778314D01*
X7441928Y-17778314D02*
X7441928Y-17578314D01*
X7441928Y-17635457D02*
X7456214Y-17606886D01*
X7470500Y-17592600D01*
X7499071Y-17578314D01*
X7527643Y-17578314D01*
X7627643Y-17778314D02*
X7627643Y-17578314D01*
X7627643Y-17478314D02*
X7613357Y-17492600D01*
X7627643Y-17506886D01*
X7641928Y-17492600D01*
X7627643Y-17478314D01*
X7627643Y-17506886D01*
X7813357Y-17778314D02*
X7784786Y-17764029D01*
X7770500Y-17735457D01*
X7770500Y-17478314D01*
X7970500Y-17778314D02*
X7941928Y-17764029D01*
X7927643Y-17735457D01*
X7927643Y-17478314D01*
X8313357Y-17778314D02*
X8313357Y-17478314D01*
X8413357Y-17692600D01*
X8513357Y-17478314D01*
X8513357Y-17778314D01*
X8784786Y-17778314D02*
X8784786Y-17621172D01*
X8770500Y-17592600D01*
X8741928Y-17578314D01*
X8684786Y-17578314D01*
X8656214Y-17592600D01*
X8784786Y-17764029D02*
X8756214Y-17778314D01*
X8684786Y-17778314D01*
X8656214Y-17764029D01*
X8641928Y-17735457D01*
X8641928Y-17706886D01*
X8656214Y-17678314D01*
X8684786Y-17664029D01*
X8756214Y-17664029D01*
X8784786Y-17649743D01*
X8927643Y-17578314D02*
X8927643Y-17878314D01*
X8927643Y-17592600D02*
X8956214Y-17578314D01*
X9013357Y-17578314D01*
X9041928Y-17592600D01*
X9056214Y-17606886D01*
X9070500Y-17635457D01*
X9070500Y-17721172D01*
X9056214Y-17749743D01*
X9041928Y-17764029D01*
X9013357Y-17778314D01*
X8956214Y-17778314D01*
X8927643Y-17764029D01*
X9199071Y-17749743D02*
X9213357Y-17764029D01*
X9199071Y-17778314D01*
X9184786Y-17764029D01*
X9199071Y-17749743D01*
X9199071Y-17778314D01*
X9199071Y-17592600D02*
X9213357Y-17606886D01*
X9199071Y-17621172D01*
X9184786Y-17606886D01*
X9199071Y-17592600D01*
X9199071Y-17621172D01*
X6405500Y-18047600D02*
X6855500Y-18497600D01*
X6855500Y-18047600D02*
X6405500Y-18497600D01*
X7270500Y-18208314D02*
X7270500Y-18408314D01*
X7199071Y-18094029D02*
X7127643Y-18308314D01*
X7313357Y-18308314D01*
X7427643Y-18379743D02*
X7441928Y-18394029D01*
X7427643Y-18408314D01*
X7413357Y-18394029D01*
X7427643Y-18379743D01*
X7427643Y-18408314D01*
X7713357Y-18108314D02*
X7570500Y-18108314D01*
X7556214Y-18251172D01*
X7570500Y-18236886D01*
X7599071Y-18222600D01*
X7670500Y-18222600D01*
X7699071Y-18236886D01*
X7713357Y-18251172D01*
X7727643Y-18279743D01*
X7727643Y-18351172D01*
X7713357Y-18379743D01*
X7699071Y-18394029D01*
X7670500Y-18408314D01*
X7599071Y-18408314D01*
X7570500Y-18394029D01*
X7556214Y-18379743D01*
X7913357Y-18108314D02*
X7941928Y-18108314D01*
X7970500Y-18122600D01*
X7984786Y-18136886D01*
X7999071Y-18165457D01*
X8013357Y-18222600D01*
X8013357Y-18294029D01*
X7999071Y-18351172D01*
X7984786Y-18379743D01*
X7970500Y-18394029D01*
X7941928Y-18408314D01*
X7913357Y-18408314D01*
X7884786Y-18394029D01*
X7870500Y-18379743D01*
X7856214Y-18351172D01*
X7841928Y-18294029D01*
X7841928Y-18222600D01*
X7856214Y-18165457D01*
X7870500Y-18136886D01*
X7884786Y-18122600D01*
X7913357Y-18108314D01*
X8141928Y-18408314D02*
X8141928Y-18208314D01*
X8141928Y-18236886D02*
X8156214Y-18222600D01*
X8184786Y-18208314D01*
X8227643Y-18208314D01*
X8256214Y-18222600D01*
X8270500Y-18251172D01*
X8270500Y-18408314D01*
X8270500Y-18251172D02*
X8284786Y-18222600D01*
X8313357Y-18208314D01*
X8356214Y-18208314D01*
X8384786Y-18222600D01*
X8399071Y-18251172D01*
X8399071Y-18408314D01*
X8541928Y-18408314D02*
X8541928Y-18208314D01*
X8541928Y-18236886D02*
X8556214Y-18222600D01*
X8584786Y-18208314D01*
X8627643Y-18208314D01*
X8656214Y-18222600D01*
X8670500Y-18251172D01*
X8670500Y-18408314D01*
X8670500Y-18251172D02*
X8684786Y-18222600D01*
X8713357Y-18208314D01*
X8756214Y-18208314D01*
X8784786Y-18222600D01*
X8799071Y-18251172D01*
X8799071Y-18408314D01*
X9384786Y-18094029D02*
X9127643Y-18479743D01*
X9770500Y-18108314D02*
X9799071Y-18108314D01*
X9827643Y-18122600D01*
X9841928Y-18136886D01*
X9856214Y-18165457D01*
X9870500Y-18222600D01*
X9870500Y-18294029D01*
X9856214Y-18351172D01*
X9841928Y-18379743D01*
X9827643Y-18394029D01*
X9799071Y-18408314D01*
X9770500Y-18408314D01*
X9741928Y-18394029D01*
X9727643Y-18379743D01*
X9713357Y-18351172D01*
X9699071Y-18294029D01*
X9699071Y-18222600D01*
X9713357Y-18165457D01*
X9727643Y-18136886D01*
X9741928Y-18122600D01*
X9770500Y-18108314D01*
X9999071Y-18379743D02*
X10013357Y-18394029D01*
X9999071Y-18408314D01*
X9984786Y-18394029D01*
X9999071Y-18379743D01*
X9999071Y-18408314D01*
X10299071Y-18408314D02*
X10127643Y-18408314D01*
X10213357Y-18408314D02*
X10213357Y-18108314D01*
X10184786Y-18151172D01*
X10156214Y-18179743D01*
X10127643Y-18194029D01*
X10399071Y-18108314D02*
X10599071Y-18108314D01*
X10470500Y-18408314D01*
X10684786Y-18108314D02*
X10884786Y-18108314D01*
X10756214Y-18408314D01*
X10984786Y-18108314D02*
X10984786Y-18165457D01*
X11099071Y-18108314D02*
X11099071Y-18165457D01*
X11541928Y-18522600D02*
X11527643Y-18508314D01*
X11499071Y-18465457D01*
X11484786Y-18436886D01*
X11470500Y-18394029D01*
X11456214Y-18322600D01*
X11456214Y-18265457D01*
X11470500Y-18194029D01*
X11484786Y-18151172D01*
X11499071Y-18122600D01*
X11527643Y-18079743D01*
X11541928Y-18065457D01*
X11813357Y-18408314D02*
X11641928Y-18408314D01*
X11727643Y-18408314D02*
X11727643Y-18108314D01*
X11699071Y-18151172D01*
X11670500Y-18179743D01*
X11641928Y-18194029D01*
X12170500Y-18408314D02*
X12170500Y-18108314D01*
X12299071Y-18408314D02*
X12299071Y-18251172D01*
X12284786Y-18222600D01*
X12256214Y-18208314D01*
X12213357Y-18208314D01*
X12184786Y-18222600D01*
X12170500Y-18236886D01*
X12484786Y-18408314D02*
X12456214Y-18394029D01*
X12441928Y-18379743D01*
X12427643Y-18351172D01*
X12427643Y-18265457D01*
X12441928Y-18236886D01*
X12456214Y-18222600D01*
X12484786Y-18208314D01*
X12527643Y-18208314D01*
X12556214Y-18222600D01*
X12570500Y-18236886D01*
X12584786Y-18265457D01*
X12584786Y-18351172D01*
X12570500Y-18379743D01*
X12556214Y-18394029D01*
X12527643Y-18408314D01*
X12484786Y-18408314D01*
X12756214Y-18408314D02*
X12727643Y-18394029D01*
X12713357Y-18365457D01*
X12713357Y-18108314D01*
X12984786Y-18394029D02*
X12956214Y-18408314D01*
X12899071Y-18408314D01*
X12870500Y-18394029D01*
X12856214Y-18365457D01*
X12856214Y-18251172D01*
X12870500Y-18222600D01*
X12899071Y-18208314D01*
X12956214Y-18208314D01*
X12984786Y-18222600D01*
X12999071Y-18251172D01*
X12999071Y-18279743D01*
X12856214Y-18308314D01*
X13099071Y-18522600D02*
X13113357Y-18508314D01*
X13141928Y-18465457D01*
X13156214Y-18436886D01*
X13170500Y-18394029D01*
X13184786Y-18322600D01*
X13184786Y-18265457D01*
X13170500Y-18194029D01*
X13156214Y-18151172D01*
X13141928Y-18122600D01*
X13113357Y-18079743D01*
X13099071Y-18065457D01*
X13641928Y-18522600D02*
X13627643Y-18508314D01*
X13599071Y-18465457D01*
X13584786Y-18436886D01*
X13570500Y-18394029D01*
X13556214Y-18322600D01*
X13556214Y-18265457D01*
X13570500Y-18194029D01*
X13584786Y-18151172D01*
X13599071Y-18122600D01*
X13627643Y-18079743D01*
X13641928Y-18065457D01*
X13756214Y-18208314D02*
X13756214Y-18408314D01*
X13756214Y-18236886D02*
X13770500Y-18222600D01*
X13799071Y-18208314D01*
X13841928Y-18208314D01*
X13870500Y-18222600D01*
X13884786Y-18251172D01*
X13884786Y-18408314D01*
X14070500Y-18408314D02*
X14041928Y-18394029D01*
X14027643Y-18379743D01*
X14013357Y-18351172D01*
X14013357Y-18265457D01*
X14027643Y-18236886D01*
X14041928Y-18222600D01*
X14070500Y-18208314D01*
X14113357Y-18208314D01*
X14141928Y-18222600D01*
X14156214Y-18236886D01*
X14170500Y-18265457D01*
X14170500Y-18351172D01*
X14156214Y-18379743D01*
X14141928Y-18394029D01*
X14113357Y-18408314D01*
X14070500Y-18408314D01*
X14256214Y-18208314D02*
X14370500Y-18208314D01*
X14299071Y-18108314D02*
X14299071Y-18365457D01*
X14313357Y-18394029D01*
X14341928Y-18408314D01*
X14370500Y-18408314D01*
X14699071Y-18208314D02*
X14699071Y-18508314D01*
X14699071Y-18222600D02*
X14727643Y-18208314D01*
X14784786Y-18208314D01*
X14813357Y-18222600D01*
X14827643Y-18236886D01*
X14841928Y-18265457D01*
X14841928Y-18351172D01*
X14827643Y-18379743D01*
X14813357Y-18394029D01*
X14784786Y-18408314D01*
X14727643Y-18408314D01*
X14699071Y-18394029D01*
X15013357Y-18408314D02*
X14984786Y-18394029D01*
X14970500Y-18365457D01*
X14970500Y-18108314D01*
X15256214Y-18408314D02*
X15256214Y-18251172D01*
X15241928Y-18222600D01*
X15213357Y-18208314D01*
X15156214Y-18208314D01*
X15127643Y-18222600D01*
X15256214Y-18394029D02*
X15227643Y-18408314D01*
X15156214Y-18408314D01*
X15127643Y-18394029D01*
X15113357Y-18365457D01*
X15113357Y-18336886D01*
X15127643Y-18308314D01*
X15156214Y-18294029D01*
X15227643Y-18294029D01*
X15256214Y-18279743D01*
X15356214Y-18208314D02*
X15470500Y-18208314D01*
X15399071Y-18108314D02*
X15399071Y-18365457D01*
X15413357Y-18394029D01*
X15441928Y-18408314D01*
X15470500Y-18408314D01*
X15684786Y-18394029D02*
X15656214Y-18408314D01*
X15599071Y-18408314D01*
X15570500Y-18394029D01*
X15556214Y-18365457D01*
X15556214Y-18251172D01*
X15570500Y-18222600D01*
X15599071Y-18208314D01*
X15656214Y-18208314D01*
X15684786Y-18222600D01*
X15699071Y-18251172D01*
X15699071Y-18279743D01*
X15556214Y-18308314D01*
X15956214Y-18408314D02*
X15956214Y-18108314D01*
X15956214Y-18394029D02*
X15927643Y-18408314D01*
X15870500Y-18408314D01*
X15841928Y-18394029D01*
X15827643Y-18379743D01*
X15813357Y-18351172D01*
X15813357Y-18265457D01*
X15827643Y-18236886D01*
X15841928Y-18222600D01*
X15870500Y-18208314D01*
X15927643Y-18208314D01*
X15956214Y-18222600D01*
X16070500Y-18522600D02*
X16084786Y-18508314D01*
X16113357Y-18465457D01*
X16127643Y-18436886D01*
X16141928Y-18394029D01*
X16156214Y-18322600D01*
X16156214Y-18265457D01*
X16141928Y-18194029D01*
X16127643Y-18151172D01*
X16113357Y-18122600D01*
X16084786Y-18079743D01*
X16070500Y-18065457D01*
M02*
