%TF.GenerationSoftware,KiCad,Pcbnew,(5.1.9)-1*%
%TF.CreationDate,2021-12-13T22:42:43-05:00*%
%TF.ProjectId,Ornament,4f726e61-6d65-46e7-942e-6b696361645f,rev?*%
%TF.SameCoordinates,Original*%
%TF.FileFunction,Copper,L1,Top*%
%TF.FilePolarity,Positive*%
%FSLAX46Y46*%
G04 Gerber Fmt 4.6, Leading zero omitted, Abs format (unit mm)*
G04 Created by KiCad (PCBNEW (5.1.9)-1) date 2021-12-13 22:42:43*
%MOMM*%
%LPD*%
G01*
G04 APERTURE LIST*
%TA.AperFunction,EtchedComponent*%
%ADD10C,0.010000*%
%TD*%
%TA.AperFunction,SMDPad,CuDef*%
%ADD11R,1.500000X0.450000*%
%TD*%
%TA.AperFunction,ComponentPad*%
%ADD12O,1.600000X4.500000*%
%TD*%
%TA.AperFunction,ComponentPad*%
%ADD13O,4.500000X1.600000*%
%TD*%
%TA.AperFunction,ComponentPad*%
%ADD14C,1.600000*%
%TD*%
%TA.AperFunction,SMDPad,CuDef*%
%ADD15R,6.400000X5.800000*%
%TD*%
%TA.AperFunction,SMDPad,CuDef*%
%ADD16R,2.200000X1.200000*%
%TD*%
%TA.AperFunction,ComponentPad*%
%ADD17O,1.600000X1.600000*%
%TD*%
%TA.AperFunction,ComponentPad*%
%ADD18R,1.600000X1.600000*%
%TD*%
%TA.AperFunction,ComponentPad*%
%ADD19C,1.875000*%
%TD*%
%TA.AperFunction,ComponentPad*%
%ADD20C,1.300000*%
%TD*%
%TA.AperFunction,ComponentPad*%
%ADD21C,1.800000*%
%TD*%
%TA.AperFunction,ComponentPad*%
%ADD22R,1.800000X1.800000*%
%TD*%
%TA.AperFunction,ComponentPad*%
%ADD23O,3.000000X3.000000*%
%TD*%
%TA.AperFunction,ComponentPad*%
%ADD24C,3.000000*%
%TD*%
%TA.AperFunction,ViaPad*%
%ADD25C,0.800000*%
%TD*%
%TA.AperFunction,Conductor*%
%ADD26C,0.500000*%
%TD*%
%TA.AperFunction,Conductor*%
%ADD27C,1.500000*%
%TD*%
%TA.AperFunction,Conductor*%
%ADD28C,1.000000*%
%TD*%
%TA.AperFunction,Conductor*%
%ADD29C,2.000000*%
%TD*%
G04 APERTURE END LIST*
D10*
%TO.C,G\u002A\u002A\u002A*%
G36*
X176432980Y-109520132D02*
G01*
X176424632Y-109336446D01*
X176409541Y-109167604D01*
X176386744Y-109004266D01*
X176355278Y-108837093D01*
X176333436Y-108737992D01*
X176233673Y-108379434D01*
X176102412Y-108030973D01*
X175941083Y-107694795D01*
X175751117Y-107373089D01*
X175533946Y-107068040D01*
X175291001Y-106781837D01*
X175023714Y-106516667D01*
X174733515Y-106274718D01*
X174709990Y-106256910D01*
X174420135Y-106057889D01*
X174110750Y-105880721D01*
X173788016Y-105728331D01*
X173458115Y-105603644D01*
X173134867Y-105511399D01*
X172968134Y-105474243D01*
X172813474Y-105445936D01*
X172660709Y-105425221D01*
X172499663Y-105410840D01*
X172320158Y-105401535D01*
X172220467Y-105398397D01*
X171915497Y-105398432D01*
X171630989Y-105415950D01*
X171357750Y-105452078D01*
X171086586Y-105507944D01*
X170882039Y-105562602D01*
X170532874Y-105681750D01*
X170194208Y-105831963D01*
X169868511Y-106011403D01*
X169558250Y-106218236D01*
X169265894Y-106450625D01*
X168993911Y-106706733D01*
X168744768Y-106984726D01*
X168520934Y-107282766D01*
X168472570Y-107355062D01*
X168401121Y-107469897D01*
X168328877Y-107596151D01*
X168257988Y-107729119D01*
X168190604Y-107864099D01*
X168128875Y-107996386D01*
X168074951Y-108121277D01*
X168030981Y-108234067D01*
X167999115Y-108330053D01*
X167981504Y-108404531D01*
X167978667Y-108435737D01*
X167993705Y-108517071D01*
X168035783Y-108584641D01*
X168084787Y-108622814D01*
X168100337Y-108629928D01*
X168120771Y-108635927D01*
X168149150Y-108640953D01*
X168188531Y-108645152D01*
X168241976Y-108648668D01*
X168312543Y-108651645D01*
X168403292Y-108654228D01*
X168517282Y-108656562D01*
X168657574Y-108658791D01*
X168827227Y-108661060D01*
X168918467Y-108662187D01*
X169104571Y-108664562D01*
X169260023Y-108666870D01*
X169388034Y-108669260D01*
X169491819Y-108671877D01*
X169574590Y-108674870D01*
X169639560Y-108678385D01*
X169689942Y-108682571D01*
X169728949Y-108687574D01*
X169759795Y-108693542D01*
X169785692Y-108700622D01*
X169790534Y-108702175D01*
X169946726Y-108765588D01*
X170074207Y-108844295D01*
X170122261Y-108884549D01*
X170161387Y-108919012D01*
X170188422Y-108939762D01*
X170196933Y-108942645D01*
X170199266Y-108922388D01*
X170205565Y-108876190D01*
X170214778Y-108811605D01*
X170222554Y-108758455D01*
X170277300Y-108471314D01*
X170352906Y-108208843D01*
X170449047Y-107971576D01*
X170565395Y-107760047D01*
X170701626Y-107574791D01*
X170857413Y-107416343D01*
X171032431Y-107285237D01*
X171166623Y-107209814D01*
X171398086Y-107113046D01*
X171649850Y-107041333D01*
X171923053Y-106994411D01*
X172186600Y-106973226D01*
X172427120Y-106973197D01*
X172645870Y-106995374D01*
X172847949Y-107041345D01*
X173038453Y-107112699D01*
X173222482Y-107211023D01*
X173405132Y-107337906D01*
X173436664Y-107362630D01*
X173496452Y-107410261D01*
X173611993Y-107373801D01*
X173715286Y-107349572D01*
X173839692Y-107333351D01*
X173973260Y-107325819D01*
X174104039Y-107327658D01*
X174218293Y-107339258D01*
X174297404Y-107354752D01*
X174390510Y-107376998D01*
X174479614Y-107401638D01*
X174493818Y-107405984D01*
X174641934Y-107452157D01*
X174640615Y-107603712D01*
X174639090Y-107669888D01*
X174634350Y-107723729D01*
X174624179Y-107774776D01*
X174606358Y-107832569D01*
X174578670Y-107906649D01*
X174558163Y-107958467D01*
X174504741Y-108083427D01*
X174441970Y-108216021D01*
X174374849Y-108346558D01*
X174308381Y-108465348D01*
X174247563Y-108562703D01*
X174242548Y-108570068D01*
X174194644Y-108639803D01*
X174226500Y-108773268D01*
X174296654Y-109139452D01*
X174333305Y-109508523D01*
X174336450Y-109878613D01*
X174306091Y-110247853D01*
X174242226Y-110614374D01*
X174226786Y-110681532D01*
X174195218Y-110813796D01*
X174272542Y-110933327D01*
X174325978Y-111022855D01*
X174385835Y-111134461D01*
X174447357Y-111258257D01*
X174505787Y-111384352D01*
X174556369Y-111502857D01*
X174592731Y-111599133D01*
X174623226Y-111704574D01*
X174637841Y-111803540D01*
X174640556Y-111870067D01*
X174641934Y-112005534D01*
X174531867Y-112042302D01*
X174350685Y-112091472D01*
X174163655Y-112121377D01*
X173978503Y-112131681D01*
X173802955Y-112122046D01*
X173644737Y-112092135D01*
X173611993Y-112082474D01*
X173496452Y-112045740D01*
X173436664Y-112093370D01*
X173253400Y-112225522D01*
X173069625Y-112328748D01*
X172880254Y-112404631D01*
X172680204Y-112454753D01*
X172464392Y-112480697D01*
X172227733Y-112484045D01*
X172186600Y-112482547D01*
X171901710Y-112458281D01*
X171637913Y-112411054D01*
X171396177Y-112341280D01*
X171177470Y-112249376D01*
X170982761Y-112135755D01*
X170813018Y-112000835D01*
X170669212Y-111845028D01*
X170654155Y-111825493D01*
X170526230Y-111630736D01*
X170416771Y-111410693D01*
X170327338Y-111169421D01*
X170259491Y-110910980D01*
X170223183Y-110704561D01*
X170212596Y-110633354D01*
X170202847Y-110575705D01*
X170195284Y-110539200D01*
X170192217Y-110530439D01*
X170176253Y-110536124D01*
X170142979Y-110558802D01*
X170111330Y-110583916D01*
X169993582Y-110665404D01*
X169856458Y-110727708D01*
X169743244Y-110762201D01*
X169680432Y-110780379D01*
X169630614Y-110798715D01*
X169602886Y-110813767D01*
X169600761Y-110816126D01*
X169589046Y-110841898D01*
X169571126Y-110890034D01*
X169550714Y-110950518D01*
X169549060Y-110955667D01*
X169532932Y-111011595D01*
X169522009Y-111066188D01*
X169515358Y-111128206D01*
X169512044Y-111206412D01*
X169511134Y-111309567D01*
X169511134Y-111311267D01*
X169511397Y-111405754D01*
X169512984Y-111473934D01*
X169517084Y-111523367D01*
X169524889Y-111561614D01*
X169537590Y-111596235D01*
X169556380Y-111634788D01*
X169564615Y-111650609D01*
X169648711Y-111781251D01*
X169759009Y-111899666D01*
X169898934Y-112009437D01*
X169922571Y-112025300D01*
X170035567Y-112103650D01*
X170123969Y-112174898D01*
X170194342Y-112245200D01*
X170253256Y-112320714D01*
X170278203Y-112358713D01*
X170337456Y-112461797D01*
X170376636Y-112552341D01*
X170400017Y-112641352D01*
X170407459Y-112691637D01*
X170410559Y-112781331D01*
X170397819Y-112850740D01*
X170370280Y-112894996D01*
X170362695Y-112900651D01*
X170329392Y-112902702D01*
X170284105Y-112878508D01*
X170231121Y-112831526D01*
X170174731Y-112765211D01*
X170147607Y-112727370D01*
X170055480Y-112611940D01*
X169941747Y-112506810D01*
X169803053Y-112409514D01*
X169636044Y-112317589D01*
X169511134Y-112259732D01*
X169423849Y-112218448D01*
X169355405Y-112176718D01*
X169291952Y-112125241D01*
X169247165Y-112082489D01*
X169161595Y-111985772D01*
X169094159Y-111881583D01*
X169043635Y-111765639D01*
X169008801Y-111633658D01*
X168988437Y-111481356D01*
X168981320Y-111304451D01*
X168983733Y-111158867D01*
X168987303Y-111063297D01*
X168990919Y-110976946D01*
X168994263Y-110906717D01*
X168997016Y-110859515D01*
X168998194Y-110845600D01*
X169003134Y-110803267D01*
X168584197Y-110798738D01*
X168438668Y-110797607D01*
X168322935Y-110798190D01*
X168232946Y-110801203D01*
X168164643Y-110807361D01*
X168113972Y-110817381D01*
X168076879Y-110831979D01*
X168049309Y-110851871D01*
X168027206Y-110877772D01*
X168012968Y-110899615D01*
X167990340Y-110949373D01*
X167982002Y-111005404D01*
X167988558Y-111073336D01*
X168010616Y-111158799D01*
X168048780Y-111267421D01*
X168054055Y-111281200D01*
X168206163Y-111630521D01*
X168386326Y-111962636D01*
X168593277Y-112275616D01*
X168825747Y-112567531D01*
X169064497Y-112819154D01*
X169358108Y-113081312D01*
X169666362Y-113313510D01*
X169988497Y-113515341D01*
X170323753Y-113686393D01*
X170671369Y-113826259D01*
X171030584Y-113934529D01*
X171218834Y-113977619D01*
X171432624Y-114016126D01*
X171641381Y-114042078D01*
X171855823Y-114056340D01*
X172086668Y-114059776D01*
X172212000Y-114057694D01*
X172406919Y-114050515D01*
X172577749Y-114038952D01*
X172734109Y-114021860D01*
X172885620Y-113998098D01*
X173041905Y-113966521D01*
X173109467Y-113951081D01*
X173471230Y-113848932D01*
X173820149Y-113716321D01*
X174154590Y-113554742D01*
X174472919Y-113365689D01*
X174773503Y-113150658D01*
X175054708Y-112911144D01*
X175314899Y-112648641D01*
X175552443Y-112364644D01*
X175765706Y-112060647D01*
X175953054Y-111738147D01*
X176112853Y-111398637D01*
X176224733Y-111100999D01*
X176298218Y-110860860D01*
X176354525Y-110628368D01*
X176394982Y-110394857D01*
X176420921Y-110151661D01*
X176433671Y-109890117D01*
X176435549Y-109728000D01*
X176432980Y-109520132D01*
G37*
X176432980Y-109520132D02*
X176424632Y-109336446D01*
X176409541Y-109167604D01*
X176386744Y-109004266D01*
X176355278Y-108837093D01*
X176333436Y-108737992D01*
X176233673Y-108379434D01*
X176102412Y-108030973D01*
X175941083Y-107694795D01*
X175751117Y-107373089D01*
X175533946Y-107068040D01*
X175291001Y-106781837D01*
X175023714Y-106516667D01*
X174733515Y-106274718D01*
X174709990Y-106256910D01*
X174420135Y-106057889D01*
X174110750Y-105880721D01*
X173788016Y-105728331D01*
X173458115Y-105603644D01*
X173134867Y-105511399D01*
X172968134Y-105474243D01*
X172813474Y-105445936D01*
X172660709Y-105425221D01*
X172499663Y-105410840D01*
X172320158Y-105401535D01*
X172220467Y-105398397D01*
X171915497Y-105398432D01*
X171630989Y-105415950D01*
X171357750Y-105452078D01*
X171086586Y-105507944D01*
X170882039Y-105562602D01*
X170532874Y-105681750D01*
X170194208Y-105831963D01*
X169868511Y-106011403D01*
X169558250Y-106218236D01*
X169265894Y-106450625D01*
X168993911Y-106706733D01*
X168744768Y-106984726D01*
X168520934Y-107282766D01*
X168472570Y-107355062D01*
X168401121Y-107469897D01*
X168328877Y-107596151D01*
X168257988Y-107729119D01*
X168190604Y-107864099D01*
X168128875Y-107996386D01*
X168074951Y-108121277D01*
X168030981Y-108234067D01*
X167999115Y-108330053D01*
X167981504Y-108404531D01*
X167978667Y-108435737D01*
X167993705Y-108517071D01*
X168035783Y-108584641D01*
X168084787Y-108622814D01*
X168100337Y-108629928D01*
X168120771Y-108635927D01*
X168149150Y-108640953D01*
X168188531Y-108645152D01*
X168241976Y-108648668D01*
X168312543Y-108651645D01*
X168403292Y-108654228D01*
X168517282Y-108656562D01*
X168657574Y-108658791D01*
X168827227Y-108661060D01*
X168918467Y-108662187D01*
X169104571Y-108664562D01*
X169260023Y-108666870D01*
X169388034Y-108669260D01*
X169491819Y-108671877D01*
X169574590Y-108674870D01*
X169639560Y-108678385D01*
X169689942Y-108682571D01*
X169728949Y-108687574D01*
X169759795Y-108693542D01*
X169785692Y-108700622D01*
X169790534Y-108702175D01*
X169946726Y-108765588D01*
X170074207Y-108844295D01*
X170122261Y-108884549D01*
X170161387Y-108919012D01*
X170188422Y-108939762D01*
X170196933Y-108942645D01*
X170199266Y-108922388D01*
X170205565Y-108876190D01*
X170214778Y-108811605D01*
X170222554Y-108758455D01*
X170277300Y-108471314D01*
X170352906Y-108208843D01*
X170449047Y-107971576D01*
X170565395Y-107760047D01*
X170701626Y-107574791D01*
X170857413Y-107416343D01*
X171032431Y-107285237D01*
X171166623Y-107209814D01*
X171398086Y-107113046D01*
X171649850Y-107041333D01*
X171923053Y-106994411D01*
X172186600Y-106973226D01*
X172427120Y-106973197D01*
X172645870Y-106995374D01*
X172847949Y-107041345D01*
X173038453Y-107112699D01*
X173222482Y-107211023D01*
X173405132Y-107337906D01*
X173436664Y-107362630D01*
X173496452Y-107410261D01*
X173611993Y-107373801D01*
X173715286Y-107349572D01*
X173839692Y-107333351D01*
X173973260Y-107325819D01*
X174104039Y-107327658D01*
X174218293Y-107339258D01*
X174297404Y-107354752D01*
X174390510Y-107376998D01*
X174479614Y-107401638D01*
X174493818Y-107405984D01*
X174641934Y-107452157D01*
X174640615Y-107603712D01*
X174639090Y-107669888D01*
X174634350Y-107723729D01*
X174624179Y-107774776D01*
X174606358Y-107832569D01*
X174578670Y-107906649D01*
X174558163Y-107958467D01*
X174504741Y-108083427D01*
X174441970Y-108216021D01*
X174374849Y-108346558D01*
X174308381Y-108465348D01*
X174247563Y-108562703D01*
X174242548Y-108570068D01*
X174194644Y-108639803D01*
X174226500Y-108773268D01*
X174296654Y-109139452D01*
X174333305Y-109508523D01*
X174336450Y-109878613D01*
X174306091Y-110247853D01*
X174242226Y-110614374D01*
X174226786Y-110681532D01*
X174195218Y-110813796D01*
X174272542Y-110933327D01*
X174325978Y-111022855D01*
X174385835Y-111134461D01*
X174447357Y-111258257D01*
X174505787Y-111384352D01*
X174556369Y-111502857D01*
X174592731Y-111599133D01*
X174623226Y-111704574D01*
X174637841Y-111803540D01*
X174640556Y-111870067D01*
X174641934Y-112005534D01*
X174531867Y-112042302D01*
X174350685Y-112091472D01*
X174163655Y-112121377D01*
X173978503Y-112131681D01*
X173802955Y-112122046D01*
X173644737Y-112092135D01*
X173611993Y-112082474D01*
X173496452Y-112045740D01*
X173436664Y-112093370D01*
X173253400Y-112225522D01*
X173069625Y-112328748D01*
X172880254Y-112404631D01*
X172680204Y-112454753D01*
X172464392Y-112480697D01*
X172227733Y-112484045D01*
X172186600Y-112482547D01*
X171901710Y-112458281D01*
X171637913Y-112411054D01*
X171396177Y-112341280D01*
X171177470Y-112249376D01*
X170982761Y-112135755D01*
X170813018Y-112000835D01*
X170669212Y-111845028D01*
X170654155Y-111825493D01*
X170526230Y-111630736D01*
X170416771Y-111410693D01*
X170327338Y-111169421D01*
X170259491Y-110910980D01*
X170223183Y-110704561D01*
X170212596Y-110633354D01*
X170202847Y-110575705D01*
X170195284Y-110539200D01*
X170192217Y-110530439D01*
X170176253Y-110536124D01*
X170142979Y-110558802D01*
X170111330Y-110583916D01*
X169993582Y-110665404D01*
X169856458Y-110727708D01*
X169743244Y-110762201D01*
X169680432Y-110780379D01*
X169630614Y-110798715D01*
X169602886Y-110813767D01*
X169600761Y-110816126D01*
X169589046Y-110841898D01*
X169571126Y-110890034D01*
X169550714Y-110950518D01*
X169549060Y-110955667D01*
X169532932Y-111011595D01*
X169522009Y-111066188D01*
X169515358Y-111128206D01*
X169512044Y-111206412D01*
X169511134Y-111309567D01*
X169511134Y-111311267D01*
X169511397Y-111405754D01*
X169512984Y-111473934D01*
X169517084Y-111523367D01*
X169524889Y-111561614D01*
X169537590Y-111596235D01*
X169556380Y-111634788D01*
X169564615Y-111650609D01*
X169648711Y-111781251D01*
X169759009Y-111899666D01*
X169898934Y-112009437D01*
X169922571Y-112025300D01*
X170035567Y-112103650D01*
X170123969Y-112174898D01*
X170194342Y-112245200D01*
X170253256Y-112320714D01*
X170278203Y-112358713D01*
X170337456Y-112461797D01*
X170376636Y-112552341D01*
X170400017Y-112641352D01*
X170407459Y-112691637D01*
X170410559Y-112781331D01*
X170397819Y-112850740D01*
X170370280Y-112894996D01*
X170362695Y-112900651D01*
X170329392Y-112902702D01*
X170284105Y-112878508D01*
X170231121Y-112831526D01*
X170174731Y-112765211D01*
X170147607Y-112727370D01*
X170055480Y-112611940D01*
X169941747Y-112506810D01*
X169803053Y-112409514D01*
X169636044Y-112317589D01*
X169511134Y-112259732D01*
X169423849Y-112218448D01*
X169355405Y-112176718D01*
X169291952Y-112125241D01*
X169247165Y-112082489D01*
X169161595Y-111985772D01*
X169094159Y-111881583D01*
X169043635Y-111765639D01*
X169008801Y-111633658D01*
X168988437Y-111481356D01*
X168981320Y-111304451D01*
X168983733Y-111158867D01*
X168987303Y-111063297D01*
X168990919Y-110976946D01*
X168994263Y-110906717D01*
X168997016Y-110859515D01*
X168998194Y-110845600D01*
X169003134Y-110803267D01*
X168584197Y-110798738D01*
X168438668Y-110797607D01*
X168322935Y-110798190D01*
X168232946Y-110801203D01*
X168164643Y-110807361D01*
X168113972Y-110817381D01*
X168076879Y-110831979D01*
X168049309Y-110851871D01*
X168027206Y-110877772D01*
X168012968Y-110899615D01*
X167990340Y-110949373D01*
X167982002Y-111005404D01*
X167988558Y-111073336D01*
X168010616Y-111158799D01*
X168048780Y-111267421D01*
X168054055Y-111281200D01*
X168206163Y-111630521D01*
X168386326Y-111962636D01*
X168593277Y-112275616D01*
X168825747Y-112567531D01*
X169064497Y-112819154D01*
X169358108Y-113081312D01*
X169666362Y-113313510D01*
X169988497Y-113515341D01*
X170323753Y-113686393D01*
X170671369Y-113826259D01*
X171030584Y-113934529D01*
X171218834Y-113977619D01*
X171432624Y-114016126D01*
X171641381Y-114042078D01*
X171855823Y-114056340D01*
X172086668Y-114059776D01*
X172212000Y-114057694D01*
X172406919Y-114050515D01*
X172577749Y-114038952D01*
X172734109Y-114021860D01*
X172885620Y-113998098D01*
X173041905Y-113966521D01*
X173109467Y-113951081D01*
X173471230Y-113848932D01*
X173820149Y-113716321D01*
X174154590Y-113554742D01*
X174472919Y-113365689D01*
X174773503Y-113150658D01*
X175054708Y-112911144D01*
X175314899Y-112648641D01*
X175552443Y-112364644D01*
X175765706Y-112060647D01*
X175953054Y-111738147D01*
X176112853Y-111398637D01*
X176224733Y-111100999D01*
X176298218Y-110860860D01*
X176354525Y-110628368D01*
X176394982Y-110394857D01*
X176420921Y-110151661D01*
X176433671Y-109890117D01*
X176435549Y-109728000D01*
X176432980Y-109520132D01*
%TD*%
D11*
%TO.P,Q3,1*%
%TO.N,/LED Schematic/Branch2On*%
X133410000Y-117998000D03*
%TO.P,Q3,2*%
%TO.N,GND*%
X133410000Y-116698000D03*
%TO.P,Q3,3*%
%TO.N,Net-(D29-Pad1)*%
X130750000Y-117348000D03*
%TD*%
%TO.P,R45,2*%
%TO.N,Net-(D34-Pad2)*%
%TA.AperFunction,SMDPad,CuDef*%
G36*
G01*
X145172000Y-50917000D02*
X145172000Y-49667000D01*
G75*
G02*
X145422000Y-49417000I250000J0D01*
G01*
X146222000Y-49417000D01*
G75*
G02*
X146472000Y-49667000I0J-250000D01*
G01*
X146472000Y-50917000D01*
G75*
G02*
X146222000Y-51167000I-250000J0D01*
G01*
X145422000Y-51167000D01*
G75*
G02*
X145172000Y-50917000I0J250000D01*
G01*
G37*
%TD.AperFunction*%
%TO.P,R45,1*%
%TO.N,+5V*%
%TA.AperFunction,SMDPad,CuDef*%
G36*
G01*
X142072000Y-50917000D02*
X142072000Y-49667000D01*
G75*
G02*
X142322000Y-49417000I250000J0D01*
G01*
X143122000Y-49417000D01*
G75*
G02*
X143372000Y-49667000I0J-250000D01*
G01*
X143372000Y-50917000D01*
G75*
G02*
X143122000Y-51167000I-250000J0D01*
G01*
X142322000Y-51167000D01*
G75*
G02*
X142072000Y-50917000I0J250000D01*
G01*
G37*
%TD.AperFunction*%
%TD*%
D12*
%TO.P,BT1,2*%
%TO.N,GND*%
X145388000Y-71628000D03*
D13*
X150153000Y-76203000D03*
D12*
X154918000Y-71628000D03*
D13*
%TO.P,BT1,1*%
%TO.N,Net-(BT1-Pad1)*%
X137353000Y-76203000D03*
D12*
X142118000Y-71628000D03*
X132588000Y-71628000D03*
%TD*%
D14*
%TO.P,C3,2*%
%TO.N,GND*%
X145232000Y-61976000D03*
%TO.P,C3,1*%
%TO.N,+5V*%
X141732000Y-61976000D03*
%TD*%
%TO.P,R68,2*%
%TO.N,GND*%
%TA.AperFunction,SMDPad,CuDef*%
G36*
G01*
X150251000Y-122820000D02*
X151501000Y-122820000D01*
G75*
G02*
X151751000Y-123070000I0J-250000D01*
G01*
X151751000Y-123870000D01*
G75*
G02*
X151501000Y-124120000I-250000J0D01*
G01*
X150251000Y-124120000D01*
G75*
G02*
X150001000Y-123870000I0J250000D01*
G01*
X150001000Y-123070000D01*
G75*
G02*
X150251000Y-122820000I250000J0D01*
G01*
G37*
%TD.AperFunction*%
%TO.P,R68,1*%
%TO.N,/LED Schematic/Branch4On*%
%TA.AperFunction,SMDPad,CuDef*%
G36*
G01*
X150251000Y-119720000D02*
X151501000Y-119720000D01*
G75*
G02*
X151751000Y-119970000I0J-250000D01*
G01*
X151751000Y-120770000D01*
G75*
G02*
X151501000Y-121020000I-250000J0D01*
G01*
X150251000Y-121020000D01*
G75*
G02*
X150001000Y-120770000I0J250000D01*
G01*
X150001000Y-119970000D01*
G75*
G02*
X150251000Y-119720000I250000J0D01*
G01*
G37*
%TD.AperFunction*%
%TD*%
%TO.P,R67,2*%
%TO.N,GND*%
%TA.AperFunction,SMDPad,CuDef*%
G36*
G01*
X136769000Y-120512000D02*
X135519000Y-120512000D01*
G75*
G02*
X135269000Y-120262000I0J250000D01*
G01*
X135269000Y-119462000D01*
G75*
G02*
X135519000Y-119212000I250000J0D01*
G01*
X136769000Y-119212000D01*
G75*
G02*
X137019000Y-119462000I0J-250000D01*
G01*
X137019000Y-120262000D01*
G75*
G02*
X136769000Y-120512000I-250000J0D01*
G01*
G37*
%TD.AperFunction*%
%TO.P,R67,1*%
%TO.N,/LED Schematic/Branch3On*%
%TA.AperFunction,SMDPad,CuDef*%
G36*
G01*
X136769000Y-123612000D02*
X135519000Y-123612000D01*
G75*
G02*
X135269000Y-123362000I0J250000D01*
G01*
X135269000Y-122562000D01*
G75*
G02*
X135519000Y-122312000I250000J0D01*
G01*
X136769000Y-122312000D01*
G75*
G02*
X137019000Y-122562000I0J-250000D01*
G01*
X137019000Y-123362000D01*
G75*
G02*
X136769000Y-123612000I-250000J0D01*
G01*
G37*
%TD.AperFunction*%
%TD*%
%TO.P,R66,2*%
%TO.N,GND*%
%TA.AperFunction,SMDPad,CuDef*%
G36*
G01*
X136769000Y-115432000D02*
X135519000Y-115432000D01*
G75*
G02*
X135269000Y-115182000I0J250000D01*
G01*
X135269000Y-114382000D01*
G75*
G02*
X135519000Y-114132000I250000J0D01*
G01*
X136769000Y-114132000D01*
G75*
G02*
X137019000Y-114382000I0J-250000D01*
G01*
X137019000Y-115182000D01*
G75*
G02*
X136769000Y-115432000I-250000J0D01*
G01*
G37*
%TD.AperFunction*%
%TO.P,R66,1*%
%TO.N,/LED Schematic/Branch2On*%
%TA.AperFunction,SMDPad,CuDef*%
G36*
G01*
X136769000Y-118532000D02*
X135519000Y-118532000D01*
G75*
G02*
X135269000Y-118282000I0J250000D01*
G01*
X135269000Y-117482000D01*
G75*
G02*
X135519000Y-117232000I250000J0D01*
G01*
X136769000Y-117232000D01*
G75*
G02*
X137019000Y-117482000I0J-250000D01*
G01*
X137019000Y-118282000D01*
G75*
G02*
X136769000Y-118532000I-250000J0D01*
G01*
G37*
%TD.AperFunction*%
%TD*%
%TO.P,R65,2*%
%TO.N,GND*%
%TA.AperFunction,SMDPad,CuDef*%
G36*
G01*
X150251000Y-117408000D02*
X151501000Y-117408000D01*
G75*
G02*
X151751000Y-117658000I0J-250000D01*
G01*
X151751000Y-118458000D01*
G75*
G02*
X151501000Y-118708000I-250000J0D01*
G01*
X150251000Y-118708000D01*
G75*
G02*
X150001000Y-118458000I0J250000D01*
G01*
X150001000Y-117658000D01*
G75*
G02*
X150251000Y-117408000I250000J0D01*
G01*
G37*
%TD.AperFunction*%
%TO.P,R65,1*%
%TO.N,/LED Schematic/Branch5On*%
%TA.AperFunction,SMDPad,CuDef*%
G36*
G01*
X150251000Y-114308000D02*
X151501000Y-114308000D01*
G75*
G02*
X151751000Y-114558000I0J-250000D01*
G01*
X151751000Y-115358000D01*
G75*
G02*
X151501000Y-115608000I-250000J0D01*
G01*
X150251000Y-115608000D01*
G75*
G02*
X150001000Y-115358000I0J250000D01*
G01*
X150001000Y-114558000D01*
G75*
G02*
X150251000Y-114308000I250000J0D01*
G01*
G37*
%TD.AperFunction*%
%TD*%
%TO.P,R64,2*%
%TO.N,GND*%
%TA.AperFunction,SMDPad,CuDef*%
G36*
G01*
X136769000Y-99710000D02*
X135519000Y-99710000D01*
G75*
G02*
X135269000Y-99460000I0J250000D01*
G01*
X135269000Y-98660000D01*
G75*
G02*
X135519000Y-98410000I250000J0D01*
G01*
X136769000Y-98410000D01*
G75*
G02*
X137019000Y-98660000I0J-250000D01*
G01*
X137019000Y-99460000D01*
G75*
G02*
X136769000Y-99710000I-250000J0D01*
G01*
G37*
%TD.AperFunction*%
%TO.P,R64,1*%
%TO.N,/LED Schematic/Branch1On*%
%TA.AperFunction,SMDPad,CuDef*%
G36*
G01*
X136769000Y-102810000D02*
X135519000Y-102810000D01*
G75*
G02*
X135269000Y-102560000I0J250000D01*
G01*
X135269000Y-101760000D01*
G75*
G02*
X135519000Y-101510000I250000J0D01*
G01*
X136769000Y-101510000D01*
G75*
G02*
X137019000Y-101760000I0J-250000D01*
G01*
X137019000Y-102560000D01*
G75*
G02*
X136769000Y-102810000I-250000J0D01*
G01*
G37*
%TD.AperFunction*%
%TD*%
D15*
%TO.P,U2,2*%
%TO.N,+5V*%
X141224000Y-84328000D03*
D16*
%TO.P,U2,3*%
%TO.N,+9V*%
X147524000Y-82048000D03*
%TO.P,U2,1*%
%TO.N,GND*%
X147524000Y-86608000D03*
%TD*%
D17*
%TO.P,U1,28*%
%TO.N,Net-(U1-Pad28)*%
X147320000Y-92456000D03*
%TO.P,U1,14*%
%TO.N,/Power + Other/Buzzer*%
X139700000Y-125476000D03*
%TO.P,U1,27*%
%TO.N,Net-(U1-Pad27)*%
X147320000Y-94996000D03*
%TO.P,U1,13*%
%TO.N,Net-(U1-Pad13)*%
X139700000Y-122936000D03*
%TO.P,U1,26*%
%TO.N,Net-(U1-Pad26)*%
X147320000Y-97536000D03*
%TO.P,U1,12*%
%TO.N,/LED Schematic/Branch3On*%
X139700000Y-120396000D03*
%TO.P,U1,25*%
%TO.N,Net-(U1-Pad25)*%
X147320000Y-100076000D03*
%TO.P,U1,11*%
%TO.N,/LED Schematic/Branch2On*%
X139700000Y-117856000D03*
%TO.P,U1,24*%
%TO.N,Net-(U1-Pad24)*%
X147320000Y-102616000D03*
%TO.P,U1,10*%
%TO.N,Net-(U1-Pad10)*%
X139700000Y-115316000D03*
%TO.P,U1,23*%
%TO.N,Net-(R1-Pad2)*%
X147320000Y-105156000D03*
%TO.P,U1,9*%
%TO.N,Net-(U1-Pad9)*%
X139700000Y-112776000D03*
%TO.P,U1,22*%
%TO.N,GND*%
X147320000Y-107696000D03*
%TO.P,U1,8*%
X139700000Y-110236000D03*
%TO.P,U1,21*%
%TO.N,+5V*%
X147320000Y-110236000D03*
%TO.P,U1,7*%
X139700000Y-107696000D03*
%TO.P,U1,20*%
X147320000Y-112776000D03*
%TO.P,U1,6*%
%TO.N,Net-(U1-Pad6)*%
X139700000Y-105156000D03*
%TO.P,U1,19*%
%TO.N,Net-(U1-Pad19)*%
X147320000Y-115316000D03*
%TO.P,U1,5*%
%TO.N,/LED Schematic/Branch1On*%
X139700000Y-102616000D03*
%TO.P,U1,18*%
%TO.N,Net-(U1-Pad18)*%
X147320000Y-117856000D03*
%TO.P,U1,4*%
%TO.N,Net-(U1-Pad4)*%
X139700000Y-100076000D03*
%TO.P,U1,17*%
%TO.N,/LED Schematic/Branch6On*%
X147320000Y-120396000D03*
%TO.P,U1,3*%
%TO.N,Net-(U1-Pad3)*%
X139700000Y-97536000D03*
%TO.P,U1,16*%
%TO.N,/LED Schematic/Branch5On*%
X147320000Y-122936000D03*
%TO.P,U1,2*%
%TO.N,Net-(U1-Pad2)*%
X139700000Y-94996000D03*
%TO.P,U1,15*%
%TO.N,/LED Schematic/Branch4On*%
X147320000Y-125476000D03*
D18*
%TO.P,U1,1*%
%TO.N,Net-(R25-Pad2)*%
X139700000Y-92456000D03*
%TD*%
D19*
%TO.P,S1,MH2*%
%TO.N,GND*%
X125984000Y-88904000D03*
%TO.P,S1,MH1*%
X125984000Y-80704000D03*
D20*
%TO.P,S1,3*%
%TO.N,Net-(S1-Pad3)*%
X125984000Y-86804000D03*
%TO.P,S1,2*%
%TO.N,+9V*%
X125984000Y-84804000D03*
%TO.P,S1,1*%
%TO.N,Net-(BT1-Pad1)*%
X125984000Y-82804000D03*
%TD*%
%TO.P,R63,2*%
%TO.N,Net-(D46-Pad2)*%
%TA.AperFunction,SMDPad,CuDef*%
G36*
G01*
X131206000Y-87259000D02*
X131206000Y-88509000D01*
G75*
G02*
X130956000Y-88759000I-250000J0D01*
G01*
X130156000Y-88759000D01*
G75*
G02*
X129906000Y-88509000I0J250000D01*
G01*
X129906000Y-87259000D01*
G75*
G02*
X130156000Y-87009000I250000J0D01*
G01*
X130956000Y-87009000D01*
G75*
G02*
X131206000Y-87259000I0J-250000D01*
G01*
G37*
%TD.AperFunction*%
%TO.P,R63,1*%
%TO.N,+5V*%
%TA.AperFunction,SMDPad,CuDef*%
G36*
G01*
X134306000Y-87259000D02*
X134306000Y-88509000D01*
G75*
G02*
X134056000Y-88759000I-250000J0D01*
G01*
X133256000Y-88759000D01*
G75*
G02*
X133006000Y-88509000I0J250000D01*
G01*
X133006000Y-87259000D01*
G75*
G02*
X133256000Y-87009000I250000J0D01*
G01*
X134056000Y-87009000D01*
G75*
G02*
X134306000Y-87259000I0J-250000D01*
G01*
G37*
%TD.AperFunction*%
%TD*%
%TO.P,R62,2*%
%TO.N,Net-(D46-Pad2)*%
%TA.AperFunction,SMDPad,CuDef*%
G36*
G01*
X131180000Y-89799000D02*
X131180000Y-91049000D01*
G75*
G02*
X130930000Y-91299000I-250000J0D01*
G01*
X130130000Y-91299000D01*
G75*
G02*
X129880000Y-91049000I0J250000D01*
G01*
X129880000Y-89799000D01*
G75*
G02*
X130130000Y-89549000I250000J0D01*
G01*
X130930000Y-89549000D01*
G75*
G02*
X131180000Y-89799000I0J-250000D01*
G01*
G37*
%TD.AperFunction*%
%TO.P,R62,1*%
%TO.N,+5V*%
%TA.AperFunction,SMDPad,CuDef*%
G36*
G01*
X134280000Y-89799000D02*
X134280000Y-91049000D01*
G75*
G02*
X134030000Y-91299000I-250000J0D01*
G01*
X133230000Y-91299000D01*
G75*
G02*
X132980000Y-91049000I0J250000D01*
G01*
X132980000Y-89799000D01*
G75*
G02*
X133230000Y-89549000I250000J0D01*
G01*
X134030000Y-89549000D01*
G75*
G02*
X134280000Y-89799000I0J-250000D01*
G01*
G37*
%TD.AperFunction*%
%TD*%
%TO.P,R61,2*%
%TO.N,Net-(D46-Pad2)*%
%TA.AperFunction,SMDPad,CuDef*%
G36*
G01*
X131180000Y-92339000D02*
X131180000Y-93589000D01*
G75*
G02*
X130930000Y-93839000I-250000J0D01*
G01*
X130130000Y-93839000D01*
G75*
G02*
X129880000Y-93589000I0J250000D01*
G01*
X129880000Y-92339000D01*
G75*
G02*
X130130000Y-92089000I250000J0D01*
G01*
X130930000Y-92089000D01*
G75*
G02*
X131180000Y-92339000I0J-250000D01*
G01*
G37*
%TD.AperFunction*%
%TO.P,R61,1*%
%TO.N,+5V*%
%TA.AperFunction,SMDPad,CuDef*%
G36*
G01*
X134280000Y-92339000D02*
X134280000Y-93589000D01*
G75*
G02*
X134030000Y-93839000I-250000J0D01*
G01*
X133230000Y-93839000D01*
G75*
G02*
X132980000Y-93589000I0J250000D01*
G01*
X132980000Y-92339000D01*
G75*
G02*
X133230000Y-92089000I250000J0D01*
G01*
X134030000Y-92089000D01*
G75*
G02*
X134280000Y-92339000I0J-250000D01*
G01*
G37*
%TD.AperFunction*%
%TD*%
%TO.P,R60,2*%
%TO.N,Net-(D49-Pad1)*%
%TA.AperFunction,SMDPad,CuDef*%
G36*
G01*
X94880000Y-72253000D02*
X94880000Y-71003000D01*
G75*
G02*
X95130000Y-70753000I250000J0D01*
G01*
X95930000Y-70753000D01*
G75*
G02*
X96180000Y-71003000I0J-250000D01*
G01*
X96180000Y-72253000D01*
G75*
G02*
X95930000Y-72503000I-250000J0D01*
G01*
X95130000Y-72503000D01*
G75*
G02*
X94880000Y-72253000I0J250000D01*
G01*
G37*
%TD.AperFunction*%
%TO.P,R60,1*%
%TO.N,Net-(D48-Pad1)*%
%TA.AperFunction,SMDPad,CuDef*%
G36*
G01*
X91780000Y-72253000D02*
X91780000Y-71003000D01*
G75*
G02*
X92030000Y-70753000I250000J0D01*
G01*
X92830000Y-70753000D01*
G75*
G02*
X93080000Y-71003000I0J-250000D01*
G01*
X93080000Y-72253000D01*
G75*
G02*
X92830000Y-72503000I-250000J0D01*
G01*
X92030000Y-72503000D01*
G75*
G02*
X91780000Y-72253000I0J250000D01*
G01*
G37*
%TD.AperFunction*%
%TD*%
%TO.P,R59,2*%
%TO.N,Net-(D49-Pad1)*%
%TA.AperFunction,SMDPad,CuDef*%
G36*
G01*
X139309000Y-154548000D02*
X138059000Y-154548000D01*
G75*
G02*
X137809000Y-154298000I0J250000D01*
G01*
X137809000Y-153498000D01*
G75*
G02*
X138059000Y-153248000I250000J0D01*
G01*
X139309000Y-153248000D01*
G75*
G02*
X139559000Y-153498000I0J-250000D01*
G01*
X139559000Y-154298000D01*
G75*
G02*
X139309000Y-154548000I-250000J0D01*
G01*
G37*
%TD.AperFunction*%
%TO.P,R59,1*%
%TO.N,Net-(D45-Pad1)*%
%TA.AperFunction,SMDPad,CuDef*%
G36*
G01*
X139309000Y-157648000D02*
X138059000Y-157648000D01*
G75*
G02*
X137809000Y-157398000I0J250000D01*
G01*
X137809000Y-156598000D01*
G75*
G02*
X138059000Y-156348000I250000J0D01*
G01*
X139309000Y-156348000D01*
G75*
G02*
X139559000Y-156598000I0J-250000D01*
G01*
X139559000Y-157398000D01*
G75*
G02*
X139309000Y-157648000I-250000J0D01*
G01*
G37*
%TD.AperFunction*%
%TD*%
%TO.P,R55,2*%
%TO.N,Net-(D49-Pad1)*%
%TA.AperFunction,SMDPad,CuDef*%
G36*
G01*
X180732000Y-114925000D02*
X180732000Y-113675000D01*
G75*
G02*
X180982000Y-113425000I250000J0D01*
G01*
X181782000Y-113425000D01*
G75*
G02*
X182032000Y-113675000I0J-250000D01*
G01*
X182032000Y-114925000D01*
G75*
G02*
X181782000Y-115175000I-250000J0D01*
G01*
X180982000Y-115175000D01*
G75*
G02*
X180732000Y-114925000I0J250000D01*
G01*
G37*
%TD.AperFunction*%
%TO.P,R55,1*%
%TO.N,Net-(D47-Pad1)*%
%TA.AperFunction,SMDPad,CuDef*%
G36*
G01*
X177632000Y-114925000D02*
X177632000Y-113675000D01*
G75*
G02*
X177882000Y-113425000I250000J0D01*
G01*
X178682000Y-113425000D01*
G75*
G02*
X178932000Y-113675000I0J-250000D01*
G01*
X178932000Y-114925000D01*
G75*
G02*
X178682000Y-115175000I-250000J0D01*
G01*
X177882000Y-115175000D01*
G75*
G02*
X177632000Y-114925000I0J250000D01*
G01*
G37*
%TD.AperFunction*%
%TD*%
%TO.P,R54,2*%
%TO.N,Net-(D49-Pad1)*%
%TA.AperFunction,SMDPad,CuDef*%
G36*
G01*
X178192000Y-132197000D02*
X178192000Y-130947000D01*
G75*
G02*
X178442000Y-130697000I250000J0D01*
G01*
X179242000Y-130697000D01*
G75*
G02*
X179492000Y-130947000I0J-250000D01*
G01*
X179492000Y-132197000D01*
G75*
G02*
X179242000Y-132447000I-250000J0D01*
G01*
X178442000Y-132447000D01*
G75*
G02*
X178192000Y-132197000I0J250000D01*
G01*
G37*
%TD.AperFunction*%
%TO.P,R54,1*%
%TO.N,Net-(D43-Pad1)*%
%TA.AperFunction,SMDPad,CuDef*%
G36*
G01*
X175092000Y-132197000D02*
X175092000Y-130947000D01*
G75*
G02*
X175342000Y-130697000I250000J0D01*
G01*
X176142000Y-130697000D01*
G75*
G02*
X176392000Y-130947000I0J-250000D01*
G01*
X176392000Y-132197000D01*
G75*
G02*
X176142000Y-132447000I-250000J0D01*
G01*
X175342000Y-132447000D01*
G75*
G02*
X175092000Y-132197000I0J250000D01*
G01*
G37*
%TD.AperFunction*%
%TD*%
%TO.P,R53,2*%
%TO.N,Net-(D49-Pad1)*%
%TA.AperFunction,SMDPad,CuDef*%
G36*
G01*
X182996000Y-75575000D02*
X182996000Y-76825000D01*
G75*
G02*
X182746000Y-77075000I-250000J0D01*
G01*
X181946000Y-77075000D01*
G75*
G02*
X181696000Y-76825000I0J250000D01*
G01*
X181696000Y-75575000D01*
G75*
G02*
X181946000Y-75325000I250000J0D01*
G01*
X182746000Y-75325000D01*
G75*
G02*
X182996000Y-75575000I0J-250000D01*
G01*
G37*
%TD.AperFunction*%
%TO.P,R53,1*%
%TO.N,Net-(D42-Pad1)*%
%TA.AperFunction,SMDPad,CuDef*%
G36*
G01*
X186096000Y-75575000D02*
X186096000Y-76825000D01*
G75*
G02*
X185846000Y-77075000I-250000J0D01*
G01*
X185046000Y-77075000D01*
G75*
G02*
X184796000Y-76825000I0J250000D01*
G01*
X184796000Y-75575000D01*
G75*
G02*
X185046000Y-75325000I250000J0D01*
G01*
X185846000Y-75325000D01*
G75*
G02*
X186096000Y-75575000I0J-250000D01*
G01*
G37*
%TD.AperFunction*%
%TD*%
%TO.P,R52,2*%
%TO.N,Net-(D49-Pad1)*%
%TA.AperFunction,SMDPad,CuDef*%
G36*
G01*
X139075000Y-44054000D02*
X140325000Y-44054000D01*
G75*
G02*
X140575000Y-44304000I0J-250000D01*
G01*
X140575000Y-45104000D01*
G75*
G02*
X140325000Y-45354000I-250000J0D01*
G01*
X139075000Y-45354000D01*
G75*
G02*
X138825000Y-45104000I0J250000D01*
G01*
X138825000Y-44304000D01*
G75*
G02*
X139075000Y-44054000I250000J0D01*
G01*
G37*
%TD.AperFunction*%
%TO.P,R52,1*%
%TO.N,Net-(D41-Pad1)*%
%TA.AperFunction,SMDPad,CuDef*%
G36*
G01*
X139075000Y-40954000D02*
X140325000Y-40954000D01*
G75*
G02*
X140575000Y-41204000I0J-250000D01*
G01*
X140575000Y-42004000D01*
G75*
G02*
X140325000Y-42254000I-250000J0D01*
G01*
X139075000Y-42254000D01*
G75*
G02*
X138825000Y-42004000I0J250000D01*
G01*
X138825000Y-41204000D01*
G75*
G02*
X139075000Y-40954000I250000J0D01*
G01*
G37*
%TD.AperFunction*%
%TD*%
%TO.P,R51,2*%
%TO.N,Net-(D36-Pad2)*%
%TA.AperFunction,SMDPad,CuDef*%
G36*
G01*
X196205000Y-133212000D02*
X194955000Y-133212000D01*
G75*
G02*
X194705000Y-132962000I0J250000D01*
G01*
X194705000Y-132162000D01*
G75*
G02*
X194955000Y-131912000I250000J0D01*
G01*
X196205000Y-131912000D01*
G75*
G02*
X196455000Y-132162000I0J-250000D01*
G01*
X196455000Y-132962000D01*
G75*
G02*
X196205000Y-133212000I-250000J0D01*
G01*
G37*
%TD.AperFunction*%
%TO.P,R51,1*%
%TO.N,+5V*%
%TA.AperFunction,SMDPad,CuDef*%
G36*
G01*
X196205000Y-136312000D02*
X194955000Y-136312000D01*
G75*
G02*
X194705000Y-136062000I0J250000D01*
G01*
X194705000Y-135262000D01*
G75*
G02*
X194955000Y-135012000I250000J0D01*
G01*
X196205000Y-135012000D01*
G75*
G02*
X196455000Y-135262000I0J-250000D01*
G01*
X196455000Y-136062000D01*
G75*
G02*
X196205000Y-136312000I-250000J0D01*
G01*
G37*
%TD.AperFunction*%
%TD*%
%TO.P,R50,2*%
%TO.N,Net-(D36-Pad2)*%
%TA.AperFunction,SMDPad,CuDef*%
G36*
G01*
X198745000Y-133212000D02*
X197495000Y-133212000D01*
G75*
G02*
X197245000Y-132962000I0J250000D01*
G01*
X197245000Y-132162000D01*
G75*
G02*
X197495000Y-131912000I250000J0D01*
G01*
X198745000Y-131912000D01*
G75*
G02*
X198995000Y-132162000I0J-250000D01*
G01*
X198995000Y-132962000D01*
G75*
G02*
X198745000Y-133212000I-250000J0D01*
G01*
G37*
%TD.AperFunction*%
%TO.P,R50,1*%
%TO.N,+5V*%
%TA.AperFunction,SMDPad,CuDef*%
G36*
G01*
X198745000Y-136312000D02*
X197495000Y-136312000D01*
G75*
G02*
X197245000Y-136062000I0J250000D01*
G01*
X197245000Y-135262000D01*
G75*
G02*
X197495000Y-135012000I250000J0D01*
G01*
X198745000Y-135012000D01*
G75*
G02*
X198995000Y-135262000I0J-250000D01*
G01*
X198995000Y-136062000D01*
G75*
G02*
X198745000Y-136312000I-250000J0D01*
G01*
G37*
%TD.AperFunction*%
%TD*%
%TO.P,R49,2*%
%TO.N,Net-(D36-Pad2)*%
%TA.AperFunction,SMDPad,CuDef*%
G36*
G01*
X201285000Y-133212000D02*
X200035000Y-133212000D01*
G75*
G02*
X199785000Y-132962000I0J250000D01*
G01*
X199785000Y-132162000D01*
G75*
G02*
X200035000Y-131912000I250000J0D01*
G01*
X201285000Y-131912000D01*
G75*
G02*
X201535000Y-132162000I0J-250000D01*
G01*
X201535000Y-132962000D01*
G75*
G02*
X201285000Y-133212000I-250000J0D01*
G01*
G37*
%TD.AperFunction*%
%TO.P,R49,1*%
%TO.N,+5V*%
%TA.AperFunction,SMDPad,CuDef*%
G36*
G01*
X201285000Y-136312000D02*
X200035000Y-136312000D01*
G75*
G02*
X199785000Y-136062000I0J250000D01*
G01*
X199785000Y-135262000D01*
G75*
G02*
X200035000Y-135012000I250000J0D01*
G01*
X201285000Y-135012000D01*
G75*
G02*
X201535000Y-135262000I0J-250000D01*
G01*
X201535000Y-136062000D01*
G75*
G02*
X201285000Y-136312000I-250000J0D01*
G01*
G37*
%TD.AperFunction*%
%TD*%
%TO.P,R48,2*%
%TO.N,Net-(D39-Pad1)*%
%TA.AperFunction,SMDPad,CuDef*%
G36*
G01*
X172122000Y-80381000D02*
X172122000Y-79131000D01*
G75*
G02*
X172372000Y-78881000I250000J0D01*
G01*
X173172000Y-78881000D01*
G75*
G02*
X173422000Y-79131000I0J-250000D01*
G01*
X173422000Y-80381000D01*
G75*
G02*
X173172000Y-80631000I-250000J0D01*
G01*
X172372000Y-80631000D01*
G75*
G02*
X172122000Y-80381000I0J250000D01*
G01*
G37*
%TD.AperFunction*%
%TO.P,R48,1*%
%TO.N,Net-(D38-Pad1)*%
%TA.AperFunction,SMDPad,CuDef*%
G36*
G01*
X169022000Y-80381000D02*
X169022000Y-79131000D01*
G75*
G02*
X169272000Y-78881000I250000J0D01*
G01*
X170072000Y-78881000D01*
G75*
G02*
X170322000Y-79131000I0J-250000D01*
G01*
X170322000Y-80381000D01*
G75*
G02*
X170072000Y-80631000I-250000J0D01*
G01*
X169272000Y-80631000D01*
G75*
G02*
X169022000Y-80381000I0J250000D01*
G01*
G37*
%TD.AperFunction*%
%TD*%
%TO.P,R47,2*%
%TO.N,Net-(D39-Pad1)*%
%TA.AperFunction,SMDPad,CuDef*%
G36*
G01*
X198744000Y-62875000D02*
X198744000Y-64125000D01*
G75*
G02*
X198494000Y-64375000I-250000J0D01*
G01*
X197694000Y-64375000D01*
G75*
G02*
X197444000Y-64125000I0J250000D01*
G01*
X197444000Y-62875000D01*
G75*
G02*
X197694000Y-62625000I250000J0D01*
G01*
X198494000Y-62625000D01*
G75*
G02*
X198744000Y-62875000I0J-250000D01*
G01*
G37*
%TD.AperFunction*%
%TO.P,R47,1*%
%TO.N,Net-(D35-Pad1)*%
%TA.AperFunction,SMDPad,CuDef*%
G36*
G01*
X201844000Y-62875000D02*
X201844000Y-64125000D01*
G75*
G02*
X201594000Y-64375000I-250000J0D01*
G01*
X200794000Y-64375000D01*
G75*
G02*
X200544000Y-64125000I0J250000D01*
G01*
X200544000Y-62875000D01*
G75*
G02*
X200794000Y-62625000I250000J0D01*
G01*
X201594000Y-62625000D01*
G75*
G02*
X201844000Y-62875000I0J-250000D01*
G01*
G37*
%TD.AperFunction*%
%TD*%
%TO.P,R46,2*%
%TO.N,Net-(D34-Pad2)*%
%TA.AperFunction,SMDPad,CuDef*%
G36*
G01*
X145172000Y-48377000D02*
X145172000Y-47127000D01*
G75*
G02*
X145422000Y-46877000I250000J0D01*
G01*
X146222000Y-46877000D01*
G75*
G02*
X146472000Y-47127000I0J-250000D01*
G01*
X146472000Y-48377000D01*
G75*
G02*
X146222000Y-48627000I-250000J0D01*
G01*
X145422000Y-48627000D01*
G75*
G02*
X145172000Y-48377000I0J250000D01*
G01*
G37*
%TD.AperFunction*%
%TO.P,R46,1*%
%TO.N,+5V*%
%TA.AperFunction,SMDPad,CuDef*%
G36*
G01*
X142072000Y-48377000D02*
X142072000Y-47127000D01*
G75*
G02*
X142322000Y-46877000I250000J0D01*
G01*
X143122000Y-46877000D01*
G75*
G02*
X143372000Y-47127000I0J-250000D01*
G01*
X143372000Y-48377000D01*
G75*
G02*
X143122000Y-48627000I-250000J0D01*
G01*
X142322000Y-48627000D01*
G75*
G02*
X142072000Y-48377000I0J250000D01*
G01*
G37*
%TD.AperFunction*%
%TD*%
%TO.P,R44,2*%
%TO.N,Net-(D34-Pad2)*%
%TA.AperFunction,SMDPad,CuDef*%
G36*
G01*
X145146000Y-53457000D02*
X145146000Y-52207000D01*
G75*
G02*
X145396000Y-51957000I250000J0D01*
G01*
X146196000Y-51957000D01*
G75*
G02*
X146446000Y-52207000I0J-250000D01*
G01*
X146446000Y-53457000D01*
G75*
G02*
X146196000Y-53707000I-250000J0D01*
G01*
X145396000Y-53707000D01*
G75*
G02*
X145146000Y-53457000I0J250000D01*
G01*
G37*
%TD.AperFunction*%
%TO.P,R44,1*%
%TO.N,+5V*%
%TA.AperFunction,SMDPad,CuDef*%
G36*
G01*
X142046000Y-53457000D02*
X142046000Y-52207000D01*
G75*
G02*
X142296000Y-51957000I250000J0D01*
G01*
X143096000Y-51957000D01*
G75*
G02*
X143346000Y-52207000I0J-250000D01*
G01*
X143346000Y-53457000D01*
G75*
G02*
X143096000Y-53707000I-250000J0D01*
G01*
X142296000Y-53707000D01*
G75*
G02*
X142046000Y-53457000I0J250000D01*
G01*
G37*
%TD.AperFunction*%
%TD*%
%TO.P,R43,2*%
%TO.N,Net-(D39-Pad1)*%
%TA.AperFunction,SMDPad,CuDef*%
G36*
G01*
X108088000Y-85461000D02*
X108088000Y-84211000D01*
G75*
G02*
X108338000Y-83961000I250000J0D01*
G01*
X109138000Y-83961000D01*
G75*
G02*
X109388000Y-84211000I0J-250000D01*
G01*
X109388000Y-85461000D01*
G75*
G02*
X109138000Y-85711000I-250000J0D01*
G01*
X108338000Y-85711000D01*
G75*
G02*
X108088000Y-85461000I0J250000D01*
G01*
G37*
%TD.AperFunction*%
%TO.P,R43,1*%
%TO.N,Net-(D37-Pad1)*%
%TA.AperFunction,SMDPad,CuDef*%
G36*
G01*
X104988000Y-85461000D02*
X104988000Y-84211000D01*
G75*
G02*
X105238000Y-83961000I250000J0D01*
G01*
X106038000Y-83961000D01*
G75*
G02*
X106288000Y-84211000I0J-250000D01*
G01*
X106288000Y-85461000D01*
G75*
G02*
X106038000Y-85711000I-250000J0D01*
G01*
X105238000Y-85711000D01*
G75*
G02*
X104988000Y-85461000I0J250000D01*
G01*
G37*
%TD.AperFunction*%
%TD*%
%TO.P,R42,2*%
%TO.N,Net-(D39-Pad1)*%
%TA.AperFunction,SMDPad,CuDef*%
G36*
G01*
X83429000Y-69712000D02*
X82179000Y-69712000D01*
G75*
G02*
X81929000Y-69462000I0J250000D01*
G01*
X81929000Y-68662000D01*
G75*
G02*
X82179000Y-68412000I250000J0D01*
G01*
X83429000Y-68412000D01*
G75*
G02*
X83679000Y-68662000I0J-250000D01*
G01*
X83679000Y-69462000D01*
G75*
G02*
X83429000Y-69712000I-250000J0D01*
G01*
G37*
%TD.AperFunction*%
%TO.P,R42,1*%
%TO.N,Net-(D33-Pad1)*%
%TA.AperFunction,SMDPad,CuDef*%
G36*
G01*
X83429000Y-72812000D02*
X82179000Y-72812000D01*
G75*
G02*
X81929000Y-72562000I0J250000D01*
G01*
X81929000Y-71762000D01*
G75*
G02*
X82179000Y-71512000I250000J0D01*
G01*
X83429000Y-71512000D01*
G75*
G02*
X83679000Y-71762000I0J-250000D01*
G01*
X83679000Y-72562000D01*
G75*
G02*
X83429000Y-72812000I-250000J0D01*
G01*
G37*
%TD.AperFunction*%
%TD*%
%TO.P,R41,2*%
%TO.N,Net-(D39-Pad1)*%
%TA.AperFunction,SMDPad,CuDef*%
G36*
G01*
X104050000Y-114417000D02*
X104050000Y-113167000D01*
G75*
G02*
X104300000Y-112917000I250000J0D01*
G01*
X105100000Y-112917000D01*
G75*
G02*
X105350000Y-113167000I0J-250000D01*
G01*
X105350000Y-114417000D01*
G75*
G02*
X105100000Y-114667000I-250000J0D01*
G01*
X104300000Y-114667000D01*
G75*
G02*
X104050000Y-114417000I0J250000D01*
G01*
G37*
%TD.AperFunction*%
%TO.P,R41,1*%
%TO.N,Net-(D32-Pad1)*%
%TA.AperFunction,SMDPad,CuDef*%
G36*
G01*
X100950000Y-114417000D02*
X100950000Y-113167000D01*
G75*
G02*
X101200000Y-112917000I250000J0D01*
G01*
X102000000Y-112917000D01*
G75*
G02*
X102250000Y-113167000I0J-250000D01*
G01*
X102250000Y-114417000D01*
G75*
G02*
X102000000Y-114667000I-250000J0D01*
G01*
X101200000Y-114667000D01*
G75*
G02*
X100950000Y-114417000I0J250000D01*
G01*
G37*
%TD.AperFunction*%
%TD*%
%TO.P,R40,2*%
%TO.N,Net-(D39-Pad1)*%
%TA.AperFunction,SMDPad,CuDef*%
G36*
G01*
X87260000Y-134229000D02*
X87260000Y-132979000D01*
G75*
G02*
X87510000Y-132729000I250000J0D01*
G01*
X88310000Y-132729000D01*
G75*
G02*
X88560000Y-132979000I0J-250000D01*
G01*
X88560000Y-134229000D01*
G75*
G02*
X88310000Y-134479000I-250000J0D01*
G01*
X87510000Y-134479000D01*
G75*
G02*
X87260000Y-134229000I0J250000D01*
G01*
G37*
%TD.AperFunction*%
%TO.P,R40,1*%
%TO.N,Net-(D31-Pad1)*%
%TA.AperFunction,SMDPad,CuDef*%
G36*
G01*
X84160000Y-134229000D02*
X84160000Y-132979000D01*
G75*
G02*
X84410000Y-132729000I250000J0D01*
G01*
X85210000Y-132729000D01*
G75*
G02*
X85460000Y-132979000I0J-250000D01*
G01*
X85460000Y-134229000D01*
G75*
G02*
X85210000Y-134479000I-250000J0D01*
G01*
X84410000Y-134479000D01*
G75*
G02*
X84160000Y-134229000I0J250000D01*
G01*
G37*
%TD.AperFunction*%
%TD*%
%TO.P,R39,2*%
%TO.N,Net-(D26-Pad2)*%
%TA.AperFunction,SMDPad,CuDef*%
G36*
G01*
X85969000Y-62092000D02*
X84719000Y-62092000D01*
G75*
G02*
X84469000Y-61842000I0J250000D01*
G01*
X84469000Y-61042000D01*
G75*
G02*
X84719000Y-60792000I250000J0D01*
G01*
X85969000Y-60792000D01*
G75*
G02*
X86219000Y-61042000I0J-250000D01*
G01*
X86219000Y-61842000D01*
G75*
G02*
X85969000Y-62092000I-250000J0D01*
G01*
G37*
%TD.AperFunction*%
%TO.P,R39,1*%
%TO.N,+5V*%
%TA.AperFunction,SMDPad,CuDef*%
G36*
G01*
X85969000Y-65192000D02*
X84719000Y-65192000D01*
G75*
G02*
X84469000Y-64942000I0J250000D01*
G01*
X84469000Y-64142000D01*
G75*
G02*
X84719000Y-63892000I250000J0D01*
G01*
X85969000Y-63892000D01*
G75*
G02*
X86219000Y-64142000I0J-250000D01*
G01*
X86219000Y-64942000D01*
G75*
G02*
X85969000Y-65192000I-250000J0D01*
G01*
G37*
%TD.AperFunction*%
%TD*%
%TO.P,R38,2*%
%TO.N,Net-(D26-Pad2)*%
%TA.AperFunction,SMDPad,CuDef*%
G36*
G01*
X88509000Y-62092000D02*
X87259000Y-62092000D01*
G75*
G02*
X87009000Y-61842000I0J250000D01*
G01*
X87009000Y-61042000D01*
G75*
G02*
X87259000Y-60792000I250000J0D01*
G01*
X88509000Y-60792000D01*
G75*
G02*
X88759000Y-61042000I0J-250000D01*
G01*
X88759000Y-61842000D01*
G75*
G02*
X88509000Y-62092000I-250000J0D01*
G01*
G37*
%TD.AperFunction*%
%TO.P,R38,1*%
%TO.N,+5V*%
%TA.AperFunction,SMDPad,CuDef*%
G36*
G01*
X88509000Y-65192000D02*
X87259000Y-65192000D01*
G75*
G02*
X87009000Y-64942000I0J250000D01*
G01*
X87009000Y-64142000D01*
G75*
G02*
X87259000Y-63892000I250000J0D01*
G01*
X88509000Y-63892000D01*
G75*
G02*
X88759000Y-64142000I0J-250000D01*
G01*
X88759000Y-64942000D01*
G75*
G02*
X88509000Y-65192000I-250000J0D01*
G01*
G37*
%TD.AperFunction*%
%TD*%
%TO.P,R37,2*%
%TO.N,Net-(D26-Pad2)*%
%TA.AperFunction,SMDPad,CuDef*%
G36*
G01*
X91049000Y-62092000D02*
X89799000Y-62092000D01*
G75*
G02*
X89549000Y-61842000I0J250000D01*
G01*
X89549000Y-61042000D01*
G75*
G02*
X89799000Y-60792000I250000J0D01*
G01*
X91049000Y-60792000D01*
G75*
G02*
X91299000Y-61042000I0J-250000D01*
G01*
X91299000Y-61842000D01*
G75*
G02*
X91049000Y-62092000I-250000J0D01*
G01*
G37*
%TD.AperFunction*%
%TO.P,R37,1*%
%TO.N,+5V*%
%TA.AperFunction,SMDPad,CuDef*%
G36*
G01*
X91049000Y-65192000D02*
X89799000Y-65192000D01*
G75*
G02*
X89549000Y-64942000I0J250000D01*
G01*
X89549000Y-64142000D01*
G75*
G02*
X89799000Y-63892000I250000J0D01*
G01*
X91049000Y-63892000D01*
G75*
G02*
X91299000Y-64142000I0J-250000D01*
G01*
X91299000Y-64942000D01*
G75*
G02*
X91049000Y-65192000I-250000J0D01*
G01*
G37*
%TD.AperFunction*%
%TD*%
%TO.P,R36,2*%
%TO.N,Net-(D29-Pad1)*%
%TA.AperFunction,SMDPad,CuDef*%
G36*
G01*
X143647000Y-57822000D02*
X144897000Y-57822000D01*
G75*
G02*
X145147000Y-58072000I0J-250000D01*
G01*
X145147000Y-58872000D01*
G75*
G02*
X144897000Y-59122000I-250000J0D01*
G01*
X143647000Y-59122000D01*
G75*
G02*
X143397000Y-58872000I0J250000D01*
G01*
X143397000Y-58072000D01*
G75*
G02*
X143647000Y-57822000I250000J0D01*
G01*
G37*
%TD.AperFunction*%
%TO.P,R36,1*%
%TO.N,Net-(D28-Pad1)*%
%TA.AperFunction,SMDPad,CuDef*%
G36*
G01*
X143647000Y-54722000D02*
X144897000Y-54722000D01*
G75*
G02*
X145147000Y-54972000I0J-250000D01*
G01*
X145147000Y-55772000D01*
G75*
G02*
X144897000Y-56022000I-250000J0D01*
G01*
X143647000Y-56022000D01*
G75*
G02*
X143397000Y-55772000I0J250000D01*
G01*
X143397000Y-54972000D01*
G75*
G02*
X143647000Y-54722000I250000J0D01*
G01*
G37*
%TD.AperFunction*%
%TD*%
%TO.P,R35,2*%
%TO.N,Net-(D29-Pad1)*%
%TA.AperFunction,SMDPad,CuDef*%
G36*
G01*
X83196000Y-124577000D02*
X83196000Y-123327000D01*
G75*
G02*
X83446000Y-123077000I250000J0D01*
G01*
X84246000Y-123077000D01*
G75*
G02*
X84496000Y-123327000I0J-250000D01*
G01*
X84496000Y-124577000D01*
G75*
G02*
X84246000Y-124827000I-250000J0D01*
G01*
X83446000Y-124827000D01*
G75*
G02*
X83196000Y-124577000I0J250000D01*
G01*
G37*
%TD.AperFunction*%
%TO.P,R35,1*%
%TO.N,Net-(D25-Pad1)*%
%TA.AperFunction,SMDPad,CuDef*%
G36*
G01*
X80096000Y-124577000D02*
X80096000Y-123327000D01*
G75*
G02*
X80346000Y-123077000I250000J0D01*
G01*
X81146000Y-123077000D01*
G75*
G02*
X81396000Y-123327000I0J-250000D01*
G01*
X81396000Y-124577000D01*
G75*
G02*
X81146000Y-124827000I-250000J0D01*
G01*
X80346000Y-124827000D01*
G75*
G02*
X80096000Y-124577000I0J250000D01*
G01*
G37*
%TD.AperFunction*%
%TD*%
%TO.P,R31,2*%
%TO.N,Net-(D29-Pad1)*%
%TA.AperFunction,SMDPad,CuDef*%
G36*
G01*
X176186000Y-121529000D02*
X176186000Y-120279000D01*
G75*
G02*
X176436000Y-120029000I250000J0D01*
G01*
X177236000Y-120029000D01*
G75*
G02*
X177486000Y-120279000I0J-250000D01*
G01*
X177486000Y-121529000D01*
G75*
G02*
X177236000Y-121779000I-250000J0D01*
G01*
X176436000Y-121779000D01*
G75*
G02*
X176186000Y-121529000I0J250000D01*
G01*
G37*
%TD.AperFunction*%
%TO.P,R31,1*%
%TO.N,Net-(D27-Pad1)*%
%TA.AperFunction,SMDPad,CuDef*%
G36*
G01*
X173086000Y-121529000D02*
X173086000Y-120279000D01*
G75*
G02*
X173336000Y-120029000I250000J0D01*
G01*
X174136000Y-120029000D01*
G75*
G02*
X174386000Y-120279000I0J-250000D01*
G01*
X174386000Y-121529000D01*
G75*
G02*
X174136000Y-121779000I-250000J0D01*
G01*
X173336000Y-121779000D01*
G75*
G02*
X173086000Y-121529000I0J250000D01*
G01*
G37*
%TD.AperFunction*%
%TD*%
%TO.P,R30,2*%
%TO.N,Net-(D29-Pad1)*%
%TA.AperFunction,SMDPad,CuDef*%
G36*
G01*
X201051000Y-127366000D02*
X202301000Y-127366000D01*
G75*
G02*
X202551000Y-127616000I0J-250000D01*
G01*
X202551000Y-128416000D01*
G75*
G02*
X202301000Y-128666000I-250000J0D01*
G01*
X201051000Y-128666000D01*
G75*
G02*
X200801000Y-128416000I0J250000D01*
G01*
X200801000Y-127616000D01*
G75*
G02*
X201051000Y-127366000I250000J0D01*
G01*
G37*
%TD.AperFunction*%
%TO.P,R30,1*%
%TO.N,Net-(D23-Pad1)*%
%TA.AperFunction,SMDPad,CuDef*%
G36*
G01*
X201051000Y-124266000D02*
X202301000Y-124266000D01*
G75*
G02*
X202551000Y-124516000I0J-250000D01*
G01*
X202551000Y-125316000D01*
G75*
G02*
X202301000Y-125566000I-250000J0D01*
G01*
X201051000Y-125566000D01*
G75*
G02*
X200801000Y-125316000I0J250000D01*
G01*
X200801000Y-124516000D01*
G75*
G02*
X201051000Y-124266000I250000J0D01*
G01*
G37*
%TD.AperFunction*%
%TD*%
%TO.P,R29,2*%
%TO.N,Net-(D29-Pad1)*%
%TA.AperFunction,SMDPad,CuDef*%
G36*
G01*
X180732000Y-84953000D02*
X180732000Y-83703000D01*
G75*
G02*
X180982000Y-83453000I250000J0D01*
G01*
X181782000Y-83453000D01*
G75*
G02*
X182032000Y-83703000I0J-250000D01*
G01*
X182032000Y-84953000D01*
G75*
G02*
X181782000Y-85203000I-250000J0D01*
G01*
X180982000Y-85203000D01*
G75*
G02*
X180732000Y-84953000I0J250000D01*
G01*
G37*
%TD.AperFunction*%
%TO.P,R29,1*%
%TO.N,Net-(D22-Pad1)*%
%TA.AperFunction,SMDPad,CuDef*%
G36*
G01*
X177632000Y-84953000D02*
X177632000Y-83703000D01*
G75*
G02*
X177882000Y-83453000I250000J0D01*
G01*
X178682000Y-83453000D01*
G75*
G02*
X178932000Y-83703000I0J-250000D01*
G01*
X178932000Y-84953000D01*
G75*
G02*
X178682000Y-85203000I-250000J0D01*
G01*
X177882000Y-85203000D01*
G75*
G02*
X177632000Y-84953000I0J250000D01*
G01*
G37*
%TD.AperFunction*%
%TD*%
%TO.P,R28,2*%
%TO.N,Net-(D29-Pad1)*%
%TA.AperFunction,SMDPad,CuDef*%
G36*
G01*
X192141000Y-87492000D02*
X190891000Y-87492000D01*
G75*
G02*
X190641000Y-87242000I0J250000D01*
G01*
X190641000Y-86442000D01*
G75*
G02*
X190891000Y-86192000I250000J0D01*
G01*
X192141000Y-86192000D01*
G75*
G02*
X192391000Y-86442000I0J-250000D01*
G01*
X192391000Y-87242000D01*
G75*
G02*
X192141000Y-87492000I-250000J0D01*
G01*
G37*
%TD.AperFunction*%
%TO.P,R28,1*%
%TO.N,Net-(D21-Pad1)*%
%TA.AperFunction,SMDPad,CuDef*%
G36*
G01*
X192141000Y-90592000D02*
X190891000Y-90592000D01*
G75*
G02*
X190641000Y-90342000I0J250000D01*
G01*
X190641000Y-89542000D01*
G75*
G02*
X190891000Y-89292000I250000J0D01*
G01*
X192141000Y-89292000D01*
G75*
G02*
X192391000Y-89542000I0J-250000D01*
G01*
X192391000Y-90342000D01*
G75*
G02*
X192141000Y-90592000I-250000J0D01*
G01*
G37*
%TD.AperFunction*%
%TD*%
%TO.P,R27,2*%
%TO.N,Net-(D16-Pad2)*%
%TA.AperFunction,SMDPad,CuDef*%
G36*
G01*
X199761000Y-70220000D02*
X198511000Y-70220000D01*
G75*
G02*
X198261000Y-69970000I0J250000D01*
G01*
X198261000Y-69170000D01*
G75*
G02*
X198511000Y-68920000I250000J0D01*
G01*
X199761000Y-68920000D01*
G75*
G02*
X200011000Y-69170000I0J-250000D01*
G01*
X200011000Y-69970000D01*
G75*
G02*
X199761000Y-70220000I-250000J0D01*
G01*
G37*
%TD.AperFunction*%
%TO.P,R27,1*%
%TO.N,+5V*%
%TA.AperFunction,SMDPad,CuDef*%
G36*
G01*
X199761000Y-73320000D02*
X198511000Y-73320000D01*
G75*
G02*
X198261000Y-73070000I0J250000D01*
G01*
X198261000Y-72270000D01*
G75*
G02*
X198511000Y-72020000I250000J0D01*
G01*
X199761000Y-72020000D01*
G75*
G02*
X200011000Y-72270000I0J-250000D01*
G01*
X200011000Y-73070000D01*
G75*
G02*
X199761000Y-73320000I-250000J0D01*
G01*
G37*
%TD.AperFunction*%
%TD*%
%TO.P,R26,2*%
%TO.N,Net-(D16-Pad2)*%
%TA.AperFunction,SMDPad,CuDef*%
G36*
G01*
X202301000Y-70220000D02*
X201051000Y-70220000D01*
G75*
G02*
X200801000Y-69970000I0J250000D01*
G01*
X200801000Y-69170000D01*
G75*
G02*
X201051000Y-68920000I250000J0D01*
G01*
X202301000Y-68920000D01*
G75*
G02*
X202551000Y-69170000I0J-250000D01*
G01*
X202551000Y-69970000D01*
G75*
G02*
X202301000Y-70220000I-250000J0D01*
G01*
G37*
%TD.AperFunction*%
%TO.P,R26,1*%
%TO.N,+5V*%
%TA.AperFunction,SMDPad,CuDef*%
G36*
G01*
X202301000Y-73320000D02*
X201051000Y-73320000D01*
G75*
G02*
X200801000Y-73070000I0J250000D01*
G01*
X200801000Y-72270000D01*
G75*
G02*
X201051000Y-72020000I250000J0D01*
G01*
X202301000Y-72020000D01*
G75*
G02*
X202551000Y-72270000I0J-250000D01*
G01*
X202551000Y-73070000D01*
G75*
G02*
X202301000Y-73320000I-250000J0D01*
G01*
G37*
%TD.AperFunction*%
%TD*%
%TO.P,R25,2*%
%TO.N,Net-(R25-Pad2)*%
%TA.AperFunction,SMDPad,CuDef*%
G36*
G01*
X135519000Y-90816000D02*
X136769000Y-90816000D01*
G75*
G02*
X137019000Y-91066000I0J-250000D01*
G01*
X137019000Y-91866000D01*
G75*
G02*
X136769000Y-92116000I-250000J0D01*
G01*
X135519000Y-92116000D01*
G75*
G02*
X135269000Y-91866000I0J250000D01*
G01*
X135269000Y-91066000D01*
G75*
G02*
X135519000Y-90816000I250000J0D01*
G01*
G37*
%TD.AperFunction*%
%TO.P,R25,1*%
%TO.N,+5V*%
%TA.AperFunction,SMDPad,CuDef*%
G36*
G01*
X135519000Y-87716000D02*
X136769000Y-87716000D01*
G75*
G02*
X137019000Y-87966000I0J-250000D01*
G01*
X137019000Y-88766000D01*
G75*
G02*
X136769000Y-89016000I-250000J0D01*
G01*
X135519000Y-89016000D01*
G75*
G02*
X135269000Y-88766000I0J250000D01*
G01*
X135269000Y-87966000D01*
G75*
G02*
X135519000Y-87716000I250000J0D01*
G01*
G37*
%TD.AperFunction*%
%TD*%
%TO.P,R24,2*%
%TO.N,Net-(D16-Pad2)*%
%TA.AperFunction,SMDPad,CuDef*%
G36*
G01*
X204841000Y-70220000D02*
X203591000Y-70220000D01*
G75*
G02*
X203341000Y-69970000I0J250000D01*
G01*
X203341000Y-69170000D01*
G75*
G02*
X203591000Y-68920000I250000J0D01*
G01*
X204841000Y-68920000D01*
G75*
G02*
X205091000Y-69170000I0J-250000D01*
G01*
X205091000Y-69970000D01*
G75*
G02*
X204841000Y-70220000I-250000J0D01*
G01*
G37*
%TD.AperFunction*%
%TO.P,R24,1*%
%TO.N,+5V*%
%TA.AperFunction,SMDPad,CuDef*%
G36*
G01*
X204841000Y-73320000D02*
X203591000Y-73320000D01*
G75*
G02*
X203341000Y-73070000I0J250000D01*
G01*
X203341000Y-72270000D01*
G75*
G02*
X203591000Y-72020000I250000J0D01*
G01*
X204841000Y-72020000D01*
G75*
G02*
X205091000Y-72270000I0J-250000D01*
G01*
X205091000Y-73070000D01*
G75*
G02*
X204841000Y-73320000I-250000J0D01*
G01*
G37*
%TD.AperFunction*%
%TD*%
%TO.P,R23,2*%
%TO.N,Net-(D19-Pad1)*%
%TA.AperFunction,SMDPad,CuDef*%
G36*
G01*
X190108000Y-124343000D02*
X190108000Y-125593000D01*
G75*
G02*
X189858000Y-125843000I-250000J0D01*
G01*
X189058000Y-125843000D01*
G75*
G02*
X188808000Y-125593000I0J250000D01*
G01*
X188808000Y-124343000D01*
G75*
G02*
X189058000Y-124093000I250000J0D01*
G01*
X189858000Y-124093000D01*
G75*
G02*
X190108000Y-124343000I0J-250000D01*
G01*
G37*
%TD.AperFunction*%
%TO.P,R23,1*%
%TO.N,Net-(D18-Pad1)*%
%TA.AperFunction,SMDPad,CuDef*%
G36*
G01*
X193208000Y-124343000D02*
X193208000Y-125593000D01*
G75*
G02*
X192958000Y-125843000I-250000J0D01*
G01*
X192158000Y-125843000D01*
G75*
G02*
X191908000Y-125593000I0J250000D01*
G01*
X191908000Y-124343000D01*
G75*
G02*
X192158000Y-124093000I250000J0D01*
G01*
X192958000Y-124093000D01*
G75*
G02*
X193208000Y-124343000I0J-250000D01*
G01*
G37*
%TD.AperFunction*%
%TD*%
%TO.P,R22,2*%
%TO.N,Net-(D19-Pad1)*%
%TA.AperFunction,SMDPad,CuDef*%
G36*
G01*
X146929000Y-154548000D02*
X145679000Y-154548000D01*
G75*
G02*
X145429000Y-154298000I0J250000D01*
G01*
X145429000Y-153498000D01*
G75*
G02*
X145679000Y-153248000I250000J0D01*
G01*
X146929000Y-153248000D01*
G75*
G02*
X147179000Y-153498000I0J-250000D01*
G01*
X147179000Y-154298000D01*
G75*
G02*
X146929000Y-154548000I-250000J0D01*
G01*
G37*
%TD.AperFunction*%
%TO.P,R22,1*%
%TO.N,Net-(D15-Pad1)*%
%TA.AperFunction,SMDPad,CuDef*%
G36*
G01*
X146929000Y-157648000D02*
X145679000Y-157648000D01*
G75*
G02*
X145429000Y-157398000I0J250000D01*
G01*
X145429000Y-156598000D01*
G75*
G02*
X145679000Y-156348000I250000J0D01*
G01*
X146929000Y-156348000D01*
G75*
G02*
X147179000Y-156598000I0J-250000D01*
G01*
X147179000Y-157398000D01*
G75*
G02*
X146929000Y-157648000I-250000J0D01*
G01*
G37*
%TD.AperFunction*%
%TD*%
%TO.P,R21,2*%
%TO.N,Net-(D14-Pad2)*%
%TA.AperFunction,SMDPad,CuDef*%
G36*
G01*
X95594000Y-112151000D02*
X95594000Y-113401000D01*
G75*
G02*
X95344000Y-113651000I-250000J0D01*
G01*
X94544000Y-113651000D01*
G75*
G02*
X94294000Y-113401000I0J250000D01*
G01*
X94294000Y-112151000D01*
G75*
G02*
X94544000Y-111901000I250000J0D01*
G01*
X95344000Y-111901000D01*
G75*
G02*
X95594000Y-112151000I0J-250000D01*
G01*
G37*
%TD.AperFunction*%
%TO.P,R21,1*%
%TO.N,+5V*%
%TA.AperFunction,SMDPad,CuDef*%
G36*
G01*
X98694000Y-112151000D02*
X98694000Y-113401000D01*
G75*
G02*
X98444000Y-113651000I-250000J0D01*
G01*
X97644000Y-113651000D01*
G75*
G02*
X97394000Y-113401000I0J250000D01*
G01*
X97394000Y-112151000D01*
G75*
G02*
X97644000Y-111901000I250000J0D01*
G01*
X98444000Y-111901000D01*
G75*
G02*
X98694000Y-112151000I0J-250000D01*
G01*
G37*
%TD.AperFunction*%
%TD*%
%TO.P,R20,2*%
%TO.N,Net-(D14-Pad2)*%
%TA.AperFunction,SMDPad,CuDef*%
G36*
G01*
X95594000Y-109611000D02*
X95594000Y-110861000D01*
G75*
G02*
X95344000Y-111111000I-250000J0D01*
G01*
X94544000Y-111111000D01*
G75*
G02*
X94294000Y-110861000I0J250000D01*
G01*
X94294000Y-109611000D01*
G75*
G02*
X94544000Y-109361000I250000J0D01*
G01*
X95344000Y-109361000D01*
G75*
G02*
X95594000Y-109611000I0J-250000D01*
G01*
G37*
%TD.AperFunction*%
%TO.P,R20,1*%
%TO.N,+5V*%
%TA.AperFunction,SMDPad,CuDef*%
G36*
G01*
X98694000Y-109611000D02*
X98694000Y-110861000D01*
G75*
G02*
X98444000Y-111111000I-250000J0D01*
G01*
X97644000Y-111111000D01*
G75*
G02*
X97394000Y-110861000I0J250000D01*
G01*
X97394000Y-109611000D01*
G75*
G02*
X97644000Y-109361000I250000J0D01*
G01*
X98444000Y-109361000D01*
G75*
G02*
X98694000Y-109611000I0J-250000D01*
G01*
G37*
%TD.AperFunction*%
%TD*%
%TO.P,R19,2*%
%TO.N,Net-(D14-Pad2)*%
%TA.AperFunction,SMDPad,CuDef*%
G36*
G01*
X95620000Y-107071000D02*
X95620000Y-108321000D01*
G75*
G02*
X95370000Y-108571000I-250000J0D01*
G01*
X94570000Y-108571000D01*
G75*
G02*
X94320000Y-108321000I0J250000D01*
G01*
X94320000Y-107071000D01*
G75*
G02*
X94570000Y-106821000I250000J0D01*
G01*
X95370000Y-106821000D01*
G75*
G02*
X95620000Y-107071000I0J-250000D01*
G01*
G37*
%TD.AperFunction*%
%TO.P,R19,1*%
%TO.N,+5V*%
%TA.AperFunction,SMDPad,CuDef*%
G36*
G01*
X98720000Y-107071000D02*
X98720000Y-108321000D01*
G75*
G02*
X98470000Y-108571000I-250000J0D01*
G01*
X97670000Y-108571000D01*
G75*
G02*
X97420000Y-108321000I0J250000D01*
G01*
X97420000Y-107071000D01*
G75*
G02*
X97670000Y-106821000I250000J0D01*
G01*
X98470000Y-106821000D01*
G75*
G02*
X98720000Y-107071000I0J-250000D01*
G01*
G37*
%TD.AperFunction*%
%TD*%
%TO.P,R18,2*%
%TO.N,Net-(D19-Pad1)*%
%TA.AperFunction,SMDPad,CuDef*%
G36*
G01*
X121020000Y-111643000D02*
X121020000Y-112893000D01*
G75*
G02*
X120770000Y-113143000I-250000J0D01*
G01*
X119970000Y-113143000D01*
G75*
G02*
X119720000Y-112893000I0J250000D01*
G01*
X119720000Y-111643000D01*
G75*
G02*
X119970000Y-111393000I250000J0D01*
G01*
X120770000Y-111393000D01*
G75*
G02*
X121020000Y-111643000I0J-250000D01*
G01*
G37*
%TD.AperFunction*%
%TO.P,R18,1*%
%TO.N,Net-(D17-Pad1)*%
%TA.AperFunction,SMDPad,CuDef*%
G36*
G01*
X124120000Y-111643000D02*
X124120000Y-112893000D01*
G75*
G02*
X123870000Y-113143000I-250000J0D01*
G01*
X123070000Y-113143000D01*
G75*
G02*
X122820000Y-112893000I0J250000D01*
G01*
X122820000Y-111643000D01*
G75*
G02*
X123070000Y-111393000I250000J0D01*
G01*
X123870000Y-111393000D01*
G75*
G02*
X124120000Y-111643000I0J-250000D01*
G01*
G37*
%TD.AperFunction*%
%TD*%
%TO.P,R17,2*%
%TO.N,Net-(D19-Pad1)*%
%TA.AperFunction,SMDPad,CuDef*%
G36*
G01*
X109104000Y-66157000D02*
X109104000Y-64907000D01*
G75*
G02*
X109354000Y-64657000I250000J0D01*
G01*
X110154000Y-64657000D01*
G75*
G02*
X110404000Y-64907000I0J-250000D01*
G01*
X110404000Y-66157000D01*
G75*
G02*
X110154000Y-66407000I-250000J0D01*
G01*
X109354000Y-66407000D01*
G75*
G02*
X109104000Y-66157000I0J250000D01*
G01*
G37*
%TD.AperFunction*%
%TO.P,R17,1*%
%TO.N,Net-(D13-Pad1)*%
%TA.AperFunction,SMDPad,CuDef*%
G36*
G01*
X106004000Y-66157000D02*
X106004000Y-64907000D01*
G75*
G02*
X106254000Y-64657000I250000J0D01*
G01*
X107054000Y-64657000D01*
G75*
G02*
X107304000Y-64907000I0J-250000D01*
G01*
X107304000Y-66157000D01*
G75*
G02*
X107054000Y-66407000I-250000J0D01*
G01*
X106254000Y-66407000D01*
G75*
G02*
X106004000Y-66157000I0J250000D01*
G01*
G37*
%TD.AperFunction*%
%TD*%
%TO.P,R16,2*%
%TO.N,Net-(D19-Pad1)*%
%TA.AperFunction,SMDPad,CuDef*%
G36*
G01*
X116215000Y-106564000D02*
X117465000Y-106564000D01*
G75*
G02*
X117715000Y-106814000I0J-250000D01*
G01*
X117715000Y-107614000D01*
G75*
G02*
X117465000Y-107864000I-250000J0D01*
G01*
X116215000Y-107864000D01*
G75*
G02*
X115965000Y-107614000I0J250000D01*
G01*
X115965000Y-106814000D01*
G75*
G02*
X116215000Y-106564000I250000J0D01*
G01*
G37*
%TD.AperFunction*%
%TO.P,R16,1*%
%TO.N,Net-(D12-Pad1)*%
%TA.AperFunction,SMDPad,CuDef*%
G36*
G01*
X116215000Y-103464000D02*
X117465000Y-103464000D01*
G75*
G02*
X117715000Y-103714000I0J-250000D01*
G01*
X117715000Y-104514000D01*
G75*
G02*
X117465000Y-104764000I-250000J0D01*
G01*
X116215000Y-104764000D01*
G75*
G02*
X115965000Y-104514000I0J250000D01*
G01*
X115965000Y-103714000D01*
G75*
G02*
X116215000Y-103464000I250000J0D01*
G01*
G37*
%TD.AperFunction*%
%TD*%
%TO.P,R15,2*%
%TO.N,Net-(D19-Pad1)*%
%TA.AperFunction,SMDPad,CuDef*%
G36*
G01*
X154315000Y-52716000D02*
X155565000Y-52716000D01*
G75*
G02*
X155815000Y-52966000I0J-250000D01*
G01*
X155815000Y-53766000D01*
G75*
G02*
X155565000Y-54016000I-250000J0D01*
G01*
X154315000Y-54016000D01*
G75*
G02*
X154065000Y-53766000I0J250000D01*
G01*
X154065000Y-52966000D01*
G75*
G02*
X154315000Y-52716000I250000J0D01*
G01*
G37*
%TD.AperFunction*%
%TO.P,R15,1*%
%TO.N,Net-(D11-Pad1)*%
%TA.AperFunction,SMDPad,CuDef*%
G36*
G01*
X154315000Y-49616000D02*
X155565000Y-49616000D01*
G75*
G02*
X155815000Y-49866000I0J-250000D01*
G01*
X155815000Y-50666000D01*
G75*
G02*
X155565000Y-50916000I-250000J0D01*
G01*
X154315000Y-50916000D01*
G75*
G02*
X154065000Y-50666000I0J250000D01*
G01*
X154065000Y-49866000D01*
G75*
G02*
X154315000Y-49616000I250000J0D01*
G01*
G37*
%TD.AperFunction*%
%TD*%
%TO.P,R14,2*%
%TO.N,Net-(D6-Pad2)*%
%TA.AperFunction,SMDPad,CuDef*%
G36*
G01*
X135038000Y-50409000D02*
X135038000Y-49159000D01*
G75*
G02*
X135288000Y-48909000I250000J0D01*
G01*
X136088000Y-48909000D01*
G75*
G02*
X136338000Y-49159000I0J-250000D01*
G01*
X136338000Y-50409000D01*
G75*
G02*
X136088000Y-50659000I-250000J0D01*
G01*
X135288000Y-50659000D01*
G75*
G02*
X135038000Y-50409000I0J250000D01*
G01*
G37*
%TD.AperFunction*%
%TO.P,R14,1*%
%TO.N,+5V*%
%TA.AperFunction,SMDPad,CuDef*%
G36*
G01*
X131938000Y-50409000D02*
X131938000Y-49159000D01*
G75*
G02*
X132188000Y-48909000I250000J0D01*
G01*
X132988000Y-48909000D01*
G75*
G02*
X133238000Y-49159000I0J-250000D01*
G01*
X133238000Y-50409000D01*
G75*
G02*
X132988000Y-50659000I-250000J0D01*
G01*
X132188000Y-50659000D01*
G75*
G02*
X131938000Y-50409000I0J250000D01*
G01*
G37*
%TD.AperFunction*%
%TD*%
%TO.P,R13,2*%
%TO.N,Net-(D6-Pad2)*%
%TA.AperFunction,SMDPad,CuDef*%
G36*
G01*
X135012000Y-52949000D02*
X135012000Y-51699000D01*
G75*
G02*
X135262000Y-51449000I250000J0D01*
G01*
X136062000Y-51449000D01*
G75*
G02*
X136312000Y-51699000I0J-250000D01*
G01*
X136312000Y-52949000D01*
G75*
G02*
X136062000Y-53199000I-250000J0D01*
G01*
X135262000Y-53199000D01*
G75*
G02*
X135012000Y-52949000I0J250000D01*
G01*
G37*
%TD.AperFunction*%
%TO.P,R13,1*%
%TO.N,+5V*%
%TA.AperFunction,SMDPad,CuDef*%
G36*
G01*
X131912000Y-52949000D02*
X131912000Y-51699000D01*
G75*
G02*
X132162000Y-51449000I250000J0D01*
G01*
X132962000Y-51449000D01*
G75*
G02*
X133212000Y-51699000I0J-250000D01*
G01*
X133212000Y-52949000D01*
G75*
G02*
X132962000Y-53199000I-250000J0D01*
G01*
X132162000Y-53199000D01*
G75*
G02*
X131912000Y-52949000I0J250000D01*
G01*
G37*
%TD.AperFunction*%
%TD*%
%TO.P,R12,2*%
%TO.N,Net-(D6-Pad2)*%
%TA.AperFunction,SMDPad,CuDef*%
G36*
G01*
X135012000Y-55489000D02*
X135012000Y-54239000D01*
G75*
G02*
X135262000Y-53989000I250000J0D01*
G01*
X136062000Y-53989000D01*
G75*
G02*
X136312000Y-54239000I0J-250000D01*
G01*
X136312000Y-55489000D01*
G75*
G02*
X136062000Y-55739000I-250000J0D01*
G01*
X135262000Y-55739000D01*
G75*
G02*
X135012000Y-55489000I0J250000D01*
G01*
G37*
%TD.AperFunction*%
%TO.P,R12,1*%
%TO.N,+5V*%
%TA.AperFunction,SMDPad,CuDef*%
G36*
G01*
X131912000Y-55489000D02*
X131912000Y-54239000D01*
G75*
G02*
X132162000Y-53989000I250000J0D01*
G01*
X132962000Y-53989000D01*
G75*
G02*
X133212000Y-54239000I0J-250000D01*
G01*
X133212000Y-55489000D01*
G75*
G02*
X132962000Y-55739000I-250000J0D01*
G01*
X132162000Y-55739000D01*
G75*
G02*
X131912000Y-55489000I0J250000D01*
G01*
G37*
%TD.AperFunction*%
%TD*%
%TO.P,R11,2*%
%TO.N,Net-(D10-Pad1)*%
%TA.AperFunction,SMDPad,CuDef*%
G36*
G01*
X161427000Y-117740000D02*
X162677000Y-117740000D01*
G75*
G02*
X162927000Y-117990000I0J-250000D01*
G01*
X162927000Y-118790000D01*
G75*
G02*
X162677000Y-119040000I-250000J0D01*
G01*
X161427000Y-119040000D01*
G75*
G02*
X161177000Y-118790000I0J250000D01*
G01*
X161177000Y-117990000D01*
G75*
G02*
X161427000Y-117740000I250000J0D01*
G01*
G37*
%TD.AperFunction*%
%TO.P,R11,1*%
%TO.N,Net-(D8-Pad1)*%
%TA.AperFunction,SMDPad,CuDef*%
G36*
G01*
X161427000Y-114640000D02*
X162677000Y-114640000D01*
G75*
G02*
X162927000Y-114890000I0J-250000D01*
G01*
X162927000Y-115690000D01*
G75*
G02*
X162677000Y-115940000I-250000J0D01*
G01*
X161427000Y-115940000D01*
G75*
G02*
X161177000Y-115690000I0J250000D01*
G01*
X161177000Y-114890000D01*
G75*
G02*
X161427000Y-114640000I250000J0D01*
G01*
G37*
%TD.AperFunction*%
%TD*%
%TO.P,R10,2*%
%TO.N,Net-(D10-Pad1)*%
%TA.AperFunction,SMDPad,CuDef*%
G36*
G01*
X99685000Y-81904000D02*
X98435000Y-81904000D01*
G75*
G02*
X98185000Y-81654000I0J250000D01*
G01*
X98185000Y-80854000D01*
G75*
G02*
X98435000Y-80604000I250000J0D01*
G01*
X99685000Y-80604000D01*
G75*
G02*
X99935000Y-80854000I0J-250000D01*
G01*
X99935000Y-81654000D01*
G75*
G02*
X99685000Y-81904000I-250000J0D01*
G01*
G37*
%TD.AperFunction*%
%TO.P,R10,1*%
%TO.N,Net-(D5-Pad1)*%
%TA.AperFunction,SMDPad,CuDef*%
G36*
G01*
X99685000Y-85004000D02*
X98435000Y-85004000D01*
G75*
G02*
X98185000Y-84754000I0J250000D01*
G01*
X98185000Y-83954000D01*
G75*
G02*
X98435000Y-83704000I250000J0D01*
G01*
X99685000Y-83704000D01*
G75*
G02*
X99935000Y-83954000I0J-250000D01*
G01*
X99935000Y-84754000D01*
G75*
G02*
X99685000Y-85004000I-250000J0D01*
G01*
G37*
%TD.AperFunction*%
%TD*%
%TO.P,R9,2*%
%TO.N,Net-(D4-Pad2)*%
%TA.AperFunction,SMDPad,CuDef*%
G36*
G01*
X108595000Y-130440000D02*
X109845000Y-130440000D01*
G75*
G02*
X110095000Y-130690000I0J-250000D01*
G01*
X110095000Y-131490000D01*
G75*
G02*
X109845000Y-131740000I-250000J0D01*
G01*
X108595000Y-131740000D01*
G75*
G02*
X108345000Y-131490000I0J250000D01*
G01*
X108345000Y-130690000D01*
G75*
G02*
X108595000Y-130440000I250000J0D01*
G01*
G37*
%TD.AperFunction*%
%TO.P,R9,1*%
%TO.N,+5V*%
%TA.AperFunction,SMDPad,CuDef*%
G36*
G01*
X108595000Y-127340000D02*
X109845000Y-127340000D01*
G75*
G02*
X110095000Y-127590000I0J-250000D01*
G01*
X110095000Y-128390000D01*
G75*
G02*
X109845000Y-128640000I-250000J0D01*
G01*
X108595000Y-128640000D01*
G75*
G02*
X108345000Y-128390000I0J250000D01*
G01*
X108345000Y-127590000D01*
G75*
G02*
X108595000Y-127340000I250000J0D01*
G01*
G37*
%TD.AperFunction*%
%TD*%
%TO.P,R8,2*%
%TO.N,Net-(D4-Pad2)*%
%TA.AperFunction,SMDPad,CuDef*%
G36*
G01*
X106055000Y-130440000D02*
X107305000Y-130440000D01*
G75*
G02*
X107555000Y-130690000I0J-250000D01*
G01*
X107555000Y-131490000D01*
G75*
G02*
X107305000Y-131740000I-250000J0D01*
G01*
X106055000Y-131740000D01*
G75*
G02*
X105805000Y-131490000I0J250000D01*
G01*
X105805000Y-130690000D01*
G75*
G02*
X106055000Y-130440000I250000J0D01*
G01*
G37*
%TD.AperFunction*%
%TO.P,R8,1*%
%TO.N,+5V*%
%TA.AperFunction,SMDPad,CuDef*%
G36*
G01*
X106055000Y-127340000D02*
X107305000Y-127340000D01*
G75*
G02*
X107555000Y-127590000I0J-250000D01*
G01*
X107555000Y-128390000D01*
G75*
G02*
X107305000Y-128640000I-250000J0D01*
G01*
X106055000Y-128640000D01*
G75*
G02*
X105805000Y-128390000I0J250000D01*
G01*
X105805000Y-127590000D01*
G75*
G02*
X106055000Y-127340000I250000J0D01*
G01*
G37*
%TD.AperFunction*%
%TD*%
%TO.P,R7,2*%
%TO.N,Net-(D4-Pad2)*%
%TA.AperFunction,SMDPad,CuDef*%
G36*
G01*
X103515000Y-130440000D02*
X104765000Y-130440000D01*
G75*
G02*
X105015000Y-130690000I0J-250000D01*
G01*
X105015000Y-131490000D01*
G75*
G02*
X104765000Y-131740000I-250000J0D01*
G01*
X103515000Y-131740000D01*
G75*
G02*
X103265000Y-131490000I0J250000D01*
G01*
X103265000Y-130690000D01*
G75*
G02*
X103515000Y-130440000I250000J0D01*
G01*
G37*
%TD.AperFunction*%
%TO.P,R7,1*%
%TO.N,+5V*%
%TA.AperFunction,SMDPad,CuDef*%
G36*
G01*
X103515000Y-127340000D02*
X104765000Y-127340000D01*
G75*
G02*
X105015000Y-127590000I0J-250000D01*
G01*
X105015000Y-128390000D01*
G75*
G02*
X104765000Y-128640000I-250000J0D01*
G01*
X103515000Y-128640000D01*
G75*
G02*
X103265000Y-128390000I0J250000D01*
G01*
X103265000Y-127590000D01*
G75*
G02*
X103515000Y-127340000I250000J0D01*
G01*
G37*
%TD.AperFunction*%
%TD*%
%TO.P,R6,2*%
%TO.N,Net-(D10-Pad1)*%
%TA.AperFunction,SMDPad,CuDef*%
G36*
G01*
X160137000Y-120994000D02*
X158887000Y-120994000D01*
G75*
G02*
X158637000Y-120744000I0J250000D01*
G01*
X158637000Y-119944000D01*
G75*
G02*
X158887000Y-119694000I250000J0D01*
G01*
X160137000Y-119694000D01*
G75*
G02*
X160387000Y-119944000I0J-250000D01*
G01*
X160387000Y-120744000D01*
G75*
G02*
X160137000Y-120994000I-250000J0D01*
G01*
G37*
%TD.AperFunction*%
%TO.P,R6,1*%
%TO.N,Net-(D7-Pad1)*%
%TA.AperFunction,SMDPad,CuDef*%
G36*
G01*
X160137000Y-124094000D02*
X158887000Y-124094000D01*
G75*
G02*
X158637000Y-123844000I0J250000D01*
G01*
X158637000Y-123044000D01*
G75*
G02*
X158887000Y-122794000I250000J0D01*
G01*
X160137000Y-122794000D01*
G75*
G02*
X160387000Y-123044000I0J-250000D01*
G01*
X160387000Y-123844000D01*
G75*
G02*
X160137000Y-124094000I-250000J0D01*
G01*
G37*
%TD.AperFunction*%
%TD*%
%TO.P,R5,2*%
%TO.N,Net-(D10-Pad1)*%
%TA.AperFunction,SMDPad,CuDef*%
G36*
G01*
X187843000Y-112152000D02*
X189093000Y-112152000D01*
G75*
G02*
X189343000Y-112402000I0J-250000D01*
G01*
X189343000Y-113202000D01*
G75*
G02*
X189093000Y-113452000I-250000J0D01*
G01*
X187843000Y-113452000D01*
G75*
G02*
X187593000Y-113202000I0J250000D01*
G01*
X187593000Y-112402000D01*
G75*
G02*
X187843000Y-112152000I250000J0D01*
G01*
G37*
%TD.AperFunction*%
%TO.P,R5,1*%
%TO.N,Net-(D3-Pad1)*%
%TA.AperFunction,SMDPad,CuDef*%
G36*
G01*
X187843000Y-109052000D02*
X189093000Y-109052000D01*
G75*
G02*
X189343000Y-109302000I0J-250000D01*
G01*
X189343000Y-110102000D01*
G75*
G02*
X189093000Y-110352000I-250000J0D01*
G01*
X187843000Y-110352000D01*
G75*
G02*
X187593000Y-110102000I0J250000D01*
G01*
X187593000Y-109302000D01*
G75*
G02*
X187843000Y-109052000I250000J0D01*
G01*
G37*
%TD.AperFunction*%
%TD*%
%TO.P,R4,2*%
%TO.N,Net-(D10-Pad1)*%
%TA.AperFunction,SMDPad,CuDef*%
G36*
G01*
X158104000Y-94371000D02*
X158104000Y-95621000D01*
G75*
G02*
X157854000Y-95871000I-250000J0D01*
G01*
X157054000Y-95871000D01*
G75*
G02*
X156804000Y-95621000I0J250000D01*
G01*
X156804000Y-94371000D01*
G75*
G02*
X157054000Y-94121000I250000J0D01*
G01*
X157854000Y-94121000D01*
G75*
G02*
X158104000Y-94371000I0J-250000D01*
G01*
G37*
%TD.AperFunction*%
%TO.P,R4,1*%
%TO.N,Net-(D2-Pad1)*%
%TA.AperFunction,SMDPad,CuDef*%
G36*
G01*
X161204000Y-94371000D02*
X161204000Y-95621000D01*
G75*
G02*
X160954000Y-95871000I-250000J0D01*
G01*
X160154000Y-95871000D01*
G75*
G02*
X159904000Y-95621000I0J250000D01*
G01*
X159904000Y-94371000D01*
G75*
G02*
X160154000Y-94121000I250000J0D01*
G01*
X160954000Y-94121000D01*
G75*
G02*
X161204000Y-94371000I0J-250000D01*
G01*
G37*
%TD.AperFunction*%
%TD*%
%TO.P,R3,2*%
%TO.N,Net-(D10-Pad1)*%
%TA.AperFunction,SMDPad,CuDef*%
G36*
G01*
X181239000Y-68464000D02*
X182489000Y-68464000D01*
G75*
G02*
X182739000Y-68714000I0J-250000D01*
G01*
X182739000Y-69514000D01*
G75*
G02*
X182489000Y-69764000I-250000J0D01*
G01*
X181239000Y-69764000D01*
G75*
G02*
X180989000Y-69514000I0J250000D01*
G01*
X180989000Y-68714000D01*
G75*
G02*
X181239000Y-68464000I250000J0D01*
G01*
G37*
%TD.AperFunction*%
%TO.P,R3,1*%
%TO.N,Net-(D1-Pad1)*%
%TA.AperFunction,SMDPad,CuDef*%
G36*
G01*
X181239000Y-65364000D02*
X182489000Y-65364000D01*
G75*
G02*
X182739000Y-65614000I0J-250000D01*
G01*
X182739000Y-66414000D01*
G75*
G02*
X182489000Y-66664000I-250000J0D01*
G01*
X181239000Y-66664000D01*
G75*
G02*
X180989000Y-66414000I0J250000D01*
G01*
X180989000Y-65614000D01*
G75*
G02*
X181239000Y-65364000I250000J0D01*
G01*
G37*
%TD.AperFunction*%
%TD*%
%TO.P,R2,2*%
%TO.N,GND*%
%TA.AperFunction,SMDPad,CuDef*%
G36*
G01*
X149743000Y-100976000D02*
X150993000Y-100976000D01*
G75*
G02*
X151243000Y-101226000I0J-250000D01*
G01*
X151243000Y-102026000D01*
G75*
G02*
X150993000Y-102276000I-250000J0D01*
G01*
X149743000Y-102276000D01*
G75*
G02*
X149493000Y-102026000I0J250000D01*
G01*
X149493000Y-101226000D01*
G75*
G02*
X149743000Y-100976000I250000J0D01*
G01*
G37*
%TD.AperFunction*%
%TO.P,R2,1*%
%TO.N,Net-(R1-Pad2)*%
%TA.AperFunction,SMDPad,CuDef*%
G36*
G01*
X149743000Y-97876000D02*
X150993000Y-97876000D01*
G75*
G02*
X151243000Y-98126000I0J-250000D01*
G01*
X151243000Y-98926000D01*
G75*
G02*
X150993000Y-99176000I-250000J0D01*
G01*
X149743000Y-99176000D01*
G75*
G02*
X149493000Y-98926000I0J250000D01*
G01*
X149493000Y-98126000D01*
G75*
G02*
X149743000Y-97876000I250000J0D01*
G01*
G37*
%TD.AperFunction*%
%TD*%
%TO.P,R1,2*%
%TO.N,Net-(R1-Pad2)*%
%TA.AperFunction,SMDPad,CuDef*%
G36*
G01*
X149743000Y-95896000D02*
X150993000Y-95896000D01*
G75*
G02*
X151243000Y-96146000I0J-250000D01*
G01*
X151243000Y-96946000D01*
G75*
G02*
X150993000Y-97196000I-250000J0D01*
G01*
X149743000Y-97196000D01*
G75*
G02*
X149493000Y-96946000I0J250000D01*
G01*
X149493000Y-96146000D01*
G75*
G02*
X149743000Y-95896000I250000J0D01*
G01*
G37*
%TD.AperFunction*%
%TO.P,R1,1*%
%TO.N,+5V*%
%TA.AperFunction,SMDPad,CuDef*%
G36*
G01*
X149743000Y-92796000D02*
X150993000Y-92796000D01*
G75*
G02*
X151243000Y-93046000I0J-250000D01*
G01*
X151243000Y-93846000D01*
G75*
G02*
X150993000Y-94096000I-250000J0D01*
G01*
X149743000Y-94096000D01*
G75*
G02*
X149493000Y-93846000I0J250000D01*
G01*
X149493000Y-93046000D01*
G75*
G02*
X149743000Y-92796000I250000J0D01*
G01*
G37*
%TD.AperFunction*%
%TD*%
D11*
%TO.P,Q5,3*%
%TO.N,Net-(D49-Pad1)*%
X156270000Y-119888000D03*
%TO.P,Q5,2*%
%TO.N,GND*%
X153610000Y-120538000D03*
%TO.P,Q5,1*%
%TO.N,/LED Schematic/Branch4On*%
X153610000Y-119238000D03*
%TD*%
%TO.P,Q4,3*%
%TO.N,Net-(D39-Pad1)*%
X130750000Y-121412000D03*
%TO.P,Q4,2*%
%TO.N,GND*%
X133410000Y-120762000D03*
%TO.P,Q4,1*%
%TO.N,/LED Schematic/Branch3On*%
X133410000Y-122062000D03*
%TD*%
%TO.P,Q2,3*%
%TO.N,Net-(D19-Pad1)*%
X156270000Y-116332000D03*
%TO.P,Q2,2*%
%TO.N,GND*%
X153610000Y-116982000D03*
%TO.P,Q2,1*%
%TO.N,/LED Schematic/Branch5On*%
X153610000Y-115682000D03*
%TD*%
%TO.P,Q1,3*%
%TO.N,Net-(D10-Pad1)*%
X130750000Y-99568000D03*
%TO.P,Q1,2*%
%TO.N,GND*%
X133410000Y-98918000D03*
%TO.P,Q1,1*%
%TO.N,/LED Schematic/Branch1On*%
X133410000Y-100218000D03*
%TD*%
%TO.P,D50,2*%
%TO.N,Net-(D46-Pad1)*%
%TA.AperFunction,SMDPad,CuDef*%
G36*
G01*
X151143000Y-59553000D02*
X151143000Y-58303000D01*
G75*
G02*
X151393000Y-58053000I250000J0D01*
G01*
X152318000Y-58053000D01*
G75*
G02*
X152568000Y-58303000I0J-250000D01*
G01*
X152568000Y-59553000D01*
G75*
G02*
X152318000Y-59803000I-250000J0D01*
G01*
X151393000Y-59803000D01*
G75*
G02*
X151143000Y-59553000I0J250000D01*
G01*
G37*
%TD.AperFunction*%
%TO.P,D50,1*%
%TO.N,Net-(D49-Pad1)*%
%TA.AperFunction,SMDPad,CuDef*%
G36*
G01*
X148168000Y-59553000D02*
X148168000Y-58303000D01*
G75*
G02*
X148418000Y-58053000I250000J0D01*
G01*
X149343000Y-58053000D01*
G75*
G02*
X149593000Y-58303000I0J-250000D01*
G01*
X149593000Y-59553000D01*
G75*
G02*
X149343000Y-59803000I-250000J0D01*
G01*
X148418000Y-59803000D01*
G75*
G02*
X148168000Y-59553000I0J250000D01*
G01*
G37*
%TD.AperFunction*%
%TD*%
%TO.P,D49,2*%
%TO.N,Net-(D44-Pad1)*%
%TA.AperFunction,SMDPad,CuDef*%
G36*
G01*
X108471000Y-124069000D02*
X108471000Y-122819000D01*
G75*
G02*
X108721000Y-122569000I250000J0D01*
G01*
X109646000Y-122569000D01*
G75*
G02*
X109896000Y-122819000I0J-250000D01*
G01*
X109896000Y-124069000D01*
G75*
G02*
X109646000Y-124319000I-250000J0D01*
G01*
X108721000Y-124319000D01*
G75*
G02*
X108471000Y-124069000I0J250000D01*
G01*
G37*
%TD.AperFunction*%
%TO.P,D49,1*%
%TO.N,Net-(D49-Pad1)*%
%TA.AperFunction,SMDPad,CuDef*%
G36*
G01*
X105496000Y-124069000D02*
X105496000Y-122819000D01*
G75*
G02*
X105746000Y-122569000I250000J0D01*
G01*
X106671000Y-122569000D01*
G75*
G02*
X106921000Y-122819000I0J-250000D01*
G01*
X106921000Y-124069000D01*
G75*
G02*
X106671000Y-124319000I-250000J0D01*
G01*
X105746000Y-124319000D01*
G75*
G02*
X105496000Y-124069000I0J250000D01*
G01*
G37*
%TD.AperFunction*%
%TD*%
%TO.P,D48,2*%
%TO.N,+5V*%
%TA.AperFunction,SMDPad,CuDef*%
G36*
G01*
X94755000Y-69713000D02*
X94755000Y-68463000D01*
G75*
G02*
X95005000Y-68213000I250000J0D01*
G01*
X95930000Y-68213000D01*
G75*
G02*
X96180000Y-68463000I0J-250000D01*
G01*
X96180000Y-69713000D01*
G75*
G02*
X95930000Y-69963000I-250000J0D01*
G01*
X95005000Y-69963000D01*
G75*
G02*
X94755000Y-69713000I0J250000D01*
G01*
G37*
%TD.AperFunction*%
%TO.P,D48,1*%
%TO.N,Net-(D48-Pad1)*%
%TA.AperFunction,SMDPad,CuDef*%
G36*
G01*
X91780000Y-69713000D02*
X91780000Y-68463000D01*
G75*
G02*
X92030000Y-68213000I250000J0D01*
G01*
X92955000Y-68213000D01*
G75*
G02*
X93205000Y-68463000I0J-250000D01*
G01*
X93205000Y-69713000D01*
G75*
G02*
X92955000Y-69963000I-250000J0D01*
G01*
X92030000Y-69963000D01*
G75*
G02*
X91780000Y-69713000I0J250000D01*
G01*
G37*
%TD.AperFunction*%
%TD*%
%TO.P,D47,2*%
%TO.N,+5V*%
%TA.AperFunction,SMDPad,CuDef*%
G36*
G01*
X180607000Y-112385000D02*
X180607000Y-111135000D01*
G75*
G02*
X180857000Y-110885000I250000J0D01*
G01*
X181782000Y-110885000D01*
G75*
G02*
X182032000Y-111135000I0J-250000D01*
G01*
X182032000Y-112385000D01*
G75*
G02*
X181782000Y-112635000I-250000J0D01*
G01*
X180857000Y-112635000D01*
G75*
G02*
X180607000Y-112385000I0J250000D01*
G01*
G37*
%TD.AperFunction*%
%TO.P,D47,1*%
%TO.N,Net-(D47-Pad1)*%
%TA.AperFunction,SMDPad,CuDef*%
G36*
G01*
X177632000Y-112385000D02*
X177632000Y-111135000D01*
G75*
G02*
X177882000Y-110885000I250000J0D01*
G01*
X178807000Y-110885000D01*
G75*
G02*
X179057000Y-111135000I0J-250000D01*
G01*
X179057000Y-112385000D01*
G75*
G02*
X178807000Y-112635000I-250000J0D01*
G01*
X177882000Y-112635000D01*
G75*
G02*
X177632000Y-112385000I0J250000D01*
G01*
G37*
%TD.AperFunction*%
%TD*%
D21*
%TO.P,D46,2*%
%TO.N,Net-(D46-Pad2)*%
X144272000Y-77216000D03*
D22*
%TO.P,D46,1*%
%TO.N,Net-(D46-Pad1)*%
X141732000Y-77216000D03*
%TD*%
D21*
%TO.P,D45,2*%
%TO.N,+5V*%
X132588000Y-166116000D03*
D22*
%TO.P,D45,1*%
%TO.N,Net-(D45-Pad1)*%
X130048000Y-166116000D03*
%TD*%
D21*
%TO.P,D44,2*%
%TO.N,Net-(D44-Pad2)*%
X159512000Y-145796000D03*
D22*
%TO.P,D44,1*%
%TO.N,Net-(D44-Pad1)*%
X156972000Y-145796000D03*
%TD*%
D21*
%TO.P,D43,2*%
%TO.N,+5V*%
X178816000Y-137668000D03*
D22*
%TO.P,D43,1*%
%TO.N,Net-(D43-Pad1)*%
X176276000Y-137668000D03*
%TD*%
%TO.P,D42,2*%
%TO.N,+5V*%
%TA.AperFunction,SMDPad,CuDef*%
G36*
G01*
X192762500Y-73777000D02*
X192762500Y-72527000D01*
G75*
G02*
X193012500Y-72277000I250000J0D01*
G01*
X193937500Y-72277000D01*
G75*
G02*
X194187500Y-72527000I0J-250000D01*
G01*
X194187500Y-73777000D01*
G75*
G02*
X193937500Y-74027000I-250000J0D01*
G01*
X193012500Y-74027000D01*
G75*
G02*
X192762500Y-73777000I0J250000D01*
G01*
G37*
%TD.AperFunction*%
%TO.P,D42,1*%
%TO.N,Net-(D42-Pad1)*%
%TA.AperFunction,SMDPad,CuDef*%
G36*
G01*
X189787500Y-73777000D02*
X189787500Y-72527000D01*
G75*
G02*
X190037500Y-72277000I250000J0D01*
G01*
X190962500Y-72277000D01*
G75*
G02*
X191212500Y-72527000I0J-250000D01*
G01*
X191212500Y-73777000D01*
G75*
G02*
X190962500Y-74027000I-250000J0D01*
G01*
X190037500Y-74027000D01*
G75*
G02*
X189787500Y-73777000I0J250000D01*
G01*
G37*
%TD.AperFunction*%
%TD*%
D21*
%TO.P,D41,2*%
%TO.N,+5V*%
X133604000Y-30480000D03*
D22*
%TO.P,D41,1*%
%TO.N,Net-(D41-Pad1)*%
X136144000Y-30480000D03*
%TD*%
%TO.P,D40,2*%
%TO.N,Net-(D36-Pad1)*%
%TA.AperFunction,SMDPad,CuDef*%
G36*
G01*
X132855000Y-126101000D02*
X132855000Y-124851000D01*
G75*
G02*
X133105000Y-124601000I250000J0D01*
G01*
X134030000Y-124601000D01*
G75*
G02*
X134280000Y-124851000I0J-250000D01*
G01*
X134280000Y-126101000D01*
G75*
G02*
X134030000Y-126351000I-250000J0D01*
G01*
X133105000Y-126351000D01*
G75*
G02*
X132855000Y-126101000I0J250000D01*
G01*
G37*
%TD.AperFunction*%
%TO.P,D40,1*%
%TO.N,Net-(D39-Pad1)*%
%TA.AperFunction,SMDPad,CuDef*%
G36*
G01*
X129880000Y-126101000D02*
X129880000Y-124851000D01*
G75*
G02*
X130130000Y-124601000I250000J0D01*
G01*
X131055000Y-124601000D01*
G75*
G02*
X131305000Y-124851000I0J-250000D01*
G01*
X131305000Y-126101000D01*
G75*
G02*
X131055000Y-126351000I-250000J0D01*
G01*
X130130000Y-126351000D01*
G75*
G02*
X129880000Y-126101000I0J250000D01*
G01*
G37*
%TD.AperFunction*%
%TD*%
%TO.P,D39,2*%
%TO.N,Net-(D34-Pad1)*%
%TA.AperFunction,SMDPad,CuDef*%
G36*
G01*
X138443000Y-59553000D02*
X138443000Y-58303000D01*
G75*
G02*
X138693000Y-58053000I250000J0D01*
G01*
X139618000Y-58053000D01*
G75*
G02*
X139868000Y-58303000I0J-250000D01*
G01*
X139868000Y-59553000D01*
G75*
G02*
X139618000Y-59803000I-250000J0D01*
G01*
X138693000Y-59803000D01*
G75*
G02*
X138443000Y-59553000I0J250000D01*
G01*
G37*
%TD.AperFunction*%
%TO.P,D39,1*%
%TO.N,Net-(D39-Pad1)*%
%TA.AperFunction,SMDPad,CuDef*%
G36*
G01*
X135468000Y-59553000D02*
X135468000Y-58303000D01*
G75*
G02*
X135718000Y-58053000I250000J0D01*
G01*
X136643000Y-58053000D01*
G75*
G02*
X136893000Y-58303000I0J-250000D01*
G01*
X136893000Y-59553000D01*
G75*
G02*
X136643000Y-59803000I-250000J0D01*
G01*
X135718000Y-59803000D01*
G75*
G02*
X135468000Y-59553000I0J250000D01*
G01*
G37*
%TD.AperFunction*%
%TD*%
%TO.P,D38,2*%
%TO.N,+5V*%
%TA.AperFunction,SMDPad,CuDef*%
G36*
G01*
X171971000Y-76317000D02*
X171971000Y-75067000D01*
G75*
G02*
X172221000Y-74817000I250000J0D01*
G01*
X173146000Y-74817000D01*
G75*
G02*
X173396000Y-75067000I0J-250000D01*
G01*
X173396000Y-76317000D01*
G75*
G02*
X173146000Y-76567000I-250000J0D01*
G01*
X172221000Y-76567000D01*
G75*
G02*
X171971000Y-76317000I0J250000D01*
G01*
G37*
%TD.AperFunction*%
%TO.P,D38,1*%
%TO.N,Net-(D38-Pad1)*%
%TA.AperFunction,SMDPad,CuDef*%
G36*
G01*
X168996000Y-76317000D02*
X168996000Y-75067000D01*
G75*
G02*
X169246000Y-74817000I250000J0D01*
G01*
X170171000Y-74817000D01*
G75*
G02*
X170421000Y-75067000I0J-250000D01*
G01*
X170421000Y-76317000D01*
G75*
G02*
X170171000Y-76567000I-250000J0D01*
G01*
X169246000Y-76567000D01*
G75*
G02*
X168996000Y-76317000I0J250000D01*
G01*
G37*
%TD.AperFunction*%
%TD*%
%TO.P,D37,2*%
%TO.N,+5V*%
%TA.AperFunction,SMDPad,CuDef*%
G36*
G01*
X107963000Y-82921000D02*
X107963000Y-81671000D01*
G75*
G02*
X108213000Y-81421000I250000J0D01*
G01*
X109138000Y-81421000D01*
G75*
G02*
X109388000Y-81671000I0J-250000D01*
G01*
X109388000Y-82921000D01*
G75*
G02*
X109138000Y-83171000I-250000J0D01*
G01*
X108213000Y-83171000D01*
G75*
G02*
X107963000Y-82921000I0J250000D01*
G01*
G37*
%TD.AperFunction*%
%TO.P,D37,1*%
%TO.N,Net-(D37-Pad1)*%
%TA.AperFunction,SMDPad,CuDef*%
G36*
G01*
X104988000Y-82921000D02*
X104988000Y-81671000D01*
G75*
G02*
X105238000Y-81421000I250000J0D01*
G01*
X106163000Y-81421000D01*
G75*
G02*
X106413000Y-81671000I0J-250000D01*
G01*
X106413000Y-82921000D01*
G75*
G02*
X106163000Y-83171000I-250000J0D01*
G01*
X105238000Y-83171000D01*
G75*
G02*
X104988000Y-82921000I0J250000D01*
G01*
G37*
%TD.AperFunction*%
%TD*%
D21*
%TO.P,D36,2*%
%TO.N,Net-(D36-Pad2)*%
X199644000Y-141732000D03*
D22*
%TO.P,D36,1*%
%TO.N,Net-(D36-Pad1)*%
X197104000Y-141732000D03*
%TD*%
D21*
%TO.P,D35,2*%
%TO.N,+5V*%
X201676000Y-57404000D03*
D22*
%TO.P,D35,1*%
%TO.N,Net-(D35-Pad1)*%
X199136000Y-57404000D03*
%TD*%
D21*
%TO.P,D34,2*%
%TO.N,Net-(D34-Pad2)*%
X153416000Y-30480000D03*
D22*
%TO.P,D34,1*%
%TO.N,Net-(D34-Pad1)*%
X155956000Y-30480000D03*
%TD*%
D21*
%TO.P,D33,2*%
%TO.N,+5V*%
X79248000Y-71120000D03*
D22*
%TO.P,D33,1*%
%TO.N,Net-(D33-Pad1)*%
X76708000Y-71120000D03*
%TD*%
%TO.P,D32,2*%
%TO.N,+5V*%
%TA.AperFunction,SMDPad,CuDef*%
G36*
G01*
X103899000Y-111877000D02*
X103899000Y-110627000D01*
G75*
G02*
X104149000Y-110377000I250000J0D01*
G01*
X105074000Y-110377000D01*
G75*
G02*
X105324000Y-110627000I0J-250000D01*
G01*
X105324000Y-111877000D01*
G75*
G02*
X105074000Y-112127000I-250000J0D01*
G01*
X104149000Y-112127000D01*
G75*
G02*
X103899000Y-111877000I0J250000D01*
G01*
G37*
%TD.AperFunction*%
%TO.P,D32,1*%
%TO.N,Net-(D32-Pad1)*%
%TA.AperFunction,SMDPad,CuDef*%
G36*
G01*
X100924000Y-111877000D02*
X100924000Y-110627000D01*
G75*
G02*
X101174000Y-110377000I250000J0D01*
G01*
X102099000Y-110377000D01*
G75*
G02*
X102349000Y-110627000I0J-250000D01*
G01*
X102349000Y-111877000D01*
G75*
G02*
X102099000Y-112127000I-250000J0D01*
G01*
X101174000Y-112127000D01*
G75*
G02*
X100924000Y-111877000I0J250000D01*
G01*
G37*
%TD.AperFunction*%
%TD*%
D21*
%TO.P,D31,2*%
%TO.N,+5V*%
X87376000Y-139192000D03*
D22*
%TO.P,D31,1*%
%TO.N,Net-(D31-Pad1)*%
X84836000Y-139192000D03*
%TD*%
%TO.P,D30,2*%
%TO.N,Net-(D26-Pad1)*%
%TA.AperFunction,SMDPad,CuDef*%
G36*
G01*
X118989000Y-87109000D02*
X117739000Y-87109000D01*
G75*
G02*
X117489000Y-86859000I0J250000D01*
G01*
X117489000Y-85934000D01*
G75*
G02*
X117739000Y-85684000I250000J0D01*
G01*
X118989000Y-85684000D01*
G75*
G02*
X119239000Y-85934000I0J-250000D01*
G01*
X119239000Y-86859000D01*
G75*
G02*
X118989000Y-87109000I-250000J0D01*
G01*
G37*
%TD.AperFunction*%
%TO.P,D30,1*%
%TO.N,Net-(D29-Pad1)*%
%TA.AperFunction,SMDPad,CuDef*%
G36*
G01*
X118989000Y-90084000D02*
X117739000Y-90084000D01*
G75*
G02*
X117489000Y-89834000I0J250000D01*
G01*
X117489000Y-88909000D01*
G75*
G02*
X117739000Y-88659000I250000J0D01*
G01*
X118989000Y-88659000D01*
G75*
G02*
X119239000Y-88909000I0J-250000D01*
G01*
X119239000Y-89834000D01*
G75*
G02*
X118989000Y-90084000I-250000J0D01*
G01*
G37*
%TD.AperFunction*%
%TD*%
%TO.P,D29,2*%
%TO.N,Net-(D24-Pad1)*%
%TA.AperFunction,SMDPad,CuDef*%
G36*
G01*
X141465000Y-158887000D02*
X141465000Y-160137000D01*
G75*
G02*
X141215000Y-160387000I-250000J0D01*
G01*
X140290000Y-160387000D01*
G75*
G02*
X140040000Y-160137000I0J250000D01*
G01*
X140040000Y-158887000D01*
G75*
G02*
X140290000Y-158637000I250000J0D01*
G01*
X141215000Y-158637000D01*
G75*
G02*
X141465000Y-158887000I0J-250000D01*
G01*
G37*
%TD.AperFunction*%
%TO.P,D29,1*%
%TO.N,Net-(D29-Pad1)*%
%TA.AperFunction,SMDPad,CuDef*%
G36*
G01*
X144440000Y-158887000D02*
X144440000Y-160137000D01*
G75*
G02*
X144190000Y-160387000I-250000J0D01*
G01*
X143265000Y-160387000D01*
G75*
G02*
X143015000Y-160137000I0J250000D01*
G01*
X143015000Y-158887000D01*
G75*
G02*
X143265000Y-158637000I250000J0D01*
G01*
X144190000Y-158637000D01*
G75*
G02*
X144440000Y-158887000I0J-250000D01*
G01*
G37*
%TD.AperFunction*%
%TD*%
%TO.P,D28,2*%
%TO.N,+5V*%
%TA.AperFunction,SMDPad,CuDef*%
G36*
G01*
X144897000Y-42913000D02*
X143647000Y-42913000D01*
G75*
G02*
X143397000Y-42663000I0J250000D01*
G01*
X143397000Y-41738000D01*
G75*
G02*
X143647000Y-41488000I250000J0D01*
G01*
X144897000Y-41488000D01*
G75*
G02*
X145147000Y-41738000I0J-250000D01*
G01*
X145147000Y-42663000D01*
G75*
G02*
X144897000Y-42913000I-250000J0D01*
G01*
G37*
%TD.AperFunction*%
%TO.P,D28,1*%
%TO.N,Net-(D28-Pad1)*%
%TA.AperFunction,SMDPad,CuDef*%
G36*
G01*
X144897000Y-45888000D02*
X143647000Y-45888000D01*
G75*
G02*
X143397000Y-45638000I0J250000D01*
G01*
X143397000Y-44713000D01*
G75*
G02*
X143647000Y-44463000I250000J0D01*
G01*
X144897000Y-44463000D01*
G75*
G02*
X145147000Y-44713000I0J-250000D01*
G01*
X145147000Y-45638000D01*
G75*
G02*
X144897000Y-45888000I-250000J0D01*
G01*
G37*
%TD.AperFunction*%
%TD*%
%TO.P,D27,2*%
%TO.N,+5V*%
%TA.AperFunction,SMDPad,CuDef*%
G36*
G01*
X176035000Y-124069000D02*
X176035000Y-122819000D01*
G75*
G02*
X176285000Y-122569000I250000J0D01*
G01*
X177210000Y-122569000D01*
G75*
G02*
X177460000Y-122819000I0J-250000D01*
G01*
X177460000Y-124069000D01*
G75*
G02*
X177210000Y-124319000I-250000J0D01*
G01*
X176285000Y-124319000D01*
G75*
G02*
X176035000Y-124069000I0J250000D01*
G01*
G37*
%TD.AperFunction*%
%TO.P,D27,1*%
%TO.N,Net-(D27-Pad1)*%
%TA.AperFunction,SMDPad,CuDef*%
G36*
G01*
X173060000Y-124069000D02*
X173060000Y-122819000D01*
G75*
G02*
X173310000Y-122569000I250000J0D01*
G01*
X174235000Y-122569000D01*
G75*
G02*
X174485000Y-122819000I0J-250000D01*
G01*
X174485000Y-124069000D01*
G75*
G02*
X174235000Y-124319000I-250000J0D01*
G01*
X173310000Y-124319000D01*
G75*
G02*
X173060000Y-124069000I0J250000D01*
G01*
G37*
%TD.AperFunction*%
%TD*%
D21*
%TO.P,D26,2*%
%TO.N,Net-(D26-Pad2)*%
X88900000Y-54864000D03*
D22*
%TO.P,D26,1*%
%TO.N,Net-(D26-Pad1)*%
X86360000Y-54864000D03*
%TD*%
D21*
%TO.P,D25,2*%
%TO.N,+5V*%
X77216000Y-122428000D03*
D22*
%TO.P,D25,1*%
%TO.N,Net-(D25-Pad1)*%
X74676000Y-122428000D03*
%TD*%
D21*
%TO.P,D24,2*%
%TO.N,Net-(D24-Pad2)*%
X124968000Y-146812000D03*
D22*
%TO.P,D24,1*%
%TO.N,Net-(D24-Pad1)*%
X122428000Y-146812000D03*
%TD*%
D21*
%TO.P,D23,2*%
%TO.N,+5V*%
X209804000Y-124968000D03*
D22*
%TO.P,D23,1*%
%TO.N,Net-(D23-Pad1)*%
X207264000Y-124968000D03*
%TD*%
%TO.P,D22,2*%
%TO.N,+5V*%
%TA.AperFunction,SMDPad,CuDef*%
G36*
G01*
X180570500Y-87493000D02*
X180570500Y-86243000D01*
G75*
G02*
X180820500Y-85993000I250000J0D01*
G01*
X181745500Y-85993000D01*
G75*
G02*
X181995500Y-86243000I0J-250000D01*
G01*
X181995500Y-87493000D01*
G75*
G02*
X181745500Y-87743000I-250000J0D01*
G01*
X180820500Y-87743000D01*
G75*
G02*
X180570500Y-87493000I0J250000D01*
G01*
G37*
%TD.AperFunction*%
%TO.P,D22,1*%
%TO.N,Net-(D22-Pad1)*%
%TA.AperFunction,SMDPad,CuDef*%
G36*
G01*
X177595500Y-87493000D02*
X177595500Y-86243000D01*
G75*
G02*
X177845500Y-85993000I250000J0D01*
G01*
X178770500Y-85993000D01*
G75*
G02*
X179020500Y-86243000I0J-250000D01*
G01*
X179020500Y-87493000D01*
G75*
G02*
X178770500Y-87743000I-250000J0D01*
G01*
X177845500Y-87743000D01*
G75*
G02*
X177595500Y-87493000I0J250000D01*
G01*
G37*
%TD.AperFunction*%
%TD*%
D21*
%TO.P,D21,2*%
%TO.N,+5V*%
X197459600Y-88823800D03*
D22*
%TO.P,D21,1*%
%TO.N,Net-(D21-Pad1)*%
X194919600Y-88823800D03*
%TD*%
%TO.P,D20,2*%
%TO.N,Net-(D16-Pad1)*%
%TA.AperFunction,SMDPad,CuDef*%
G36*
G01*
X167907000Y-102225000D02*
X167907000Y-100975000D01*
G75*
G02*
X168157000Y-100725000I250000J0D01*
G01*
X169082000Y-100725000D01*
G75*
G02*
X169332000Y-100975000I0J-250000D01*
G01*
X169332000Y-102225000D01*
G75*
G02*
X169082000Y-102475000I-250000J0D01*
G01*
X168157000Y-102475000D01*
G75*
G02*
X167907000Y-102225000I0J250000D01*
G01*
G37*
%TD.AperFunction*%
%TO.P,D20,1*%
%TO.N,Net-(D19-Pad1)*%
%TA.AperFunction,SMDPad,CuDef*%
G36*
G01*
X164932000Y-102225000D02*
X164932000Y-100975000D01*
G75*
G02*
X165182000Y-100725000I250000J0D01*
G01*
X166107000Y-100725000D01*
G75*
G02*
X166357000Y-100975000I0J-250000D01*
G01*
X166357000Y-102225000D01*
G75*
G02*
X166107000Y-102475000I-250000J0D01*
G01*
X165182000Y-102475000D01*
G75*
G02*
X164932000Y-102225000I0J250000D01*
G01*
G37*
%TD.AperFunction*%
%TD*%
%TO.P,D19,2*%
%TO.N,Net-(D14-Pad1)*%
%TA.AperFunction,SMDPad,CuDef*%
G36*
G01*
X92189000Y-123835000D02*
X92189000Y-125085000D01*
G75*
G02*
X91939000Y-125335000I-250000J0D01*
G01*
X91014000Y-125335000D01*
G75*
G02*
X90764000Y-125085000I0J250000D01*
G01*
X90764000Y-123835000D01*
G75*
G02*
X91014000Y-123585000I250000J0D01*
G01*
X91939000Y-123585000D01*
G75*
G02*
X92189000Y-123835000I0J-250000D01*
G01*
G37*
%TD.AperFunction*%
%TO.P,D19,1*%
%TO.N,Net-(D19-Pad1)*%
%TA.AperFunction,SMDPad,CuDef*%
G36*
G01*
X95164000Y-123835000D02*
X95164000Y-125085000D01*
G75*
G02*
X94914000Y-125335000I-250000J0D01*
G01*
X93989000Y-125335000D01*
G75*
G02*
X93739000Y-125085000I0J250000D01*
G01*
X93739000Y-123835000D01*
G75*
G02*
X93989000Y-123585000I250000J0D01*
G01*
X94914000Y-123585000D01*
G75*
G02*
X95164000Y-123835000I0J-250000D01*
G01*
G37*
%TD.AperFunction*%
%TD*%
%TO.P,D18,2*%
%TO.N,+5V*%
%TA.AperFunction,SMDPad,CuDef*%
G36*
G01*
X194867500Y-128133000D02*
X194867500Y-126883000D01*
G75*
G02*
X195117500Y-126633000I250000J0D01*
G01*
X196042500Y-126633000D01*
G75*
G02*
X196292500Y-126883000I0J-250000D01*
G01*
X196292500Y-128133000D01*
G75*
G02*
X196042500Y-128383000I-250000J0D01*
G01*
X195117500Y-128383000D01*
G75*
G02*
X194867500Y-128133000I0J250000D01*
G01*
G37*
%TD.AperFunction*%
%TO.P,D18,1*%
%TO.N,Net-(D18-Pad1)*%
%TA.AperFunction,SMDPad,CuDef*%
G36*
G01*
X191892500Y-128133000D02*
X191892500Y-126883000D01*
G75*
G02*
X192142500Y-126633000I250000J0D01*
G01*
X193067500Y-126633000D01*
G75*
G02*
X193317500Y-126883000I0J-250000D01*
G01*
X193317500Y-128133000D01*
G75*
G02*
X193067500Y-128383000I-250000J0D01*
G01*
X192142500Y-128383000D01*
G75*
G02*
X191892500Y-128133000I0J250000D01*
G01*
G37*
%TD.AperFunction*%
%TD*%
%TO.P,D17,2*%
%TO.N,+5V*%
%TA.AperFunction,SMDPad,CuDef*%
G36*
G01*
X121108500Y-114183000D02*
X121108500Y-115433000D01*
G75*
G02*
X120858500Y-115683000I-250000J0D01*
G01*
X119933500Y-115683000D01*
G75*
G02*
X119683500Y-115433000I0J250000D01*
G01*
X119683500Y-114183000D01*
G75*
G02*
X119933500Y-113933000I250000J0D01*
G01*
X120858500Y-113933000D01*
G75*
G02*
X121108500Y-114183000I0J-250000D01*
G01*
G37*
%TD.AperFunction*%
%TO.P,D17,1*%
%TO.N,Net-(D17-Pad1)*%
%TA.AperFunction,SMDPad,CuDef*%
G36*
G01*
X124083500Y-114183000D02*
X124083500Y-115433000D01*
G75*
G02*
X123833500Y-115683000I-250000J0D01*
G01*
X122908500Y-115683000D01*
G75*
G02*
X122658500Y-115433000I0J250000D01*
G01*
X122658500Y-114183000D01*
G75*
G02*
X122908500Y-113933000I250000J0D01*
G01*
X123833500Y-113933000D01*
G75*
G02*
X124083500Y-114183000I0J-250000D01*
G01*
G37*
%TD.AperFunction*%
%TD*%
D21*
%TO.P,D16,2*%
%TO.N,Net-(D16-Pad2)*%
X212852000Y-74168000D03*
D22*
%TO.P,D16,1*%
%TO.N,Net-(D16-Pad1)*%
X210312000Y-74168000D03*
%TD*%
%TO.P,D15,1*%
%TO.N,Net-(D15-Pad1)*%
X149860000Y-164592000D03*
D21*
%TO.P,D15,2*%
%TO.N,+5V*%
X152400000Y-164592000D03*
%TD*%
%TO.P,D14,2*%
%TO.N,Net-(D14-Pad2)*%
X91440000Y-106680000D03*
D22*
%TO.P,D14,1*%
%TO.N,Net-(D14-Pad1)*%
X88900000Y-106680000D03*
%TD*%
D21*
%TO.P,D13,2*%
%TO.N,+5V*%
X109728000Y-59436000D03*
D22*
%TO.P,D13,1*%
%TO.N,Net-(D13-Pad1)*%
X107188000Y-59436000D03*
%TD*%
%TO.P,D12,2*%
%TO.N,+5V*%
%TA.AperFunction,SMDPad,CuDef*%
G36*
G01*
X117465000Y-99337500D02*
X116215000Y-99337500D01*
G75*
G02*
X115965000Y-99087500I0J250000D01*
G01*
X115965000Y-98162500D01*
G75*
G02*
X116215000Y-97912500I250000J0D01*
G01*
X117465000Y-97912500D01*
G75*
G02*
X117715000Y-98162500I0J-250000D01*
G01*
X117715000Y-99087500D01*
G75*
G02*
X117465000Y-99337500I-250000J0D01*
G01*
G37*
%TD.AperFunction*%
%TO.P,D12,1*%
%TO.N,Net-(D12-Pad1)*%
%TA.AperFunction,SMDPad,CuDef*%
G36*
G01*
X117465000Y-102312500D02*
X116215000Y-102312500D01*
G75*
G02*
X115965000Y-102062500I0J250000D01*
G01*
X115965000Y-101137500D01*
G75*
G02*
X116215000Y-100887500I250000J0D01*
G01*
X117465000Y-100887500D01*
G75*
G02*
X117715000Y-101137500I0J-250000D01*
G01*
X117715000Y-102062500D01*
G75*
G02*
X117465000Y-102312500I-250000J0D01*
G01*
G37*
%TD.AperFunction*%
%TD*%
D21*
%TO.P,D11,2*%
%TO.N,+5V*%
X162052000Y-50292000D03*
D22*
%TO.P,D11,1*%
%TO.N,Net-(D11-Pad1)*%
X159512000Y-50292000D03*
%TD*%
%TO.P,D10,2*%
%TO.N,Net-(D10-Pad2)*%
%TA.AperFunction,SMDPad,CuDef*%
G36*
G01*
X110005500Y-72019000D02*
X110005500Y-73269000D01*
G75*
G02*
X109755500Y-73519000I-250000J0D01*
G01*
X108830500Y-73519000D01*
G75*
G02*
X108580500Y-73269000I0J250000D01*
G01*
X108580500Y-72019000D01*
G75*
G02*
X108830500Y-71769000I250000J0D01*
G01*
X109755500Y-71769000D01*
G75*
G02*
X110005500Y-72019000I0J-250000D01*
G01*
G37*
%TD.AperFunction*%
%TO.P,D10,1*%
%TO.N,Net-(D10-Pad1)*%
%TA.AperFunction,SMDPad,CuDef*%
G36*
G01*
X112980500Y-72019000D02*
X112980500Y-73269000D01*
G75*
G02*
X112730500Y-73519000I-250000J0D01*
G01*
X111805500Y-73519000D01*
G75*
G02*
X111555500Y-73269000I0J250000D01*
G01*
X111555500Y-72019000D01*
G75*
G02*
X111805500Y-71769000I250000J0D01*
G01*
X112730500Y-71769000D01*
G75*
G02*
X112980500Y-72019000I0J-250000D01*
G01*
G37*
%TD.AperFunction*%
%TD*%
%TO.P,D9,2*%
%TO.N,Net-(D4-Pad1)*%
%TA.AperFunction,SMDPad,CuDef*%
G36*
G01*
X123685000Y-104531000D02*
X123685000Y-105781000D01*
G75*
G02*
X123435000Y-106031000I-250000J0D01*
G01*
X122510000Y-106031000D01*
G75*
G02*
X122260000Y-105781000I0J250000D01*
G01*
X122260000Y-104531000D01*
G75*
G02*
X122510000Y-104281000I250000J0D01*
G01*
X123435000Y-104281000D01*
G75*
G02*
X123685000Y-104531000I0J-250000D01*
G01*
G37*
%TD.AperFunction*%
%TO.P,D9,1*%
%TO.N,Net-(D10-Pad1)*%
%TA.AperFunction,SMDPad,CuDef*%
G36*
G01*
X126660000Y-104531000D02*
X126660000Y-105781000D01*
G75*
G02*
X126410000Y-106031000I-250000J0D01*
G01*
X125485000Y-106031000D01*
G75*
G02*
X125235000Y-105781000I0J250000D01*
G01*
X125235000Y-104531000D01*
G75*
G02*
X125485000Y-104281000I250000J0D01*
G01*
X126410000Y-104281000D01*
G75*
G02*
X126660000Y-104531000I0J-250000D01*
G01*
G37*
%TD.AperFunction*%
%TD*%
%TO.P,D8,2*%
%TO.N,+5V*%
%TA.AperFunction,SMDPad,CuDef*%
G36*
G01*
X158229000Y-112151000D02*
X158229000Y-113401000D01*
G75*
G02*
X157979000Y-113651000I-250000J0D01*
G01*
X157054000Y-113651000D01*
G75*
G02*
X156804000Y-113401000I0J250000D01*
G01*
X156804000Y-112151000D01*
G75*
G02*
X157054000Y-111901000I250000J0D01*
G01*
X157979000Y-111901000D01*
G75*
G02*
X158229000Y-112151000I0J-250000D01*
G01*
G37*
%TD.AperFunction*%
%TO.P,D8,1*%
%TO.N,Net-(D8-Pad1)*%
%TA.AperFunction,SMDPad,CuDef*%
G36*
G01*
X161204000Y-112151000D02*
X161204000Y-113401000D01*
G75*
G02*
X160954000Y-113651000I-250000J0D01*
G01*
X160029000Y-113651000D01*
G75*
G02*
X159779000Y-113401000I0J250000D01*
G01*
X159779000Y-112151000D01*
G75*
G02*
X160029000Y-111901000I250000J0D01*
G01*
X160954000Y-111901000D01*
G75*
G02*
X161204000Y-112151000I0J-250000D01*
G01*
G37*
%TD.AperFunction*%
%TD*%
%TO.P,D7,2*%
%TO.N,+5V*%
%TA.AperFunction,SMDPad,CuDef*%
G36*
G01*
X154165000Y-124343000D02*
X154165000Y-125593000D01*
G75*
G02*
X153915000Y-125843000I-250000J0D01*
G01*
X152990000Y-125843000D01*
G75*
G02*
X152740000Y-125593000I0J250000D01*
G01*
X152740000Y-124343000D01*
G75*
G02*
X152990000Y-124093000I250000J0D01*
G01*
X153915000Y-124093000D01*
G75*
G02*
X154165000Y-124343000I0J-250000D01*
G01*
G37*
%TD.AperFunction*%
%TO.P,D7,1*%
%TO.N,Net-(D7-Pad1)*%
%TA.AperFunction,SMDPad,CuDef*%
G36*
G01*
X157140000Y-124343000D02*
X157140000Y-125593000D01*
G75*
G02*
X156890000Y-125843000I-250000J0D01*
G01*
X155965000Y-125843000D01*
G75*
G02*
X155715000Y-125593000I0J250000D01*
G01*
X155715000Y-124343000D01*
G75*
G02*
X155965000Y-124093000I250000J0D01*
G01*
X156890000Y-124093000D01*
G75*
G02*
X157140000Y-124343000I0J-250000D01*
G01*
G37*
%TD.AperFunction*%
%TD*%
D21*
%TO.P,D6,2*%
%TO.N,Net-(D6-Pad2)*%
X129032000Y-49276000D03*
D22*
%TO.P,D6,1*%
%TO.N,Net-(D10-Pad2)*%
X126492000Y-49276000D03*
%TD*%
D21*
%TO.P,D5,2*%
%TO.N,+5V*%
X95504000Y-84328000D03*
D22*
%TO.P,D5,1*%
%TO.N,Net-(D5-Pad1)*%
X92964000Y-84328000D03*
%TD*%
D21*
%TO.P,D4,2*%
%TO.N,Net-(D4-Pad2)*%
X105156000Y-135636000D03*
D22*
%TO.P,D4,1*%
%TO.N,Net-(D4-Pad1)*%
X107696000Y-135636000D03*
%TD*%
D21*
%TO.P,D3,2*%
%TO.N,+5V*%
X194564000Y-111252000D03*
D22*
%TO.P,D3,1*%
%TO.N,Net-(D3-Pad1)*%
X194564000Y-108712000D03*
%TD*%
%TO.P,D2,2*%
%TO.N,+5V*%
%TA.AperFunction,SMDPad,CuDef*%
G36*
G01*
X158265500Y-91831000D02*
X158265500Y-93081000D01*
G75*
G02*
X158015500Y-93331000I-250000J0D01*
G01*
X157090500Y-93331000D01*
G75*
G02*
X156840500Y-93081000I0J250000D01*
G01*
X156840500Y-91831000D01*
G75*
G02*
X157090500Y-91581000I250000J0D01*
G01*
X158015500Y-91581000D01*
G75*
G02*
X158265500Y-91831000I0J-250000D01*
G01*
G37*
%TD.AperFunction*%
%TO.P,D2,1*%
%TO.N,Net-(D2-Pad1)*%
%TA.AperFunction,SMDPad,CuDef*%
G36*
G01*
X161240500Y-91831000D02*
X161240500Y-93081000D01*
G75*
G02*
X160990500Y-93331000I-250000J0D01*
G01*
X160065500Y-93331000D01*
G75*
G02*
X159815500Y-93081000I0J250000D01*
G01*
X159815500Y-91831000D01*
G75*
G02*
X160065500Y-91581000I250000J0D01*
G01*
X160990500Y-91581000D01*
G75*
G02*
X161240500Y-91831000I0J-250000D01*
G01*
G37*
%TD.AperFunction*%
%TD*%
D21*
%TO.P,D1,2*%
%TO.N,+5V*%
X178308000Y-61468000D03*
D22*
%TO.P,D1,1*%
%TO.N,Net-(D1-Pad1)*%
X180848000Y-61468000D03*
%TD*%
D14*
%TO.P,C2,2*%
%TO.N,GND*%
X157988000Y-85312000D03*
D18*
%TO.P,C2,1*%
%TO.N,+5V*%
X157988000Y-83312000D03*
%TD*%
%TO.P,C1,2*%
%TO.N,GND*%
%TA.AperFunction,SMDPad,CuDef*%
G36*
G01*
X134985999Y-110120000D02*
X136286001Y-110120000D01*
G75*
G02*
X136536000Y-110369999I0J-249999D01*
G01*
X136536000Y-111195001D01*
G75*
G02*
X136286001Y-111445000I-249999J0D01*
G01*
X134985999Y-111445000D01*
G75*
G02*
X134736000Y-111195001I0J249999D01*
G01*
X134736000Y-110369999D01*
G75*
G02*
X134985999Y-110120000I249999J0D01*
G01*
G37*
%TD.AperFunction*%
%TO.P,C1,1*%
%TO.N,+5V*%
%TA.AperFunction,SMDPad,CuDef*%
G36*
G01*
X134985999Y-106995000D02*
X136286001Y-106995000D01*
G75*
G02*
X136536000Y-107244999I0J-249999D01*
G01*
X136536000Y-108070001D01*
G75*
G02*
X136286001Y-108320000I-249999J0D01*
G01*
X134985999Y-108320000D01*
G75*
G02*
X134736000Y-108070001I0J249999D01*
G01*
X134736000Y-107244999D01*
G75*
G02*
X134985999Y-106995000I249999J0D01*
G01*
G37*
%TD.AperFunction*%
%TD*%
D23*
%TO.P,BZ1,2*%
%TO.N,GND*%
X141732000Y-148904000D03*
D24*
%TO.P,BZ1,1*%
%TO.N,/Power + Other/Buzzer*%
X141732000Y-133604000D03*
%TD*%
D25*
%TO.N,Net-(D46-Pad2)*%
X136144000Y-79248000D03*
X136144000Y-82296000D03*
%TO.N,GND*%
X143256000Y-102616000D03*
X143256000Y-105156000D03*
X128524000Y-115824000D03*
X129540000Y-115824000D03*
X129032000Y-118364000D03*
X129540000Y-118872000D03*
%TO.N,Net-(D44-Pad1)*%
X137668000Y-129540000D03*
X135128000Y-129540000D03*
%TO.N,Net-(D24-Pad2)*%
X138684000Y-136144000D03*
%TO.N,Net-(D44-Pad2)*%
X145796000Y-150876000D03*
%TO.N,+5V*%
X176747500Y-125439500D03*
X100076000Y-108712000D03*
X118872000Y-114300000D03*
X118872000Y-114300000D03*
X196596000Y-72136000D03*
X175006000Y-74930000D03*
X182880000Y-86360000D03*
X139700000Y-89408000D03*
X140716000Y-89408000D03*
X141732000Y-89408000D03*
X142748000Y-89408000D03*
X143764000Y-89408000D03*
X144780000Y-89408000D03*
X145796000Y-89408000D03*
X139700000Y-90424000D03*
X140716000Y-90424000D03*
X141732000Y-90424000D03*
X142748000Y-90424000D03*
X143764000Y-90424000D03*
X144780000Y-90424000D03*
X145796000Y-90424000D03*
X138684000Y-89408000D03*
X138684000Y-90424000D03*
X141732000Y-91440000D03*
X142748000Y-91440000D03*
X141732000Y-92456000D03*
X142748000Y-92456000D03*
X141732000Y-93472000D03*
X142748000Y-93472000D03*
X141732000Y-94488000D03*
X142748000Y-94488000D03*
X141732000Y-95504000D03*
X142748000Y-95504000D03*
X143764000Y-94488000D03*
X143764000Y-95504000D03*
X144780000Y-94488000D03*
X144780000Y-95504000D03*
X131064000Y-52324000D03*
X141732000Y-44704000D03*
X182880000Y-111760000D03*
X151892000Y-124968000D03*
X197104000Y-127508000D03*
X198120000Y-137160000D03*
X87884000Y-62992000D03*
X95467500Y-67600500D03*
X110236000Y-82296000D03*
X106680000Y-129540000D03*
X116840000Y-97028000D03*
X159004000Y-112776000D03*
%TO.N,Net-(D10-Pad1)*%
X102616000Y-81280000D03*
X102616000Y-79248000D03*
X151892000Y-103632000D03*
X145561999Y-103866001D03*
X154940000Y-98044000D03*
X156718000Y-99822000D03*
X162052000Y-107188000D03*
X160274000Y-105410000D03*
X108712000Y-78232000D03*
X111252000Y-75692000D03*
%TO.N,Net-(D19-Pad1)*%
X96520000Y-122936000D03*
X98556483Y-124972483D03*
X115824000Y-82296000D03*
X114300000Y-83820000D03*
X185928000Y-121920000D03*
X185928000Y-119888000D03*
X187452000Y-115316000D03*
X185928000Y-113792000D03*
X168148000Y-103632000D03*
X166116000Y-103632000D03*
X117348000Y-112776000D03*
X115824000Y-111252000D03*
X134366000Y-112522000D03*
X140989999Y-111525999D03*
X152654000Y-109982000D03*
X154432000Y-108204000D03*
X145796000Y-136652000D03*
X147574000Y-134874000D03*
X144272000Y-125984000D03*
X144272000Y-129032000D03*
X154940000Y-58420000D03*
X153416000Y-59944000D03*
X166445314Y-77216000D03*
X165137657Y-78523657D03*
X163576000Y-92710000D03*
X164846000Y-93980000D03*
%TO.N,Net-(D29-Pad1)*%
X101092000Y-118364000D03*
X104140000Y-121412000D03*
X115316000Y-117348000D03*
X111760000Y-117348000D03*
X121412000Y-79586219D03*
X119380000Y-81618219D03*
X188442000Y-84862000D03*
X186918000Y-83338000D03*
X184938000Y-83338000D03*
X182398000Y-83338000D03*
X134620000Y-119380000D03*
X141497999Y-119145999D03*
X142748000Y-125984000D03*
X142748000Y-128016000D03*
X168148000Y-120904000D03*
X166116000Y-120904000D03*
X157988000Y-120904000D03*
X156464000Y-122428000D03*
X150368000Y-125984000D03*
X150368000Y-128016000D03*
X140462000Y-130556000D03*
X140462000Y-128524000D03*
X126492000Y-109728000D03*
X126492000Y-112268000D03*
%TO.N,Net-(D36-Pad1)*%
X134620000Y-127000000D03*
X137160000Y-127000000D03*
%TO.N,Net-(D39-Pad1)*%
X117856000Y-76708000D03*
X116332000Y-78232000D03*
X112268000Y-77216000D03*
X109982000Y-79502000D03*
X172720000Y-81280000D03*
X170688000Y-81280000D03*
X152925034Y-65024000D03*
X150876000Y-65024000D03*
X147828000Y-65532000D03*
X143256000Y-65024000D03*
X116210999Y-113913001D03*
X114686999Y-112389001D03*
X110236000Y-114808000D03*
X108712000Y-113284000D03*
%TO.N,Net-(D49-Pad1)*%
X178842000Y-122454000D03*
X178842000Y-116866000D03*
X167132000Y-119380000D03*
X167132000Y-117348000D03*
X107696000Y-77216000D03*
X110236000Y-74676000D03*
X135128000Y-67564000D03*
X137160000Y-67564000D03*
X146812000Y-66548000D03*
X143256000Y-66548000D03*
X147574000Y-57658000D03*
X146050000Y-56134000D03*
X176187999Y-74079999D03*
X178054000Y-75946000D03*
X135255000Y-137795000D03*
X133985000Y-136525000D03*
X109736966Y-124968000D03*
X108208483Y-126496483D03*
X153416000Y-123444000D03*
X153416000Y-128016000D03*
X148590000Y-135890000D03*
X146812000Y-137668000D03*
X145975005Y-144959005D03*
X141552995Y-144959005D03*
%TD*%
D26*
%TO.N,GND*%
X148010000Y-107696000D02*
X147320000Y-107696000D01*
D27*
X149645000Y-84487000D02*
X147524000Y-86608000D01*
X149645000Y-76203000D02*
X149645000Y-84487000D01*
D26*
X124883999Y-81804001D02*
X125984000Y-80704000D01*
X124883999Y-87803999D02*
X124883999Y-81804001D01*
X125984000Y-88904000D02*
X124883999Y-87803999D01*
X154810001Y-119823001D02*
X154810001Y-117726001D01*
X154095002Y-120538000D02*
X154810001Y-119823001D01*
X153610000Y-120538000D02*
X154095002Y-120538000D01*
X154066000Y-116982000D02*
X153610000Y-116982000D01*
X125984000Y-88904000D02*
X125984000Y-91448966D01*
D28*
X135571500Y-110718000D02*
X135636000Y-110782500D01*
X144780000Y-110236000D02*
X147320000Y-107696000D01*
X150368000Y-101626000D02*
X150368000Y-104648000D01*
X158965510Y-86289510D02*
X157988000Y-85312000D01*
X158965510Y-95853010D02*
X158965510Y-86289510D01*
X153192520Y-101626000D02*
X158965510Y-95853010D01*
X150368000Y-101626000D02*
X153192520Y-101626000D01*
D26*
X136002000Y-98918000D02*
X136144000Y-99060000D01*
X133410000Y-98918000D02*
X136002000Y-98918000D01*
X133410000Y-98874966D02*
X125984000Y-91448966D01*
X133410000Y-98918000D02*
X133410000Y-98874966D01*
X134228000Y-116698000D02*
X136144000Y-114782000D01*
X133410000Y-116698000D02*
X134228000Y-116698000D01*
X135244000Y-120762000D02*
X136144000Y-119862000D01*
X133410000Y-120762000D02*
X135244000Y-120762000D01*
X131938000Y-120762000D02*
X132209999Y-121033999D01*
X132416998Y-120762000D02*
X131938000Y-120762000D01*
X152534000Y-118058000D02*
X153610000Y-116982000D01*
X150876000Y-118058000D02*
X152534000Y-118058000D01*
X150876000Y-123272000D02*
X153610000Y-120538000D01*
X150876000Y-123470000D02*
X150876000Y-123272000D01*
X154810001Y-117726001D02*
X154066000Y-116982000D01*
X154810001Y-110614001D02*
X149606000Y-105410000D01*
X154810001Y-116267001D02*
X154810001Y-110614001D01*
X154694992Y-116382010D02*
X154810001Y-116267001D01*
X153610000Y-116646000D02*
X153873990Y-116382010D01*
X153610000Y-116982000D02*
X153610000Y-116646000D01*
D28*
X149606000Y-105410000D02*
X147320000Y-107696000D01*
D26*
X153873990Y-116382010D02*
X154694992Y-116382010D01*
D28*
X150368000Y-104648000D02*
X149606000Y-105410000D01*
X145232000Y-71472000D02*
X145388000Y-71628000D01*
X145232000Y-61976000D02*
X145232000Y-71472000D01*
X134972001Y-121033999D02*
X136144000Y-119862000D01*
X132209999Y-121033999D02*
X134972001Y-121033999D01*
X135636000Y-114274000D02*
X136144000Y-114782000D01*
X135636000Y-110782500D02*
X135636000Y-114274000D01*
X139153500Y-110782500D02*
X139700000Y-110236000D01*
X135636000Y-110782500D02*
X139153500Y-110782500D01*
D26*
X133323044Y-123642990D02*
X133264516Y-123701518D01*
X136144000Y-131891964D02*
X136144000Y-125166990D01*
X132209999Y-122647001D02*
X132209999Y-121033999D01*
X140716000Y-136463964D02*
X136144000Y-131891964D01*
X133264516Y-123701518D02*
X132209999Y-122647001D01*
X140716000Y-138476962D02*
X140716000Y-136463964D01*
X142748000Y-140508962D02*
X140716000Y-138476962D01*
X134620000Y-123642990D02*
X133323044Y-123642990D01*
X142748000Y-145766680D02*
X142748000Y-140508962D01*
X141732000Y-146782680D02*
X142748000Y-145766680D01*
X136144000Y-125166990D02*
X134620000Y-123642990D01*
X141732000Y-148904000D02*
X141732000Y-146782680D01*
X140300001Y-98825999D02*
X143256000Y-101781998D01*
X139099999Y-98825999D02*
X140300001Y-98825999D01*
X138865998Y-99060000D02*
X139099999Y-98825999D01*
X136144000Y-99060000D02*
X138865998Y-99060000D01*
X143256000Y-101781998D02*
X143256000Y-102616000D01*
D28*
X143256000Y-105156000D02*
X143256000Y-110236000D01*
X143256000Y-110236000D02*
X144780000Y-110236000D01*
X139700000Y-110236000D02*
X143256000Y-110236000D01*
X132060001Y-120486999D02*
X131154999Y-120486999D01*
X132209999Y-120636997D02*
X132060001Y-120486999D01*
X132209999Y-121033999D02*
X132209999Y-120636997D01*
X131154999Y-120486999D02*
X129540000Y-118872000D01*
X133410000Y-116698000D02*
X132536000Y-115824000D01*
X132536000Y-115824000D02*
X129540000Y-115824000D01*
X128524000Y-115824000D02*
X128524000Y-115824000D01*
X129540000Y-115824000D02*
X128524000Y-115824000D01*
X129032000Y-118364000D02*
X129032000Y-118364000D01*
X129540000Y-118872000D02*
X129032000Y-118364000D01*
%TO.N,Net-(BT1-Pad1)*%
X130244000Y-82804000D02*
X125984000Y-82804000D01*
X136845000Y-76203000D02*
X130244000Y-82804000D01*
D26*
%TO.N,+5V*%
X150593999Y-93220001D02*
X150368000Y-93446000D01*
X139661500Y-107657500D02*
X139700000Y-107696000D01*
X135636000Y-107657500D02*
X139661500Y-107657500D01*
D29*
X140182000Y-84328000D02*
X136144000Y-88366000D01*
X141224000Y-84328000D02*
X140182000Y-84328000D01*
D26*
X204216000Y-72670000D02*
X201676000Y-72670000D01*
X199136000Y-72670000D02*
X201676000Y-72670000D01*
X198654000Y-73152000D02*
X199136000Y-72670000D01*
X195580000Y-135662000D02*
X198120000Y-135662000D01*
X200660000Y-135662000D02*
X198120000Y-135662000D01*
X195580000Y-128016000D02*
X195580000Y-127508000D01*
X132588000Y-52298000D02*
X132562000Y-52324000D01*
X132588000Y-49784000D02*
X132588000Y-52298000D01*
X132562000Y-52324000D02*
X132562000Y-54864000D01*
X133630000Y-92964000D02*
X133630000Y-90424000D01*
X133656000Y-90398000D02*
X133630000Y-90424000D01*
X133656000Y-87884000D02*
X133656000Y-90398000D01*
X135662000Y-87884000D02*
X136144000Y-88366000D01*
X133656000Y-87884000D02*
X135662000Y-87884000D01*
X148726002Y-91804002D02*
X150368000Y-93446000D01*
X148726002Y-88366000D02*
X148726002Y-91804002D01*
X151358000Y-92456000D02*
X150368000Y-93446000D01*
X157553000Y-92456000D02*
X151358000Y-92456000D01*
X142722000Y-47752000D02*
X142722000Y-50292000D01*
X142696000Y-50318000D02*
X142722000Y-50292000D01*
X142696000Y-52832000D02*
X142696000Y-50318000D01*
X144272000Y-42200500D02*
X142722000Y-43750500D01*
X79248000Y-71120000D02*
X79248000Y-69847208D01*
%TO.N,Net-(D1-Pad1)*%
X180848000Y-64998000D02*
X181864000Y-66014000D01*
X180848000Y-61468000D02*
X180848000Y-64998000D01*
%TO.N,Net-(D3-Pad1)*%
X189458000Y-108712000D02*
X188468000Y-109702000D01*
X194564000Y-108712000D02*
X189458000Y-108712000D01*
%TO.N,Net-(D10-Pad2)*%
X131798510Y-57458966D02*
X131798510Y-66366034D01*
X126492000Y-52152456D02*
X131798510Y-57458966D01*
X126492000Y-49276000D02*
X126492000Y-52152456D01*
%TO.N,Net-(D8-Pad1)*%
X162052000Y-114336500D02*
X160491500Y-112776000D01*
X162052000Y-115290000D02*
X162052000Y-114336500D01*
%TO.N,Net-(D10-Pad1)*%
X161466000Y-118390000D02*
X159512000Y-120344000D01*
X162052000Y-118390000D02*
X161466000Y-118390000D01*
%TO.N,Net-(D15-Pad1)*%
X149860000Y-160554000D02*
X146304000Y-156998000D01*
X149860000Y-164592000D02*
X149860000Y-160554000D01*
%TO.N,Net-(D16-Pad1)*%
X169969504Y-101600000D02*
X168619500Y-101600000D01*
X197401504Y-74168000D02*
X169969504Y-101600000D01*
X210312000Y-74168000D02*
X197401504Y-74168000D01*
%TO.N,Net-(D18-Pad1)*%
X192605000Y-125015000D02*
X192558000Y-124968000D01*
X192605000Y-127508000D02*
X192605000Y-125015000D01*
%TO.N,Net-(D19-Pad1)*%
X146304000Y-153898000D02*
X144945999Y-152539999D01*
%TO.N,Net-(D23-Pad1)*%
X201728000Y-124968000D02*
X201676000Y-124916000D01*
X207264000Y-124968000D02*
X201728000Y-124968000D01*
%TO.N,Net-(D24-Pad1)*%
X123778001Y-148162001D02*
X125616001Y-148162001D01*
X122428000Y-146812000D02*
X123778001Y-148162001D01*
X135445649Y-146969508D02*
X137358990Y-148834412D01*
X126808494Y-146969508D02*
X135445649Y-146969508D01*
X125616001Y-148162001D02*
X126808494Y-146969508D01*
X140752500Y-157051534D02*
X139148966Y-155448000D01*
X140752500Y-159512000D02*
X140752500Y-157051534D01*
X139148966Y-155448000D02*
X138176000Y-155448000D01*
X137358990Y-154630990D02*
X137358990Y-148834412D01*
X138176000Y-155448000D02*
X137358990Y-154630990D01*
%TO.N,Net-(D25-Pad1)*%
X76741998Y-123952000D02*
X80746000Y-123952000D01*
X75217998Y-122428000D02*
X76741998Y-123952000D01*
X74676000Y-122428000D02*
X75217998Y-122428000D01*
%TO.N,Net-(D26-Pad1)*%
X95985153Y-64017653D02*
X118364000Y-86396500D01*
X93083587Y-62566870D02*
X95985153Y-64017653D01*
X92910999Y-62394282D02*
X93083587Y-62566870D01*
X92910999Y-61414999D02*
X92910999Y-62394282D01*
X86360000Y-54864000D02*
X92910999Y-61414999D01*
%TO.N,Net-(D28-Pad1)*%
X144272000Y-55372000D02*
X144272000Y-45175500D01*
%TO.N,Net-(D31-Pad1)*%
X84836000Y-133630000D02*
X84810000Y-133604000D01*
X84836000Y-139192000D02*
X84836000Y-133630000D01*
%TO.N,Net-(D34-Pad1)*%
X155956000Y-30480000D02*
X146922010Y-39513990D01*
%TO.N,Net-(D35-Pad1)*%
X199136000Y-61442000D02*
X201194000Y-63500000D01*
X199136000Y-57404000D02*
X199136000Y-61442000D01*
%TO.N,Net-(D38-Pad1)*%
X169708500Y-79719500D02*
X169672000Y-79756000D01*
X169708500Y-75692000D02*
X169708500Y-79719500D01*
%TO.N,Net-(D41-Pad1)*%
X136652000Y-30988000D02*
X136144000Y-30480000D01*
X136144000Y-35534000D02*
X139700000Y-39090000D01*
X136144000Y-30480000D02*
X136144000Y-35534000D01*
X139700000Y-39090000D02*
X139700000Y-41604000D01*
%TO.N,Net-(D42-Pad1)*%
X188494000Y-73152000D02*
X185446000Y-76200000D01*
X190500000Y-73152000D02*
X188494000Y-73152000D01*
%TO.N,Net-(D43-Pad1)*%
X176276000Y-132106000D02*
X175742000Y-131572000D01*
X176276000Y-137668000D02*
X176276000Y-132106000D01*
%TO.N,Net-(D44-Pad1)*%
X156972000Y-145796000D02*
X140716000Y-129540000D01*
X140716000Y-129540000D02*
X137668000Y-129540000D01*
X137668000Y-129540000D02*
X137668000Y-129540000D01*
%TO.N,Net-(D45-Pad1)*%
X130048000Y-165634000D02*
X138684000Y-156998000D01*
X130048000Y-166116000D02*
X130048000Y-165634000D01*
%TO.N,Net-(D46-Pad1)*%
X143082001Y-75865999D02*
X141732000Y-77216000D01*
X144920001Y-75865999D02*
X143082001Y-75865999D01*
X151855500Y-68930500D02*
X144920001Y-75865999D01*
X151855500Y-58928000D02*
X151855500Y-68930500D01*
%TO.N,/LED Schematic/Branch1On*%
X134202000Y-100218000D02*
X136144000Y-102160000D01*
X133410000Y-100218000D02*
X134202000Y-100218000D01*
X136600000Y-102616000D02*
X136144000Y-102160000D01*
X139700000Y-102616000D02*
X136600000Y-102616000D01*
%TO.N,/LED Schematic/Branch5On*%
X153610000Y-115682000D02*
X153124998Y-115682000D01*
X152886000Y-114958000D02*
X153610000Y-115682000D01*
X150876000Y-114958000D02*
X152886000Y-114958000D01*
X148570001Y-121685999D02*
X147320000Y-122936000D01*
X148570001Y-117263999D02*
X148570001Y-121685999D01*
X150876000Y-114958000D02*
X148570001Y-117263999D01*
%TO.N,/LED Schematic/Branch2On*%
X139558000Y-117998000D02*
X139700000Y-117856000D01*
X136028000Y-117998000D02*
X136144000Y-117882000D01*
X133410000Y-117998000D02*
X136028000Y-117998000D01*
X136170000Y-117856000D02*
X136144000Y-117882000D01*
X139700000Y-117856000D02*
X136170000Y-117856000D01*
%TO.N,/LED Schematic/Branch3On*%
X135244000Y-122062000D02*
X136144000Y-122962000D01*
X133410000Y-122062000D02*
X135244000Y-122062000D01*
X137134000Y-122962000D02*
X139700000Y-120396000D01*
X136144000Y-122962000D02*
X137134000Y-122962000D01*
%TO.N,/LED Schematic/Branch4On*%
X149550990Y-123245010D02*
X147320000Y-125476000D01*
X149550990Y-121695010D02*
X149550990Y-123245010D01*
X150876000Y-120370000D02*
X149550990Y-121695010D01*
X152008000Y-119238000D02*
X150876000Y-120370000D01*
X153610000Y-119238000D02*
X152008000Y-119238000D01*
%TO.N,Net-(R25-Pad2)*%
X138710000Y-91466000D02*
X139700000Y-92456000D01*
X136144000Y-91466000D02*
X138710000Y-91466000D01*
D28*
%TO.N,+9V*%
X146203999Y-80727999D02*
X147524000Y-82048000D01*
X134017071Y-80727999D02*
X146203999Y-80727999D01*
X129941070Y-84804000D02*
X134017071Y-80727999D01*
X125984000Y-84804000D02*
X129941070Y-84804000D01*
D26*
%TO.N,Net-(D6-Pad2)*%
X134280001Y-48376001D02*
X135688000Y-49784000D01*
X129931999Y-48376001D02*
X134280001Y-48376001D01*
X129032000Y-49276000D02*
X129931999Y-48376001D01*
X135662000Y-49810000D02*
X135688000Y-49784000D01*
X135662000Y-52324000D02*
X135662000Y-49810000D01*
X135662000Y-54864000D02*
X135662000Y-52324000D01*
%TO.N,Net-(D16-Pad2)*%
X208254000Y-69570000D02*
X204216000Y-69570000D01*
X212852000Y-74168000D02*
X208254000Y-69570000D01*
X204216000Y-69570000D02*
X201676000Y-69570000D01*
X199136000Y-69570000D02*
X201676000Y-69570000D01*
%TO.N,Net-(D24-Pad2)*%
X135636000Y-136144000D02*
X124968000Y-146812000D01*
X138684000Y-136144000D02*
X135636000Y-136144000D01*
%TO.N,Net-(D34-Pad2)*%
X145822000Y-52806000D02*
X145796000Y-52832000D01*
X145822000Y-38074000D02*
X145822000Y-47752000D01*
X153416000Y-30480000D02*
X145822000Y-38074000D01*
X145822000Y-50292000D02*
X145822000Y-47752000D01*
X145796000Y-50318000D02*
X145822000Y-50292000D01*
X145796000Y-52832000D02*
X145796000Y-50318000D01*
%TO.N,Net-(D36-Pad2)*%
X201985010Y-133887010D02*
X200660000Y-132562000D01*
X201985010Y-139390990D02*
X201985010Y-133887010D01*
X199644000Y-141732000D02*
X201985010Y-139390990D01*
X195580000Y-132562000D02*
X198120000Y-132562000D01*
X200660000Y-132562000D02*
X198120000Y-132562000D01*
%TO.N,Net-(D44-Pad2)*%
X159512000Y-145796000D02*
X157988000Y-147320000D01*
X145796000Y-150331235D02*
X145796000Y-150876000D01*
X148807235Y-147320000D02*
X145796000Y-150331235D01*
X157988000Y-147320000D02*
X148807235Y-147320000D01*
%TO.N,Net-(D46-Pad2)*%
X130048000Y-90398000D02*
X130022000Y-90424000D01*
X142240000Y-79248000D02*
X144272000Y-77216000D01*
X136144000Y-79248000D02*
X142240000Y-79248000D01*
X136144000Y-82296000D02*
X130556000Y-87884000D01*
X130530000Y-87910000D02*
X130556000Y-87884000D01*
X130530000Y-90424000D02*
X130530000Y-87910000D01*
X130530000Y-92964000D02*
X130530000Y-90424000D01*
%TO.N,+5V*%
X90424000Y-64542000D02*
X87884000Y-64542000D01*
X85344000Y-64542000D02*
X87884000Y-64542000D01*
X194114010Y-111701990D02*
X194564000Y-111252000D01*
X181319500Y-111760000D02*
X181377510Y-111701990D01*
X176747500Y-123444000D02*
X176747500Y-125439500D01*
X176747500Y-125439500D02*
X176747500Y-125439500D01*
X98070000Y-110210000D02*
X98044000Y-110236000D01*
X98070000Y-107696000D02*
X98070000Y-110210000D01*
X98044000Y-110236000D02*
X98044000Y-112776000D01*
X104611500Y-111252000D02*
X101055500Y-107696000D01*
X100076000Y-108712000D02*
X100076000Y-107696000D01*
X100076000Y-107696000D02*
X98070000Y-107696000D01*
X101055500Y-107696000D02*
X100076000Y-107696000D01*
X104140000Y-127990000D02*
X106680000Y-127990000D01*
X109220000Y-127990000D02*
X106680000Y-127990000D01*
X109220000Y-127990000D02*
X109246000Y-127990000D01*
X120396000Y-114808000D02*
X119380000Y-114808000D01*
X119380000Y-114808000D02*
X119380000Y-114808000D01*
X119380000Y-114808000D02*
X118872000Y-114300000D01*
X118872000Y-114300000D02*
X118872000Y-114300000D01*
X118872000Y-114300000D02*
X118872000Y-114300000D01*
X196596000Y-73152000D02*
X196596000Y-72136000D01*
X193475000Y-73152000D02*
X196596000Y-73152000D01*
X196596000Y-73152000D02*
X198654000Y-73152000D01*
X196596000Y-72136000D02*
X196596000Y-72136000D01*
X172683500Y-75692000D02*
X174244000Y-75692000D01*
X174244000Y-75692000D02*
X175006000Y-74930000D01*
X181283000Y-86868000D02*
X182372000Y-86868000D01*
X182372000Y-86868000D02*
X182880000Y-86360000D01*
X182880000Y-86360000D02*
X182880000Y-86360000D01*
D28*
X138710000Y-88366000D02*
X136144000Y-88366000D01*
X139700000Y-88900000D02*
X139166000Y-88366000D01*
X139700000Y-90424000D02*
X139700000Y-88900000D01*
X139166000Y-88366000D02*
X138710000Y-88366000D01*
X140716000Y-88900000D02*
X140182000Y-88366000D01*
X140716000Y-90424000D02*
X140716000Y-88900000D01*
X140182000Y-88366000D02*
X139166000Y-88366000D01*
X141732000Y-90424000D02*
X141732000Y-89408000D01*
X140690000Y-88366000D02*
X140182000Y-88366000D01*
X141732000Y-89408000D02*
X140690000Y-88366000D01*
X142748000Y-88392000D02*
X142774000Y-88366000D01*
X143764000Y-88392000D02*
X143790000Y-88366000D01*
X143790000Y-88366000D02*
X142774000Y-88366000D01*
X143764000Y-90424000D02*
X143764000Y-88392000D01*
X144780000Y-88900000D02*
X144246000Y-88366000D01*
X144780000Y-90424000D02*
X144780000Y-88900000D01*
X144246000Y-88366000D02*
X143790000Y-88366000D01*
X145796000Y-88900000D02*
X145262000Y-88366000D01*
X145796000Y-90424000D02*
X145796000Y-88900000D01*
X145262000Y-88366000D02*
X144246000Y-88366000D01*
X146278000Y-88366000D02*
X145262000Y-88366000D01*
X147346000Y-88366000D02*
X146278000Y-88366000D01*
X148726002Y-88366000D02*
X147346000Y-88366000D01*
X138684000Y-88392000D02*
X138710000Y-88366000D01*
X138684000Y-90424000D02*
X138684000Y-88392000D01*
X141732000Y-88900000D02*
X142266000Y-88366000D01*
X141732000Y-95504000D02*
X141732000Y-88900000D01*
X142266000Y-88366000D02*
X140690000Y-88366000D01*
X142774000Y-88366000D02*
X142266000Y-88366000D01*
X142748000Y-95504000D02*
X142748000Y-88900000D01*
X142748000Y-88900000D02*
X142748000Y-88392000D01*
X142748000Y-90424000D02*
X142748000Y-88900000D01*
X144780000Y-95504000D02*
X141732000Y-95504000D01*
X144780000Y-94488000D02*
X141732000Y-94488000D01*
X132562000Y-52324000D02*
X131064000Y-52324000D01*
X131064000Y-52324000D02*
X131064000Y-52324000D01*
D26*
X142722000Y-44730000D02*
X141758000Y-44730000D01*
X142722000Y-43750500D02*
X142722000Y-44730000D01*
X142722000Y-44730000D02*
X142722000Y-47752000D01*
X141758000Y-44730000D02*
X141732000Y-44704000D01*
X141732000Y-44704000D02*
X141732000Y-44704000D01*
X181319500Y-111760000D02*
X182880000Y-111760000D01*
X182880000Y-111760000D02*
X182880000Y-111760000D01*
X153452500Y-124968000D02*
X151892000Y-124968000D01*
X151892000Y-124968000D02*
X151892000Y-124968000D01*
X198120000Y-135662000D02*
X198120000Y-137160000D01*
X195580000Y-127508000D02*
X197104000Y-127508000D01*
X197104000Y-127508000D02*
X197104000Y-127508000D01*
X198120000Y-137160000D02*
X198120000Y-137160000D01*
X87884000Y-64542000D02*
X87884000Y-62992000D01*
X87884000Y-62992000D02*
X87884000Y-62992000D01*
X95467500Y-69088000D02*
X95467500Y-67600500D01*
X95467500Y-67600500D02*
X95467500Y-67600500D01*
X108675500Y-82296000D02*
X110236000Y-82296000D01*
X110236000Y-82296000D02*
X110236000Y-82296000D01*
X106680000Y-127990000D02*
X106680000Y-129540000D01*
X106680000Y-129540000D02*
X106680000Y-129540000D01*
X116840000Y-98625000D02*
X116840000Y-97028000D01*
X116840000Y-97028000D02*
X116840000Y-97028000D01*
X157516500Y-112776000D02*
X159004000Y-112776000D01*
X159004000Y-112776000D02*
X159004000Y-112776000D01*
%TO.N,Net-(D2-Pad1)*%
X160528000Y-94970000D02*
X160554000Y-94996000D01*
X160528000Y-92456000D02*
X160528000Y-94970000D01*
%TO.N,Net-(D4-Pad1)*%
X120822034Y-109728000D02*
X122972500Y-107577534D01*
X118872000Y-109728000D02*
X120822034Y-109728000D01*
X113284000Y-115316000D02*
X118872000Y-109728000D01*
X113284000Y-119380000D02*
X113284000Y-115316000D01*
X109646034Y-120904000D02*
X111760000Y-120904000D01*
X122972500Y-107577534D02*
X122972500Y-105156000D01*
X107704966Y-122845068D02*
X109646034Y-120904000D01*
X107704966Y-124460000D02*
X107704966Y-122845068D01*
X111760000Y-120904000D02*
X113284000Y-119380000D01*
X110545010Y-127300044D02*
X107704966Y-124460000D01*
X110545010Y-132786990D02*
X110545010Y-127300044D01*
X107696000Y-135636000D02*
X110545010Y-132786990D01*
%TO.N,Net-(D5-Pad1)*%
X97735999Y-85678001D02*
X99060000Y-84354000D01*
X94314001Y-85678001D02*
X97735999Y-85678001D01*
X92964000Y-84328000D02*
X94314001Y-85678001D01*
%TO.N,Net-(D10-Pad2)*%
X109293000Y-72551571D02*
X109293000Y-72644000D01*
X111225591Y-70618980D02*
X109293000Y-72551571D01*
X113772943Y-70618980D02*
X111225591Y-70618980D01*
X114405595Y-71251633D02*
X113772943Y-70618980D01*
X126912911Y-71251633D02*
X114405595Y-71251633D01*
X131798510Y-66366034D02*
X126912911Y-71251633D01*
%TO.N,Net-(D7-Pad1)*%
X157988000Y-124968000D02*
X159512000Y-123444000D01*
X156427500Y-124968000D02*
X157988000Y-124968000D01*
%TO.N,Net-(D10-Pad1)*%
X182880000Y-118390000D02*
X162052000Y-118390000D01*
X188468000Y-112802000D02*
X182880000Y-118390000D01*
X124183989Y-93001989D02*
X130750000Y-99568000D01*
X124183989Y-84559989D02*
X124183989Y-93001989D01*
X112268000Y-72644000D02*
X124183989Y-84559989D01*
X99086000Y-81254000D02*
X99112000Y-81280000D01*
X99060000Y-81254000D02*
X99086000Y-81254000D01*
X99112000Y-81280000D02*
X102616000Y-81280000D01*
X102616000Y-81280000D02*
X102616000Y-81280000D01*
X171671990Y-78841044D02*
X171671990Y-85892976D01*
X172082044Y-78430990D02*
X171671990Y-78841044D01*
X173107047Y-78430990D02*
X172082044Y-78430990D01*
X181864000Y-69674037D02*
X173107047Y-78430990D01*
X181864000Y-69114000D02*
X181864000Y-69674037D01*
X153932966Y-103632000D02*
X151892000Y-103632000D01*
X151892000Y-103632000D02*
X151892000Y-103632000D01*
X135048001Y-103866001D02*
X130750000Y-99568000D01*
X145561999Y-103866001D02*
X135048001Y-103866001D01*
X125947500Y-104370500D02*
X130750000Y-99568000D01*
X125947500Y-105156000D02*
X125947500Y-104370500D01*
X157454000Y-94996000D02*
X157454000Y-95530000D01*
X157454000Y-95530000D02*
X155448000Y-97536000D01*
X155448000Y-97536000D02*
X154940000Y-98044000D01*
X154940000Y-98044000D02*
X154940000Y-98044000D01*
X156718000Y-100330000D02*
X156976483Y-100588483D01*
X156718000Y-99822000D02*
X156718000Y-100330000D01*
X156976483Y-100588483D02*
X153932966Y-103632000D01*
X171671990Y-85892976D02*
X156976483Y-100588483D01*
X163377010Y-117064990D02*
X163377010Y-108513010D01*
X162052000Y-118390000D02*
X163377010Y-117064990D01*
X163377010Y-108513010D02*
X162052000Y-107188000D01*
X162052000Y-107188000D02*
X162052000Y-107188000D01*
X160274000Y-103886000D02*
X156976483Y-100588483D01*
X160274000Y-105410000D02*
X160274000Y-103886000D01*
X102616000Y-79248000D02*
X103124000Y-78740000D01*
X103124000Y-78740000D02*
X108204000Y-78740000D01*
X108204000Y-78740000D02*
X108712000Y-78232000D01*
X108712000Y-78232000D02*
X108712000Y-78232000D01*
X112268000Y-74676000D02*
X112268000Y-72644000D01*
X111252000Y-75692000D02*
X112268000Y-74676000D01*
%TO.N,Net-(D11-Pad1)*%
X154966000Y-50292000D02*
X154940000Y-50266000D01*
X159512000Y-50292000D02*
X154966000Y-50292000D01*
%TO.N,Net-(D12-Pad1)*%
X116840000Y-104114000D02*
X116840000Y-101600000D01*
%TO.N,Net-(D13-Pad1)*%
X107188000Y-64998000D02*
X106654000Y-65532000D01*
X107188000Y-59436000D02*
X107188000Y-64998000D01*
%TO.N,Net-(D14-Pad1)*%
X88900000Y-108746966D02*
X88900000Y-106680000D01*
X94997185Y-114844151D02*
X88900000Y-108746966D01*
X94996054Y-114845282D02*
X94997185Y-114844151D01*
X94996054Y-118871946D02*
X94996054Y-114845282D01*
X91476500Y-122391500D02*
X94996054Y-118871946D01*
X91476500Y-124460000D02*
X91476500Y-122391500D01*
%TO.N,Net-(D17-Pad1)*%
X123371000Y-112367000D02*
X123470000Y-112268000D01*
X123371000Y-114808000D02*
X123371000Y-112367000D01*
%TO.N,Net-(D19-Pad1)*%
X116314966Y-107214000D02*
X116840000Y-107214000D01*
X94451500Y-124460000D02*
X94451500Y-124552428D01*
X94451500Y-124460000D02*
X94996000Y-124460000D01*
X94996000Y-124460000D02*
X96012000Y-123444000D01*
X96012000Y-123444000D02*
X96520000Y-122936000D01*
X96520000Y-122936000D02*
X96520000Y-122936000D01*
X108130490Y-67155510D02*
X108130490Y-74602490D01*
X109754000Y-65532000D02*
X108130490Y-67155510D01*
X108130490Y-74602490D02*
X115824000Y-82296000D01*
X115824000Y-82296000D02*
X115824000Y-82296000D01*
X116840000Y-106128966D02*
X116840000Y-107214000D01*
X114300000Y-103588966D02*
X116840000Y-106128966D01*
X114300000Y-83820000D02*
X114300000Y-103588966D01*
X156270000Y-116332000D02*
X156270000Y-110974500D01*
X189458000Y-124968000D02*
X188976000Y-124968000D01*
X188976000Y-124968000D02*
X185928000Y-121920000D01*
X185928000Y-121920000D02*
X185928000Y-121920000D01*
X185928000Y-119888000D02*
X185928000Y-116840000D01*
X185928000Y-116840000D02*
X187452000Y-115316000D01*
X187452000Y-115316000D02*
X187452000Y-115316000D01*
X185928000Y-113226315D02*
X176333685Y-103632000D01*
X185928000Y-113792000D02*
X185928000Y-113226315D01*
X176333685Y-103632000D02*
X168148000Y-103632000D01*
X168148000Y-103632000D02*
X168148000Y-103632000D01*
X166116000Y-102071500D02*
X165644500Y-101600000D01*
X166116000Y-103632000D02*
X166116000Y-102071500D01*
X120370000Y-112268000D02*
X117856000Y-112268000D01*
X98556483Y-124972483D02*
X113288483Y-110240483D01*
X113288483Y-110240483D02*
X113796483Y-109732483D01*
X121695010Y-110942990D02*
X132786990Y-110942990D01*
X120370000Y-112268000D02*
X121695010Y-110942990D01*
X132786990Y-110942990D02*
X134366000Y-112522000D01*
X151110001Y-111525999D02*
X152654000Y-109982000D01*
X156482250Y-110254250D02*
X156990250Y-110254250D01*
X154432000Y-108204000D02*
X156482250Y-110254250D01*
X156482250Y-110254250D02*
X156482250Y-110762250D01*
X156482250Y-110762250D02*
X156990250Y-110254250D01*
X156270000Y-110974500D02*
X156482250Y-110762250D01*
X144945999Y-147993999D02*
X144945999Y-137502001D01*
X144945999Y-152539999D02*
X144945999Y-147993999D01*
X144945999Y-147993999D02*
X144945999Y-147662001D01*
X144945999Y-137502001D02*
X145796000Y-136652000D01*
X147574000Y-134874000D02*
X144272000Y-131572000D01*
X144506001Y-111525999D02*
X151110001Y-111525999D01*
X144272000Y-111760000D02*
X144506001Y-111525999D01*
X144272000Y-111799998D02*
X143998001Y-111525999D01*
X144272000Y-112268000D02*
X144272000Y-111799998D01*
X143998001Y-111525999D02*
X144506001Y-111525999D01*
X140989999Y-111525999D02*
X143998001Y-111525999D01*
X144272000Y-125984000D02*
X144272000Y-112268000D01*
X144272000Y-112268000D02*
X144272000Y-111760000D01*
X144272000Y-129032000D02*
X144272000Y-131572000D01*
X154940000Y-53366000D02*
X154940000Y-58420000D01*
X153815999Y-64586685D02*
X166445314Y-77216000D01*
X153815999Y-60343999D02*
X153815999Y-64586685D01*
X153416000Y-59944000D02*
X153815999Y-60343999D01*
X166445314Y-77216000D02*
X166445314Y-77216000D01*
X165137657Y-78523657D02*
X165137657Y-91148343D01*
X165137657Y-91148343D02*
X163576000Y-92710000D01*
X163576000Y-92710000D02*
X163576000Y-92710000D01*
X164846000Y-100801500D02*
X165644500Y-101600000D01*
X164846000Y-93980000D02*
X164846000Y-100801500D01*
X164846000Y-102108000D02*
X164991250Y-102253250D01*
X164846000Y-100801500D02*
X164846000Y-102108000D01*
X164991250Y-102253250D02*
X165644500Y-101600000D01*
X156990250Y-110254250D02*
X164991250Y-102253250D01*
X115824000Y-111252000D02*
X114050483Y-109478483D01*
X114050483Y-109478483D02*
X116314966Y-107214000D01*
X113796483Y-109732483D02*
X114050483Y-109478483D01*
X117348000Y-112776000D02*
X117856000Y-112268000D01*
%TO.N,Net-(D21-Pad1)*%
X192634200Y-88823800D02*
X191516000Y-89942000D01*
X194919600Y-88823800D02*
X192634200Y-88823800D01*
%TO.N,Net-(D22-Pad1)*%
X178308000Y-84354000D02*
X178282000Y-84328000D01*
X178308000Y-86868000D02*
X178308000Y-84354000D01*
%TO.N,Net-(D27-Pad1)*%
X173772500Y-120940500D02*
X173736000Y-120904000D01*
X173772500Y-123444000D02*
X173772500Y-120940500D01*
%TO.N,Net-(D29-Pad1)*%
X92964000Y-125049966D02*
X92964000Y-123962462D01*
X92228956Y-125785010D02*
X92964000Y-125049966D01*
X85679010Y-125785010D02*
X92228956Y-125785010D01*
X83846000Y-123952000D02*
X85679010Y-125785010D01*
X191008000Y-120904000D02*
X195072000Y-124968000D01*
X198628000Y-124968000D02*
X201676000Y-128016000D01*
X195072000Y-124968000D02*
X198628000Y-124968000D01*
X92964000Y-123063054D02*
X97663054Y-118364000D01*
X92964000Y-123962462D02*
X92964000Y-123063054D01*
X97663054Y-118364000D02*
X101092000Y-118364000D01*
X101092000Y-118364000D02*
X101092000Y-118364000D01*
X107696000Y-121412000D02*
X111760000Y-117348000D01*
X104140000Y-121412000D02*
X107696000Y-121412000D01*
X121412000Y-79586219D02*
X121412000Y-79586219D01*
X119779999Y-82018218D02*
X119779999Y-87955501D01*
X119779999Y-87955501D02*
X118364000Y-89371500D01*
X119380000Y-81618219D02*
X119779999Y-82018218D01*
X184671242Y-110802010D02*
X177700332Y-103831100D01*
X188482976Y-110802010D02*
X184671242Y-110802010D01*
X190500000Y-112819034D02*
X188482976Y-110802010D01*
X177700332Y-103831100D02*
X177700332Y-95139225D01*
X190500000Y-120904000D02*
X190500000Y-112819034D01*
X176836000Y-120904000D02*
X190500000Y-120904000D01*
X177700332Y-95139225D02*
X185997557Y-86842000D01*
X190500000Y-120904000D02*
X191008000Y-120904000D01*
X188442000Y-86842000D02*
X188442000Y-84862000D01*
X185997557Y-86842000D02*
X188442000Y-86842000D01*
X188442000Y-86842000D02*
X191516000Y-86842000D01*
X188442000Y-84862000D02*
X188442000Y-84862000D01*
X186918000Y-83338000D02*
X184938000Y-83338000D01*
X184938000Y-83338000D02*
X184938000Y-83338000D01*
X181408000Y-84328000D02*
X182398000Y-83338000D01*
X181382000Y-84328000D02*
X181408000Y-84328000D01*
X130750000Y-118073000D02*
X132057000Y-119380000D01*
X130750000Y-117348000D02*
X130750000Y-118073000D01*
X132057000Y-119380000D02*
X134620000Y-119380000D01*
X134620000Y-119380000D02*
X134620000Y-119380000D01*
X141497999Y-119145999D02*
X143256000Y-120904000D01*
X143256000Y-120904000D02*
X143256000Y-125476000D01*
X143256000Y-125476000D02*
X142748000Y-125984000D01*
X142748000Y-125984000D02*
X142748000Y-125984000D01*
X142748000Y-128016000D02*
X150368000Y-128016000D01*
X169473010Y-119578990D02*
X168148000Y-120904000D01*
X175510990Y-119578990D02*
X169473010Y-119578990D01*
X176836000Y-120904000D02*
X175510990Y-119578990D01*
X168148000Y-120904000D02*
X168148000Y-120904000D01*
X165575990Y-121444010D02*
X158528010Y-121444010D01*
X166116000Y-120904000D02*
X165575990Y-121444010D01*
X158528010Y-121444010D02*
X157988000Y-120904000D01*
X157988000Y-120904000D02*
X157988000Y-120904000D01*
X155132010Y-126299990D02*
X150683990Y-126299990D01*
X155264990Y-126167010D02*
X155132010Y-126299990D01*
X155264990Y-123627010D02*
X155264990Y-126167010D01*
X156464000Y-122428000D02*
X155264990Y-123627010D01*
X150683990Y-126299990D02*
X150368000Y-125984000D01*
X150368000Y-125984000D02*
X150368000Y-125984000D01*
X121750219Y-79248000D02*
X121412000Y-79586219D01*
X127000000Y-79248000D02*
X121750219Y-79248000D01*
X128185781Y-79248000D02*
X127000000Y-79248000D01*
X129175743Y-79248000D02*
X127000000Y-79248000D01*
X131572000Y-77216000D02*
X131207743Y-77216000D01*
X131207743Y-77216000D02*
X129175743Y-79248000D01*
X131207743Y-77216000D02*
X135779743Y-72644000D01*
X137884219Y-72644000D02*
X141948219Y-68580000D01*
X135779743Y-72644000D02*
X137884219Y-72644000D01*
X141948219Y-68580000D02*
X143256000Y-68580000D01*
X143256000Y-68580000D02*
X144281990Y-67554010D01*
X144281990Y-67554010D02*
X144281990Y-63509990D01*
X143981999Y-58762001D02*
X144272000Y-58472000D01*
X143981999Y-63209999D02*
X143981999Y-58762001D01*
X144281990Y-63509990D02*
X143981999Y-63209999D01*
X143727500Y-159512000D02*
X143727500Y-140498500D01*
X143727500Y-140498500D02*
X141986000Y-138757000D01*
X139781999Y-134540001D02*
X139781999Y-132506001D01*
X141986000Y-136744002D02*
X139781999Y-134540001D01*
X141986000Y-138757000D02*
X141986000Y-136744002D01*
X139781999Y-132506001D02*
X140462000Y-131826000D01*
X140462000Y-131826000D02*
X140462000Y-130556000D01*
X140462000Y-130556000D02*
X140462000Y-130556000D01*
X142240000Y-128524000D02*
X142748000Y-128016000D01*
X140462000Y-128524000D02*
X142240000Y-128524000D01*
X124784990Y-95792490D02*
X124784990Y-107004990D01*
X118364000Y-89371500D02*
X124784990Y-95792490D01*
X124784990Y-107004990D02*
X126492000Y-108712000D01*
X126492000Y-108712000D02*
X126492000Y-109728000D01*
X125984000Y-117348000D02*
X126492000Y-116840000D01*
X126492000Y-116840000D02*
X126492000Y-117348000D01*
X126492000Y-112268000D02*
X126492000Y-116840000D01*
X125984000Y-117348000D02*
X126492000Y-117348000D01*
X126492000Y-116840000D02*
X127000000Y-117348000D01*
X127000000Y-117348000D02*
X130750000Y-117348000D01*
X126492000Y-117348000D02*
X127000000Y-117348000D01*
X115316000Y-117348000D02*
X126492000Y-117348000D01*
%TO.N,Net-(D32-Pad1)*%
X101636500Y-113755500D02*
X101600000Y-113792000D01*
X101636500Y-111252000D02*
X101636500Y-113755500D01*
%TO.N,Net-(D33-Pad1)*%
X82495999Y-72470001D02*
X82804000Y-72162000D01*
X78599999Y-72470001D02*
X82495999Y-72470001D01*
X77249998Y-71120000D02*
X78599999Y-72470001D01*
X76708000Y-71120000D02*
X77249998Y-71120000D01*
%TO.N,Net-(D34-Pad1)*%
X147763980Y-55880000D02*
X147763980Y-55307980D01*
X146271990Y-57371990D02*
X147763980Y-55880000D01*
X140711510Y-57371990D02*
X146271990Y-57371990D01*
X147763980Y-55307980D02*
X146922010Y-54466010D01*
X139155500Y-58928000D02*
X140711510Y-57371990D01*
X146922010Y-54466010D02*
X146922010Y-54736956D01*
X146922010Y-39513990D02*
X146922010Y-54466010D01*
%TO.N,Net-(D36-Pad1)*%
X133567500Y-125476000D02*
X133567500Y-125947500D01*
X133567500Y-125947500D02*
X134620000Y-127000000D01*
X134620000Y-127000000D02*
X134620000Y-127000000D01*
X194254990Y-138882990D02*
X197104000Y-141732000D01*
X194254990Y-134310990D02*
X194254990Y-138882990D01*
X183401818Y-129027148D02*
X188971148Y-129027148D01*
X179531956Y-132897010D02*
X183401818Y-129027148D01*
X176842010Y-131586976D02*
X178152044Y-132897010D01*
X176842010Y-130657044D02*
X176842010Y-131586976D01*
X171402355Y-125217389D02*
X176842010Y-130657044D01*
X188971148Y-129027148D02*
X194254990Y-134310990D01*
X178152044Y-132897010D02*
X179531956Y-132897010D01*
X160278611Y-125217389D02*
X171402355Y-125217389D01*
X158496000Y-127000000D02*
X160278611Y-125217389D01*
X137160000Y-127000000D02*
X158496000Y-127000000D01*
%TO.N,Net-(D37-Pad1)*%
X105700500Y-84773500D02*
X105638000Y-84836000D01*
X105700500Y-82296000D02*
X105700500Y-84773500D01*
%TO.N,Net-(D39-Pad1)*%
X177653010Y-74874990D02*
X172772000Y-79756000D01*
X185781047Y-74874990D02*
X177653010Y-74874990D01*
X197156037Y-63500000D02*
X185781047Y-74874990D01*
X198094000Y-63500000D02*
X197156037Y-63500000D01*
X104700000Y-116814000D02*
X104700000Y-113792000D01*
X87910000Y-133604000D02*
X104700000Y-116814000D01*
X107512990Y-83610990D02*
X108738000Y-84836000D01*
X107512990Y-81604990D02*
X107512990Y-83610990D01*
X98941024Y-80153990D02*
X106061990Y-80153990D01*
X87849034Y-69062000D02*
X98941024Y-80153990D01*
X82804000Y-69062000D02*
X87849034Y-69062000D01*
X130592500Y-121569500D02*
X130750000Y-121412000D01*
X130592500Y-125476000D02*
X130592500Y-121569500D01*
X117856000Y-76708000D02*
X117856000Y-76708000D01*
X116332000Y-78232000D02*
X113284000Y-78232000D01*
X113284000Y-78232000D02*
X112268000Y-77216000D01*
X112268000Y-77216000D02*
X112268000Y-77216000D01*
X107950000Y-79502000D02*
X106680000Y-80772000D01*
X109982000Y-79502000D02*
X107950000Y-79502000D01*
X106680000Y-80772000D02*
X107512990Y-81604990D01*
X106061990Y-80153990D02*
X106680000Y-80772000D01*
X123032217Y-76708000D02*
X117856000Y-76708000D01*
X130725781Y-76708000D02*
X123032217Y-76708000D01*
X136180500Y-71253281D02*
X130725781Y-76708000D01*
X172772000Y-80631000D02*
X172720000Y-80683000D01*
X172772000Y-79756000D02*
X172772000Y-80631000D01*
X172720000Y-80683000D02*
X172720000Y-81280000D01*
X169181034Y-81280000D02*
X152925034Y-65024000D01*
X170688000Y-81280000D02*
X169181034Y-81280000D01*
X152925034Y-65024000D02*
X152925034Y-65024000D01*
X150876000Y-65024000D02*
X148336000Y-65024000D01*
X148336000Y-65024000D02*
X147828000Y-65532000D01*
X147828000Y-65532000D02*
X147828000Y-65532000D01*
X136217000Y-65024000D02*
X136180500Y-64987500D01*
X136652000Y-64951000D02*
X136180500Y-64479500D01*
X136652000Y-65024000D02*
X136652000Y-64951000D01*
X136180500Y-64479500D02*
X136180500Y-64987500D01*
X143256000Y-65024000D02*
X136652000Y-65024000D01*
X136180500Y-58928000D02*
X136180500Y-64479500D01*
X136652000Y-65024000D02*
X136217000Y-65024000D01*
X136652000Y-65097000D02*
X136180500Y-65568500D01*
X136652000Y-65024000D02*
X136652000Y-65097000D01*
X136180500Y-65568500D02*
X136180500Y-71253281D01*
X136180500Y-64987500D02*
X136180500Y-65568500D01*
X114465999Y-117756001D02*
X114465999Y-115658001D01*
X118121998Y-121412000D02*
X114465999Y-117756001D01*
X130750000Y-121412000D02*
X118121998Y-121412000D01*
X114465999Y-115658001D02*
X116210999Y-113913001D01*
X116210999Y-113913001D02*
X116210999Y-113913001D01*
X114686999Y-112389001D02*
X112654999Y-112389001D01*
X112654999Y-112389001D02*
X110236000Y-114808000D01*
X110236000Y-114808000D02*
X110236000Y-114808000D01*
X108204000Y-113792000D02*
X108712000Y-113284000D01*
X104700000Y-113792000D02*
X108204000Y-113792000D01*
X108808811Y-109683189D02*
X108808811Y-106075189D01*
X104700000Y-113792000D02*
X108808811Y-109683189D01*
X108808811Y-106075189D02*
X111760000Y-103124000D01*
X111760000Y-87858000D02*
X108738000Y-84836000D01*
X111760000Y-103124000D02*
X111760000Y-87858000D01*
%TO.N,Net-(D44-Pad1)*%
X133639782Y-128051782D02*
X135128000Y-129540000D01*
X131090816Y-128051782D02*
X133639782Y-128051782D01*
X125783024Y-122743990D02*
X131090816Y-128051782D01*
X111978047Y-122743990D02*
X125783024Y-122743990D01*
X111278038Y-123444000D02*
X111978047Y-122743990D01*
X109183500Y-123444000D02*
X111278038Y-123444000D01*
%TO.N,Net-(D47-Pad1)*%
X178282000Y-111822500D02*
X178344500Y-111760000D01*
X178282000Y-114300000D02*
X178282000Y-111822500D01*
%TO.N,Net-(D48-Pad1)*%
X92430000Y-69150500D02*
X92492500Y-69088000D01*
X92430000Y-71628000D02*
X92430000Y-69150500D01*
%TO.N,Net-(D49-Pad1)*%
X178842000Y-122454000D02*
X178842000Y-122454000D01*
X178842000Y-116840000D02*
X181382000Y-114300000D01*
X178842000Y-116866000D02*
X178842000Y-116840000D01*
X175225034Y-126974000D02*
X178842000Y-126974000D01*
X170595024Y-122343990D02*
X175225034Y-126974000D01*
X156270000Y-120613000D02*
X158000990Y-122343990D01*
X156270000Y-119888000D02*
X156270000Y-120613000D01*
X178842000Y-126974000D02*
X178842000Y-122454000D01*
X178842000Y-131572000D02*
X178842000Y-126974000D01*
X183730001Y-86849541D02*
X183730001Y-77584001D01*
X183730001Y-77584001D02*
X182346000Y-76200000D01*
X170341771Y-100237771D02*
X183730001Y-86849541D01*
X167904263Y-100237771D02*
X170341771Y-100237771D01*
X167132000Y-101010034D02*
X167904263Y-100237771D01*
X167132000Y-117348000D02*
X167132000Y-101010034D01*
X167132000Y-122259980D02*
X167047990Y-122343990D01*
X167132000Y-119380000D02*
X167132000Y-122259980D01*
X167047990Y-122343990D02*
X170595024Y-122343990D01*
X158000990Y-122343990D02*
X167047990Y-122343990D01*
X95530000Y-71628000D02*
X102108000Y-71628000D01*
X111105490Y-71729044D02*
X111515544Y-71318990D01*
X111515544Y-71318990D02*
X113482990Y-71318990D01*
X113482990Y-71318990D02*
X116840000Y-74676000D01*
X126322219Y-74676000D02*
X133434219Y-67564000D01*
X123444000Y-74676000D02*
X126322219Y-74676000D01*
X116840000Y-74676000D02*
X123444000Y-74676000D01*
X123444000Y-74676000D02*
X124074255Y-74676000D01*
X133434219Y-67564000D02*
X135128000Y-67564000D01*
X135128000Y-67564000D02*
X135128000Y-67564000D01*
X137160000Y-67564000D02*
X138684000Y-67564000D01*
X139700000Y-66548000D02*
X140167980Y-66548000D01*
X140167980Y-66548000D02*
X140167980Y-66548000D01*
X146812000Y-60996500D02*
X148880500Y-58928000D01*
X146812000Y-66548000D02*
X146812000Y-60996500D01*
X139700000Y-66548000D02*
X138684000Y-67564000D01*
X143256000Y-66548000D02*
X139700000Y-66548000D01*
X148880500Y-58928000D02*
X148844000Y-58928000D01*
X148844000Y-58928000D02*
X147574000Y-57658000D01*
X139700000Y-52814966D02*
X139700000Y-44704000D01*
X143419033Y-56533999D02*
X139700000Y-52814966D01*
X145650001Y-56533999D02*
X143419033Y-56533999D01*
X146050000Y-56134000D02*
X145650001Y-56533999D01*
X157232270Y-67012994D02*
X164299275Y-74079999D01*
X164299275Y-74079999D02*
X176187999Y-74079999D01*
X157232270Y-62227304D02*
X157232270Y-67012994D01*
X152607956Y-57602990D02*
X157232270Y-62227304D01*
X150205510Y-57602990D02*
X152607956Y-57602990D01*
X148880500Y-58928000D02*
X150205510Y-57602990D01*
X176187999Y-74079999D02*
X176187999Y-74079999D01*
X182092000Y-75946000D02*
X182346000Y-76200000D01*
X178054000Y-75946000D02*
X182092000Y-75946000D01*
X138684000Y-141224000D02*
X135255000Y-137795000D01*
X133985000Y-136525000D02*
X133985000Y-131953000D01*
X128524000Y-126492000D02*
X128524000Y-126474928D01*
X133985000Y-131953000D02*
X128524000Y-126492000D01*
X128524000Y-126474928D02*
X126627536Y-124578464D01*
X126627536Y-124578464D02*
X125493072Y-123444000D01*
X125493072Y-123444000D02*
X112268000Y-123444000D01*
X111567991Y-124144010D02*
X110560956Y-124144010D01*
X112268000Y-123444000D02*
X111567991Y-124144010D01*
X110560956Y-124144010D02*
X109736966Y-124968000D01*
X109736966Y-124968000D02*
X109736966Y-124968000D01*
X106208500Y-124496500D02*
X106208500Y-123444000D01*
X108208483Y-126496483D02*
X106208500Y-124496500D01*
X111105490Y-71729044D02*
X111105490Y-72908976D01*
X107188000Y-76708000D02*
X102108000Y-71628000D01*
X107188000Y-76708000D02*
X107696000Y-77216000D01*
X110236000Y-73778466D02*
X111105490Y-72908976D01*
X110236000Y-74676000D02*
X110236000Y-73778466D01*
X156270000Y-120613000D02*
X156247000Y-120613000D01*
X156247000Y-120613000D02*
X153416000Y-123444000D01*
X153416000Y-123444000D02*
X153416000Y-123444000D01*
X153416000Y-130290002D02*
X149352000Y-134354002D01*
X153416000Y-128016000D02*
X153416000Y-130290002D01*
X149352000Y-134354002D02*
X149352000Y-135128000D01*
X149352000Y-135128000D02*
X148590000Y-135890000D01*
X146812000Y-137668000D02*
X146812000Y-144122009D01*
X146812000Y-144122009D02*
X145975005Y-144959005D01*
X139012995Y-144959005D02*
X138684000Y-145288000D01*
X141552995Y-144959005D02*
X139012995Y-144959005D01*
X138684000Y-153898000D02*
X138684000Y-145288000D01*
X138863005Y-144959005D02*
X138684000Y-144780000D01*
X139012995Y-144959005D02*
X138863005Y-144959005D01*
X138684000Y-144780000D02*
X138684000Y-141224000D01*
X138684000Y-145288000D02*
X138684000Y-144780000D01*
%TO.N,Net-(R1-Pad2)*%
X149042990Y-99851010D02*
X150368000Y-98526000D01*
X149042990Y-103433010D02*
X149042990Y-99851010D01*
X147320000Y-105156000D02*
X149042990Y-103433010D01*
X150368000Y-96546000D02*
X150368000Y-98526000D01*
%TO.N,Net-(D4-Pad2)*%
X105156000Y-132106000D02*
X104140000Y-131090000D01*
X105156000Y-135636000D02*
X105156000Y-132106000D01*
X106680000Y-131090000D02*
X104140000Y-131090000D01*
X109220000Y-131090000D02*
X106680000Y-131090000D01*
%TO.N,Net-(D14-Pad2)*%
X94970000Y-110210000D02*
X94944000Y-110236000D01*
X94970000Y-107696000D02*
X94970000Y-110210000D01*
X94944000Y-112776000D02*
X94944000Y-110236000D01*
X93954000Y-106680000D02*
X94970000Y-107696000D01*
X91440000Y-106680000D02*
X93954000Y-106680000D01*
%TO.N,Net-(D26-Pad2)*%
X90424000Y-61442000D02*
X87884000Y-61442000D01*
X85344000Y-61442000D02*
X87884000Y-61442000D01*
X85009999Y-61107999D02*
X85344000Y-61442000D01*
X85009999Y-53603999D02*
X85009999Y-61107999D01*
X85099999Y-53513999D02*
X85009999Y-53603999D01*
X87549999Y-53513999D02*
X85099999Y-53513999D01*
X88900000Y-54864000D02*
X87549999Y-53513999D01*
%TD*%
M02*
