%TF.GenerationSoftware,KiCad,Pcbnew,(5.1.9)-1*%
%TF.CreationDate,2021-12-13T22:42:44-05:00*%
%TF.ProjectId,Ornament,4f726e61-6d65-46e7-942e-6b696361645f,rev?*%
%TF.SameCoordinates,Original*%
%TF.FileFunction,Legend,Bot*%
%TF.FilePolarity,Positive*%
%FSLAX46Y46*%
G04 Gerber Fmt 4.6, Leading zero omitted, Abs format (unit mm)*
G04 Created by KiCad (PCBNEW (5.1.9)-1) date 2021-12-13 22:42:44*
%MOMM*%
%LPD*%
G01*
G04 APERTURE LIST*
%ADD10C,0.200000*%
%ADD11C,0.300000*%
%ADD12C,0.120000*%
%ADD13C,0.150000*%
G04 APERTURE END LIST*
D10*
X121864380Y-87821714D02*
X120864380Y-87821714D01*
X120864380Y-88059809D01*
X120912000Y-88202666D01*
X121007238Y-88297904D01*
X121102476Y-88345523D01*
X121292952Y-88393142D01*
X121435809Y-88393142D01*
X121626285Y-88345523D01*
X121721523Y-88297904D01*
X121816761Y-88202666D01*
X121864380Y-88059809D01*
X121864380Y-87821714D01*
X121816761Y-89202666D02*
X121864380Y-89107428D01*
X121864380Y-88916952D01*
X121816761Y-88821714D01*
X121721523Y-88774095D01*
X121340571Y-88774095D01*
X121245333Y-88821714D01*
X121197714Y-88916952D01*
X121197714Y-89107428D01*
X121245333Y-89202666D01*
X121340571Y-89250285D01*
X121435809Y-89250285D01*
X121531047Y-88774095D01*
X121816761Y-89631238D02*
X121864380Y-89726476D01*
X121864380Y-89916952D01*
X121816761Y-90012190D01*
X121721523Y-90059809D01*
X121673904Y-90059809D01*
X121578666Y-90012190D01*
X121531047Y-89916952D01*
X121531047Y-89774095D01*
X121483428Y-89678857D01*
X121388190Y-89631238D01*
X121340571Y-89631238D01*
X121245333Y-89678857D01*
X121197714Y-89774095D01*
X121197714Y-89916952D01*
X121245333Y-90012190D01*
X121864380Y-90488380D02*
X121197714Y-90488380D01*
X120864380Y-90488380D02*
X120912000Y-90440761D01*
X120959619Y-90488380D01*
X120912000Y-90536000D01*
X120864380Y-90488380D01*
X120959619Y-90488380D01*
X121197714Y-91393142D02*
X122007238Y-91393142D01*
X122102476Y-91345523D01*
X122150095Y-91297904D01*
X122197714Y-91202666D01*
X122197714Y-91059809D01*
X122150095Y-90964571D01*
X121816761Y-91393142D02*
X121864380Y-91297904D01*
X121864380Y-91107428D01*
X121816761Y-91012190D01*
X121769142Y-90964571D01*
X121673904Y-90916952D01*
X121388190Y-90916952D01*
X121292952Y-90964571D01*
X121245333Y-91012190D01*
X121197714Y-91107428D01*
X121197714Y-91297904D01*
X121245333Y-91393142D01*
X121197714Y-91869333D02*
X121864380Y-91869333D01*
X121292952Y-91869333D02*
X121245333Y-91916952D01*
X121197714Y-92012190D01*
X121197714Y-92155047D01*
X121245333Y-92250285D01*
X121340571Y-92297904D01*
X121864380Y-92297904D01*
X121816761Y-93155047D02*
X121864380Y-93059809D01*
X121864380Y-92869333D01*
X121816761Y-92774095D01*
X121721523Y-92726476D01*
X121340571Y-92726476D01*
X121245333Y-92774095D01*
X121197714Y-92869333D01*
X121197714Y-93059809D01*
X121245333Y-93155047D01*
X121340571Y-93202666D01*
X121435809Y-93202666D01*
X121531047Y-92726476D01*
X121864380Y-94059809D02*
X120864380Y-94059809D01*
X121816761Y-94059809D02*
X121864380Y-93964571D01*
X121864380Y-93774095D01*
X121816761Y-93678857D01*
X121769142Y-93631238D01*
X121673904Y-93583619D01*
X121388190Y-93583619D01*
X121292952Y-93631238D01*
X121245333Y-93678857D01*
X121197714Y-93774095D01*
X121197714Y-93964571D01*
X121245333Y-94059809D01*
X121864380Y-95297904D02*
X120864380Y-95297904D01*
X121245333Y-95297904D02*
X121197714Y-95393142D01*
X121197714Y-95583619D01*
X121245333Y-95678857D01*
X121292952Y-95726476D01*
X121388190Y-95774095D01*
X121673904Y-95774095D01*
X121769142Y-95726476D01*
X121816761Y-95678857D01*
X121864380Y-95583619D01*
X121864380Y-95393142D01*
X121816761Y-95297904D01*
X121197714Y-96107428D02*
X121864380Y-96345523D01*
X121197714Y-96583619D02*
X121864380Y-96345523D01*
X122102476Y-96250285D01*
X122150095Y-96202666D01*
X122197714Y-96107428D01*
X120864380Y-98012190D02*
X121578666Y-98012190D01*
X121721523Y-97964571D01*
X121816761Y-97869333D01*
X121864380Y-97726476D01*
X121864380Y-97631238D01*
X121864380Y-98916952D02*
X121340571Y-98916952D01*
X121245333Y-98869333D01*
X121197714Y-98774095D01*
X121197714Y-98583619D01*
X121245333Y-98488380D01*
X121816761Y-98916952D02*
X121864380Y-98821714D01*
X121864380Y-98583619D01*
X121816761Y-98488380D01*
X121721523Y-98440761D01*
X121626285Y-98440761D01*
X121531047Y-98488380D01*
X121483428Y-98583619D01*
X121483428Y-98821714D01*
X121435809Y-98916952D01*
X121864380Y-99393142D02*
X121197714Y-99393142D01*
X121292952Y-99393142D02*
X121245333Y-99440761D01*
X121197714Y-99536000D01*
X121197714Y-99678857D01*
X121245333Y-99774095D01*
X121340571Y-99821714D01*
X121864380Y-99821714D01*
X121340571Y-99821714D02*
X121245333Y-99869333D01*
X121197714Y-99964571D01*
X121197714Y-100107428D01*
X121245333Y-100202666D01*
X121340571Y-100250285D01*
X121864380Y-100250285D01*
X121816761Y-101107428D02*
X121864380Y-101012190D01*
X121864380Y-100821714D01*
X121816761Y-100726476D01*
X121721523Y-100678857D01*
X121340571Y-100678857D01*
X121245333Y-100726476D01*
X121197714Y-100821714D01*
X121197714Y-101012190D01*
X121245333Y-101107428D01*
X121340571Y-101155047D01*
X121435809Y-101155047D01*
X121531047Y-100678857D01*
X121816761Y-101536000D02*
X121864380Y-101631238D01*
X121864380Y-101821714D01*
X121816761Y-101916952D01*
X121721523Y-101964571D01*
X121673904Y-101964571D01*
X121578666Y-101916952D01*
X121531047Y-101821714D01*
X121531047Y-101678857D01*
X121483428Y-101583619D01*
X121388190Y-101536000D01*
X121340571Y-101536000D01*
X121245333Y-101583619D01*
X121197714Y-101678857D01*
X121197714Y-101821714D01*
X121245333Y-101916952D01*
X121864380Y-103155047D02*
X120864380Y-103155047D01*
X121578666Y-103488380D01*
X120864380Y-103821714D01*
X121864380Y-103821714D01*
X121864380Y-104440761D02*
X121816761Y-104345523D01*
X121769142Y-104297904D01*
X121673904Y-104250285D01*
X121388190Y-104250285D01*
X121292952Y-104297904D01*
X121245333Y-104345523D01*
X121197714Y-104440761D01*
X121197714Y-104583619D01*
X121245333Y-104678857D01*
X121292952Y-104726476D01*
X121388190Y-104774095D01*
X121673904Y-104774095D01*
X121769142Y-104726476D01*
X121816761Y-104678857D01*
X121864380Y-104583619D01*
X121864380Y-104440761D01*
X121864380Y-105202666D02*
X121197714Y-105202666D01*
X121388190Y-105202666D02*
X121292952Y-105250285D01*
X121245333Y-105297904D01*
X121197714Y-105393142D01*
X121197714Y-105488380D01*
X121864380Y-105821714D02*
X121197714Y-105821714D01*
X121388190Y-105821714D02*
X121292952Y-105869333D01*
X121245333Y-105916952D01*
X121197714Y-106012190D01*
X121197714Y-106107428D01*
X121864380Y-106440761D02*
X121197714Y-106440761D01*
X120864380Y-106440761D02*
X120912000Y-106393142D01*
X120959619Y-106440761D01*
X120912000Y-106488380D01*
X120864380Y-106440761D01*
X120959619Y-106440761D01*
X121816761Y-106869333D02*
X121864380Y-106964571D01*
X121864380Y-107155047D01*
X121816761Y-107250285D01*
X121721523Y-107297904D01*
X121673904Y-107297904D01*
X121578666Y-107250285D01*
X121531047Y-107155047D01*
X121531047Y-107012190D01*
X121483428Y-106916952D01*
X121388190Y-106869333D01*
X121340571Y-106869333D01*
X121245333Y-106916952D01*
X121197714Y-107012190D01*
X121197714Y-107155047D01*
X121245333Y-107250285D01*
X129714000Y-89964952D02*
X129666380Y-89869714D01*
X129666380Y-89726857D01*
X129714000Y-89584000D01*
X129809238Y-89488761D01*
X129904476Y-89441142D01*
X130094952Y-89393523D01*
X130237809Y-89393523D01*
X130428285Y-89441142D01*
X130523523Y-89488761D01*
X130618761Y-89584000D01*
X130666380Y-89726857D01*
X130666380Y-89822095D01*
X130618761Y-89964952D01*
X130571142Y-90012571D01*
X130237809Y-90012571D01*
X130237809Y-89822095D01*
X130666380Y-90441142D02*
X129999714Y-90441142D01*
X129666380Y-90441142D02*
X129714000Y-90393523D01*
X129761619Y-90441142D01*
X129714000Y-90488761D01*
X129666380Y-90441142D01*
X129761619Y-90441142D01*
X129999714Y-90774476D02*
X129999714Y-91155428D01*
X129666380Y-90917333D02*
X130523523Y-90917333D01*
X130618761Y-90964952D01*
X130666380Y-91060190D01*
X130666380Y-91155428D01*
X130666380Y-91488761D02*
X129666380Y-91488761D01*
X130666380Y-91917333D02*
X130142571Y-91917333D01*
X130047333Y-91869714D01*
X129999714Y-91774476D01*
X129999714Y-91631619D01*
X130047333Y-91536380D01*
X130094952Y-91488761D01*
X129999714Y-92822095D02*
X130666380Y-92822095D01*
X129999714Y-92393523D02*
X130523523Y-92393523D01*
X130618761Y-92441142D01*
X130666380Y-92536380D01*
X130666380Y-92679238D01*
X130618761Y-92774476D01*
X130571142Y-92822095D01*
X130666380Y-93298285D02*
X129666380Y-93298285D01*
X130047333Y-93298285D02*
X129999714Y-93393523D01*
X129999714Y-93584000D01*
X130047333Y-93679238D01*
X130094952Y-93726857D01*
X130190190Y-93774476D01*
X130475904Y-93774476D01*
X130571142Y-93726857D01*
X130618761Y-93679238D01*
X130666380Y-93584000D01*
X130666380Y-93393523D01*
X130618761Y-93298285D01*
X130666380Y-95441142D02*
X130666380Y-94964952D01*
X129666380Y-94964952D01*
X130666380Y-95774476D02*
X129999714Y-95774476D01*
X129666380Y-95774476D02*
X129714000Y-95726857D01*
X129761619Y-95774476D01*
X129714000Y-95822095D01*
X129666380Y-95774476D01*
X129761619Y-95774476D01*
X129999714Y-96250666D02*
X130666380Y-96250666D01*
X130094952Y-96250666D02*
X130047333Y-96298285D01*
X129999714Y-96393523D01*
X129999714Y-96536380D01*
X130047333Y-96631619D01*
X130142571Y-96679238D01*
X130666380Y-96679238D01*
X130666380Y-97155428D02*
X129666380Y-97155428D01*
X130285428Y-97250666D02*
X130666380Y-97536380D01*
X129999714Y-97536380D02*
X130380666Y-97155428D01*
X129999714Y-98631619D02*
X130666380Y-98822095D01*
X130190190Y-99012571D01*
X130666380Y-99203047D01*
X129999714Y-99393523D01*
X130666380Y-99774476D02*
X129999714Y-99774476D01*
X129666380Y-99774476D02*
X129714000Y-99726857D01*
X129761619Y-99774476D01*
X129714000Y-99822095D01*
X129666380Y-99774476D01*
X129761619Y-99774476D01*
X129999714Y-100107809D02*
X129999714Y-100488761D01*
X129666380Y-100250666D02*
X130523523Y-100250666D01*
X130618761Y-100298285D01*
X130666380Y-100393523D01*
X130666380Y-100488761D01*
X130666380Y-100822095D02*
X129666380Y-100822095D01*
X130666380Y-101250666D02*
X130142571Y-101250666D01*
X130047333Y-101203047D01*
X129999714Y-101107809D01*
X129999714Y-100964952D01*
X130047333Y-100869714D01*
X130094952Y-100822095D01*
X130666380Y-102488761D02*
X129666380Y-102488761D01*
X129666380Y-102726857D01*
X129714000Y-102869714D01*
X129809238Y-102964952D01*
X129904476Y-103012571D01*
X130094952Y-103060190D01*
X130237809Y-103060190D01*
X130428285Y-103012571D01*
X130523523Y-102964952D01*
X130618761Y-102869714D01*
X130666380Y-102726857D01*
X130666380Y-102488761D01*
X130618761Y-103869714D02*
X130666380Y-103774476D01*
X130666380Y-103584000D01*
X130618761Y-103488761D01*
X130523523Y-103441142D01*
X130142571Y-103441142D01*
X130047333Y-103488761D01*
X129999714Y-103584000D01*
X129999714Y-103774476D01*
X130047333Y-103869714D01*
X130142571Y-103917333D01*
X130237809Y-103917333D01*
X130333047Y-103441142D01*
X130618761Y-104298285D02*
X130666380Y-104393523D01*
X130666380Y-104584000D01*
X130618761Y-104679238D01*
X130523523Y-104726857D01*
X130475904Y-104726857D01*
X130380666Y-104679238D01*
X130333047Y-104584000D01*
X130333047Y-104441142D01*
X130285428Y-104345904D01*
X130190190Y-104298285D01*
X130142571Y-104298285D01*
X130047333Y-104345904D01*
X129999714Y-104441142D01*
X129999714Y-104584000D01*
X130047333Y-104679238D01*
X130666380Y-105155428D02*
X129999714Y-105155428D01*
X129666380Y-105155428D02*
X129714000Y-105107809D01*
X129761619Y-105155428D01*
X129714000Y-105203047D01*
X129666380Y-105155428D01*
X129761619Y-105155428D01*
X129999714Y-106060190D02*
X130809238Y-106060190D01*
X130904476Y-106012571D01*
X130952095Y-105964952D01*
X130999714Y-105869714D01*
X130999714Y-105726857D01*
X130952095Y-105631619D01*
X130618761Y-106060190D02*
X130666380Y-105964952D01*
X130666380Y-105774476D01*
X130618761Y-105679238D01*
X130571142Y-105631619D01*
X130475904Y-105584000D01*
X130190190Y-105584000D01*
X130094952Y-105631619D01*
X130047333Y-105679238D01*
X129999714Y-105774476D01*
X129999714Y-105964952D01*
X130047333Y-106060190D01*
X129999714Y-106536380D02*
X130666380Y-106536380D01*
X130094952Y-106536380D02*
X130047333Y-106584000D01*
X129999714Y-106679238D01*
X129999714Y-106822095D01*
X130047333Y-106917333D01*
X130142571Y-106964952D01*
X130666380Y-106964952D01*
X130142571Y-108536380D02*
X130142571Y-108203047D01*
X130666380Y-108203047D02*
X129666380Y-108203047D01*
X129666380Y-108679238D01*
X130666380Y-109060190D02*
X129999714Y-109060190D01*
X129666380Y-109060190D02*
X129714000Y-109012571D01*
X129761619Y-109060190D01*
X129714000Y-109107809D01*
X129666380Y-109060190D01*
X129761619Y-109060190D01*
X130666380Y-109679238D02*
X130618761Y-109584000D01*
X130523523Y-109536380D01*
X129666380Y-109536380D01*
X130618761Y-110441142D02*
X130666380Y-110345904D01*
X130666380Y-110155428D01*
X130618761Y-110060190D01*
X130523523Y-110012571D01*
X130142571Y-110012571D01*
X130047333Y-110060190D01*
X129999714Y-110155428D01*
X129999714Y-110345904D01*
X130047333Y-110441142D01*
X130142571Y-110488761D01*
X130237809Y-110488761D01*
X130333047Y-110012571D01*
X130618761Y-110869714D02*
X130666380Y-110964952D01*
X130666380Y-111155428D01*
X130618761Y-111250666D01*
X130523523Y-111298285D01*
X130475904Y-111298285D01*
X130380666Y-111250666D01*
X130333047Y-111155428D01*
X130333047Y-111012571D01*
X130285428Y-110917333D01*
X130190190Y-110869714D01*
X130142571Y-110869714D01*
X130047333Y-110917333D01*
X129999714Y-111012571D01*
X129999714Y-111155428D01*
X130047333Y-111250666D01*
X130571142Y-111726857D02*
X130618761Y-111774476D01*
X130666380Y-111726857D01*
X130618761Y-111679238D01*
X130571142Y-111726857D01*
X130666380Y-111726857D01*
X130047333Y-111726857D02*
X130094952Y-111774476D01*
X130142571Y-111726857D01*
X130094952Y-111679238D01*
X130047333Y-111726857D01*
X130142571Y-111726857D01*
X132366380Y-80655428D02*
X131366380Y-80655428D01*
X132366380Y-81084000D02*
X131842571Y-81084000D01*
X131747333Y-81036380D01*
X131699714Y-80941142D01*
X131699714Y-80798285D01*
X131747333Y-80703047D01*
X131794952Y-80655428D01*
X131699714Y-81417333D02*
X131699714Y-81798285D01*
X131366380Y-81560190D02*
X132223523Y-81560190D01*
X132318761Y-81607809D01*
X132366380Y-81703047D01*
X132366380Y-81798285D01*
X131699714Y-81988761D02*
X131699714Y-82369714D01*
X131366380Y-82131619D02*
X132223523Y-82131619D01*
X132318761Y-82179238D01*
X132366380Y-82274476D01*
X132366380Y-82369714D01*
X131699714Y-82703047D02*
X132699714Y-82703047D01*
X131747333Y-82703047D02*
X131699714Y-82798285D01*
X131699714Y-82988761D01*
X131747333Y-83084000D01*
X131794952Y-83131619D01*
X131890190Y-83179238D01*
X132175904Y-83179238D01*
X132271142Y-83131619D01*
X132318761Y-83084000D01*
X132366380Y-82988761D01*
X132366380Y-82798285D01*
X132318761Y-82703047D01*
X132318761Y-83560190D02*
X132366380Y-83655428D01*
X132366380Y-83845904D01*
X132318761Y-83941142D01*
X132223523Y-83988761D01*
X132175904Y-83988761D01*
X132080666Y-83941142D01*
X132033047Y-83845904D01*
X132033047Y-83703047D01*
X131985428Y-83607809D01*
X131890190Y-83560190D01*
X131842571Y-83560190D01*
X131747333Y-83607809D01*
X131699714Y-83703047D01*
X131699714Y-83845904D01*
X131747333Y-83941142D01*
X132271142Y-84417333D02*
X132318761Y-84464952D01*
X132366380Y-84417333D01*
X132318761Y-84369714D01*
X132271142Y-84417333D01*
X132366380Y-84417333D01*
X131747333Y-84417333D02*
X131794952Y-84464952D01*
X131842571Y-84417333D01*
X131794952Y-84369714D01*
X131747333Y-84417333D01*
X131842571Y-84417333D01*
X131318761Y-85607809D02*
X132604476Y-84750666D01*
X131318761Y-86655428D02*
X132604476Y-85798285D01*
X131699714Y-87417333D02*
X132509238Y-87417333D01*
X132604476Y-87369714D01*
X132652095Y-87322095D01*
X132699714Y-87226857D01*
X132699714Y-87084000D01*
X132652095Y-86988761D01*
X132318761Y-87417333D02*
X132366380Y-87322095D01*
X132366380Y-87131619D01*
X132318761Y-87036380D01*
X132271142Y-86988761D01*
X132175904Y-86941142D01*
X131890190Y-86941142D01*
X131794952Y-86988761D01*
X131747333Y-87036380D01*
X131699714Y-87131619D01*
X131699714Y-87322095D01*
X131747333Y-87417333D01*
X132366380Y-87893523D02*
X131699714Y-87893523D01*
X131366380Y-87893523D02*
X131414000Y-87845904D01*
X131461619Y-87893523D01*
X131414000Y-87941142D01*
X131366380Y-87893523D01*
X131461619Y-87893523D01*
X131699714Y-88226857D02*
X131699714Y-88607809D01*
X131366380Y-88369714D02*
X132223523Y-88369714D01*
X132318761Y-88417333D01*
X132366380Y-88512571D01*
X132366380Y-88607809D01*
X132366380Y-88941142D02*
X131366380Y-88941142D01*
X132366380Y-89369714D02*
X131842571Y-89369714D01*
X131747333Y-89322095D01*
X131699714Y-89226857D01*
X131699714Y-89084000D01*
X131747333Y-88988761D01*
X131794952Y-88941142D01*
X131699714Y-90274476D02*
X132366380Y-90274476D01*
X131699714Y-89845904D02*
X132223523Y-89845904D01*
X132318761Y-89893523D01*
X132366380Y-89988761D01*
X132366380Y-90131619D01*
X132318761Y-90226857D01*
X132271142Y-90274476D01*
X132366380Y-90750666D02*
X131366380Y-90750666D01*
X131747333Y-90750666D02*
X131699714Y-90845904D01*
X131699714Y-91036380D01*
X131747333Y-91131619D01*
X131794952Y-91179238D01*
X131890190Y-91226857D01*
X132175904Y-91226857D01*
X132271142Y-91179238D01*
X132318761Y-91131619D01*
X132366380Y-91036380D01*
X132366380Y-90845904D01*
X132318761Y-90750666D01*
X132271142Y-91655428D02*
X132318761Y-91703047D01*
X132366380Y-91655428D01*
X132318761Y-91607809D01*
X132271142Y-91655428D01*
X132366380Y-91655428D01*
X132318761Y-92560190D02*
X132366380Y-92464952D01*
X132366380Y-92274476D01*
X132318761Y-92179238D01*
X132271142Y-92131619D01*
X132175904Y-92084000D01*
X131890190Y-92084000D01*
X131794952Y-92131619D01*
X131747333Y-92179238D01*
X131699714Y-92274476D01*
X131699714Y-92464952D01*
X131747333Y-92560190D01*
X132366380Y-93131619D02*
X132318761Y-93036380D01*
X132271142Y-92988761D01*
X132175904Y-92941142D01*
X131890190Y-92941142D01*
X131794952Y-92988761D01*
X131747333Y-93036380D01*
X131699714Y-93131619D01*
X131699714Y-93274476D01*
X131747333Y-93369714D01*
X131794952Y-93417333D01*
X131890190Y-93464952D01*
X132175904Y-93464952D01*
X132271142Y-93417333D01*
X132318761Y-93369714D01*
X132366380Y-93274476D01*
X132366380Y-93131619D01*
X132366380Y-93893523D02*
X131699714Y-93893523D01*
X131794952Y-93893523D02*
X131747333Y-93941142D01*
X131699714Y-94036380D01*
X131699714Y-94179238D01*
X131747333Y-94274476D01*
X131842571Y-94322095D01*
X132366380Y-94322095D01*
X131842571Y-94322095D02*
X131747333Y-94369714D01*
X131699714Y-94464952D01*
X131699714Y-94607809D01*
X131747333Y-94703047D01*
X131842571Y-94750666D01*
X132366380Y-94750666D01*
X131318761Y-95941142D02*
X132604476Y-95084000D01*
X131366380Y-96560190D02*
X132080666Y-96560190D01*
X132223523Y-96512571D01*
X132318761Y-96417333D01*
X132366380Y-96274476D01*
X132366380Y-96179238D01*
X132366380Y-97464952D02*
X131842571Y-97464952D01*
X131747333Y-97417333D01*
X131699714Y-97322095D01*
X131699714Y-97131619D01*
X131747333Y-97036380D01*
X132318761Y-97464952D02*
X132366380Y-97369714D01*
X132366380Y-97131619D01*
X132318761Y-97036380D01*
X132223523Y-96988761D01*
X132128285Y-96988761D01*
X132033047Y-97036380D01*
X131985428Y-97131619D01*
X131985428Y-97369714D01*
X131937809Y-97464952D01*
X132366380Y-97941142D02*
X131699714Y-97941142D01*
X131794952Y-97941142D02*
X131747333Y-97988761D01*
X131699714Y-98084000D01*
X131699714Y-98226857D01*
X131747333Y-98322095D01*
X131842571Y-98369714D01*
X132366380Y-98369714D01*
X131842571Y-98369714D02*
X131747333Y-98417333D01*
X131699714Y-98512571D01*
X131699714Y-98655428D01*
X131747333Y-98750666D01*
X131842571Y-98798285D01*
X132366380Y-98798285D01*
X132318761Y-99655428D02*
X132366380Y-99560190D01*
X132366380Y-99369714D01*
X132318761Y-99274476D01*
X132223523Y-99226857D01*
X131842571Y-99226857D01*
X131747333Y-99274476D01*
X131699714Y-99369714D01*
X131699714Y-99560190D01*
X131747333Y-99655428D01*
X131842571Y-99703047D01*
X131937809Y-99703047D01*
X132033047Y-99226857D01*
X132318761Y-100083999D02*
X132366380Y-100179238D01*
X132366380Y-100369714D01*
X132318761Y-100464952D01*
X132223523Y-100512571D01*
X132175904Y-100512571D01*
X132080666Y-100464952D01*
X132033047Y-100369714D01*
X132033047Y-100226857D01*
X131985428Y-100131619D01*
X131890190Y-100083999D01*
X131842571Y-100083999D01*
X131747333Y-100131619D01*
X131699714Y-100226857D01*
X131699714Y-100369714D01*
X131747333Y-100464952D01*
X132366380Y-100941142D02*
X131366380Y-100941142D01*
X132080666Y-101274476D01*
X131366380Y-101607809D01*
X132366380Y-101607809D01*
X132366380Y-102226857D02*
X132318761Y-102131619D01*
X132271142Y-102083999D01*
X132175904Y-102036380D01*
X131890190Y-102036380D01*
X131794952Y-102083999D01*
X131747333Y-102131619D01*
X131699714Y-102226857D01*
X131699714Y-102369714D01*
X131747333Y-102464952D01*
X131794952Y-102512571D01*
X131890190Y-102560190D01*
X132175904Y-102560190D01*
X132271142Y-102512571D01*
X132318761Y-102464952D01*
X132366380Y-102369714D01*
X132366380Y-102226857D01*
X132366380Y-102988761D02*
X131699714Y-102988761D01*
X131890190Y-102988761D02*
X131794952Y-103036380D01*
X131747333Y-103083999D01*
X131699714Y-103179238D01*
X131699714Y-103274476D01*
X132366380Y-103607809D02*
X131699714Y-103607809D01*
X131890190Y-103607809D02*
X131794952Y-103655428D01*
X131747333Y-103703047D01*
X131699714Y-103798285D01*
X131699714Y-103893523D01*
X132366380Y-104226857D02*
X131699714Y-104226857D01*
X131366380Y-104226857D02*
X131414000Y-104179238D01*
X131461619Y-104226857D01*
X131414000Y-104274476D01*
X131366380Y-104226857D01*
X131461619Y-104226857D01*
X132318761Y-104655428D02*
X132366380Y-104750666D01*
X132366380Y-104941142D01*
X132318761Y-105036380D01*
X132223523Y-105083999D01*
X132175904Y-105083999D01*
X132080666Y-105036380D01*
X132033047Y-104941142D01*
X132033047Y-104798285D01*
X131985428Y-104703047D01*
X131890190Y-104655428D01*
X131842571Y-104655428D01*
X131747333Y-104703047D01*
X131699714Y-104798285D01*
X131699714Y-104941142D01*
X131747333Y-105036380D01*
X131842571Y-105512571D02*
X131842571Y-105845904D01*
X132366380Y-105988761D02*
X132366380Y-105512571D01*
X131366380Y-105512571D01*
X131366380Y-105988761D01*
X132366380Y-106893523D02*
X132366380Y-106417333D01*
X131366380Y-106417333D01*
X132271142Y-107798285D02*
X132318761Y-107750666D01*
X132366380Y-107607809D01*
X132366380Y-107512571D01*
X132318761Y-107369714D01*
X132223523Y-107274476D01*
X132128285Y-107226857D01*
X131937809Y-107179238D01*
X131794952Y-107179238D01*
X131604476Y-107226857D01*
X131509238Y-107274476D01*
X131414000Y-107369714D01*
X131366380Y-107512571D01*
X131366380Y-107607809D01*
X131414000Y-107750666D01*
X131461619Y-107798285D01*
X131366380Y-108083999D02*
X131366380Y-108655428D01*
X132366380Y-108369714D02*
X131366380Y-108369714D01*
X131318761Y-109703047D02*
X132604476Y-108845904D01*
X131366380Y-110226857D02*
X131366380Y-110417333D01*
X131414000Y-110512571D01*
X131509238Y-110607809D01*
X131699714Y-110655428D01*
X132033047Y-110655428D01*
X132223523Y-110607809D01*
X132318761Y-110512571D01*
X132366380Y-110417333D01*
X132366380Y-110226857D01*
X132318761Y-110131619D01*
X132223523Y-110036380D01*
X132033047Y-109988761D01*
X131699714Y-109988761D01*
X131509238Y-110036380D01*
X131414000Y-110131619D01*
X131366380Y-110226857D01*
X132366380Y-111083999D02*
X131699714Y-111083999D01*
X131890190Y-111083999D02*
X131794952Y-111131619D01*
X131747333Y-111179238D01*
X131699714Y-111274476D01*
X131699714Y-111369714D01*
X131699714Y-111703047D02*
X132366380Y-111703047D01*
X131794952Y-111703047D02*
X131747333Y-111750666D01*
X131699714Y-111845904D01*
X131699714Y-111988761D01*
X131747333Y-112083999D01*
X131842571Y-112131619D01*
X132366380Y-112131619D01*
X132366380Y-113036380D02*
X131842571Y-113036380D01*
X131747333Y-112988761D01*
X131699714Y-112893523D01*
X131699714Y-112703047D01*
X131747333Y-112607809D01*
X132318761Y-113036380D02*
X132366380Y-112941142D01*
X132366380Y-112703047D01*
X132318761Y-112607809D01*
X132223523Y-112560190D01*
X132128285Y-112560190D01*
X132033047Y-112607809D01*
X131985428Y-112703047D01*
X131985428Y-112941142D01*
X131937809Y-113036380D01*
X132366380Y-113512571D02*
X131699714Y-113512571D01*
X131794952Y-113512571D02*
X131747333Y-113560190D01*
X131699714Y-113655428D01*
X131699714Y-113798285D01*
X131747333Y-113893523D01*
X131842571Y-113941142D01*
X132366380Y-113941142D01*
X131842571Y-113941142D02*
X131747333Y-113988761D01*
X131699714Y-114083999D01*
X131699714Y-114226857D01*
X131747333Y-114322095D01*
X131842571Y-114369714D01*
X132366380Y-114369714D01*
X132318761Y-115226857D02*
X132366380Y-115131619D01*
X132366380Y-114941142D01*
X132318761Y-114845904D01*
X132223523Y-114798285D01*
X131842571Y-114798285D01*
X131747333Y-114845904D01*
X131699714Y-114941142D01*
X131699714Y-115131619D01*
X131747333Y-115226857D01*
X131842571Y-115274476D01*
X131937809Y-115274476D01*
X132033047Y-114798285D01*
X131699714Y-115703047D02*
X132366380Y-115703047D01*
X131794952Y-115703047D02*
X131747333Y-115750666D01*
X131699714Y-115845904D01*
X131699714Y-115988761D01*
X131747333Y-116083999D01*
X131842571Y-116131619D01*
X132366380Y-116131619D01*
X131699714Y-116464952D02*
X131699714Y-116845904D01*
X131366380Y-116607809D02*
X132223523Y-116607809D01*
X132318761Y-116655428D01*
X132366380Y-116750666D01*
X132366380Y-116845904D01*
X131461619Y-117131619D02*
X131414000Y-117179238D01*
X131366380Y-117274476D01*
X131366380Y-117512571D01*
X131414000Y-117607809D01*
X131461619Y-117655428D01*
X131556857Y-117703047D01*
X131652095Y-117703047D01*
X131794952Y-117655428D01*
X132366380Y-117083999D01*
X132366380Y-117703047D01*
X131366380Y-118322095D02*
X131366380Y-118417333D01*
X131414000Y-118512571D01*
X131461619Y-118560190D01*
X131556857Y-118607809D01*
X131747333Y-118655428D01*
X131985428Y-118655428D01*
X132175904Y-118607809D01*
X132271142Y-118560190D01*
X132318761Y-118512571D01*
X132366380Y-118417333D01*
X132366380Y-118322095D01*
X132318761Y-118226857D01*
X132271142Y-118179238D01*
X132175904Y-118131619D01*
X131985428Y-118083999D01*
X131747333Y-118083999D01*
X131556857Y-118131619D01*
X131461619Y-118179238D01*
X131414000Y-118226857D01*
X131366380Y-118322095D01*
X131461619Y-119036380D02*
X131414000Y-119083999D01*
X131366380Y-119179238D01*
X131366380Y-119417333D01*
X131414000Y-119512571D01*
X131461619Y-119560190D01*
X131556857Y-119607809D01*
X131652095Y-119607809D01*
X131794952Y-119560190D01*
X132366380Y-118988761D01*
X132366380Y-119607809D01*
X132366380Y-120560190D02*
X132366380Y-119988761D01*
X132366380Y-120274476D02*
X131366380Y-120274476D01*
X131509238Y-120179238D01*
X131604476Y-120083999D01*
X131652095Y-119988761D01*
D11*
X149228285Y-88054571D02*
X148942571Y-88054571D01*
X148799714Y-87983142D01*
X148728285Y-87911714D01*
X148585428Y-87697428D01*
X148514000Y-87411714D01*
X148514000Y-86840285D01*
X148585428Y-86697428D01*
X148656857Y-86626000D01*
X148799714Y-86554571D01*
X149085428Y-86554571D01*
X149228285Y-86626000D01*
X149299714Y-86697428D01*
X149371142Y-86840285D01*
X149371142Y-87197428D01*
X149299714Y-87340285D01*
X149228285Y-87411714D01*
X149085428Y-87483142D01*
X148799714Y-87483142D01*
X148656857Y-87411714D01*
X148585428Y-87340285D01*
X148514000Y-87197428D01*
X148085428Y-86554571D02*
X147585428Y-88054571D01*
X147085428Y-86554571D01*
X144942571Y-87268857D02*
X144728285Y-87340285D01*
X144656857Y-87411714D01*
X144585428Y-87554571D01*
X144585428Y-87768857D01*
X144656857Y-87911714D01*
X144728285Y-87983142D01*
X144871142Y-88054571D01*
X145442571Y-88054571D01*
X145442571Y-86554571D01*
X144942571Y-86554571D01*
X144799714Y-86626000D01*
X144728285Y-86697428D01*
X144656857Y-86840285D01*
X144656857Y-86983142D01*
X144728285Y-87126000D01*
X144799714Y-87197428D01*
X144942571Y-87268857D01*
X145442571Y-87268857D01*
X143299714Y-88054571D02*
X143299714Y-87268857D01*
X143371142Y-87126000D01*
X143514000Y-87054571D01*
X143799714Y-87054571D01*
X143942571Y-87126000D01*
X143299714Y-87983142D02*
X143442571Y-88054571D01*
X143799714Y-88054571D01*
X143942571Y-87983142D01*
X144014000Y-87840285D01*
X144014000Y-87697428D01*
X143942571Y-87554571D01*
X143799714Y-87483142D01*
X143442571Y-87483142D01*
X143299714Y-87411714D01*
X142799714Y-87054571D02*
X142228285Y-87054571D01*
X142585428Y-86554571D02*
X142585428Y-87840285D01*
X142514000Y-87983142D01*
X142371142Y-88054571D01*
X142228285Y-88054571D01*
X141942571Y-87054571D02*
X141371142Y-87054571D01*
X141728285Y-86554571D02*
X141728285Y-87840285D01*
X141656857Y-87983142D01*
X141514000Y-88054571D01*
X141371142Y-88054571D01*
X140299714Y-87983142D02*
X140442571Y-88054571D01*
X140728285Y-88054571D01*
X140871142Y-87983142D01*
X140942571Y-87840285D01*
X140942571Y-87268857D01*
X140871142Y-87126000D01*
X140728285Y-87054571D01*
X140442571Y-87054571D01*
X140299714Y-87126000D01*
X140228285Y-87268857D01*
X140228285Y-87411714D01*
X140942571Y-87554571D01*
X139585428Y-88054571D02*
X139585428Y-87054571D01*
X139585428Y-87340285D02*
X139514000Y-87197428D01*
X139442571Y-87126000D01*
X139299714Y-87054571D01*
X139156857Y-87054571D01*
X138799714Y-87054571D02*
X138442571Y-88054571D01*
X138085428Y-87054571D02*
X138442571Y-88054571D01*
X138585428Y-88411714D01*
X138656857Y-88483142D01*
X138799714Y-88554571D01*
D12*
%TO.C,C3*%
X147602000Y-61976000D02*
G75*
G03*
X147602000Y-61976000I-4120000J0D01*
G01*
%TO.C,R58*%
X141512936Y-158898000D02*
X142967064Y-158898000D01*
X141512936Y-157078000D02*
X142967064Y-157078000D01*
%TO.C,R57*%
X141512936Y-156358000D02*
X142967064Y-156358000D01*
X141512936Y-154538000D02*
X142967064Y-154538000D01*
%TO.C,R56*%
X141512936Y-153818000D02*
X142967064Y-153818000D01*
X141512936Y-151998000D02*
X142967064Y-151998000D01*
%TO.C,R34*%
X141486936Y-144166000D02*
X142941064Y-144166000D01*
X141486936Y-142346000D02*
X142941064Y-142346000D01*
%TO.C,R33*%
X141538936Y-141626000D02*
X142993064Y-141626000D01*
X141538936Y-139806000D02*
X142993064Y-139806000D01*
%TO.C,R32*%
X141512936Y-139086000D02*
X142967064Y-139086000D01*
X141512936Y-137266000D02*
X142967064Y-137266000D01*
%TO.C,BT1*%
D13*
X144041714Y-83240571D02*
X143898857Y-83288190D01*
X143851238Y-83335809D01*
X143803619Y-83431047D01*
X143803619Y-83573904D01*
X143851238Y-83669142D01*
X143898857Y-83716761D01*
X143994095Y-83764380D01*
X144375047Y-83764380D01*
X144375047Y-82764380D01*
X144041714Y-82764380D01*
X143946476Y-82812000D01*
X143898857Y-82859619D01*
X143851238Y-82954857D01*
X143851238Y-83050095D01*
X143898857Y-83145333D01*
X143946476Y-83192952D01*
X144041714Y-83240571D01*
X144375047Y-83240571D01*
X143517904Y-82764380D02*
X142946476Y-82764380D01*
X143232190Y-83764380D02*
X143232190Y-82764380D01*
X142089333Y-83764380D02*
X142660761Y-83764380D01*
X142375047Y-83764380D02*
X142375047Y-82764380D01*
X142470285Y-82907238D01*
X142565523Y-83002476D01*
X142660761Y-83050095D01*
%TO.C,C3*%
X143648666Y-67583142D02*
X143696285Y-67630761D01*
X143839142Y-67678380D01*
X143934380Y-67678380D01*
X144077238Y-67630761D01*
X144172476Y-67535523D01*
X144220095Y-67440285D01*
X144267714Y-67249809D01*
X144267714Y-67106952D01*
X144220095Y-66916476D01*
X144172476Y-66821238D01*
X144077238Y-66726000D01*
X143934380Y-66678380D01*
X143839142Y-66678380D01*
X143696285Y-66726000D01*
X143648666Y-66773619D01*
X143315333Y-66678380D02*
X142696285Y-66678380D01*
X143029619Y-67059333D01*
X142886761Y-67059333D01*
X142791523Y-67106952D01*
X142743904Y-67154571D01*
X142696285Y-67249809D01*
X142696285Y-67487904D01*
X142743904Y-67583142D01*
X142791523Y-67630761D01*
X142886761Y-67678380D01*
X143172476Y-67678380D01*
X143267714Y-67630761D01*
X143315333Y-67583142D01*
%TO.C,R58*%
X146756380Y-159377142D02*
X146280190Y-159043809D01*
X146756380Y-158805714D02*
X145756380Y-158805714D01*
X145756380Y-159186666D01*
X145804000Y-159281904D01*
X145851619Y-159329523D01*
X145946857Y-159377142D01*
X146089714Y-159377142D01*
X146184952Y-159329523D01*
X146232571Y-159281904D01*
X146280190Y-159186666D01*
X146280190Y-158805714D01*
X145756380Y-160281904D02*
X145756380Y-159805714D01*
X146232571Y-159758095D01*
X146184952Y-159805714D01*
X146137333Y-159900952D01*
X146137333Y-160139047D01*
X146184952Y-160234285D01*
X146232571Y-160281904D01*
X146327809Y-160329523D01*
X146565904Y-160329523D01*
X146661142Y-160281904D01*
X146708761Y-160234285D01*
X146756380Y-160139047D01*
X146756380Y-159900952D01*
X146708761Y-159805714D01*
X146661142Y-159758095D01*
X146184952Y-160900952D02*
X146137333Y-160805714D01*
X146089714Y-160758095D01*
X145994476Y-160710476D01*
X145946857Y-160710476D01*
X145851619Y-160758095D01*
X145804000Y-160805714D01*
X145756380Y-160900952D01*
X145756380Y-161091428D01*
X145804000Y-161186666D01*
X145851619Y-161234285D01*
X145946857Y-161281904D01*
X145994476Y-161281904D01*
X146089714Y-161234285D01*
X146137333Y-161186666D01*
X146184952Y-161091428D01*
X146184952Y-160900952D01*
X146232571Y-160805714D01*
X146280190Y-160758095D01*
X146375428Y-160710476D01*
X146565904Y-160710476D01*
X146661142Y-160758095D01*
X146708761Y-160805714D01*
X146756380Y-160900952D01*
X146756380Y-161091428D01*
X146708761Y-161186666D01*
X146661142Y-161234285D01*
X146565904Y-161281904D01*
X146375428Y-161281904D01*
X146280190Y-161234285D01*
X146232571Y-161186666D01*
X146184952Y-161091428D01*
%TO.C,R57*%
X146756380Y-155821142D02*
X146280190Y-155487809D01*
X146756380Y-155249714D02*
X145756380Y-155249714D01*
X145756380Y-155630666D01*
X145804000Y-155725904D01*
X145851619Y-155773523D01*
X145946857Y-155821142D01*
X146089714Y-155821142D01*
X146184952Y-155773523D01*
X146232571Y-155725904D01*
X146280190Y-155630666D01*
X146280190Y-155249714D01*
X145756380Y-156725904D02*
X145756380Y-156249714D01*
X146232571Y-156202095D01*
X146184952Y-156249714D01*
X146137333Y-156344952D01*
X146137333Y-156583047D01*
X146184952Y-156678285D01*
X146232571Y-156725904D01*
X146327809Y-156773523D01*
X146565904Y-156773523D01*
X146661142Y-156725904D01*
X146708761Y-156678285D01*
X146756380Y-156583047D01*
X146756380Y-156344952D01*
X146708761Y-156249714D01*
X146661142Y-156202095D01*
X145756380Y-157106857D02*
X145756380Y-157773523D01*
X146756380Y-157344952D01*
%TO.C,R56*%
X146756380Y-152265142D02*
X146280190Y-151931809D01*
X146756380Y-151693714D02*
X145756380Y-151693714D01*
X145756380Y-152074666D01*
X145804000Y-152169904D01*
X145851619Y-152217523D01*
X145946857Y-152265142D01*
X146089714Y-152265142D01*
X146184952Y-152217523D01*
X146232571Y-152169904D01*
X146280190Y-152074666D01*
X146280190Y-151693714D01*
X145756380Y-153169904D02*
X145756380Y-152693714D01*
X146232571Y-152646095D01*
X146184952Y-152693714D01*
X146137333Y-152788952D01*
X146137333Y-153027047D01*
X146184952Y-153122285D01*
X146232571Y-153169904D01*
X146327809Y-153217523D01*
X146565904Y-153217523D01*
X146661142Y-153169904D01*
X146708761Y-153122285D01*
X146756380Y-153027047D01*
X146756380Y-152788952D01*
X146708761Y-152693714D01*
X146661142Y-152646095D01*
X145756380Y-154074666D02*
X145756380Y-153884190D01*
X145804000Y-153788952D01*
X145851619Y-153741333D01*
X145994476Y-153646095D01*
X146184952Y-153598476D01*
X146565904Y-153598476D01*
X146661142Y-153646095D01*
X146708761Y-153693714D01*
X146756380Y-153788952D01*
X146756380Y-153979428D01*
X146708761Y-154074666D01*
X146661142Y-154122285D01*
X146565904Y-154169904D01*
X146327809Y-154169904D01*
X146232571Y-154122285D01*
X146184952Y-154074666D01*
X146137333Y-153979428D01*
X146137333Y-153788952D01*
X146184952Y-153693714D01*
X146232571Y-153646095D01*
X146327809Y-153598476D01*
%TO.C,R34*%
X138628380Y-142613142D02*
X138152190Y-142279809D01*
X138628380Y-142041714D02*
X137628380Y-142041714D01*
X137628380Y-142422666D01*
X137676000Y-142517904D01*
X137723619Y-142565523D01*
X137818857Y-142613142D01*
X137961714Y-142613142D01*
X138056952Y-142565523D01*
X138104571Y-142517904D01*
X138152190Y-142422666D01*
X138152190Y-142041714D01*
X137628380Y-142946476D02*
X137628380Y-143565523D01*
X138009333Y-143232190D01*
X138009333Y-143375047D01*
X138056952Y-143470285D01*
X138104571Y-143517904D01*
X138199809Y-143565523D01*
X138437904Y-143565523D01*
X138533142Y-143517904D01*
X138580761Y-143470285D01*
X138628380Y-143375047D01*
X138628380Y-143089333D01*
X138580761Y-142994095D01*
X138533142Y-142946476D01*
X137961714Y-144422666D02*
X138628380Y-144422666D01*
X137580761Y-144184571D02*
X138295047Y-143946476D01*
X138295047Y-144565523D01*
%TO.C,R33*%
X138628380Y-139565142D02*
X138152190Y-139231809D01*
X138628380Y-138993714D02*
X137628380Y-138993714D01*
X137628380Y-139374666D01*
X137676000Y-139469904D01*
X137723619Y-139517523D01*
X137818857Y-139565142D01*
X137961714Y-139565142D01*
X138056952Y-139517523D01*
X138104571Y-139469904D01*
X138152190Y-139374666D01*
X138152190Y-138993714D01*
X137628380Y-139898476D02*
X137628380Y-140517523D01*
X138009333Y-140184190D01*
X138009333Y-140327047D01*
X138056952Y-140422285D01*
X138104571Y-140469904D01*
X138199809Y-140517523D01*
X138437904Y-140517523D01*
X138533142Y-140469904D01*
X138580761Y-140422285D01*
X138628380Y-140327047D01*
X138628380Y-140041333D01*
X138580761Y-139946095D01*
X138533142Y-139898476D01*
X137628380Y-140850857D02*
X137628380Y-141469904D01*
X138009333Y-141136571D01*
X138009333Y-141279428D01*
X138056952Y-141374666D01*
X138104571Y-141422285D01*
X138199809Y-141469904D01*
X138437904Y-141469904D01*
X138533142Y-141422285D01*
X138580761Y-141374666D01*
X138628380Y-141279428D01*
X138628380Y-140993714D01*
X138580761Y-140898476D01*
X138533142Y-140850857D01*
%TO.C,R32*%
X138628380Y-136517142D02*
X138152190Y-136183809D01*
X138628380Y-135945714D02*
X137628380Y-135945714D01*
X137628380Y-136326666D01*
X137676000Y-136421904D01*
X137723619Y-136469523D01*
X137818857Y-136517142D01*
X137961714Y-136517142D01*
X138056952Y-136469523D01*
X138104571Y-136421904D01*
X138152190Y-136326666D01*
X138152190Y-135945714D01*
X137628380Y-136850476D02*
X137628380Y-137469523D01*
X138009333Y-137136190D01*
X138009333Y-137279047D01*
X138056952Y-137374285D01*
X138104571Y-137421904D01*
X138199809Y-137469523D01*
X138437904Y-137469523D01*
X138533142Y-137421904D01*
X138580761Y-137374285D01*
X138628380Y-137279047D01*
X138628380Y-136993333D01*
X138580761Y-136898095D01*
X138533142Y-136850476D01*
X137723619Y-137850476D02*
X137676000Y-137898095D01*
X137628380Y-137993333D01*
X137628380Y-138231428D01*
X137676000Y-138326666D01*
X137723619Y-138374285D01*
X137818857Y-138421904D01*
X137914095Y-138421904D01*
X138056952Y-138374285D01*
X138628380Y-137802857D01*
X138628380Y-138421904D01*
%TD*%
M02*
