%TF.GenerationSoftware,KiCad,Pcbnew,(5.1.9)-1*%
%TF.CreationDate,2021-12-13T22:42:44-05:00*%
%TF.ProjectId,Ornament,4f726e61-6d65-46e7-942e-6b696361645f,rev?*%
%TF.SameCoordinates,Original*%
%TF.FileFunction,Legend,Top*%
%TF.FilePolarity,Positive*%
%FSLAX46Y46*%
G04 Gerber Fmt 4.6, Leading zero omitted, Abs format (unit mm)*
G04 Created by KiCad (PCBNEW (5.1.9)-1) date 2021-12-13 22:42:44*
%MOMM*%
%LPD*%
G01*
G04 APERTURE LIST*
%ADD10C,0.300000*%
%ADD11C,0.010000*%
%ADD12C,0.120000*%
%ADD13C,0.500000*%
%ADD14C,0.100000*%
%ADD15C,0.150000*%
%ADD16C,0.254000*%
G04 APERTURE END LIST*
D10*
X120590571Y-88720857D02*
X120590571Y-88435142D01*
X120662000Y-88292285D01*
X120804857Y-88149428D01*
X121090571Y-88078000D01*
X121590571Y-88078000D01*
X121876285Y-88149428D01*
X122019142Y-88292285D01*
X122090571Y-88435142D01*
X122090571Y-88720857D01*
X122019142Y-88863714D01*
X121876285Y-89006571D01*
X121590571Y-89078000D01*
X121090571Y-89078000D01*
X120804857Y-89006571D01*
X120662000Y-88863714D01*
X120590571Y-88720857D01*
X121090571Y-87435142D02*
X122090571Y-87435142D01*
X121233428Y-87435142D02*
X121162000Y-87363714D01*
X121090571Y-87220857D01*
X121090571Y-87006571D01*
X121162000Y-86863714D01*
X121304857Y-86792285D01*
X122090571Y-86792285D01*
X120519142Y-83863714D02*
X122447714Y-85149428D01*
X120590571Y-81935142D02*
X120590571Y-81649428D01*
X120662000Y-81506571D01*
X120804857Y-81363714D01*
X121090571Y-81292285D01*
X121590571Y-81292285D01*
X121876285Y-81363714D01*
X122019142Y-81506571D01*
X122090571Y-81649428D01*
X122090571Y-81935142D01*
X122019142Y-82078000D01*
X121876285Y-82220857D01*
X121590571Y-82292285D01*
X121090571Y-82292285D01*
X120804857Y-82220857D01*
X120662000Y-82078000D01*
X120590571Y-81935142D01*
X121090571Y-80863714D02*
X121090571Y-80292285D01*
X122090571Y-80649428D02*
X120804857Y-80649428D01*
X120662000Y-80578000D01*
X120590571Y-80435142D01*
X120590571Y-80292285D01*
X121090571Y-80006571D02*
X121090571Y-79435142D01*
X122090571Y-79792285D02*
X120804857Y-79792285D01*
X120662000Y-79720857D01*
X120590571Y-79578000D01*
X120590571Y-79435142D01*
D11*
%TO.C,G\u002A\u002A\u002A*%
G36*
X144236600Y-101323008D02*
G01*
X144322485Y-101331245D01*
X144397330Y-101344882D01*
X144472474Y-101364708D01*
X144494287Y-101371225D01*
X144665996Y-101442593D01*
X144791551Y-101537010D01*
X144868114Y-101651582D01*
X144892889Y-101777990D01*
X144868795Y-101893863D01*
X144795094Y-101995181D01*
X144669657Y-102084035D01*
X144508187Y-102156035D01*
X144420845Y-102185731D01*
X144337090Y-102206743D01*
X144243088Y-102220958D01*
X144125003Y-102230265D01*
X143968997Y-102236553D01*
X143905111Y-102238331D01*
X143723609Y-102241358D01*
X143588480Y-102239257D01*
X143489835Y-102231439D01*
X143417784Y-102217315D01*
X143388050Y-102207476D01*
X143265293Y-102145012D01*
X143149835Y-102059853D01*
X143058223Y-101965901D01*
X143012478Y-101891991D01*
X142983629Y-101784611D01*
X142982250Y-101765318D01*
X143234944Y-101765318D01*
X143275464Y-101867684D01*
X143359423Y-101953138D01*
X143366183Y-101957688D01*
X143485062Y-102023546D01*
X143609050Y-102064415D01*
X143749383Y-102081419D01*
X143917298Y-102075678D01*
X144124032Y-102048315D01*
X144179371Y-102038884D01*
X144327418Y-102009493D01*
X144434271Y-101978460D01*
X144515014Y-101939801D01*
X144584729Y-101887533D01*
X144603123Y-101870774D01*
X144658359Y-101789462D01*
X144660567Y-101705230D01*
X144612259Y-101625232D01*
X144515946Y-101556623D01*
X144488308Y-101543657D01*
X144367353Y-101507145D01*
X144203747Y-101481082D01*
X144010503Y-101466541D01*
X143800632Y-101464600D01*
X143630367Y-101472775D01*
X143501162Y-101483980D01*
X143414898Y-101496783D01*
X143358109Y-101514869D01*
X143317331Y-101541922D01*
X143294262Y-101564727D01*
X143240373Y-101659759D01*
X143234944Y-101765318D01*
X142982250Y-101765318D01*
X142975072Y-101664899D01*
X142987334Y-101557778D01*
X143004414Y-101510823D01*
X143047278Y-101465974D01*
X143121799Y-101416346D01*
X143166691Y-101393429D01*
X143221588Y-101371113D01*
X143281054Y-101354559D01*
X143355137Y-101342643D01*
X143453890Y-101334244D01*
X143587362Y-101328240D01*
X143765603Y-101323508D01*
X143799301Y-101322787D01*
X143986348Y-101319569D01*
X144128334Y-101319379D01*
X144236600Y-101323008D01*
G37*
X144236600Y-101323008D02*
X144322485Y-101331245D01*
X144397330Y-101344882D01*
X144472474Y-101364708D01*
X144494287Y-101371225D01*
X144665996Y-101442593D01*
X144791551Y-101537010D01*
X144868114Y-101651582D01*
X144892889Y-101777990D01*
X144868795Y-101893863D01*
X144795094Y-101995181D01*
X144669657Y-102084035D01*
X144508187Y-102156035D01*
X144420845Y-102185731D01*
X144337090Y-102206743D01*
X144243088Y-102220958D01*
X144125003Y-102230265D01*
X143968997Y-102236553D01*
X143905111Y-102238331D01*
X143723609Y-102241358D01*
X143588480Y-102239257D01*
X143489835Y-102231439D01*
X143417784Y-102217315D01*
X143388050Y-102207476D01*
X143265293Y-102145012D01*
X143149835Y-102059853D01*
X143058223Y-101965901D01*
X143012478Y-101891991D01*
X142983629Y-101784611D01*
X142982250Y-101765318D01*
X143234944Y-101765318D01*
X143275464Y-101867684D01*
X143359423Y-101953138D01*
X143366183Y-101957688D01*
X143485062Y-102023546D01*
X143609050Y-102064415D01*
X143749383Y-102081419D01*
X143917298Y-102075678D01*
X144124032Y-102048315D01*
X144179371Y-102038884D01*
X144327418Y-102009493D01*
X144434271Y-101978460D01*
X144515014Y-101939801D01*
X144584729Y-101887533D01*
X144603123Y-101870774D01*
X144658359Y-101789462D01*
X144660567Y-101705230D01*
X144612259Y-101625232D01*
X144515946Y-101556623D01*
X144488308Y-101543657D01*
X144367353Y-101507145D01*
X144203747Y-101481082D01*
X144010503Y-101466541D01*
X143800632Y-101464600D01*
X143630367Y-101472775D01*
X143501162Y-101483980D01*
X143414898Y-101496783D01*
X143358109Y-101514869D01*
X143317331Y-101541922D01*
X143294262Y-101564727D01*
X143240373Y-101659759D01*
X143234944Y-101765318D01*
X142982250Y-101765318D01*
X142975072Y-101664899D01*
X142987334Y-101557778D01*
X143004414Y-101510823D01*
X143047278Y-101465974D01*
X143121799Y-101416346D01*
X143166691Y-101393429D01*
X143221588Y-101371113D01*
X143281054Y-101354559D01*
X143355137Y-101342643D01*
X143453890Y-101334244D01*
X143587362Y-101328240D01*
X143765603Y-101323508D01*
X143799301Y-101322787D01*
X143986348Y-101319569D01*
X144128334Y-101319379D01*
X144236600Y-101323008D01*
G36*
X143887167Y-100467607D02*
G01*
X143913188Y-100475434D01*
X143962097Y-100487719D01*
X144053812Y-100499097D01*
X144174696Y-100508217D01*
X144296063Y-100513350D01*
X144430252Y-100517113D01*
X144546280Y-100520584D01*
X144630978Y-100523354D01*
X144669636Y-100524918D01*
X144713626Y-100550249D01*
X144746497Y-100597792D01*
X144797461Y-100656652D01*
X144895899Y-100721300D01*
X144957298Y-100752507D01*
X145078184Y-100815322D01*
X145168224Y-100879987D01*
X145244231Y-100961989D01*
X145323018Y-101076811D01*
X145341224Y-101106111D01*
X145488882Y-101369266D01*
X145601128Y-101625885D01*
X145683682Y-101893022D01*
X145742268Y-102187734D01*
X145767303Y-102376111D01*
X145804490Y-102722870D01*
X145833918Y-103045956D01*
X145856326Y-103359246D01*
X145872452Y-103676617D01*
X145883034Y-104011946D01*
X145888811Y-104379111D01*
X145890446Y-104690333D01*
X145889489Y-105060085D01*
X145885061Y-105377075D01*
X145876846Y-105644899D01*
X145864531Y-105867154D01*
X145847801Y-106047433D01*
X145826343Y-106189332D01*
X145799840Y-106296446D01*
X145767980Y-106372371D01*
X145739948Y-106411471D01*
X145673950Y-106463482D01*
X145567539Y-106527243D01*
X145433833Y-106596606D01*
X145285949Y-106665424D01*
X145137007Y-106727550D01*
X145000125Y-106776836D01*
X144901429Y-106804404D01*
X144785389Y-106823121D01*
X144639622Y-106836713D01*
X144481635Y-106844605D01*
X144328936Y-106846226D01*
X144199032Y-106840999D01*
X144116778Y-106830124D01*
X143917572Y-106782047D01*
X143762398Y-106736358D01*
X143639180Y-106689294D01*
X143588685Y-106665535D01*
X143504234Y-106626383D01*
X143436790Y-106600900D01*
X143410919Y-106595333D01*
X143346599Y-106569917D01*
X143304208Y-106496983D01*
X143284922Y-106381509D01*
X143289920Y-106228469D01*
X143302337Y-106136716D01*
X143345510Y-106037208D01*
X143435623Y-105942608D01*
X143563178Y-105858661D01*
X143718675Y-105791109D01*
X143892617Y-105745697D01*
X143967001Y-105734817D01*
X144060195Y-105721628D01*
X144117505Y-105700229D01*
X144159333Y-105658162D01*
X144200742Y-105592096D01*
X144236330Y-105524201D01*
X144258699Y-105457075D01*
X144271168Y-105373895D01*
X144277052Y-105257836D01*
X144278301Y-105198659D01*
X144278753Y-105066589D01*
X144273431Y-104976826D01*
X144260222Y-104915352D01*
X144237019Y-104868147D01*
X144226184Y-104852455D01*
X144156215Y-104776456D01*
X144069290Y-104723965D01*
X143955076Y-104691687D01*
X143803245Y-104676326D01*
X143666438Y-104673885D01*
X143500380Y-104676425D01*
X143377007Y-104683834D01*
X143282631Y-104698161D01*
X143203563Y-104721453D01*
X143129000Y-104754325D01*
X143027994Y-104814143D01*
X142973047Y-104878912D01*
X142955058Y-104965522D01*
X142961561Y-105065159D01*
X142980393Y-105183479D01*
X143005957Y-105302821D01*
X143019621Y-105353556D01*
X143056386Y-105567980D01*
X143041403Y-105770375D01*
X143024888Y-105814957D01*
X142988351Y-105861185D01*
X142923519Y-105916693D01*
X142822120Y-105989115D01*
X142757138Y-106032719D01*
X142489914Y-106209855D01*
X142216790Y-106232421D01*
X141973040Y-106252126D01*
X141777673Y-106266537D01*
X141622875Y-106275652D01*
X141500835Y-106279475D01*
X141403739Y-106278005D01*
X141323775Y-106271244D01*
X141253131Y-106259193D01*
X141183992Y-106241852D01*
X141152038Y-106232547D01*
X140951512Y-106149945D01*
X140794963Y-106034072D01*
X140678674Y-105881842D01*
X140642324Y-105809459D01*
X140595287Y-105655280D01*
X140597511Y-105590358D01*
X140780992Y-105590358D01*
X140782202Y-105684380D01*
X140823674Y-105775099D01*
X140896615Y-105868900D01*
X140993596Y-105940965D01*
X141128599Y-106000812D01*
X141181667Y-106018794D01*
X141349427Y-106054695D01*
X141554024Y-106070471D01*
X141780014Y-106067281D01*
X142011955Y-106046280D01*
X142234402Y-106008626D01*
X142431914Y-105955476D01*
X142529303Y-105917850D01*
X142628411Y-105861641D01*
X142724606Y-105787420D01*
X142802121Y-105709113D01*
X142845190Y-105640646D01*
X142846051Y-105638067D01*
X142847009Y-105588057D01*
X142835391Y-105497637D01*
X142813376Y-105380879D01*
X142791310Y-105284327D01*
X142756144Y-105129882D01*
X142738480Y-105014040D01*
X142738341Y-104921735D01*
X142755747Y-104837902D01*
X142790719Y-104747473D01*
X142792078Y-104744416D01*
X142859481Y-104662078D01*
X142980484Y-104597171D01*
X143154990Y-104549721D01*
X143382908Y-104519749D01*
X143664142Y-104507281D01*
X143730463Y-104506889D01*
X143951975Y-104515100D01*
X144125070Y-104541629D01*
X144255612Y-104589317D01*
X144349465Y-104661007D01*
X144412493Y-104759540D01*
X144442926Y-104852196D01*
X144455970Y-104944462D01*
X144461009Y-105068961D01*
X144458991Y-105214375D01*
X144450864Y-105369387D01*
X144437578Y-105522678D01*
X144420082Y-105662931D01*
X144399322Y-105778827D01*
X144376249Y-105859049D01*
X144355899Y-105890510D01*
X144304895Y-105902584D01*
X144221935Y-105904109D01*
X144173222Y-105900221D01*
X144029277Y-105901783D01*
X143882086Y-105934113D01*
X143744432Y-105991022D01*
X143629100Y-106066321D01*
X143548872Y-106153821D01*
X143521196Y-106215899D01*
X143513061Y-106332663D01*
X143553557Y-106430863D01*
X143644604Y-106512610D01*
X143788118Y-106580015D01*
X143877789Y-106608339D01*
X144006257Y-106631451D01*
X144174540Y-106643202D01*
X144367279Y-106644125D01*
X144569110Y-106634753D01*
X144764674Y-106615619D01*
X144938609Y-106587255D01*
X145016106Y-106568845D01*
X145191954Y-106512998D01*
X145351806Y-106447579D01*
X145484792Y-106378015D01*
X145580044Y-106309730D01*
X145616043Y-106269416D01*
X145643307Y-106206177D01*
X145665648Y-106105240D01*
X145683335Y-105963256D01*
X145696638Y-105776878D01*
X145705827Y-105542758D01*
X145711171Y-105257549D01*
X145712598Y-105071333D01*
X145710760Y-104768079D01*
X145703092Y-104441551D01*
X145690208Y-104100801D01*
X145672723Y-103754879D01*
X145651250Y-103412835D01*
X145626402Y-103083722D01*
X145598793Y-102776590D01*
X145569037Y-102500489D01*
X145537748Y-102264471D01*
X145511778Y-102109305D01*
X145441831Y-101834639D01*
X145340813Y-101569678D01*
X145214449Y-101324801D01*
X145068464Y-101110386D01*
X144908582Y-100936810D01*
X144828841Y-100871238D01*
X144759582Y-100823219D01*
X144694459Y-100788072D01*
X144619295Y-100760934D01*
X144519912Y-100736940D01*
X144382133Y-100711225D01*
X144342555Y-100704390D01*
X144141168Y-100676968D01*
X143928914Y-100660378D01*
X143717371Y-100654437D01*
X143518122Y-100658964D01*
X143342745Y-100673776D01*
X143202821Y-100698692D01*
X143129000Y-100723485D01*
X143027421Y-100796004D01*
X142930132Y-100912190D01*
X142846585Y-101059505D01*
X142811542Y-101144708D01*
X142722478Y-101398410D01*
X142633154Y-101665134D01*
X142547246Y-101933013D01*
X142468431Y-102190181D01*
X142400386Y-102424772D01*
X142346787Y-102624920D01*
X142325081Y-102714778D01*
X142293510Y-102850865D01*
X142261092Y-102987394D01*
X142233627Y-103100021D01*
X142227603Y-103124000D01*
X142200629Y-103243764D01*
X142177370Y-103369558D01*
X142169829Y-103420333D01*
X142155188Y-103521940D01*
X142134762Y-103650529D01*
X142113869Y-103773111D01*
X142092354Y-103897274D01*
X142066341Y-104051762D01*
X142040091Y-104211137D01*
X142028784Y-104281111D01*
X141987332Y-104529786D01*
X141946043Y-104759043D01*
X141906296Y-104962339D01*
X141869469Y-105133131D01*
X141836941Y-105264875D01*
X141810091Y-105351030D01*
X141797757Y-105377387D01*
X141752354Y-105424479D01*
X141697155Y-105424678D01*
X141694325Y-105423788D01*
X141638472Y-105410137D01*
X141544649Y-105391511D01*
X141430695Y-105371391D01*
X141399925Y-105366337D01*
X141191731Y-105347898D01*
X141025276Y-105366779D01*
X140899804Y-105423147D01*
X140830339Y-105492631D01*
X140780992Y-105590358D01*
X140597511Y-105590358D01*
X140600012Y-105517387D01*
X140657898Y-105391267D01*
X140770343Y-105272408D01*
X140820998Y-105233033D01*
X140940688Y-105160834D01*
X141060277Y-105124904D01*
X141194875Y-105123354D01*
X141359593Y-105154297D01*
X141389364Y-105162033D01*
X141509446Y-105191170D01*
X141587115Y-105197013D01*
X141633688Y-105173556D01*
X141660483Y-105114794D01*
X141678818Y-105014720D01*
X141679803Y-105007919D01*
X141693899Y-104924898D01*
X141717447Y-104802072D01*
X141747409Y-104654680D01*
X141780749Y-104497962D01*
X141788057Y-104464556D01*
X141826637Y-104282822D01*
X141872372Y-104056996D01*
X141923076Y-103798650D01*
X141976560Y-103519359D01*
X142030639Y-103230694D01*
X142083126Y-102944231D01*
X142131834Y-102671542D01*
X142174576Y-102424200D01*
X142182665Y-102376111D01*
X142211476Y-102241981D01*
X142251830Y-102099327D01*
X142284422Y-102006698D01*
X142329820Y-101883143D01*
X142376429Y-101740653D01*
X142405884Y-101639809D01*
X142442525Y-101515219D01*
X142484388Y-101388727D01*
X142516146Y-101303667D01*
X142561708Y-101191075D01*
X142612158Y-101065246D01*
X142634560Y-101008948D01*
X142702844Y-100859048D01*
X142780392Y-100742698D01*
X142883401Y-100637431D01*
X142932363Y-100595848D01*
X143057514Y-100493296D01*
X143458270Y-100469872D01*
X143654783Y-100460944D01*
X143798093Y-100460193D01*
X143887167Y-100467607D01*
G37*
X143887167Y-100467607D02*
X143913188Y-100475434D01*
X143962097Y-100487719D01*
X144053812Y-100499097D01*
X144174696Y-100508217D01*
X144296063Y-100513350D01*
X144430252Y-100517113D01*
X144546280Y-100520584D01*
X144630978Y-100523354D01*
X144669636Y-100524918D01*
X144713626Y-100550249D01*
X144746497Y-100597792D01*
X144797461Y-100656652D01*
X144895899Y-100721300D01*
X144957298Y-100752507D01*
X145078184Y-100815322D01*
X145168224Y-100879987D01*
X145244231Y-100961989D01*
X145323018Y-101076811D01*
X145341224Y-101106111D01*
X145488882Y-101369266D01*
X145601128Y-101625885D01*
X145683682Y-101893022D01*
X145742268Y-102187734D01*
X145767303Y-102376111D01*
X145804490Y-102722870D01*
X145833918Y-103045956D01*
X145856326Y-103359246D01*
X145872452Y-103676617D01*
X145883034Y-104011946D01*
X145888811Y-104379111D01*
X145890446Y-104690333D01*
X145889489Y-105060085D01*
X145885061Y-105377075D01*
X145876846Y-105644899D01*
X145864531Y-105867154D01*
X145847801Y-106047433D01*
X145826343Y-106189332D01*
X145799840Y-106296446D01*
X145767980Y-106372371D01*
X145739948Y-106411471D01*
X145673950Y-106463482D01*
X145567539Y-106527243D01*
X145433833Y-106596606D01*
X145285949Y-106665424D01*
X145137007Y-106727550D01*
X145000125Y-106776836D01*
X144901429Y-106804404D01*
X144785389Y-106823121D01*
X144639622Y-106836713D01*
X144481635Y-106844605D01*
X144328936Y-106846226D01*
X144199032Y-106840999D01*
X144116778Y-106830124D01*
X143917572Y-106782047D01*
X143762398Y-106736358D01*
X143639180Y-106689294D01*
X143588685Y-106665535D01*
X143504234Y-106626383D01*
X143436790Y-106600900D01*
X143410919Y-106595333D01*
X143346599Y-106569917D01*
X143304208Y-106496983D01*
X143284922Y-106381509D01*
X143289920Y-106228469D01*
X143302337Y-106136716D01*
X143345510Y-106037208D01*
X143435623Y-105942608D01*
X143563178Y-105858661D01*
X143718675Y-105791109D01*
X143892617Y-105745697D01*
X143967001Y-105734817D01*
X144060195Y-105721628D01*
X144117505Y-105700229D01*
X144159333Y-105658162D01*
X144200742Y-105592096D01*
X144236330Y-105524201D01*
X144258699Y-105457075D01*
X144271168Y-105373895D01*
X144277052Y-105257836D01*
X144278301Y-105198659D01*
X144278753Y-105066589D01*
X144273431Y-104976826D01*
X144260222Y-104915352D01*
X144237019Y-104868147D01*
X144226184Y-104852455D01*
X144156215Y-104776456D01*
X144069290Y-104723965D01*
X143955076Y-104691687D01*
X143803245Y-104676326D01*
X143666438Y-104673885D01*
X143500380Y-104676425D01*
X143377007Y-104683834D01*
X143282631Y-104698161D01*
X143203563Y-104721453D01*
X143129000Y-104754325D01*
X143027994Y-104814143D01*
X142973047Y-104878912D01*
X142955058Y-104965522D01*
X142961561Y-105065159D01*
X142980393Y-105183479D01*
X143005957Y-105302821D01*
X143019621Y-105353556D01*
X143056386Y-105567980D01*
X143041403Y-105770375D01*
X143024888Y-105814957D01*
X142988351Y-105861185D01*
X142923519Y-105916693D01*
X142822120Y-105989115D01*
X142757138Y-106032719D01*
X142489914Y-106209855D01*
X142216790Y-106232421D01*
X141973040Y-106252126D01*
X141777673Y-106266537D01*
X141622875Y-106275652D01*
X141500835Y-106279475D01*
X141403739Y-106278005D01*
X141323775Y-106271244D01*
X141253131Y-106259193D01*
X141183992Y-106241852D01*
X141152038Y-106232547D01*
X140951512Y-106149945D01*
X140794963Y-106034072D01*
X140678674Y-105881842D01*
X140642324Y-105809459D01*
X140595287Y-105655280D01*
X140597511Y-105590358D01*
X140780992Y-105590358D01*
X140782202Y-105684380D01*
X140823674Y-105775099D01*
X140896615Y-105868900D01*
X140993596Y-105940965D01*
X141128599Y-106000812D01*
X141181667Y-106018794D01*
X141349427Y-106054695D01*
X141554024Y-106070471D01*
X141780014Y-106067281D01*
X142011955Y-106046280D01*
X142234402Y-106008626D01*
X142431914Y-105955476D01*
X142529303Y-105917850D01*
X142628411Y-105861641D01*
X142724606Y-105787420D01*
X142802121Y-105709113D01*
X142845190Y-105640646D01*
X142846051Y-105638067D01*
X142847009Y-105588057D01*
X142835391Y-105497637D01*
X142813376Y-105380879D01*
X142791310Y-105284327D01*
X142756144Y-105129882D01*
X142738480Y-105014040D01*
X142738341Y-104921735D01*
X142755747Y-104837902D01*
X142790719Y-104747473D01*
X142792078Y-104744416D01*
X142859481Y-104662078D01*
X142980484Y-104597171D01*
X143154990Y-104549721D01*
X143382908Y-104519749D01*
X143664142Y-104507281D01*
X143730463Y-104506889D01*
X143951975Y-104515100D01*
X144125070Y-104541629D01*
X144255612Y-104589317D01*
X144349465Y-104661007D01*
X144412493Y-104759540D01*
X144442926Y-104852196D01*
X144455970Y-104944462D01*
X144461009Y-105068961D01*
X144458991Y-105214375D01*
X144450864Y-105369387D01*
X144437578Y-105522678D01*
X144420082Y-105662931D01*
X144399322Y-105778827D01*
X144376249Y-105859049D01*
X144355899Y-105890510D01*
X144304895Y-105902584D01*
X144221935Y-105904109D01*
X144173222Y-105900221D01*
X144029277Y-105901783D01*
X143882086Y-105934113D01*
X143744432Y-105991022D01*
X143629100Y-106066321D01*
X143548872Y-106153821D01*
X143521196Y-106215899D01*
X143513061Y-106332663D01*
X143553557Y-106430863D01*
X143644604Y-106512610D01*
X143788118Y-106580015D01*
X143877789Y-106608339D01*
X144006257Y-106631451D01*
X144174540Y-106643202D01*
X144367279Y-106644125D01*
X144569110Y-106634753D01*
X144764674Y-106615619D01*
X144938609Y-106587255D01*
X145016106Y-106568845D01*
X145191954Y-106512998D01*
X145351806Y-106447579D01*
X145484792Y-106378015D01*
X145580044Y-106309730D01*
X145616043Y-106269416D01*
X145643307Y-106206177D01*
X145665648Y-106105240D01*
X145683335Y-105963256D01*
X145696638Y-105776878D01*
X145705827Y-105542758D01*
X145711171Y-105257549D01*
X145712598Y-105071333D01*
X145710760Y-104768079D01*
X145703092Y-104441551D01*
X145690208Y-104100801D01*
X145672723Y-103754879D01*
X145651250Y-103412835D01*
X145626402Y-103083722D01*
X145598793Y-102776590D01*
X145569037Y-102500489D01*
X145537748Y-102264471D01*
X145511778Y-102109305D01*
X145441831Y-101834639D01*
X145340813Y-101569678D01*
X145214449Y-101324801D01*
X145068464Y-101110386D01*
X144908582Y-100936810D01*
X144828841Y-100871238D01*
X144759582Y-100823219D01*
X144694459Y-100788072D01*
X144619295Y-100760934D01*
X144519912Y-100736940D01*
X144382133Y-100711225D01*
X144342555Y-100704390D01*
X144141168Y-100676968D01*
X143928914Y-100660378D01*
X143717371Y-100654437D01*
X143518122Y-100658964D01*
X143342745Y-100673776D01*
X143202821Y-100698692D01*
X143129000Y-100723485D01*
X143027421Y-100796004D01*
X142930132Y-100912190D01*
X142846585Y-101059505D01*
X142811542Y-101144708D01*
X142722478Y-101398410D01*
X142633154Y-101665134D01*
X142547246Y-101933013D01*
X142468431Y-102190181D01*
X142400386Y-102424772D01*
X142346787Y-102624920D01*
X142325081Y-102714778D01*
X142293510Y-102850865D01*
X142261092Y-102987394D01*
X142233627Y-103100021D01*
X142227603Y-103124000D01*
X142200629Y-103243764D01*
X142177370Y-103369558D01*
X142169829Y-103420333D01*
X142155188Y-103521940D01*
X142134762Y-103650529D01*
X142113869Y-103773111D01*
X142092354Y-103897274D01*
X142066341Y-104051762D01*
X142040091Y-104211137D01*
X142028784Y-104281111D01*
X141987332Y-104529786D01*
X141946043Y-104759043D01*
X141906296Y-104962339D01*
X141869469Y-105133131D01*
X141836941Y-105264875D01*
X141810091Y-105351030D01*
X141797757Y-105377387D01*
X141752354Y-105424479D01*
X141697155Y-105424678D01*
X141694325Y-105423788D01*
X141638472Y-105410137D01*
X141544649Y-105391511D01*
X141430695Y-105371391D01*
X141399925Y-105366337D01*
X141191731Y-105347898D01*
X141025276Y-105366779D01*
X140899804Y-105423147D01*
X140830339Y-105492631D01*
X140780992Y-105590358D01*
X140597511Y-105590358D01*
X140600012Y-105517387D01*
X140657898Y-105391267D01*
X140770343Y-105272408D01*
X140820998Y-105233033D01*
X140940688Y-105160834D01*
X141060277Y-105124904D01*
X141194875Y-105123354D01*
X141359593Y-105154297D01*
X141389364Y-105162033D01*
X141509446Y-105191170D01*
X141587115Y-105197013D01*
X141633688Y-105173556D01*
X141660483Y-105114794D01*
X141678818Y-105014720D01*
X141679803Y-105007919D01*
X141693899Y-104924898D01*
X141717447Y-104802072D01*
X141747409Y-104654680D01*
X141780749Y-104497962D01*
X141788057Y-104464556D01*
X141826637Y-104282822D01*
X141872372Y-104056996D01*
X141923076Y-103798650D01*
X141976560Y-103519359D01*
X142030639Y-103230694D01*
X142083126Y-102944231D01*
X142131834Y-102671542D01*
X142174576Y-102424200D01*
X142182665Y-102376111D01*
X142211476Y-102241981D01*
X142251830Y-102099327D01*
X142284422Y-102006698D01*
X142329820Y-101883143D01*
X142376429Y-101740653D01*
X142405884Y-101639809D01*
X142442525Y-101515219D01*
X142484388Y-101388727D01*
X142516146Y-101303667D01*
X142561708Y-101191075D01*
X142612158Y-101065246D01*
X142634560Y-101008948D01*
X142702844Y-100859048D01*
X142780392Y-100742698D01*
X142883401Y-100637431D01*
X142932363Y-100595848D01*
X143057514Y-100493296D01*
X143458270Y-100469872D01*
X143654783Y-100460944D01*
X143798093Y-100460193D01*
X143887167Y-100467607D01*
D12*
%TO.C,Q3*%
X132755000Y-116188000D02*
X131345000Y-116188000D01*
X131345000Y-118508000D02*
X134080000Y-118508000D01*
X131345000Y-118518000D02*
X131345000Y-117848000D01*
X131345000Y-116848000D02*
X131345000Y-116188000D01*
%TO.C,R45*%
X143544936Y-49382000D02*
X144999064Y-49382000D01*
X143544936Y-51202000D02*
X144999064Y-51202000D01*
%TO.C,R68*%
X151786000Y-121192936D02*
X151786000Y-122647064D01*
X149966000Y-121192936D02*
X149966000Y-122647064D01*
%TO.C,R67*%
X135234000Y-122139064D02*
X135234000Y-120684936D01*
X137054000Y-122139064D02*
X137054000Y-120684936D01*
%TO.C,R66*%
X135234000Y-117059064D02*
X135234000Y-115604936D01*
X137054000Y-117059064D02*
X137054000Y-115604936D01*
%TO.C,R65*%
X151786000Y-115780936D02*
X151786000Y-117235064D01*
X149966000Y-115780936D02*
X149966000Y-117235064D01*
%TO.C,R64*%
X135234000Y-101337064D02*
X135234000Y-99882936D01*
X137054000Y-101337064D02*
X137054000Y-99882936D01*
%TO.C,U2*%
X144294000Y-87778000D02*
X145794000Y-87778000D01*
X145794000Y-87778000D02*
X145794000Y-87508000D01*
X145794000Y-87508000D02*
X148624000Y-87508000D01*
X144294000Y-80878000D02*
X145794000Y-80878000D01*
X145794000Y-80878000D02*
X145794000Y-81148000D01*
X145794000Y-81148000D02*
X146894000Y-81148000D01*
%TO.C,U1*%
X144510000Y-91126000D02*
G75*
G02*
X142510000Y-91126000I-1000000J0D01*
G01*
X142510000Y-91126000D02*
X140860000Y-91126000D01*
X140860000Y-91126000D02*
X140860000Y-126806000D01*
X140860000Y-126806000D02*
X146160000Y-126806000D01*
X146160000Y-126806000D02*
X146160000Y-91126000D01*
X146160000Y-91126000D02*
X144510000Y-91126000D01*
X138370000Y-91066000D02*
X138370000Y-126866000D01*
X138370000Y-126866000D02*
X148650000Y-126866000D01*
X148650000Y-126866000D02*
X148650000Y-91066000D01*
X148650000Y-91066000D02*
X138370000Y-91066000D01*
D13*
%TO.C,S1*%
X125984000Y-78804000D02*
G75*
G02*
X125984000Y-78904000I0J-50000D01*
G01*
X125984000Y-78904000D02*
G75*
G02*
X125984000Y-78804000I0J50000D01*
G01*
X125984000Y-78904000D02*
X125984000Y-78904000D01*
X125984000Y-78804000D02*
X125984000Y-78804000D01*
D14*
X123834000Y-89104000D02*
X124984000Y-89104000D01*
X123834000Y-80504000D02*
X123834000Y-89104000D01*
X123984000Y-80504000D02*
X123834000Y-80504000D01*
X124984000Y-80504000D02*
X123984000Y-80504000D01*
X128134000Y-89104000D02*
X126984000Y-89104000D01*
X128134000Y-80504000D02*
X128134000Y-89104000D01*
X127484000Y-80504000D02*
X128134000Y-80504000D01*
D12*
%TO.C,R63*%
X132833064Y-88794000D02*
X131378936Y-88794000D01*
X132833064Y-86974000D02*
X131378936Y-86974000D01*
%TO.C,R62*%
X132807064Y-91334000D02*
X131352936Y-91334000D01*
X132807064Y-89514000D02*
X131352936Y-89514000D01*
%TO.C,R61*%
X132807064Y-93874000D02*
X131352936Y-93874000D01*
X132807064Y-92054000D02*
X131352936Y-92054000D01*
%TO.C,R60*%
X93252936Y-70718000D02*
X94707064Y-70718000D01*
X93252936Y-72538000D02*
X94707064Y-72538000D01*
%TO.C,R59*%
X137774000Y-156175064D02*
X137774000Y-154720936D01*
X139594000Y-156175064D02*
X139594000Y-154720936D01*
%TO.C,R55*%
X179104936Y-113390000D02*
X180559064Y-113390000D01*
X179104936Y-115210000D02*
X180559064Y-115210000D01*
%TO.C,R54*%
X176564936Y-130662000D02*
X178019064Y-130662000D01*
X176564936Y-132482000D02*
X178019064Y-132482000D01*
%TO.C,R53*%
X184623064Y-77110000D02*
X183168936Y-77110000D01*
X184623064Y-75290000D02*
X183168936Y-75290000D01*
%TO.C,R52*%
X140610000Y-42426936D02*
X140610000Y-43881064D01*
X138790000Y-42426936D02*
X138790000Y-43881064D01*
%TO.C,R51*%
X194670000Y-134839064D02*
X194670000Y-133384936D01*
X196490000Y-134839064D02*
X196490000Y-133384936D01*
%TO.C,R50*%
X197210000Y-134839064D02*
X197210000Y-133384936D01*
X199030000Y-134839064D02*
X199030000Y-133384936D01*
%TO.C,R49*%
X199750000Y-134839064D02*
X199750000Y-133384936D01*
X201570000Y-134839064D02*
X201570000Y-133384936D01*
%TO.C,R48*%
X170494936Y-78846000D02*
X171949064Y-78846000D01*
X170494936Y-80666000D02*
X171949064Y-80666000D01*
%TO.C,R47*%
X200371064Y-64410000D02*
X198916936Y-64410000D01*
X200371064Y-62590000D02*
X198916936Y-62590000D01*
%TO.C,R46*%
X143544936Y-46842000D02*
X144999064Y-46842000D01*
X143544936Y-48662000D02*
X144999064Y-48662000D01*
%TO.C,R44*%
X143518936Y-51922000D02*
X144973064Y-51922000D01*
X143518936Y-53742000D02*
X144973064Y-53742000D01*
%TO.C,R43*%
X106460936Y-83926000D02*
X107915064Y-83926000D01*
X106460936Y-85746000D02*
X107915064Y-85746000D01*
%TO.C,R42*%
X81894000Y-71339064D02*
X81894000Y-69884936D01*
X83714000Y-71339064D02*
X83714000Y-69884936D01*
%TO.C,R41*%
X102422936Y-112882000D02*
X103877064Y-112882000D01*
X102422936Y-114702000D02*
X103877064Y-114702000D01*
%TO.C,R40*%
X85632936Y-132694000D02*
X87087064Y-132694000D01*
X85632936Y-134514000D02*
X87087064Y-134514000D01*
%TO.C,R39*%
X84434000Y-63719064D02*
X84434000Y-62264936D01*
X86254000Y-63719064D02*
X86254000Y-62264936D01*
%TO.C,R38*%
X86974000Y-63719064D02*
X86974000Y-62264936D01*
X88794000Y-63719064D02*
X88794000Y-62264936D01*
%TO.C,R37*%
X89514000Y-63719064D02*
X89514000Y-62264936D01*
X91334000Y-63719064D02*
X91334000Y-62264936D01*
%TO.C,R36*%
X145182000Y-56194936D02*
X145182000Y-57649064D01*
X143362000Y-56194936D02*
X143362000Y-57649064D01*
%TO.C,R35*%
X81568936Y-123042000D02*
X83023064Y-123042000D01*
X81568936Y-124862000D02*
X83023064Y-124862000D01*
%TO.C,R31*%
X174558936Y-119994000D02*
X176013064Y-119994000D01*
X174558936Y-121814000D02*
X176013064Y-121814000D01*
%TO.C,R30*%
X202586000Y-125738936D02*
X202586000Y-127193064D01*
X200766000Y-125738936D02*
X200766000Y-127193064D01*
%TO.C,R29*%
X179104936Y-83418000D02*
X180559064Y-83418000D01*
X179104936Y-85238000D02*
X180559064Y-85238000D01*
%TO.C,R28*%
X190606000Y-89119064D02*
X190606000Y-87664936D01*
X192426000Y-89119064D02*
X192426000Y-87664936D01*
%TO.C,R27*%
X198226000Y-71847064D02*
X198226000Y-70392936D01*
X200046000Y-71847064D02*
X200046000Y-70392936D01*
%TO.C,R26*%
X200766000Y-71847064D02*
X200766000Y-70392936D01*
X202586000Y-71847064D02*
X202586000Y-70392936D01*
%TO.C,R25*%
X137054000Y-89188936D02*
X137054000Y-90643064D01*
X135234000Y-89188936D02*
X135234000Y-90643064D01*
%TO.C,R24*%
X203306000Y-71847064D02*
X203306000Y-70392936D01*
X205126000Y-71847064D02*
X205126000Y-70392936D01*
%TO.C,R23*%
X191735064Y-125878000D02*
X190280936Y-125878000D01*
X191735064Y-124058000D02*
X190280936Y-124058000D01*
%TO.C,R22*%
X145394000Y-156175064D02*
X145394000Y-154720936D01*
X147214000Y-156175064D02*
X147214000Y-154720936D01*
%TO.C,R21*%
X97221064Y-113686000D02*
X95766936Y-113686000D01*
X97221064Y-111866000D02*
X95766936Y-111866000D01*
%TO.C,R20*%
X97221064Y-111146000D02*
X95766936Y-111146000D01*
X97221064Y-109326000D02*
X95766936Y-109326000D01*
%TO.C,R19*%
X97247064Y-108606000D02*
X95792936Y-108606000D01*
X97247064Y-106786000D02*
X95792936Y-106786000D01*
%TO.C,R18*%
X122647064Y-113178000D02*
X121192936Y-113178000D01*
X122647064Y-111358000D02*
X121192936Y-111358000D01*
%TO.C,R17*%
X107476936Y-64622000D02*
X108931064Y-64622000D01*
X107476936Y-66442000D02*
X108931064Y-66442000D01*
%TO.C,R16*%
X117750000Y-104936936D02*
X117750000Y-106391064D01*
X115930000Y-104936936D02*
X115930000Y-106391064D01*
%TO.C,R15*%
X155850000Y-51088936D02*
X155850000Y-52543064D01*
X154030000Y-51088936D02*
X154030000Y-52543064D01*
%TO.C,R14*%
X133410936Y-48874000D02*
X134865064Y-48874000D01*
X133410936Y-50694000D02*
X134865064Y-50694000D01*
%TO.C,R13*%
X133384936Y-51414000D02*
X134839064Y-51414000D01*
X133384936Y-53234000D02*
X134839064Y-53234000D01*
%TO.C,R12*%
X133384936Y-53954000D02*
X134839064Y-53954000D01*
X133384936Y-55774000D02*
X134839064Y-55774000D01*
%TO.C,R11*%
X162962000Y-116112936D02*
X162962000Y-117567064D01*
X161142000Y-116112936D02*
X161142000Y-117567064D01*
%TO.C,R10*%
X98150000Y-83531064D02*
X98150000Y-82076936D01*
X99970000Y-83531064D02*
X99970000Y-82076936D01*
%TO.C,R9*%
X110130000Y-128812936D02*
X110130000Y-130267064D01*
X108310000Y-128812936D02*
X108310000Y-130267064D01*
%TO.C,R8*%
X107590000Y-128812936D02*
X107590000Y-130267064D01*
X105770000Y-128812936D02*
X105770000Y-130267064D01*
%TO.C,R7*%
X105050000Y-128812936D02*
X105050000Y-130267064D01*
X103230000Y-128812936D02*
X103230000Y-130267064D01*
%TO.C,R6*%
X158602000Y-122621064D02*
X158602000Y-121166936D01*
X160422000Y-122621064D02*
X160422000Y-121166936D01*
%TO.C,R5*%
X189378000Y-110524936D02*
X189378000Y-111979064D01*
X187558000Y-110524936D02*
X187558000Y-111979064D01*
%TO.C,R4*%
X159731064Y-95906000D02*
X158276936Y-95906000D01*
X159731064Y-94086000D02*
X158276936Y-94086000D01*
%TO.C,R3*%
X182774000Y-66836936D02*
X182774000Y-68291064D01*
X180954000Y-66836936D02*
X180954000Y-68291064D01*
%TO.C,R2*%
X151278000Y-99348936D02*
X151278000Y-100803064D01*
X149458000Y-99348936D02*
X149458000Y-100803064D01*
%TO.C,R1*%
X151278000Y-94268936D02*
X151278000Y-95723064D01*
X149458000Y-94268936D02*
X149458000Y-95723064D01*
%TO.C,Q5*%
X155675000Y-120388000D02*
X155675000Y-121048000D01*
X155675000Y-118718000D02*
X155675000Y-119388000D01*
X155675000Y-118728000D02*
X152940000Y-118728000D01*
X154265000Y-121048000D02*
X155675000Y-121048000D01*
%TO.C,Q4*%
X131345000Y-120912000D02*
X131345000Y-120252000D01*
X131345000Y-122582000D02*
X131345000Y-121912000D01*
X131345000Y-122572000D02*
X134080000Y-122572000D01*
X132755000Y-120252000D02*
X131345000Y-120252000D01*
%TO.C,Q2*%
X155675000Y-116832000D02*
X155675000Y-117492000D01*
X155675000Y-115162000D02*
X155675000Y-115832000D01*
X155675000Y-115172000D02*
X152940000Y-115172000D01*
X154265000Y-117492000D02*
X155675000Y-117492000D01*
%TO.C,Q1*%
X131345000Y-99068000D02*
X131345000Y-98408000D01*
X131345000Y-100738000D02*
X131345000Y-100068000D01*
X131345000Y-100728000D02*
X134080000Y-100728000D01*
X132755000Y-98408000D02*
X131345000Y-98408000D01*
%TO.C,D50*%
X151968000Y-57793000D02*
X147908000Y-57793000D01*
X147908000Y-57793000D02*
X147908000Y-60063000D01*
X147908000Y-60063000D02*
X151968000Y-60063000D01*
%TO.C,D49*%
X109296000Y-122309000D02*
X105236000Y-122309000D01*
X105236000Y-122309000D02*
X105236000Y-124579000D01*
X105236000Y-124579000D02*
X109296000Y-124579000D01*
%TO.C,D48*%
X95580000Y-67953000D02*
X91520000Y-67953000D01*
X91520000Y-67953000D02*
X91520000Y-70223000D01*
X91520000Y-70223000D02*
X95580000Y-70223000D01*
%TO.C,D47*%
X181432000Y-110625000D02*
X177372000Y-110625000D01*
X177372000Y-110625000D02*
X177372000Y-112895000D01*
X177372000Y-112895000D02*
X181432000Y-112895000D01*
%TO.C,D46*%
X145992000Y-77215538D02*
G75*
G02*
X140442000Y-78760830I-2990000J-462D01*
G01*
X145992000Y-77216462D02*
G75*
G03*
X140442000Y-75671170I-2990000J462D01*
G01*
X145502000Y-77216000D02*
G75*
G03*
X145502000Y-77216000I-2500000J0D01*
G01*
X140442000Y-75671000D02*
X140442000Y-78761000D01*
%TO.C,D45*%
X134308000Y-166115538D02*
G75*
G02*
X128758000Y-167660830I-2990000J-462D01*
G01*
X134308000Y-166116462D02*
G75*
G03*
X128758000Y-164571170I-2990000J462D01*
G01*
X133818000Y-166116000D02*
G75*
G03*
X133818000Y-166116000I-2500000J0D01*
G01*
X128758000Y-164571000D02*
X128758000Y-167661000D01*
%TO.C,D44*%
X161232000Y-145795538D02*
G75*
G02*
X155682000Y-147340830I-2990000J-462D01*
G01*
X161232000Y-145796462D02*
G75*
G03*
X155682000Y-144251170I-2990000J462D01*
G01*
X160742000Y-145796000D02*
G75*
G03*
X160742000Y-145796000I-2500000J0D01*
G01*
X155682000Y-144251000D02*
X155682000Y-147341000D01*
%TO.C,D43*%
X180536000Y-137667538D02*
G75*
G02*
X174986000Y-139212830I-2990000J-462D01*
G01*
X180536000Y-137668462D02*
G75*
G03*
X174986000Y-136123170I-2990000J462D01*
G01*
X180046000Y-137668000D02*
G75*
G03*
X180046000Y-137668000I-2500000J0D01*
G01*
X174986000Y-136123000D02*
X174986000Y-139213000D01*
%TO.C,D42*%
X193587500Y-72017000D02*
X189527500Y-72017000D01*
X189527500Y-72017000D02*
X189527500Y-74287000D01*
X189527500Y-74287000D02*
X193587500Y-74287000D01*
%TO.C,D41*%
X131884000Y-30480462D02*
G75*
G02*
X137434000Y-28935170I2990000J462D01*
G01*
X131884000Y-30479538D02*
G75*
G03*
X137434000Y-32024830I2990000J-462D01*
G01*
X137374000Y-30480000D02*
G75*
G03*
X137374000Y-30480000I-2500000J0D01*
G01*
X137434000Y-32025000D02*
X137434000Y-28935000D01*
%TO.C,D40*%
X133680000Y-124341000D02*
X129620000Y-124341000D01*
X129620000Y-124341000D02*
X129620000Y-126611000D01*
X129620000Y-126611000D02*
X133680000Y-126611000D01*
%TO.C,D39*%
X139268000Y-57793000D02*
X135208000Y-57793000D01*
X135208000Y-57793000D02*
X135208000Y-60063000D01*
X135208000Y-60063000D02*
X139268000Y-60063000D01*
%TO.C,D38*%
X172796000Y-74557000D02*
X168736000Y-74557000D01*
X168736000Y-74557000D02*
X168736000Y-76827000D01*
X168736000Y-76827000D02*
X172796000Y-76827000D01*
%TO.C,D37*%
X108788000Y-81161000D02*
X104728000Y-81161000D01*
X104728000Y-81161000D02*
X104728000Y-83431000D01*
X104728000Y-83431000D02*
X108788000Y-83431000D01*
%TO.C,D36*%
X201364000Y-141731538D02*
G75*
G02*
X195814000Y-143276830I-2990000J-462D01*
G01*
X201364000Y-141732462D02*
G75*
G03*
X195814000Y-140187170I-2990000J462D01*
G01*
X200874000Y-141732000D02*
G75*
G03*
X200874000Y-141732000I-2500000J0D01*
G01*
X195814000Y-140187000D02*
X195814000Y-143277000D01*
%TO.C,D35*%
X203396000Y-57403538D02*
G75*
G02*
X197846000Y-58948830I-2990000J-462D01*
G01*
X203396000Y-57404462D02*
G75*
G03*
X197846000Y-55859170I-2990000J462D01*
G01*
X202906000Y-57404000D02*
G75*
G03*
X202906000Y-57404000I-2500000J0D01*
G01*
X197846000Y-55859000D02*
X197846000Y-58949000D01*
%TO.C,D34*%
X151696000Y-30480462D02*
G75*
G02*
X157246000Y-28935170I2990000J462D01*
G01*
X151696000Y-30479538D02*
G75*
G03*
X157246000Y-32024830I2990000J-462D01*
G01*
X157186000Y-30480000D02*
G75*
G03*
X157186000Y-30480000I-2500000J0D01*
G01*
X157246000Y-32025000D02*
X157246000Y-28935000D01*
%TO.C,D33*%
X80968000Y-71119538D02*
G75*
G02*
X75418000Y-72664830I-2990000J-462D01*
G01*
X80968000Y-71120462D02*
G75*
G03*
X75418000Y-69575170I-2990000J462D01*
G01*
X80478000Y-71120000D02*
G75*
G03*
X80478000Y-71120000I-2500000J0D01*
G01*
X75418000Y-69575000D02*
X75418000Y-72665000D01*
%TO.C,D32*%
X104724000Y-110117000D02*
X100664000Y-110117000D01*
X100664000Y-110117000D02*
X100664000Y-112387000D01*
X100664000Y-112387000D02*
X104724000Y-112387000D01*
%TO.C,D31*%
X89096000Y-139191538D02*
G75*
G02*
X83546000Y-140736830I-2990000J-462D01*
G01*
X89096000Y-139192462D02*
G75*
G03*
X83546000Y-137647170I-2990000J462D01*
G01*
X88606000Y-139192000D02*
G75*
G03*
X88606000Y-139192000I-2500000J0D01*
G01*
X83546000Y-137647000D02*
X83546000Y-140737000D01*
%TO.C,D30*%
X117229000Y-86284000D02*
X117229000Y-90344000D01*
X117229000Y-90344000D02*
X119499000Y-90344000D01*
X119499000Y-90344000D02*
X119499000Y-86284000D01*
%TO.C,D29*%
X140640000Y-160647000D02*
X144700000Y-160647000D01*
X144700000Y-160647000D02*
X144700000Y-158377000D01*
X144700000Y-158377000D02*
X140640000Y-158377000D01*
%TO.C,D28*%
X143137000Y-42088000D02*
X143137000Y-46148000D01*
X143137000Y-46148000D02*
X145407000Y-46148000D01*
X145407000Y-46148000D02*
X145407000Y-42088000D01*
%TO.C,D27*%
X176860000Y-122309000D02*
X172800000Y-122309000D01*
X172800000Y-122309000D02*
X172800000Y-124579000D01*
X172800000Y-124579000D02*
X176860000Y-124579000D01*
%TO.C,D26*%
X90620000Y-54863538D02*
G75*
G02*
X85070000Y-56408830I-2990000J-462D01*
G01*
X90620000Y-54864462D02*
G75*
G03*
X85070000Y-53319170I-2990000J462D01*
G01*
X90130000Y-54864000D02*
G75*
G03*
X90130000Y-54864000I-2500000J0D01*
G01*
X85070000Y-53319000D02*
X85070000Y-56409000D01*
%TO.C,D25*%
X78936000Y-122427538D02*
G75*
G02*
X73386000Y-123972830I-2990000J-462D01*
G01*
X78936000Y-122428462D02*
G75*
G03*
X73386000Y-120883170I-2990000J462D01*
G01*
X78446000Y-122428000D02*
G75*
G03*
X78446000Y-122428000I-2500000J0D01*
G01*
X73386000Y-120883000D02*
X73386000Y-123973000D01*
%TO.C,D24*%
X126688000Y-146811538D02*
G75*
G02*
X121138000Y-148356830I-2990000J-462D01*
G01*
X126688000Y-146812462D02*
G75*
G03*
X121138000Y-145267170I-2990000J462D01*
G01*
X126198000Y-146812000D02*
G75*
G03*
X126198000Y-146812000I-2500000J0D01*
G01*
X121138000Y-145267000D02*
X121138000Y-148357000D01*
%TO.C,D23*%
X211524000Y-124967538D02*
G75*
G02*
X205974000Y-126512830I-2990000J-462D01*
G01*
X211524000Y-124968462D02*
G75*
G03*
X205974000Y-123423170I-2990000J462D01*
G01*
X211034000Y-124968000D02*
G75*
G03*
X211034000Y-124968000I-2500000J0D01*
G01*
X205974000Y-123423000D02*
X205974000Y-126513000D01*
%TO.C,D22*%
X181395500Y-85733000D02*
X177335500Y-85733000D01*
X177335500Y-85733000D02*
X177335500Y-88003000D01*
X177335500Y-88003000D02*
X181395500Y-88003000D01*
%TO.C,D21*%
X199179600Y-88823338D02*
G75*
G02*
X193629600Y-90368630I-2990000J-462D01*
G01*
X199179600Y-88824262D02*
G75*
G03*
X193629600Y-87278970I-2990000J462D01*
G01*
X198689600Y-88823800D02*
G75*
G03*
X198689600Y-88823800I-2500000J0D01*
G01*
X193629600Y-87278800D02*
X193629600Y-90368800D01*
%TO.C,D20*%
X168732000Y-100465000D02*
X164672000Y-100465000D01*
X164672000Y-100465000D02*
X164672000Y-102735000D01*
X164672000Y-102735000D02*
X168732000Y-102735000D01*
%TO.C,D19*%
X91364000Y-125595000D02*
X95424000Y-125595000D01*
X95424000Y-125595000D02*
X95424000Y-123325000D01*
X95424000Y-123325000D02*
X91364000Y-123325000D01*
%TO.C,D18*%
X195692500Y-126373000D02*
X191632500Y-126373000D01*
X191632500Y-126373000D02*
X191632500Y-128643000D01*
X191632500Y-128643000D02*
X195692500Y-128643000D01*
%TO.C,D17*%
X120283500Y-115943000D02*
X124343500Y-115943000D01*
X124343500Y-115943000D02*
X124343500Y-113673000D01*
X124343500Y-113673000D02*
X120283500Y-113673000D01*
%TO.C,D16*%
X214572000Y-74167538D02*
G75*
G02*
X209022000Y-75712830I-2990000J-462D01*
G01*
X214572000Y-74168462D02*
G75*
G03*
X209022000Y-72623170I-2990000J462D01*
G01*
X214082000Y-74168000D02*
G75*
G03*
X214082000Y-74168000I-2500000J0D01*
G01*
X209022000Y-72623000D02*
X209022000Y-75713000D01*
%TO.C,D15*%
X148570000Y-163047000D02*
X148570000Y-166137000D01*
X153630000Y-164592000D02*
G75*
G03*
X153630000Y-164592000I-2500000J0D01*
G01*
X154120000Y-164592462D02*
G75*
G03*
X148570000Y-163047170I-2990000J462D01*
G01*
X154120000Y-164591538D02*
G75*
G02*
X148570000Y-166136830I-2990000J-462D01*
G01*
%TO.C,D14*%
X93160000Y-106679538D02*
G75*
G02*
X87610000Y-108224830I-2990000J-462D01*
G01*
X93160000Y-106680462D02*
G75*
G03*
X87610000Y-105135170I-2990000J462D01*
G01*
X92670000Y-106680000D02*
G75*
G03*
X92670000Y-106680000I-2500000J0D01*
G01*
X87610000Y-105135000D02*
X87610000Y-108225000D01*
%TO.C,D13*%
X111448000Y-59435538D02*
G75*
G02*
X105898000Y-60980830I-2990000J-462D01*
G01*
X111448000Y-59436462D02*
G75*
G03*
X105898000Y-57891170I-2990000J462D01*
G01*
X110958000Y-59436000D02*
G75*
G03*
X110958000Y-59436000I-2500000J0D01*
G01*
X105898000Y-57891000D02*
X105898000Y-60981000D01*
%TO.C,D12*%
X115705000Y-98512500D02*
X115705000Y-102572500D01*
X115705000Y-102572500D02*
X117975000Y-102572500D01*
X117975000Y-102572500D02*
X117975000Y-98512500D01*
%TO.C,D11*%
X163772000Y-50291538D02*
G75*
G02*
X158222000Y-51836830I-2990000J-462D01*
G01*
X163772000Y-50292462D02*
G75*
G03*
X158222000Y-48747170I-2990000J462D01*
G01*
X163282000Y-50292000D02*
G75*
G03*
X163282000Y-50292000I-2500000J0D01*
G01*
X158222000Y-48747000D02*
X158222000Y-51837000D01*
%TO.C,D10*%
X109180500Y-73779000D02*
X113240500Y-73779000D01*
X113240500Y-73779000D02*
X113240500Y-71509000D01*
X113240500Y-71509000D02*
X109180500Y-71509000D01*
%TO.C,D9*%
X122860000Y-106291000D02*
X126920000Y-106291000D01*
X126920000Y-106291000D02*
X126920000Y-104021000D01*
X126920000Y-104021000D02*
X122860000Y-104021000D01*
%TO.C,D8*%
X157404000Y-113911000D02*
X161464000Y-113911000D01*
X161464000Y-113911000D02*
X161464000Y-111641000D01*
X161464000Y-111641000D02*
X157404000Y-111641000D01*
%TO.C,D7*%
X153340000Y-126103000D02*
X157400000Y-126103000D01*
X157400000Y-126103000D02*
X157400000Y-123833000D01*
X157400000Y-123833000D02*
X153340000Y-123833000D01*
%TO.C,D6*%
X130752000Y-49275538D02*
G75*
G02*
X125202000Y-50820830I-2990000J-462D01*
G01*
X130752000Y-49276462D02*
G75*
G03*
X125202000Y-47731170I-2990000J462D01*
G01*
X130262000Y-49276000D02*
G75*
G03*
X130262000Y-49276000I-2500000J0D01*
G01*
X125202000Y-47731000D02*
X125202000Y-50821000D01*
%TO.C,D5*%
X97224000Y-84327538D02*
G75*
G02*
X91674000Y-85872830I-2990000J-462D01*
G01*
X97224000Y-84328462D02*
G75*
G03*
X91674000Y-82783170I-2990000J462D01*
G01*
X96734000Y-84328000D02*
G75*
G03*
X96734000Y-84328000I-2500000J0D01*
G01*
X91674000Y-82783000D02*
X91674000Y-85873000D01*
%TO.C,D4*%
X103436000Y-135636462D02*
G75*
G02*
X108986000Y-134091170I2990000J462D01*
G01*
X103436000Y-135635538D02*
G75*
G03*
X108986000Y-137180830I2990000J-462D01*
G01*
X108926000Y-135636000D02*
G75*
G03*
X108926000Y-135636000I-2500000J0D01*
G01*
X108986000Y-137181000D02*
X108986000Y-134091000D01*
%TO.C,D3*%
X194564462Y-112972000D02*
G75*
G02*
X193019170Y-107422000I-462J2990000D01*
G01*
X194563538Y-112972000D02*
G75*
G03*
X196108830Y-107422000I462J2990000D01*
G01*
X197064000Y-109982000D02*
G75*
G03*
X197064000Y-109982000I-2500000J0D01*
G01*
X196109000Y-107422000D02*
X193019000Y-107422000D01*
%TO.C,D2*%
X157440500Y-93591000D02*
X161500500Y-93591000D01*
X161500500Y-93591000D02*
X161500500Y-91321000D01*
X161500500Y-91321000D02*
X157440500Y-91321000D01*
%TO.C,D1*%
X176588000Y-61468462D02*
G75*
G02*
X182138000Y-59923170I2990000J462D01*
G01*
X176588000Y-61467538D02*
G75*
G03*
X182138000Y-63012830I2990000J-462D01*
G01*
X182078000Y-61468000D02*
G75*
G03*
X182078000Y-61468000I-2500000J0D01*
G01*
X182138000Y-63013000D02*
X182138000Y-59923000D01*
%TO.C,C2*%
X160608000Y-84312000D02*
G75*
G03*
X160608000Y-84312000I-2620000J0D01*
G01*
X156948000Y-84312000D02*
X155408000Y-84312000D01*
X160568000Y-84312000D02*
X159028000Y-84312000D01*
X156948000Y-84352000D02*
X155408000Y-84352000D01*
X160568000Y-84352000D02*
X159028000Y-84352000D01*
X160567000Y-84392000D02*
X159028000Y-84392000D01*
X156948000Y-84392000D02*
X155409000Y-84392000D01*
X160566000Y-84432000D02*
X159028000Y-84432000D01*
X156948000Y-84432000D02*
X155410000Y-84432000D01*
X160564000Y-84472000D02*
X159028000Y-84472000D01*
X156948000Y-84472000D02*
X155412000Y-84472000D01*
X160561000Y-84512000D02*
X159028000Y-84512000D01*
X156948000Y-84512000D02*
X155415000Y-84512000D01*
X160557000Y-84552000D02*
X159028000Y-84552000D01*
X156948000Y-84552000D02*
X155419000Y-84552000D01*
X160553000Y-84592000D02*
X159028000Y-84592000D01*
X156948000Y-84592000D02*
X155423000Y-84592000D01*
X160549000Y-84632000D02*
X159028000Y-84632000D01*
X156948000Y-84632000D02*
X155427000Y-84632000D01*
X160544000Y-84672000D02*
X159028000Y-84672000D01*
X156948000Y-84672000D02*
X155432000Y-84672000D01*
X160538000Y-84712000D02*
X159028000Y-84712000D01*
X156948000Y-84712000D02*
X155438000Y-84712000D01*
X160531000Y-84752000D02*
X159028000Y-84752000D01*
X156948000Y-84752000D02*
X155445000Y-84752000D01*
X160524000Y-84792000D02*
X159028000Y-84792000D01*
X156948000Y-84792000D02*
X155452000Y-84792000D01*
X160516000Y-84832000D02*
X159028000Y-84832000D01*
X156948000Y-84832000D02*
X155460000Y-84832000D01*
X160508000Y-84872000D02*
X159028000Y-84872000D01*
X156948000Y-84872000D02*
X155468000Y-84872000D01*
X160499000Y-84912000D02*
X159028000Y-84912000D01*
X156948000Y-84912000D02*
X155477000Y-84912000D01*
X160489000Y-84952000D02*
X159028000Y-84952000D01*
X156948000Y-84952000D02*
X155487000Y-84952000D01*
X160479000Y-84992000D02*
X159028000Y-84992000D01*
X156948000Y-84992000D02*
X155497000Y-84992000D01*
X160468000Y-85033000D02*
X159028000Y-85033000D01*
X156948000Y-85033000D02*
X155508000Y-85033000D01*
X160456000Y-85073000D02*
X159028000Y-85073000D01*
X156948000Y-85073000D02*
X155520000Y-85073000D01*
X160443000Y-85113000D02*
X159028000Y-85113000D01*
X156948000Y-85113000D02*
X155533000Y-85113000D01*
X160430000Y-85153000D02*
X159028000Y-85153000D01*
X156948000Y-85153000D02*
X155546000Y-85153000D01*
X160416000Y-85193000D02*
X159028000Y-85193000D01*
X156948000Y-85193000D02*
X155560000Y-85193000D01*
X160402000Y-85233000D02*
X159028000Y-85233000D01*
X156948000Y-85233000D02*
X155574000Y-85233000D01*
X160386000Y-85273000D02*
X159028000Y-85273000D01*
X156948000Y-85273000D02*
X155590000Y-85273000D01*
X160370000Y-85313000D02*
X159028000Y-85313000D01*
X156948000Y-85313000D02*
X155606000Y-85313000D01*
X160353000Y-85353000D02*
X159028000Y-85353000D01*
X156948000Y-85353000D02*
X155623000Y-85353000D01*
X160336000Y-85393000D02*
X159028000Y-85393000D01*
X156948000Y-85393000D02*
X155640000Y-85393000D01*
X160317000Y-85433000D02*
X159028000Y-85433000D01*
X156948000Y-85433000D02*
X155659000Y-85433000D01*
X160298000Y-85473000D02*
X159028000Y-85473000D01*
X156948000Y-85473000D02*
X155678000Y-85473000D01*
X160278000Y-85513000D02*
X159028000Y-85513000D01*
X156948000Y-85513000D02*
X155698000Y-85513000D01*
X160256000Y-85553000D02*
X159028000Y-85553000D01*
X156948000Y-85553000D02*
X155720000Y-85553000D01*
X160235000Y-85593000D02*
X159028000Y-85593000D01*
X156948000Y-85593000D02*
X155741000Y-85593000D01*
X160212000Y-85633000D02*
X159028000Y-85633000D01*
X156948000Y-85633000D02*
X155764000Y-85633000D01*
X160188000Y-85673000D02*
X159028000Y-85673000D01*
X156948000Y-85673000D02*
X155788000Y-85673000D01*
X160163000Y-85713000D02*
X159028000Y-85713000D01*
X156948000Y-85713000D02*
X155813000Y-85713000D01*
X160137000Y-85753000D02*
X159028000Y-85753000D01*
X156948000Y-85753000D02*
X155839000Y-85753000D01*
X160110000Y-85793000D02*
X159028000Y-85793000D01*
X156948000Y-85793000D02*
X155866000Y-85793000D01*
X160083000Y-85833000D02*
X159028000Y-85833000D01*
X156948000Y-85833000D02*
X155893000Y-85833000D01*
X160053000Y-85873000D02*
X159028000Y-85873000D01*
X156948000Y-85873000D02*
X155923000Y-85873000D01*
X160023000Y-85913000D02*
X159028000Y-85913000D01*
X156948000Y-85913000D02*
X155953000Y-85913000D01*
X159992000Y-85953000D02*
X159028000Y-85953000D01*
X156948000Y-85953000D02*
X155984000Y-85953000D01*
X159959000Y-85993000D02*
X159028000Y-85993000D01*
X156948000Y-85993000D02*
X156017000Y-85993000D01*
X159925000Y-86033000D02*
X159028000Y-86033000D01*
X156948000Y-86033000D02*
X156051000Y-86033000D01*
X159889000Y-86073000D02*
X159028000Y-86073000D01*
X156948000Y-86073000D02*
X156087000Y-86073000D01*
X159852000Y-86113000D02*
X159028000Y-86113000D01*
X156948000Y-86113000D02*
X156124000Y-86113000D01*
X159814000Y-86153000D02*
X159028000Y-86153000D01*
X156948000Y-86153000D02*
X156162000Y-86153000D01*
X159773000Y-86193000D02*
X159028000Y-86193000D01*
X156948000Y-86193000D02*
X156203000Y-86193000D01*
X159731000Y-86233000D02*
X159028000Y-86233000D01*
X156948000Y-86233000D02*
X156245000Y-86233000D01*
X159687000Y-86273000D02*
X159028000Y-86273000D01*
X156948000Y-86273000D02*
X156289000Y-86273000D01*
X159641000Y-86313000D02*
X159028000Y-86313000D01*
X156948000Y-86313000D02*
X156335000Y-86313000D01*
X159593000Y-86353000D02*
X156383000Y-86353000D01*
X159542000Y-86393000D02*
X156434000Y-86393000D01*
X159488000Y-86433000D02*
X156488000Y-86433000D01*
X159431000Y-86473000D02*
X156545000Y-86473000D01*
X159371000Y-86513000D02*
X156605000Y-86513000D01*
X159307000Y-86553000D02*
X156669000Y-86553000D01*
X159239000Y-86593000D02*
X156737000Y-86593000D01*
X159166000Y-86633000D02*
X156810000Y-86633000D01*
X159086000Y-86673000D02*
X156890000Y-86673000D01*
X158999000Y-86713000D02*
X156977000Y-86713000D01*
X158903000Y-86753000D02*
X157073000Y-86753000D01*
X158793000Y-86793000D02*
X157183000Y-86793000D01*
X158665000Y-86833000D02*
X157311000Y-86833000D01*
X158506000Y-86873000D02*
X157470000Y-86873000D01*
X158272000Y-86913000D02*
X157704000Y-86913000D01*
X159463000Y-81507225D02*
X159463000Y-82007225D01*
X159713000Y-81757225D02*
X159213000Y-81757225D01*
%TO.C,C1*%
X136546000Y-108508748D02*
X136546000Y-109931252D01*
X134726000Y-108508748D02*
X134726000Y-109931252D01*
%TO.C,BZ1*%
X143472000Y-132984000D02*
X144252000Y-132984000D01*
X144252000Y-132984000D02*
X144252000Y-149524000D01*
X144252000Y-149524000D02*
X143472000Y-149524000D01*
X139992000Y-132984000D02*
X139212000Y-132984000D01*
X139212000Y-132984000D02*
X139212000Y-149524000D01*
X139212000Y-149524000D02*
X139992000Y-149524000D01*
X142732000Y-135464000D02*
X142732000Y-147044000D01*
X142612000Y-135464000D02*
X142612000Y-147044000D01*
X142492000Y-135464000D02*
X142492000Y-147044000D01*
X142372000Y-135464000D02*
X142372000Y-147044000D01*
X142252000Y-135464000D02*
X142252000Y-147044000D01*
X142132000Y-135464000D02*
X142132000Y-147044000D01*
X142012000Y-135464000D02*
X142012000Y-147044000D01*
X141892000Y-135464000D02*
X141892000Y-147044000D01*
X141772000Y-135464000D02*
X141772000Y-147044000D01*
X141652000Y-135464000D02*
X141652000Y-147044000D01*
X141532000Y-135464000D02*
X141532000Y-147044000D01*
X141412000Y-135464000D02*
X141412000Y-147044000D01*
X141292000Y-135464000D02*
X141292000Y-147044000D01*
X141172000Y-135464000D02*
X141172000Y-147044000D01*
X141052000Y-135464000D02*
X141052000Y-147044000D01*
X140932000Y-135464000D02*
X140932000Y-147044000D01*
X140812000Y-135464000D02*
X140812000Y-147044000D01*
X142732000Y-135464000D02*
X140812000Y-135464000D01*
X142732000Y-147044000D02*
X140812000Y-147044000D01*
%TO.C,Q3*%
D15*
X129071619Y-117443238D02*
X129024000Y-117538476D01*
X128928761Y-117633714D01*
X128785904Y-117776571D01*
X128738285Y-117871809D01*
X128738285Y-117967047D01*
X128976380Y-117919428D02*
X128928761Y-118014666D01*
X128833523Y-118109904D01*
X128643047Y-118157523D01*
X128309714Y-118157523D01*
X128119238Y-118109904D01*
X128024000Y-118014666D01*
X127976380Y-117919428D01*
X127976380Y-117728952D01*
X128024000Y-117633714D01*
X128119238Y-117538476D01*
X128309714Y-117490857D01*
X128643047Y-117490857D01*
X128833523Y-117538476D01*
X128928761Y-117633714D01*
X128976380Y-117728952D01*
X128976380Y-117919428D01*
X127976380Y-117157523D02*
X127976380Y-116538476D01*
X128357333Y-116871809D01*
X128357333Y-116728952D01*
X128404952Y-116633714D01*
X128452571Y-116586095D01*
X128547809Y-116538476D01*
X128785904Y-116538476D01*
X128881142Y-116586095D01*
X128928761Y-116633714D01*
X128976380Y-116728952D01*
X128976380Y-117014666D01*
X128928761Y-117109904D01*
X128881142Y-117157523D01*
%TO.C,REF\u002A\u002A*%
X142938666Y-36012380D02*
X142605333Y-35536190D01*
X142367238Y-36012380D02*
X142367238Y-35012380D01*
X142748190Y-35012380D01*
X142843428Y-35060000D01*
X142891047Y-35107619D01*
X142938666Y-35202857D01*
X142938666Y-35345714D01*
X142891047Y-35440952D01*
X142843428Y-35488571D01*
X142748190Y-35536190D01*
X142367238Y-35536190D01*
X143367238Y-35488571D02*
X143700571Y-35488571D01*
X143843428Y-36012380D02*
X143367238Y-36012380D01*
X143367238Y-35012380D01*
X143843428Y-35012380D01*
X144605333Y-35488571D02*
X144272000Y-35488571D01*
X144272000Y-36012380D02*
X144272000Y-35012380D01*
X144748190Y-35012380D01*
X145272000Y-35012380D02*
X145272000Y-35250476D01*
X145033904Y-35155238D02*
X145272000Y-35250476D01*
X145510095Y-35155238D01*
X145129142Y-35440952D02*
X145272000Y-35250476D01*
X145414857Y-35440952D01*
X146033904Y-35012380D02*
X146033904Y-35250476D01*
X145795809Y-35155238D02*
X146033904Y-35250476D01*
X146272000Y-35155238D01*
X145891047Y-35440952D02*
X146033904Y-35250476D01*
X146176761Y-35440952D01*
%TO.C,R45*%
X148280380Y-50934857D02*
X147804190Y-51268190D01*
X148280380Y-51506285D02*
X147280380Y-51506285D01*
X147280380Y-51125333D01*
X147328000Y-51030095D01*
X147375619Y-50982476D01*
X147470857Y-50934857D01*
X147613714Y-50934857D01*
X147708952Y-50982476D01*
X147756571Y-51030095D01*
X147804190Y-51125333D01*
X147804190Y-51506285D01*
X147613714Y-50077714D02*
X148280380Y-50077714D01*
X147232761Y-50315809D02*
X147947047Y-50553904D01*
X147947047Y-49934857D01*
X147280380Y-49077714D02*
X147280380Y-49553904D01*
X147756571Y-49601523D01*
X147708952Y-49553904D01*
X147661333Y-49458666D01*
X147661333Y-49220571D01*
X147708952Y-49125333D01*
X147756571Y-49077714D01*
X147851809Y-49030095D01*
X148089904Y-49030095D01*
X148185142Y-49077714D01*
X148232761Y-49125333D01*
X148280380Y-49220571D01*
X148280380Y-49458666D01*
X148232761Y-49553904D01*
X148185142Y-49601523D01*
%TO.C,R68*%
X150820380Y-127134857D02*
X150344190Y-127468190D01*
X150820380Y-127706285D02*
X149820380Y-127706285D01*
X149820380Y-127325333D01*
X149868000Y-127230095D01*
X149915619Y-127182476D01*
X150010857Y-127134857D01*
X150153714Y-127134857D01*
X150248952Y-127182476D01*
X150296571Y-127230095D01*
X150344190Y-127325333D01*
X150344190Y-127706285D01*
X149820380Y-126277714D02*
X149820380Y-126468190D01*
X149868000Y-126563428D01*
X149915619Y-126611047D01*
X150058476Y-126706285D01*
X150248952Y-126753904D01*
X150629904Y-126753904D01*
X150725142Y-126706285D01*
X150772761Y-126658666D01*
X150820380Y-126563428D01*
X150820380Y-126372952D01*
X150772761Y-126277714D01*
X150725142Y-126230095D01*
X150629904Y-126182476D01*
X150391809Y-126182476D01*
X150296571Y-126230095D01*
X150248952Y-126277714D01*
X150201333Y-126372952D01*
X150201333Y-126563428D01*
X150248952Y-126658666D01*
X150296571Y-126706285D01*
X150391809Y-126753904D01*
X150248952Y-125611047D02*
X150201333Y-125706285D01*
X150153714Y-125753904D01*
X150058476Y-125801523D01*
X150010857Y-125801523D01*
X149915619Y-125753904D01*
X149868000Y-125706285D01*
X149820380Y-125611047D01*
X149820380Y-125420571D01*
X149868000Y-125325333D01*
X149915619Y-125277714D01*
X150010857Y-125230095D01*
X150058476Y-125230095D01*
X150153714Y-125277714D01*
X150201333Y-125325333D01*
X150248952Y-125420571D01*
X150248952Y-125611047D01*
X150296571Y-125706285D01*
X150344190Y-125753904D01*
X150439428Y-125801523D01*
X150629904Y-125801523D01*
X150725142Y-125753904D01*
X150772761Y-125706285D01*
X150820380Y-125611047D01*
X150820380Y-125420571D01*
X150772761Y-125325333D01*
X150725142Y-125277714D01*
X150629904Y-125230095D01*
X150439428Y-125230095D01*
X150344190Y-125277714D01*
X150296571Y-125325333D01*
X150248952Y-125420571D01*
%TO.C,R67*%
X137104380Y-126118857D02*
X136628190Y-126452190D01*
X137104380Y-126690285D02*
X136104380Y-126690285D01*
X136104380Y-126309333D01*
X136152000Y-126214095D01*
X136199619Y-126166476D01*
X136294857Y-126118857D01*
X136437714Y-126118857D01*
X136532952Y-126166476D01*
X136580571Y-126214095D01*
X136628190Y-126309333D01*
X136628190Y-126690285D01*
X136104380Y-125261714D02*
X136104380Y-125452190D01*
X136152000Y-125547428D01*
X136199619Y-125595047D01*
X136342476Y-125690285D01*
X136532952Y-125737904D01*
X136913904Y-125737904D01*
X137009142Y-125690285D01*
X137056761Y-125642666D01*
X137104380Y-125547428D01*
X137104380Y-125356952D01*
X137056761Y-125261714D01*
X137009142Y-125214095D01*
X136913904Y-125166476D01*
X136675809Y-125166476D01*
X136580571Y-125214095D01*
X136532952Y-125261714D01*
X136485333Y-125356952D01*
X136485333Y-125547428D01*
X136532952Y-125642666D01*
X136580571Y-125690285D01*
X136675809Y-125737904D01*
X136104380Y-124833142D02*
X136104380Y-124166476D01*
X137104380Y-124595047D01*
%TO.C,R66*%
X134564380Y-114434857D02*
X134088190Y-114768190D01*
X134564380Y-115006285D02*
X133564380Y-115006285D01*
X133564380Y-114625333D01*
X133612000Y-114530095D01*
X133659619Y-114482476D01*
X133754857Y-114434857D01*
X133897714Y-114434857D01*
X133992952Y-114482476D01*
X134040571Y-114530095D01*
X134088190Y-114625333D01*
X134088190Y-115006285D01*
X133564380Y-113577714D02*
X133564380Y-113768190D01*
X133612000Y-113863428D01*
X133659619Y-113911047D01*
X133802476Y-114006285D01*
X133992952Y-114053904D01*
X134373904Y-114053904D01*
X134469142Y-114006285D01*
X134516761Y-113958666D01*
X134564380Y-113863428D01*
X134564380Y-113672952D01*
X134516761Y-113577714D01*
X134469142Y-113530095D01*
X134373904Y-113482476D01*
X134135809Y-113482476D01*
X134040571Y-113530095D01*
X133992952Y-113577714D01*
X133945333Y-113672952D01*
X133945333Y-113863428D01*
X133992952Y-113958666D01*
X134040571Y-114006285D01*
X134135809Y-114053904D01*
X133564380Y-112625333D02*
X133564380Y-112815809D01*
X133612000Y-112911047D01*
X133659619Y-112958666D01*
X133802476Y-113053904D01*
X133992952Y-113101523D01*
X134373904Y-113101523D01*
X134469142Y-113053904D01*
X134516761Y-113006285D01*
X134564380Y-112911047D01*
X134564380Y-112720571D01*
X134516761Y-112625333D01*
X134469142Y-112577714D01*
X134373904Y-112530095D01*
X134135809Y-112530095D01*
X134040571Y-112577714D01*
X133992952Y-112625333D01*
X133945333Y-112720571D01*
X133945333Y-112911047D01*
X133992952Y-113006285D01*
X134040571Y-113053904D01*
X134135809Y-113101523D01*
%TO.C,R65*%
X150820380Y-112910857D02*
X150344190Y-113244190D01*
X150820380Y-113482285D02*
X149820380Y-113482285D01*
X149820380Y-113101333D01*
X149868000Y-113006095D01*
X149915619Y-112958476D01*
X150010857Y-112910857D01*
X150153714Y-112910857D01*
X150248952Y-112958476D01*
X150296571Y-113006095D01*
X150344190Y-113101333D01*
X150344190Y-113482285D01*
X149820380Y-112053714D02*
X149820380Y-112244190D01*
X149868000Y-112339428D01*
X149915619Y-112387047D01*
X150058476Y-112482285D01*
X150248952Y-112529904D01*
X150629904Y-112529904D01*
X150725142Y-112482285D01*
X150772761Y-112434666D01*
X150820380Y-112339428D01*
X150820380Y-112148952D01*
X150772761Y-112053714D01*
X150725142Y-112006095D01*
X150629904Y-111958476D01*
X150391809Y-111958476D01*
X150296571Y-112006095D01*
X150248952Y-112053714D01*
X150201333Y-112148952D01*
X150201333Y-112339428D01*
X150248952Y-112434666D01*
X150296571Y-112482285D01*
X150391809Y-112529904D01*
X149820380Y-111053714D02*
X149820380Y-111529904D01*
X150296571Y-111577523D01*
X150248952Y-111529904D01*
X150201333Y-111434666D01*
X150201333Y-111196571D01*
X150248952Y-111101333D01*
X150296571Y-111053714D01*
X150391809Y-111006095D01*
X150629904Y-111006095D01*
X150725142Y-111053714D01*
X150772761Y-111101333D01*
X150820380Y-111196571D01*
X150820380Y-111434666D01*
X150772761Y-111529904D01*
X150725142Y-111577523D01*
%TO.C,R64*%
X135501142Y-104592380D02*
X135167809Y-104116190D01*
X134929714Y-104592380D02*
X134929714Y-103592380D01*
X135310666Y-103592380D01*
X135405904Y-103640000D01*
X135453523Y-103687619D01*
X135501142Y-103782857D01*
X135501142Y-103925714D01*
X135453523Y-104020952D01*
X135405904Y-104068571D01*
X135310666Y-104116190D01*
X134929714Y-104116190D01*
X136358285Y-103592380D02*
X136167809Y-103592380D01*
X136072571Y-103640000D01*
X136024952Y-103687619D01*
X135929714Y-103830476D01*
X135882095Y-104020952D01*
X135882095Y-104401904D01*
X135929714Y-104497142D01*
X135977333Y-104544761D01*
X136072571Y-104592380D01*
X136263047Y-104592380D01*
X136358285Y-104544761D01*
X136405904Y-104497142D01*
X136453523Y-104401904D01*
X136453523Y-104163809D01*
X136405904Y-104068571D01*
X136358285Y-104020952D01*
X136263047Y-103973333D01*
X136072571Y-103973333D01*
X135977333Y-104020952D01*
X135929714Y-104068571D01*
X135882095Y-104163809D01*
X137310666Y-103925714D02*
X137310666Y-104592380D01*
X137072571Y-103544761D02*
X136834476Y-104259047D01*
X137453523Y-104259047D01*
%TO.C,U2*%
X142562095Y-88280380D02*
X142562095Y-89089904D01*
X142609714Y-89185142D01*
X142657333Y-89232761D01*
X142752571Y-89280380D01*
X142943047Y-89280380D01*
X143038285Y-89232761D01*
X143085904Y-89185142D01*
X143133523Y-89089904D01*
X143133523Y-88280380D01*
X143562095Y-88375619D02*
X143609714Y-88328000D01*
X143704952Y-88280380D01*
X143943047Y-88280380D01*
X144038285Y-88328000D01*
X144085904Y-88375619D01*
X144133523Y-88470857D01*
X144133523Y-88566095D01*
X144085904Y-88708952D01*
X143514476Y-89280380D01*
X144133523Y-89280380D01*
%TO.C,U1*%
X142748095Y-89578380D02*
X142748095Y-90387904D01*
X142795714Y-90483142D01*
X142843333Y-90530761D01*
X142938571Y-90578380D01*
X143129047Y-90578380D01*
X143224285Y-90530761D01*
X143271904Y-90483142D01*
X143319523Y-90387904D01*
X143319523Y-89578380D01*
X144319523Y-90578380D02*
X143748095Y-90578380D01*
X144033809Y-90578380D02*
X144033809Y-89578380D01*
X143938571Y-89721238D01*
X143843333Y-89816476D01*
X143748095Y-89864095D01*
%TO.C,S1*%
D16*
X126498047Y-85271619D02*
X126558523Y-85090190D01*
X126558523Y-84787809D01*
X126498047Y-84666857D01*
X126437571Y-84606380D01*
X126316619Y-84545904D01*
X126195666Y-84545904D01*
X126074714Y-84606380D01*
X126014238Y-84666857D01*
X125953761Y-84787809D01*
X125893285Y-85029714D01*
X125832809Y-85150666D01*
X125772333Y-85211142D01*
X125651380Y-85271619D01*
X125530428Y-85271619D01*
X125409476Y-85211142D01*
X125349000Y-85150666D01*
X125288523Y-85029714D01*
X125288523Y-84727333D01*
X125349000Y-84545904D01*
X126558523Y-83336380D02*
X126558523Y-84062095D01*
X126558523Y-83699238D02*
X125288523Y-83699238D01*
X125469952Y-83820190D01*
X125590904Y-83941142D01*
X125651380Y-84062095D01*
%TO.C,R63*%
D15*
X131463142Y-90156380D02*
X131129809Y-89680190D01*
X130891714Y-90156380D02*
X130891714Y-89156380D01*
X131272666Y-89156380D01*
X131367904Y-89204000D01*
X131415523Y-89251619D01*
X131463142Y-89346857D01*
X131463142Y-89489714D01*
X131415523Y-89584952D01*
X131367904Y-89632571D01*
X131272666Y-89680190D01*
X130891714Y-89680190D01*
X132320285Y-89156380D02*
X132129809Y-89156380D01*
X132034571Y-89204000D01*
X131986952Y-89251619D01*
X131891714Y-89394476D01*
X131844095Y-89584952D01*
X131844095Y-89965904D01*
X131891714Y-90061142D01*
X131939333Y-90108761D01*
X132034571Y-90156380D01*
X132225047Y-90156380D01*
X132320285Y-90108761D01*
X132367904Y-90061142D01*
X132415523Y-89965904D01*
X132415523Y-89727809D01*
X132367904Y-89632571D01*
X132320285Y-89584952D01*
X132225047Y-89537333D01*
X132034571Y-89537333D01*
X131939333Y-89584952D01*
X131891714Y-89632571D01*
X131844095Y-89727809D01*
X132748857Y-89156380D02*
X133367904Y-89156380D01*
X133034571Y-89537333D01*
X133177428Y-89537333D01*
X133272666Y-89584952D01*
X133320285Y-89632571D01*
X133367904Y-89727809D01*
X133367904Y-89965904D01*
X133320285Y-90061142D01*
X133272666Y-90108761D01*
X133177428Y-90156380D01*
X132891714Y-90156380D01*
X132796476Y-90108761D01*
X132748857Y-90061142D01*
%TO.C,R62*%
X131437142Y-92696380D02*
X131103809Y-92220190D01*
X130865714Y-92696380D02*
X130865714Y-91696380D01*
X131246666Y-91696380D01*
X131341904Y-91744000D01*
X131389523Y-91791619D01*
X131437142Y-91886857D01*
X131437142Y-92029714D01*
X131389523Y-92124952D01*
X131341904Y-92172571D01*
X131246666Y-92220190D01*
X130865714Y-92220190D01*
X132294285Y-91696380D02*
X132103809Y-91696380D01*
X132008571Y-91744000D01*
X131960952Y-91791619D01*
X131865714Y-91934476D01*
X131818095Y-92124952D01*
X131818095Y-92505904D01*
X131865714Y-92601142D01*
X131913333Y-92648761D01*
X132008571Y-92696380D01*
X132199047Y-92696380D01*
X132294285Y-92648761D01*
X132341904Y-92601142D01*
X132389523Y-92505904D01*
X132389523Y-92267809D01*
X132341904Y-92172571D01*
X132294285Y-92124952D01*
X132199047Y-92077333D01*
X132008571Y-92077333D01*
X131913333Y-92124952D01*
X131865714Y-92172571D01*
X131818095Y-92267809D01*
X132770476Y-91791619D02*
X132818095Y-91744000D01*
X132913333Y-91696380D01*
X133151428Y-91696380D01*
X133246666Y-91744000D01*
X133294285Y-91791619D01*
X133341904Y-91886857D01*
X133341904Y-91982095D01*
X133294285Y-92124952D01*
X132722857Y-92696380D01*
X133341904Y-92696380D01*
%TO.C,R61*%
X131437142Y-95236380D02*
X131103809Y-94760190D01*
X130865714Y-95236380D02*
X130865714Y-94236380D01*
X131246666Y-94236380D01*
X131341904Y-94284000D01*
X131389523Y-94331619D01*
X131437142Y-94426857D01*
X131437142Y-94569714D01*
X131389523Y-94664952D01*
X131341904Y-94712571D01*
X131246666Y-94760190D01*
X130865714Y-94760190D01*
X132294285Y-94236380D02*
X132103809Y-94236380D01*
X132008571Y-94284000D01*
X131960952Y-94331619D01*
X131865714Y-94474476D01*
X131818095Y-94664952D01*
X131818095Y-95045904D01*
X131865714Y-95141142D01*
X131913333Y-95188761D01*
X132008571Y-95236380D01*
X132199047Y-95236380D01*
X132294285Y-95188761D01*
X132341904Y-95141142D01*
X132389523Y-95045904D01*
X132389523Y-94807809D01*
X132341904Y-94712571D01*
X132294285Y-94664952D01*
X132199047Y-94617333D01*
X132008571Y-94617333D01*
X131913333Y-94664952D01*
X131865714Y-94712571D01*
X131818095Y-94807809D01*
X133341904Y-95236380D02*
X132770476Y-95236380D01*
X133056190Y-95236380D02*
X133056190Y-94236380D01*
X132960952Y-94379238D01*
X132865714Y-94474476D01*
X132770476Y-94522095D01*
%TO.C,R60*%
X97988380Y-72270857D02*
X97512190Y-72604190D01*
X97988380Y-72842285D02*
X96988380Y-72842285D01*
X96988380Y-72461333D01*
X97036000Y-72366095D01*
X97083619Y-72318476D01*
X97178857Y-72270857D01*
X97321714Y-72270857D01*
X97416952Y-72318476D01*
X97464571Y-72366095D01*
X97512190Y-72461333D01*
X97512190Y-72842285D01*
X96988380Y-71413714D02*
X96988380Y-71604190D01*
X97036000Y-71699428D01*
X97083619Y-71747047D01*
X97226476Y-71842285D01*
X97416952Y-71889904D01*
X97797904Y-71889904D01*
X97893142Y-71842285D01*
X97940761Y-71794666D01*
X97988380Y-71699428D01*
X97988380Y-71508952D01*
X97940761Y-71413714D01*
X97893142Y-71366095D01*
X97797904Y-71318476D01*
X97559809Y-71318476D01*
X97464571Y-71366095D01*
X97416952Y-71413714D01*
X97369333Y-71508952D01*
X97369333Y-71699428D01*
X97416952Y-71794666D01*
X97464571Y-71842285D01*
X97559809Y-71889904D01*
X96988380Y-70699428D02*
X96988380Y-70604190D01*
X97036000Y-70508952D01*
X97083619Y-70461333D01*
X97178857Y-70413714D01*
X97369333Y-70366095D01*
X97607428Y-70366095D01*
X97797904Y-70413714D01*
X97893142Y-70461333D01*
X97940761Y-70508952D01*
X97988380Y-70604190D01*
X97988380Y-70699428D01*
X97940761Y-70794666D01*
X97893142Y-70842285D01*
X97797904Y-70889904D01*
X97607428Y-70937523D01*
X97369333Y-70937523D01*
X97178857Y-70889904D01*
X97083619Y-70842285D01*
X97036000Y-70794666D01*
X96988380Y-70699428D01*
%TO.C,R59*%
X137316380Y-156090857D02*
X136840190Y-156424190D01*
X137316380Y-156662285D02*
X136316380Y-156662285D01*
X136316380Y-156281333D01*
X136364000Y-156186095D01*
X136411619Y-156138476D01*
X136506857Y-156090857D01*
X136649714Y-156090857D01*
X136744952Y-156138476D01*
X136792571Y-156186095D01*
X136840190Y-156281333D01*
X136840190Y-156662285D01*
X136316380Y-155186095D02*
X136316380Y-155662285D01*
X136792571Y-155709904D01*
X136744952Y-155662285D01*
X136697333Y-155567047D01*
X136697333Y-155328952D01*
X136744952Y-155233714D01*
X136792571Y-155186095D01*
X136887809Y-155138476D01*
X137125904Y-155138476D01*
X137221142Y-155186095D01*
X137268761Y-155233714D01*
X137316380Y-155328952D01*
X137316380Y-155567047D01*
X137268761Y-155662285D01*
X137221142Y-155709904D01*
X137316380Y-154662285D02*
X137316380Y-154471809D01*
X137268761Y-154376571D01*
X137221142Y-154328952D01*
X137078285Y-154233714D01*
X136887809Y-154186095D01*
X136506857Y-154186095D01*
X136411619Y-154233714D01*
X136364000Y-154281333D01*
X136316380Y-154376571D01*
X136316380Y-154567047D01*
X136364000Y-154662285D01*
X136411619Y-154709904D01*
X136506857Y-154757523D01*
X136744952Y-154757523D01*
X136840190Y-154709904D01*
X136887809Y-154662285D01*
X136935428Y-154567047D01*
X136935428Y-154376571D01*
X136887809Y-154281333D01*
X136840190Y-154233714D01*
X136744952Y-154186095D01*
%TO.C,R55*%
X183840380Y-114942857D02*
X183364190Y-115276190D01*
X183840380Y-115514285D02*
X182840380Y-115514285D01*
X182840380Y-115133333D01*
X182888000Y-115038095D01*
X182935619Y-114990476D01*
X183030857Y-114942857D01*
X183173714Y-114942857D01*
X183268952Y-114990476D01*
X183316571Y-115038095D01*
X183364190Y-115133333D01*
X183364190Y-115514285D01*
X182840380Y-114038095D02*
X182840380Y-114514285D01*
X183316571Y-114561904D01*
X183268952Y-114514285D01*
X183221333Y-114419047D01*
X183221333Y-114180952D01*
X183268952Y-114085714D01*
X183316571Y-114038095D01*
X183411809Y-113990476D01*
X183649904Y-113990476D01*
X183745142Y-114038095D01*
X183792761Y-114085714D01*
X183840380Y-114180952D01*
X183840380Y-114419047D01*
X183792761Y-114514285D01*
X183745142Y-114561904D01*
X182840380Y-113085714D02*
X182840380Y-113561904D01*
X183316571Y-113609523D01*
X183268952Y-113561904D01*
X183221333Y-113466666D01*
X183221333Y-113228571D01*
X183268952Y-113133333D01*
X183316571Y-113085714D01*
X183411809Y-113038095D01*
X183649904Y-113038095D01*
X183745142Y-113085714D01*
X183792761Y-113133333D01*
X183840380Y-113228571D01*
X183840380Y-113466666D01*
X183792761Y-113561904D01*
X183745142Y-113609523D01*
%TO.C,R54*%
X176649142Y-130204380D02*
X176315809Y-129728190D01*
X176077714Y-130204380D02*
X176077714Y-129204380D01*
X176458666Y-129204380D01*
X176553904Y-129252000D01*
X176601523Y-129299619D01*
X176649142Y-129394857D01*
X176649142Y-129537714D01*
X176601523Y-129632952D01*
X176553904Y-129680571D01*
X176458666Y-129728190D01*
X176077714Y-129728190D01*
X177553904Y-129204380D02*
X177077714Y-129204380D01*
X177030095Y-129680571D01*
X177077714Y-129632952D01*
X177172952Y-129585333D01*
X177411047Y-129585333D01*
X177506285Y-129632952D01*
X177553904Y-129680571D01*
X177601523Y-129775809D01*
X177601523Y-130013904D01*
X177553904Y-130109142D01*
X177506285Y-130156761D01*
X177411047Y-130204380D01*
X177172952Y-130204380D01*
X177077714Y-130156761D01*
X177030095Y-130109142D01*
X178458666Y-129537714D02*
X178458666Y-130204380D01*
X178220571Y-129156761D02*
X177982476Y-129871047D01*
X178601523Y-129871047D01*
%TO.C,R53*%
X183253142Y-78472380D02*
X182919809Y-77996190D01*
X182681714Y-78472380D02*
X182681714Y-77472380D01*
X183062666Y-77472380D01*
X183157904Y-77520000D01*
X183205523Y-77567619D01*
X183253142Y-77662857D01*
X183253142Y-77805714D01*
X183205523Y-77900952D01*
X183157904Y-77948571D01*
X183062666Y-77996190D01*
X182681714Y-77996190D01*
X184157904Y-77472380D02*
X183681714Y-77472380D01*
X183634095Y-77948571D01*
X183681714Y-77900952D01*
X183776952Y-77853333D01*
X184015047Y-77853333D01*
X184110285Y-77900952D01*
X184157904Y-77948571D01*
X184205523Y-78043809D01*
X184205523Y-78281904D01*
X184157904Y-78377142D01*
X184110285Y-78424761D01*
X184015047Y-78472380D01*
X183776952Y-78472380D01*
X183681714Y-78424761D01*
X183634095Y-78377142D01*
X184538857Y-77472380D02*
X185157904Y-77472380D01*
X184824571Y-77853333D01*
X184967428Y-77853333D01*
X185062666Y-77900952D01*
X185110285Y-77948571D01*
X185157904Y-78043809D01*
X185157904Y-78281904D01*
X185110285Y-78377142D01*
X185062666Y-78424761D01*
X184967428Y-78472380D01*
X184681714Y-78472380D01*
X184586476Y-78424761D01*
X184538857Y-78377142D01*
%TO.C,R52*%
X141972380Y-43796857D02*
X141496190Y-44130190D01*
X141972380Y-44368285D02*
X140972380Y-44368285D01*
X140972380Y-43987333D01*
X141020000Y-43892095D01*
X141067619Y-43844476D01*
X141162857Y-43796857D01*
X141305714Y-43796857D01*
X141400952Y-43844476D01*
X141448571Y-43892095D01*
X141496190Y-43987333D01*
X141496190Y-44368285D01*
X140972380Y-42892095D02*
X140972380Y-43368285D01*
X141448571Y-43415904D01*
X141400952Y-43368285D01*
X141353333Y-43273047D01*
X141353333Y-43034952D01*
X141400952Y-42939714D01*
X141448571Y-42892095D01*
X141543809Y-42844476D01*
X141781904Y-42844476D01*
X141877142Y-42892095D01*
X141924761Y-42939714D01*
X141972380Y-43034952D01*
X141972380Y-43273047D01*
X141924761Y-43368285D01*
X141877142Y-43415904D01*
X141067619Y-42463523D02*
X141020000Y-42415904D01*
X140972380Y-42320666D01*
X140972380Y-42082571D01*
X141020000Y-41987333D01*
X141067619Y-41939714D01*
X141162857Y-41892095D01*
X141258095Y-41892095D01*
X141400952Y-41939714D01*
X141972380Y-42511142D01*
X141972380Y-41892095D01*
%TO.C,R51*%
X193413142Y-131516380D02*
X193079809Y-131040190D01*
X192841714Y-131516380D02*
X192841714Y-130516380D01*
X193222666Y-130516380D01*
X193317904Y-130564000D01*
X193365523Y-130611619D01*
X193413142Y-130706857D01*
X193413142Y-130849714D01*
X193365523Y-130944952D01*
X193317904Y-130992571D01*
X193222666Y-131040190D01*
X192841714Y-131040190D01*
X194317904Y-130516380D02*
X193841714Y-130516380D01*
X193794095Y-130992571D01*
X193841714Y-130944952D01*
X193936952Y-130897333D01*
X194175047Y-130897333D01*
X194270285Y-130944952D01*
X194317904Y-130992571D01*
X194365523Y-131087809D01*
X194365523Y-131325904D01*
X194317904Y-131421142D01*
X194270285Y-131468761D01*
X194175047Y-131516380D01*
X193936952Y-131516380D01*
X193841714Y-131468761D01*
X193794095Y-131421142D01*
X195317904Y-131516380D02*
X194746476Y-131516380D01*
X195032190Y-131516380D02*
X195032190Y-130516380D01*
X194936952Y-130659238D01*
X194841714Y-130754476D01*
X194746476Y-130802095D01*
%TO.C,R50*%
X196969142Y-131516380D02*
X196635809Y-131040190D01*
X196397714Y-131516380D02*
X196397714Y-130516380D01*
X196778666Y-130516380D01*
X196873904Y-130564000D01*
X196921523Y-130611619D01*
X196969142Y-130706857D01*
X196969142Y-130849714D01*
X196921523Y-130944952D01*
X196873904Y-130992571D01*
X196778666Y-131040190D01*
X196397714Y-131040190D01*
X197873904Y-130516380D02*
X197397714Y-130516380D01*
X197350095Y-130992571D01*
X197397714Y-130944952D01*
X197492952Y-130897333D01*
X197731047Y-130897333D01*
X197826285Y-130944952D01*
X197873904Y-130992571D01*
X197921523Y-131087809D01*
X197921523Y-131325904D01*
X197873904Y-131421142D01*
X197826285Y-131468761D01*
X197731047Y-131516380D01*
X197492952Y-131516380D01*
X197397714Y-131468761D01*
X197350095Y-131421142D01*
X198540571Y-130516380D02*
X198635809Y-130516380D01*
X198731047Y-130564000D01*
X198778666Y-130611619D01*
X198826285Y-130706857D01*
X198873904Y-130897333D01*
X198873904Y-131135428D01*
X198826285Y-131325904D01*
X198778666Y-131421142D01*
X198731047Y-131468761D01*
X198635809Y-131516380D01*
X198540571Y-131516380D01*
X198445333Y-131468761D01*
X198397714Y-131421142D01*
X198350095Y-131325904D01*
X198302476Y-131135428D01*
X198302476Y-130897333D01*
X198350095Y-130706857D01*
X198397714Y-130611619D01*
X198445333Y-130564000D01*
X198540571Y-130516380D01*
%TO.C,R49*%
X201033142Y-131516380D02*
X200699809Y-131040190D01*
X200461714Y-131516380D02*
X200461714Y-130516380D01*
X200842666Y-130516380D01*
X200937904Y-130564000D01*
X200985523Y-130611619D01*
X201033142Y-130706857D01*
X201033142Y-130849714D01*
X200985523Y-130944952D01*
X200937904Y-130992571D01*
X200842666Y-131040190D01*
X200461714Y-131040190D01*
X201890285Y-130849714D02*
X201890285Y-131516380D01*
X201652190Y-130468761D02*
X201414095Y-131183047D01*
X202033142Y-131183047D01*
X202461714Y-131516380D02*
X202652190Y-131516380D01*
X202747428Y-131468761D01*
X202795047Y-131421142D01*
X202890285Y-131278285D01*
X202937904Y-131087809D01*
X202937904Y-130706857D01*
X202890285Y-130611619D01*
X202842666Y-130564000D01*
X202747428Y-130516380D01*
X202556952Y-130516380D01*
X202461714Y-130564000D01*
X202414095Y-130611619D01*
X202366476Y-130706857D01*
X202366476Y-130944952D01*
X202414095Y-131040190D01*
X202461714Y-131087809D01*
X202556952Y-131135428D01*
X202747428Y-131135428D01*
X202842666Y-131087809D01*
X202890285Y-131040190D01*
X202937904Y-130944952D01*
%TO.C,R48*%
X170579142Y-78388380D02*
X170245809Y-77912190D01*
X170007714Y-78388380D02*
X170007714Y-77388380D01*
X170388666Y-77388380D01*
X170483904Y-77436000D01*
X170531523Y-77483619D01*
X170579142Y-77578857D01*
X170579142Y-77721714D01*
X170531523Y-77816952D01*
X170483904Y-77864571D01*
X170388666Y-77912190D01*
X170007714Y-77912190D01*
X171436285Y-77721714D02*
X171436285Y-78388380D01*
X171198190Y-77340761D02*
X170960095Y-78055047D01*
X171579142Y-78055047D01*
X172102952Y-77816952D02*
X172007714Y-77769333D01*
X171960095Y-77721714D01*
X171912476Y-77626476D01*
X171912476Y-77578857D01*
X171960095Y-77483619D01*
X172007714Y-77436000D01*
X172102952Y-77388380D01*
X172293428Y-77388380D01*
X172388666Y-77436000D01*
X172436285Y-77483619D01*
X172483904Y-77578857D01*
X172483904Y-77626476D01*
X172436285Y-77721714D01*
X172388666Y-77769333D01*
X172293428Y-77816952D01*
X172102952Y-77816952D01*
X172007714Y-77864571D01*
X171960095Y-77912190D01*
X171912476Y-78007428D01*
X171912476Y-78197904D01*
X171960095Y-78293142D01*
X172007714Y-78340761D01*
X172102952Y-78388380D01*
X172293428Y-78388380D01*
X172388666Y-78340761D01*
X172436285Y-78293142D01*
X172483904Y-78197904D01*
X172483904Y-78007428D01*
X172436285Y-77912190D01*
X172388666Y-77864571D01*
X172293428Y-77816952D01*
%TO.C,R47*%
X199001142Y-65772380D02*
X198667809Y-65296190D01*
X198429714Y-65772380D02*
X198429714Y-64772380D01*
X198810666Y-64772380D01*
X198905904Y-64820000D01*
X198953523Y-64867619D01*
X199001142Y-64962857D01*
X199001142Y-65105714D01*
X198953523Y-65200952D01*
X198905904Y-65248571D01*
X198810666Y-65296190D01*
X198429714Y-65296190D01*
X199858285Y-65105714D02*
X199858285Y-65772380D01*
X199620190Y-64724761D02*
X199382095Y-65439047D01*
X200001142Y-65439047D01*
X200286857Y-64772380D02*
X200953523Y-64772380D01*
X200524952Y-65772380D01*
%TO.C,R46*%
X148280380Y-47886857D02*
X147804190Y-48220190D01*
X148280380Y-48458285D02*
X147280380Y-48458285D01*
X147280380Y-48077333D01*
X147328000Y-47982095D01*
X147375619Y-47934476D01*
X147470857Y-47886857D01*
X147613714Y-47886857D01*
X147708952Y-47934476D01*
X147756571Y-47982095D01*
X147804190Y-48077333D01*
X147804190Y-48458285D01*
X147613714Y-47029714D02*
X148280380Y-47029714D01*
X147232761Y-47267809D02*
X147947047Y-47505904D01*
X147947047Y-46886857D01*
X147280380Y-46077333D02*
X147280380Y-46267809D01*
X147328000Y-46363047D01*
X147375619Y-46410666D01*
X147518476Y-46505904D01*
X147708952Y-46553523D01*
X148089904Y-46553523D01*
X148185142Y-46505904D01*
X148232761Y-46458285D01*
X148280380Y-46363047D01*
X148280380Y-46172571D01*
X148232761Y-46077333D01*
X148185142Y-46029714D01*
X148089904Y-45982095D01*
X147851809Y-45982095D01*
X147756571Y-46029714D01*
X147708952Y-46077333D01*
X147661333Y-46172571D01*
X147661333Y-46363047D01*
X147708952Y-46458285D01*
X147756571Y-46505904D01*
X147851809Y-46553523D01*
%TO.C,R44*%
X148280380Y-53982857D02*
X147804190Y-54316190D01*
X148280380Y-54554285D02*
X147280380Y-54554285D01*
X147280380Y-54173333D01*
X147328000Y-54078095D01*
X147375619Y-54030476D01*
X147470857Y-53982857D01*
X147613714Y-53982857D01*
X147708952Y-54030476D01*
X147756571Y-54078095D01*
X147804190Y-54173333D01*
X147804190Y-54554285D01*
X147613714Y-53125714D02*
X148280380Y-53125714D01*
X147232761Y-53363809D02*
X147947047Y-53601904D01*
X147947047Y-52982857D01*
X147613714Y-52173333D02*
X148280380Y-52173333D01*
X147232761Y-52411428D02*
X147947047Y-52649523D01*
X147947047Y-52030476D01*
%TO.C,R43*%
X111196380Y-85478857D02*
X110720190Y-85812190D01*
X111196380Y-86050285D02*
X110196380Y-86050285D01*
X110196380Y-85669333D01*
X110244000Y-85574095D01*
X110291619Y-85526476D01*
X110386857Y-85478857D01*
X110529714Y-85478857D01*
X110624952Y-85526476D01*
X110672571Y-85574095D01*
X110720190Y-85669333D01*
X110720190Y-86050285D01*
X110529714Y-84621714D02*
X111196380Y-84621714D01*
X110148761Y-84859809D02*
X110863047Y-85097904D01*
X110863047Y-84478857D01*
X110196380Y-84193142D02*
X110196380Y-83574095D01*
X110577333Y-83907428D01*
X110577333Y-83764571D01*
X110624952Y-83669333D01*
X110672571Y-83621714D01*
X110767809Y-83574095D01*
X111005904Y-83574095D01*
X111101142Y-83621714D01*
X111148761Y-83669333D01*
X111196380Y-83764571D01*
X111196380Y-84050285D01*
X111148761Y-84145523D01*
X111101142Y-84193142D01*
%TO.C,R42*%
X85796380Y-70746857D02*
X85320190Y-71080190D01*
X85796380Y-71318285D02*
X84796380Y-71318285D01*
X84796380Y-70937333D01*
X84844000Y-70842095D01*
X84891619Y-70794476D01*
X84986857Y-70746857D01*
X85129714Y-70746857D01*
X85224952Y-70794476D01*
X85272571Y-70842095D01*
X85320190Y-70937333D01*
X85320190Y-71318285D01*
X85129714Y-69889714D02*
X85796380Y-69889714D01*
X84748761Y-70127809D02*
X85463047Y-70365904D01*
X85463047Y-69746857D01*
X84891619Y-69413523D02*
X84844000Y-69365904D01*
X84796380Y-69270666D01*
X84796380Y-69032571D01*
X84844000Y-68937333D01*
X84891619Y-68889714D01*
X84986857Y-68842095D01*
X85082095Y-68842095D01*
X85224952Y-68889714D01*
X85796380Y-69461142D01*
X85796380Y-68842095D01*
%TO.C,R41*%
X102481142Y-116276380D02*
X102147809Y-115800190D01*
X101909714Y-116276380D02*
X101909714Y-115276380D01*
X102290666Y-115276380D01*
X102385904Y-115324000D01*
X102433523Y-115371619D01*
X102481142Y-115466857D01*
X102481142Y-115609714D01*
X102433523Y-115704952D01*
X102385904Y-115752571D01*
X102290666Y-115800190D01*
X101909714Y-115800190D01*
X103338285Y-115609714D02*
X103338285Y-116276380D01*
X103100190Y-115228761D02*
X102862095Y-115943047D01*
X103481142Y-115943047D01*
X104385904Y-116276380D02*
X103814476Y-116276380D01*
X104100190Y-116276380D02*
X104100190Y-115276380D01*
X104004952Y-115419238D01*
X103909714Y-115514476D01*
X103814476Y-115562095D01*
%TO.C,R40*%
X85717142Y-132236380D02*
X85383809Y-131760190D01*
X85145714Y-132236380D02*
X85145714Y-131236380D01*
X85526666Y-131236380D01*
X85621904Y-131284000D01*
X85669523Y-131331619D01*
X85717142Y-131426857D01*
X85717142Y-131569714D01*
X85669523Y-131664952D01*
X85621904Y-131712571D01*
X85526666Y-131760190D01*
X85145714Y-131760190D01*
X86574285Y-131569714D02*
X86574285Y-132236380D01*
X86336190Y-131188761D02*
X86098095Y-131903047D01*
X86717142Y-131903047D01*
X87288571Y-131236380D02*
X87383809Y-131236380D01*
X87479047Y-131284000D01*
X87526666Y-131331619D01*
X87574285Y-131426857D01*
X87621904Y-131617333D01*
X87621904Y-131855428D01*
X87574285Y-132045904D01*
X87526666Y-132141142D01*
X87479047Y-132188761D01*
X87383809Y-132236380D01*
X87288571Y-132236380D01*
X87193333Y-132188761D01*
X87145714Y-132141142D01*
X87098095Y-132045904D01*
X87050476Y-131855428D01*
X87050476Y-131617333D01*
X87098095Y-131426857D01*
X87145714Y-131331619D01*
X87193333Y-131284000D01*
X87288571Y-131236380D01*
%TO.C,R39*%
X83685142Y-67000380D02*
X83351809Y-66524190D01*
X83113714Y-67000380D02*
X83113714Y-66000380D01*
X83494666Y-66000380D01*
X83589904Y-66048000D01*
X83637523Y-66095619D01*
X83685142Y-66190857D01*
X83685142Y-66333714D01*
X83637523Y-66428952D01*
X83589904Y-66476571D01*
X83494666Y-66524190D01*
X83113714Y-66524190D01*
X84018476Y-66000380D02*
X84637523Y-66000380D01*
X84304190Y-66381333D01*
X84447047Y-66381333D01*
X84542285Y-66428952D01*
X84589904Y-66476571D01*
X84637523Y-66571809D01*
X84637523Y-66809904D01*
X84589904Y-66905142D01*
X84542285Y-66952761D01*
X84447047Y-67000380D01*
X84161333Y-67000380D01*
X84066095Y-66952761D01*
X84018476Y-66905142D01*
X85113714Y-67000380D02*
X85304190Y-67000380D01*
X85399428Y-66952761D01*
X85447047Y-66905142D01*
X85542285Y-66762285D01*
X85589904Y-66571809D01*
X85589904Y-66190857D01*
X85542285Y-66095619D01*
X85494666Y-66048000D01*
X85399428Y-66000380D01*
X85208952Y-66000380D01*
X85113714Y-66048000D01*
X85066095Y-66095619D01*
X85018476Y-66190857D01*
X85018476Y-66428952D01*
X85066095Y-66524190D01*
X85113714Y-66571809D01*
X85208952Y-66619428D01*
X85399428Y-66619428D01*
X85494666Y-66571809D01*
X85542285Y-66524190D01*
X85589904Y-66428952D01*
%TO.C,R38*%
X86733142Y-67000380D02*
X86399809Y-66524190D01*
X86161714Y-67000380D02*
X86161714Y-66000380D01*
X86542666Y-66000380D01*
X86637904Y-66048000D01*
X86685523Y-66095619D01*
X86733142Y-66190857D01*
X86733142Y-66333714D01*
X86685523Y-66428952D01*
X86637904Y-66476571D01*
X86542666Y-66524190D01*
X86161714Y-66524190D01*
X87066476Y-66000380D02*
X87685523Y-66000380D01*
X87352190Y-66381333D01*
X87495047Y-66381333D01*
X87590285Y-66428952D01*
X87637904Y-66476571D01*
X87685523Y-66571809D01*
X87685523Y-66809904D01*
X87637904Y-66905142D01*
X87590285Y-66952761D01*
X87495047Y-67000380D01*
X87209333Y-67000380D01*
X87114095Y-66952761D01*
X87066476Y-66905142D01*
X88256952Y-66428952D02*
X88161714Y-66381333D01*
X88114095Y-66333714D01*
X88066476Y-66238476D01*
X88066476Y-66190857D01*
X88114095Y-66095619D01*
X88161714Y-66048000D01*
X88256952Y-66000380D01*
X88447428Y-66000380D01*
X88542666Y-66048000D01*
X88590285Y-66095619D01*
X88637904Y-66190857D01*
X88637904Y-66238476D01*
X88590285Y-66333714D01*
X88542666Y-66381333D01*
X88447428Y-66428952D01*
X88256952Y-66428952D01*
X88161714Y-66476571D01*
X88114095Y-66524190D01*
X88066476Y-66619428D01*
X88066476Y-66809904D01*
X88114095Y-66905142D01*
X88161714Y-66952761D01*
X88256952Y-67000380D01*
X88447428Y-67000380D01*
X88542666Y-66952761D01*
X88590285Y-66905142D01*
X88637904Y-66809904D01*
X88637904Y-66619428D01*
X88590285Y-66524190D01*
X88542666Y-66476571D01*
X88447428Y-66428952D01*
%TO.C,R37*%
X89781142Y-67000380D02*
X89447809Y-66524190D01*
X89209714Y-67000380D02*
X89209714Y-66000380D01*
X89590666Y-66000380D01*
X89685904Y-66048000D01*
X89733523Y-66095619D01*
X89781142Y-66190857D01*
X89781142Y-66333714D01*
X89733523Y-66428952D01*
X89685904Y-66476571D01*
X89590666Y-66524190D01*
X89209714Y-66524190D01*
X90114476Y-66000380D02*
X90733523Y-66000380D01*
X90400190Y-66381333D01*
X90543047Y-66381333D01*
X90638285Y-66428952D01*
X90685904Y-66476571D01*
X90733523Y-66571809D01*
X90733523Y-66809904D01*
X90685904Y-66905142D01*
X90638285Y-66952761D01*
X90543047Y-67000380D01*
X90257333Y-67000380D01*
X90162095Y-66952761D01*
X90114476Y-66905142D01*
X91066857Y-66000380D02*
X91733523Y-66000380D01*
X91304952Y-67000380D01*
%TO.C,R36*%
X146544380Y-57564857D02*
X146068190Y-57898190D01*
X146544380Y-58136285D02*
X145544380Y-58136285D01*
X145544380Y-57755333D01*
X145592000Y-57660095D01*
X145639619Y-57612476D01*
X145734857Y-57564857D01*
X145877714Y-57564857D01*
X145972952Y-57612476D01*
X146020571Y-57660095D01*
X146068190Y-57755333D01*
X146068190Y-58136285D01*
X145544380Y-57231523D02*
X145544380Y-56612476D01*
X145925333Y-56945809D01*
X145925333Y-56802952D01*
X145972952Y-56707714D01*
X146020571Y-56660095D01*
X146115809Y-56612476D01*
X146353904Y-56612476D01*
X146449142Y-56660095D01*
X146496761Y-56707714D01*
X146544380Y-56802952D01*
X146544380Y-57088666D01*
X146496761Y-57183904D01*
X146449142Y-57231523D01*
X145544380Y-55755333D02*
X145544380Y-55945809D01*
X145592000Y-56041047D01*
X145639619Y-56088666D01*
X145782476Y-56183904D01*
X145972952Y-56231523D01*
X146353904Y-56231523D01*
X146449142Y-56183904D01*
X146496761Y-56136285D01*
X146544380Y-56041047D01*
X146544380Y-55850571D01*
X146496761Y-55755333D01*
X146449142Y-55707714D01*
X146353904Y-55660095D01*
X146115809Y-55660095D01*
X146020571Y-55707714D01*
X145972952Y-55755333D01*
X145925333Y-55850571D01*
X145925333Y-56041047D01*
X145972952Y-56136285D01*
X146020571Y-56183904D01*
X146115809Y-56231523D01*
%TO.C,R35*%
X81653142Y-122584380D02*
X81319809Y-122108190D01*
X81081714Y-122584380D02*
X81081714Y-121584380D01*
X81462666Y-121584380D01*
X81557904Y-121632000D01*
X81605523Y-121679619D01*
X81653142Y-121774857D01*
X81653142Y-121917714D01*
X81605523Y-122012952D01*
X81557904Y-122060571D01*
X81462666Y-122108190D01*
X81081714Y-122108190D01*
X81986476Y-121584380D02*
X82605523Y-121584380D01*
X82272190Y-121965333D01*
X82415047Y-121965333D01*
X82510285Y-122012952D01*
X82557904Y-122060571D01*
X82605523Y-122155809D01*
X82605523Y-122393904D01*
X82557904Y-122489142D01*
X82510285Y-122536761D01*
X82415047Y-122584380D01*
X82129333Y-122584380D01*
X82034095Y-122536761D01*
X81986476Y-122489142D01*
X83510285Y-121584380D02*
X83034095Y-121584380D01*
X82986476Y-122060571D01*
X83034095Y-122012952D01*
X83129333Y-121965333D01*
X83367428Y-121965333D01*
X83462666Y-122012952D01*
X83510285Y-122060571D01*
X83557904Y-122155809D01*
X83557904Y-122393904D01*
X83510285Y-122489142D01*
X83462666Y-122536761D01*
X83367428Y-122584380D01*
X83129333Y-122584380D01*
X83034095Y-122536761D01*
X82986476Y-122489142D01*
%TO.C,R31*%
X174643142Y-119536380D02*
X174309809Y-119060190D01*
X174071714Y-119536380D02*
X174071714Y-118536380D01*
X174452666Y-118536380D01*
X174547904Y-118584000D01*
X174595523Y-118631619D01*
X174643142Y-118726857D01*
X174643142Y-118869714D01*
X174595523Y-118964952D01*
X174547904Y-119012571D01*
X174452666Y-119060190D01*
X174071714Y-119060190D01*
X174976476Y-118536380D02*
X175595523Y-118536380D01*
X175262190Y-118917333D01*
X175405047Y-118917333D01*
X175500285Y-118964952D01*
X175547904Y-119012571D01*
X175595523Y-119107809D01*
X175595523Y-119345904D01*
X175547904Y-119441142D01*
X175500285Y-119488761D01*
X175405047Y-119536380D01*
X175119333Y-119536380D01*
X175024095Y-119488761D01*
X174976476Y-119441142D01*
X176547904Y-119536380D02*
X175976476Y-119536380D01*
X176262190Y-119536380D02*
X176262190Y-118536380D01*
X176166952Y-118679238D01*
X176071714Y-118774476D01*
X175976476Y-118822095D01*
%TO.C,R30*%
X203948380Y-127108857D02*
X203472190Y-127442190D01*
X203948380Y-127680285D02*
X202948380Y-127680285D01*
X202948380Y-127299333D01*
X202996000Y-127204095D01*
X203043619Y-127156476D01*
X203138857Y-127108857D01*
X203281714Y-127108857D01*
X203376952Y-127156476D01*
X203424571Y-127204095D01*
X203472190Y-127299333D01*
X203472190Y-127680285D01*
X202948380Y-126775523D02*
X202948380Y-126156476D01*
X203329333Y-126489809D01*
X203329333Y-126346952D01*
X203376952Y-126251714D01*
X203424571Y-126204095D01*
X203519809Y-126156476D01*
X203757904Y-126156476D01*
X203853142Y-126204095D01*
X203900761Y-126251714D01*
X203948380Y-126346952D01*
X203948380Y-126632666D01*
X203900761Y-126727904D01*
X203853142Y-126775523D01*
X202948380Y-125537428D02*
X202948380Y-125442190D01*
X202996000Y-125346952D01*
X203043619Y-125299333D01*
X203138857Y-125251714D01*
X203329333Y-125204095D01*
X203567428Y-125204095D01*
X203757904Y-125251714D01*
X203853142Y-125299333D01*
X203900761Y-125346952D01*
X203948380Y-125442190D01*
X203948380Y-125537428D01*
X203900761Y-125632666D01*
X203853142Y-125680285D01*
X203757904Y-125727904D01*
X203567428Y-125775523D01*
X203329333Y-125775523D01*
X203138857Y-125727904D01*
X203043619Y-125680285D01*
X202996000Y-125632666D01*
X202948380Y-125537428D01*
%TO.C,R29*%
X179189142Y-82960380D02*
X178855809Y-82484190D01*
X178617714Y-82960380D02*
X178617714Y-81960380D01*
X178998666Y-81960380D01*
X179093904Y-82008000D01*
X179141523Y-82055619D01*
X179189142Y-82150857D01*
X179189142Y-82293714D01*
X179141523Y-82388952D01*
X179093904Y-82436571D01*
X178998666Y-82484190D01*
X178617714Y-82484190D01*
X179570095Y-82055619D02*
X179617714Y-82008000D01*
X179712952Y-81960380D01*
X179951047Y-81960380D01*
X180046285Y-82008000D01*
X180093904Y-82055619D01*
X180141523Y-82150857D01*
X180141523Y-82246095D01*
X180093904Y-82388952D01*
X179522476Y-82960380D01*
X180141523Y-82960380D01*
X180617714Y-82960380D02*
X180808190Y-82960380D01*
X180903428Y-82912761D01*
X180951047Y-82865142D01*
X181046285Y-82722285D01*
X181093904Y-82531809D01*
X181093904Y-82150857D01*
X181046285Y-82055619D01*
X180998666Y-82008000D01*
X180903428Y-81960380D01*
X180712952Y-81960380D01*
X180617714Y-82008000D01*
X180570095Y-82055619D01*
X180522476Y-82150857D01*
X180522476Y-82388952D01*
X180570095Y-82484190D01*
X180617714Y-82531809D01*
X180712952Y-82579428D01*
X180903428Y-82579428D01*
X180998666Y-82531809D01*
X181046285Y-82484190D01*
X181093904Y-82388952D01*
%TO.C,R28*%
X190148380Y-89034857D02*
X189672190Y-89368190D01*
X190148380Y-89606285D02*
X189148380Y-89606285D01*
X189148380Y-89225333D01*
X189196000Y-89130095D01*
X189243619Y-89082476D01*
X189338857Y-89034857D01*
X189481714Y-89034857D01*
X189576952Y-89082476D01*
X189624571Y-89130095D01*
X189672190Y-89225333D01*
X189672190Y-89606285D01*
X189243619Y-88653904D02*
X189196000Y-88606285D01*
X189148380Y-88511047D01*
X189148380Y-88272952D01*
X189196000Y-88177714D01*
X189243619Y-88130095D01*
X189338857Y-88082476D01*
X189434095Y-88082476D01*
X189576952Y-88130095D01*
X190148380Y-88701523D01*
X190148380Y-88082476D01*
X189576952Y-87511047D02*
X189529333Y-87606285D01*
X189481714Y-87653904D01*
X189386476Y-87701523D01*
X189338857Y-87701523D01*
X189243619Y-87653904D01*
X189196000Y-87606285D01*
X189148380Y-87511047D01*
X189148380Y-87320571D01*
X189196000Y-87225333D01*
X189243619Y-87177714D01*
X189338857Y-87130095D01*
X189386476Y-87130095D01*
X189481714Y-87177714D01*
X189529333Y-87225333D01*
X189576952Y-87320571D01*
X189576952Y-87511047D01*
X189624571Y-87606285D01*
X189672190Y-87653904D01*
X189767428Y-87701523D01*
X189957904Y-87701523D01*
X190053142Y-87653904D01*
X190100761Y-87606285D01*
X190148380Y-87511047D01*
X190148380Y-87320571D01*
X190100761Y-87225333D01*
X190053142Y-87177714D01*
X189957904Y-87130095D01*
X189767428Y-87130095D01*
X189672190Y-87177714D01*
X189624571Y-87225333D01*
X189576952Y-87320571D01*
%TO.C,R27*%
X197985142Y-68524380D02*
X197651809Y-68048190D01*
X197413714Y-68524380D02*
X197413714Y-67524380D01*
X197794666Y-67524380D01*
X197889904Y-67572000D01*
X197937523Y-67619619D01*
X197985142Y-67714857D01*
X197985142Y-67857714D01*
X197937523Y-67952952D01*
X197889904Y-68000571D01*
X197794666Y-68048190D01*
X197413714Y-68048190D01*
X198366095Y-67619619D02*
X198413714Y-67572000D01*
X198508952Y-67524380D01*
X198747047Y-67524380D01*
X198842285Y-67572000D01*
X198889904Y-67619619D01*
X198937523Y-67714857D01*
X198937523Y-67810095D01*
X198889904Y-67952952D01*
X198318476Y-68524380D01*
X198937523Y-68524380D01*
X199270857Y-67524380D02*
X199937523Y-67524380D01*
X199508952Y-68524380D01*
%TO.C,R26*%
X201541142Y-68524380D02*
X201207809Y-68048190D01*
X200969714Y-68524380D02*
X200969714Y-67524380D01*
X201350666Y-67524380D01*
X201445904Y-67572000D01*
X201493523Y-67619619D01*
X201541142Y-67714857D01*
X201541142Y-67857714D01*
X201493523Y-67952952D01*
X201445904Y-68000571D01*
X201350666Y-68048190D01*
X200969714Y-68048190D01*
X201922095Y-67619619D02*
X201969714Y-67572000D01*
X202064952Y-67524380D01*
X202303047Y-67524380D01*
X202398285Y-67572000D01*
X202445904Y-67619619D01*
X202493523Y-67714857D01*
X202493523Y-67810095D01*
X202445904Y-67952952D01*
X201874476Y-68524380D01*
X202493523Y-68524380D01*
X203350666Y-67524380D02*
X203160190Y-67524380D01*
X203064952Y-67572000D01*
X203017333Y-67619619D01*
X202922095Y-67762476D01*
X202874476Y-67952952D01*
X202874476Y-68333904D01*
X202922095Y-68429142D01*
X202969714Y-68476761D01*
X203064952Y-68524380D01*
X203255428Y-68524380D01*
X203350666Y-68476761D01*
X203398285Y-68429142D01*
X203445904Y-68333904D01*
X203445904Y-68095809D01*
X203398285Y-68000571D01*
X203350666Y-67952952D01*
X203255428Y-67905333D01*
X203064952Y-67905333D01*
X202969714Y-67952952D01*
X202922095Y-68000571D01*
X202874476Y-68095809D01*
%TO.C,R25*%
X136596380Y-85986857D02*
X136120190Y-86320190D01*
X136596380Y-86558285D02*
X135596380Y-86558285D01*
X135596380Y-86177333D01*
X135644000Y-86082095D01*
X135691619Y-86034476D01*
X135786857Y-85986857D01*
X135929714Y-85986857D01*
X136024952Y-86034476D01*
X136072571Y-86082095D01*
X136120190Y-86177333D01*
X136120190Y-86558285D01*
X135691619Y-85605904D02*
X135644000Y-85558285D01*
X135596380Y-85463047D01*
X135596380Y-85224952D01*
X135644000Y-85129714D01*
X135691619Y-85082095D01*
X135786857Y-85034476D01*
X135882095Y-85034476D01*
X136024952Y-85082095D01*
X136596380Y-85653523D01*
X136596380Y-85034476D01*
X135596380Y-84129714D02*
X135596380Y-84605904D01*
X136072571Y-84653523D01*
X136024952Y-84605904D01*
X135977333Y-84510666D01*
X135977333Y-84272571D01*
X136024952Y-84177333D01*
X136072571Y-84129714D01*
X136167809Y-84082095D01*
X136405904Y-84082095D01*
X136501142Y-84129714D01*
X136548761Y-84177333D01*
X136596380Y-84272571D01*
X136596380Y-84510666D01*
X136548761Y-84605904D01*
X136501142Y-84653523D01*
%TO.C,R24*%
X205097142Y-68524380D02*
X204763809Y-68048190D01*
X204525714Y-68524380D02*
X204525714Y-67524380D01*
X204906666Y-67524380D01*
X205001904Y-67572000D01*
X205049523Y-67619619D01*
X205097142Y-67714857D01*
X205097142Y-67857714D01*
X205049523Y-67952952D01*
X205001904Y-68000571D01*
X204906666Y-68048190D01*
X204525714Y-68048190D01*
X205478095Y-67619619D02*
X205525714Y-67572000D01*
X205620952Y-67524380D01*
X205859047Y-67524380D01*
X205954285Y-67572000D01*
X206001904Y-67619619D01*
X206049523Y-67714857D01*
X206049523Y-67810095D01*
X206001904Y-67952952D01*
X205430476Y-68524380D01*
X206049523Y-68524380D01*
X206906666Y-67857714D02*
X206906666Y-68524380D01*
X206668571Y-67476761D02*
X206430476Y-68191047D01*
X207049523Y-68191047D01*
%TO.C,R23*%
X186301142Y-125420380D02*
X185967809Y-124944190D01*
X185729714Y-125420380D02*
X185729714Y-124420380D01*
X186110666Y-124420380D01*
X186205904Y-124468000D01*
X186253523Y-124515619D01*
X186301142Y-124610857D01*
X186301142Y-124753714D01*
X186253523Y-124848952D01*
X186205904Y-124896571D01*
X186110666Y-124944190D01*
X185729714Y-124944190D01*
X186682095Y-124515619D02*
X186729714Y-124468000D01*
X186824952Y-124420380D01*
X187063047Y-124420380D01*
X187158285Y-124468000D01*
X187205904Y-124515619D01*
X187253523Y-124610857D01*
X187253523Y-124706095D01*
X187205904Y-124848952D01*
X186634476Y-125420380D01*
X187253523Y-125420380D01*
X187586857Y-124420380D02*
X188205904Y-124420380D01*
X187872571Y-124801333D01*
X188015428Y-124801333D01*
X188110666Y-124848952D01*
X188158285Y-124896571D01*
X188205904Y-124991809D01*
X188205904Y-125229904D01*
X188158285Y-125325142D01*
X188110666Y-125372761D01*
X188015428Y-125420380D01*
X187729714Y-125420380D01*
X187634476Y-125372761D01*
X187586857Y-125325142D01*
%TO.C,R22*%
X144216380Y-156090857D02*
X143740190Y-156424190D01*
X144216380Y-156662285D02*
X143216380Y-156662285D01*
X143216380Y-156281333D01*
X143264000Y-156186095D01*
X143311619Y-156138476D01*
X143406857Y-156090857D01*
X143549714Y-156090857D01*
X143644952Y-156138476D01*
X143692571Y-156186095D01*
X143740190Y-156281333D01*
X143740190Y-156662285D01*
X143311619Y-155709904D02*
X143264000Y-155662285D01*
X143216380Y-155567047D01*
X143216380Y-155328952D01*
X143264000Y-155233714D01*
X143311619Y-155186095D01*
X143406857Y-155138476D01*
X143502095Y-155138476D01*
X143644952Y-155186095D01*
X144216380Y-155757523D01*
X144216380Y-155138476D01*
X143311619Y-154757523D02*
X143264000Y-154709904D01*
X143216380Y-154614666D01*
X143216380Y-154376571D01*
X143264000Y-154281333D01*
X143311619Y-154233714D01*
X143406857Y-154186095D01*
X143502095Y-154186095D01*
X143644952Y-154233714D01*
X144216380Y-154805142D01*
X144216380Y-154186095D01*
%TO.C,R21*%
X94861142Y-115260380D02*
X94527809Y-114784190D01*
X94289714Y-115260380D02*
X94289714Y-114260380D01*
X94670666Y-114260380D01*
X94765904Y-114308000D01*
X94813523Y-114355619D01*
X94861142Y-114450857D01*
X94861142Y-114593714D01*
X94813523Y-114688952D01*
X94765904Y-114736571D01*
X94670666Y-114784190D01*
X94289714Y-114784190D01*
X95242095Y-114355619D02*
X95289714Y-114308000D01*
X95384952Y-114260380D01*
X95623047Y-114260380D01*
X95718285Y-114308000D01*
X95765904Y-114355619D01*
X95813523Y-114450857D01*
X95813523Y-114546095D01*
X95765904Y-114688952D01*
X95194476Y-115260380D01*
X95813523Y-115260380D01*
X96765904Y-115260380D02*
X96194476Y-115260380D01*
X96480190Y-115260380D02*
X96480190Y-114260380D01*
X96384952Y-114403238D01*
X96289714Y-114498476D01*
X96194476Y-114546095D01*
%TO.C,R20*%
X100528380Y-112910857D02*
X100052190Y-113244190D01*
X100528380Y-113482285D02*
X99528380Y-113482285D01*
X99528380Y-113101333D01*
X99576000Y-113006095D01*
X99623619Y-112958476D01*
X99718857Y-112910857D01*
X99861714Y-112910857D01*
X99956952Y-112958476D01*
X100004571Y-113006095D01*
X100052190Y-113101333D01*
X100052190Y-113482285D01*
X99623619Y-112529904D02*
X99576000Y-112482285D01*
X99528380Y-112387047D01*
X99528380Y-112148952D01*
X99576000Y-112053714D01*
X99623619Y-112006095D01*
X99718857Y-111958476D01*
X99814095Y-111958476D01*
X99956952Y-112006095D01*
X100528380Y-112577523D01*
X100528380Y-111958476D01*
X99528380Y-111339428D02*
X99528380Y-111244190D01*
X99576000Y-111148952D01*
X99623619Y-111101333D01*
X99718857Y-111053714D01*
X99909333Y-111006095D01*
X100147428Y-111006095D01*
X100337904Y-111053714D01*
X100433142Y-111101333D01*
X100480761Y-111148952D01*
X100528380Y-111244190D01*
X100528380Y-111339428D01*
X100480761Y-111434666D01*
X100433142Y-111482285D01*
X100337904Y-111529904D01*
X100147428Y-111577523D01*
X99909333Y-111577523D01*
X99718857Y-111529904D01*
X99623619Y-111482285D01*
X99576000Y-111434666D01*
X99528380Y-111339428D01*
%TO.C,R19*%
X100528380Y-109354857D02*
X100052190Y-109688190D01*
X100528380Y-109926285D02*
X99528380Y-109926285D01*
X99528380Y-109545333D01*
X99576000Y-109450095D01*
X99623619Y-109402476D01*
X99718857Y-109354857D01*
X99861714Y-109354857D01*
X99956952Y-109402476D01*
X100004571Y-109450095D01*
X100052190Y-109545333D01*
X100052190Y-109926285D01*
X100528380Y-108402476D02*
X100528380Y-108973904D01*
X100528380Y-108688190D02*
X99528380Y-108688190D01*
X99671238Y-108783428D01*
X99766476Y-108878666D01*
X99814095Y-108973904D01*
X100528380Y-107926285D02*
X100528380Y-107735809D01*
X100480761Y-107640571D01*
X100433142Y-107592952D01*
X100290285Y-107497714D01*
X100099809Y-107450095D01*
X99718857Y-107450095D01*
X99623619Y-107497714D01*
X99576000Y-107545333D01*
X99528380Y-107640571D01*
X99528380Y-107831047D01*
X99576000Y-107926285D01*
X99623619Y-107973904D01*
X99718857Y-108021523D01*
X99956952Y-108021523D01*
X100052190Y-107973904D01*
X100099809Y-107926285D01*
X100147428Y-107831047D01*
X100147428Y-107640571D01*
X100099809Y-107545333D01*
X100052190Y-107497714D01*
X99956952Y-107450095D01*
%TO.C,R18*%
X121277142Y-110688380D02*
X120943809Y-110212190D01*
X120705714Y-110688380D02*
X120705714Y-109688380D01*
X121086666Y-109688380D01*
X121181904Y-109736000D01*
X121229523Y-109783619D01*
X121277142Y-109878857D01*
X121277142Y-110021714D01*
X121229523Y-110116952D01*
X121181904Y-110164571D01*
X121086666Y-110212190D01*
X120705714Y-110212190D01*
X122229523Y-110688380D02*
X121658095Y-110688380D01*
X121943809Y-110688380D02*
X121943809Y-109688380D01*
X121848571Y-109831238D01*
X121753333Y-109926476D01*
X121658095Y-109974095D01*
X122800952Y-110116952D02*
X122705714Y-110069333D01*
X122658095Y-110021714D01*
X122610476Y-109926476D01*
X122610476Y-109878857D01*
X122658095Y-109783619D01*
X122705714Y-109736000D01*
X122800952Y-109688380D01*
X122991428Y-109688380D01*
X123086666Y-109736000D01*
X123134285Y-109783619D01*
X123181904Y-109878857D01*
X123181904Y-109926476D01*
X123134285Y-110021714D01*
X123086666Y-110069333D01*
X122991428Y-110116952D01*
X122800952Y-110116952D01*
X122705714Y-110164571D01*
X122658095Y-110212190D01*
X122610476Y-110307428D01*
X122610476Y-110497904D01*
X122658095Y-110593142D01*
X122705714Y-110640761D01*
X122800952Y-110688380D01*
X122991428Y-110688380D01*
X123086666Y-110640761D01*
X123134285Y-110593142D01*
X123181904Y-110497904D01*
X123181904Y-110307428D01*
X123134285Y-110212190D01*
X123086666Y-110164571D01*
X122991428Y-110116952D01*
%TO.C,R17*%
X107561142Y-64164380D02*
X107227809Y-63688190D01*
X106989714Y-64164380D02*
X106989714Y-63164380D01*
X107370666Y-63164380D01*
X107465904Y-63212000D01*
X107513523Y-63259619D01*
X107561142Y-63354857D01*
X107561142Y-63497714D01*
X107513523Y-63592952D01*
X107465904Y-63640571D01*
X107370666Y-63688190D01*
X106989714Y-63688190D01*
X108513523Y-64164380D02*
X107942095Y-64164380D01*
X108227809Y-64164380D02*
X108227809Y-63164380D01*
X108132571Y-63307238D01*
X108037333Y-63402476D01*
X107942095Y-63450095D01*
X108846857Y-63164380D02*
X109513523Y-63164380D01*
X109084952Y-64164380D01*
%TO.C,R16*%
X119832380Y-105798857D02*
X119356190Y-106132190D01*
X119832380Y-106370285D02*
X118832380Y-106370285D01*
X118832380Y-105989333D01*
X118880000Y-105894095D01*
X118927619Y-105846476D01*
X119022857Y-105798857D01*
X119165714Y-105798857D01*
X119260952Y-105846476D01*
X119308571Y-105894095D01*
X119356190Y-105989333D01*
X119356190Y-106370285D01*
X119832380Y-104846476D02*
X119832380Y-105417904D01*
X119832380Y-105132190D02*
X118832380Y-105132190D01*
X118975238Y-105227428D01*
X119070476Y-105322666D01*
X119118095Y-105417904D01*
X118832380Y-103989333D02*
X118832380Y-104179809D01*
X118880000Y-104275047D01*
X118927619Y-104322666D01*
X119070476Y-104417904D01*
X119260952Y-104465523D01*
X119641904Y-104465523D01*
X119737142Y-104417904D01*
X119784761Y-104370285D01*
X119832380Y-104275047D01*
X119832380Y-104084571D01*
X119784761Y-103989333D01*
X119737142Y-103941714D01*
X119641904Y-103894095D01*
X119403809Y-103894095D01*
X119308571Y-103941714D01*
X119260952Y-103989333D01*
X119213333Y-104084571D01*
X119213333Y-104275047D01*
X119260952Y-104370285D01*
X119308571Y-104417904D01*
X119403809Y-104465523D01*
%TO.C,R15*%
X154297142Y-55824380D02*
X153963809Y-55348190D01*
X153725714Y-55824380D02*
X153725714Y-54824380D01*
X154106666Y-54824380D01*
X154201904Y-54872000D01*
X154249523Y-54919619D01*
X154297142Y-55014857D01*
X154297142Y-55157714D01*
X154249523Y-55252952D01*
X154201904Y-55300571D01*
X154106666Y-55348190D01*
X153725714Y-55348190D01*
X155249523Y-55824380D02*
X154678095Y-55824380D01*
X154963809Y-55824380D02*
X154963809Y-54824380D01*
X154868571Y-54967238D01*
X154773333Y-55062476D01*
X154678095Y-55110095D01*
X156154285Y-54824380D02*
X155678095Y-54824380D01*
X155630476Y-55300571D01*
X155678095Y-55252952D01*
X155773333Y-55205333D01*
X156011428Y-55205333D01*
X156106666Y-55252952D01*
X156154285Y-55300571D01*
X156201904Y-55395809D01*
X156201904Y-55633904D01*
X156154285Y-55729142D01*
X156106666Y-55776761D01*
X156011428Y-55824380D01*
X155773333Y-55824380D01*
X155678095Y-55776761D01*
X155630476Y-55729142D01*
%TO.C,R14*%
X138628380Y-50934857D02*
X138152190Y-51268190D01*
X138628380Y-51506285D02*
X137628380Y-51506285D01*
X137628380Y-51125333D01*
X137676000Y-51030095D01*
X137723619Y-50982476D01*
X137818857Y-50934857D01*
X137961714Y-50934857D01*
X138056952Y-50982476D01*
X138104571Y-51030095D01*
X138152190Y-51125333D01*
X138152190Y-51506285D01*
X138628380Y-49982476D02*
X138628380Y-50553904D01*
X138628380Y-50268190D02*
X137628380Y-50268190D01*
X137771238Y-50363428D01*
X137866476Y-50458666D01*
X137914095Y-50553904D01*
X137961714Y-49125333D02*
X138628380Y-49125333D01*
X137580761Y-49363428D02*
X138295047Y-49601523D01*
X138295047Y-48982476D01*
%TO.C,R13*%
X132453142Y-48204380D02*
X132119809Y-47728190D01*
X131881714Y-48204380D02*
X131881714Y-47204380D01*
X132262666Y-47204380D01*
X132357904Y-47252000D01*
X132405523Y-47299619D01*
X132453142Y-47394857D01*
X132453142Y-47537714D01*
X132405523Y-47632952D01*
X132357904Y-47680571D01*
X132262666Y-47728190D01*
X131881714Y-47728190D01*
X133405523Y-48204380D02*
X132834095Y-48204380D01*
X133119809Y-48204380D02*
X133119809Y-47204380D01*
X133024571Y-47347238D01*
X132929333Y-47442476D01*
X132834095Y-47490095D01*
X133738857Y-47204380D02*
X134357904Y-47204380D01*
X134024571Y-47585333D01*
X134167428Y-47585333D01*
X134262666Y-47632952D01*
X134310285Y-47680571D01*
X134357904Y-47775809D01*
X134357904Y-48013904D01*
X134310285Y-48109142D01*
X134262666Y-48156761D01*
X134167428Y-48204380D01*
X133881714Y-48204380D01*
X133786476Y-48156761D01*
X133738857Y-48109142D01*
%TO.C,R12*%
X138628380Y-53982857D02*
X138152190Y-54316190D01*
X138628380Y-54554285D02*
X137628380Y-54554285D01*
X137628380Y-54173333D01*
X137676000Y-54078095D01*
X137723619Y-54030476D01*
X137818857Y-53982857D01*
X137961714Y-53982857D01*
X138056952Y-54030476D01*
X138104571Y-54078095D01*
X138152190Y-54173333D01*
X138152190Y-54554285D01*
X138628380Y-53030476D02*
X138628380Y-53601904D01*
X138628380Y-53316190D02*
X137628380Y-53316190D01*
X137771238Y-53411428D01*
X137866476Y-53506666D01*
X137914095Y-53601904D01*
X137723619Y-52649523D02*
X137676000Y-52601904D01*
X137628380Y-52506666D01*
X137628380Y-52268571D01*
X137676000Y-52173333D01*
X137723619Y-52125714D01*
X137818857Y-52078095D01*
X137914095Y-52078095D01*
X138056952Y-52125714D01*
X138628380Y-52697142D01*
X138628380Y-52078095D01*
%TO.C,R11*%
X164324380Y-117482857D02*
X163848190Y-117816190D01*
X164324380Y-118054285D02*
X163324380Y-118054285D01*
X163324380Y-117673333D01*
X163372000Y-117578095D01*
X163419619Y-117530476D01*
X163514857Y-117482857D01*
X163657714Y-117482857D01*
X163752952Y-117530476D01*
X163800571Y-117578095D01*
X163848190Y-117673333D01*
X163848190Y-118054285D01*
X164324380Y-116530476D02*
X164324380Y-117101904D01*
X164324380Y-116816190D02*
X163324380Y-116816190D01*
X163467238Y-116911428D01*
X163562476Y-117006666D01*
X163610095Y-117101904D01*
X164324380Y-115578095D02*
X164324380Y-116149523D01*
X164324380Y-115863809D02*
X163324380Y-115863809D01*
X163467238Y-115959047D01*
X163562476Y-116054285D01*
X163610095Y-116149523D01*
%TO.C,R10*%
X102052380Y-83446857D02*
X101576190Y-83780190D01*
X102052380Y-84018285D02*
X101052380Y-84018285D01*
X101052380Y-83637333D01*
X101100000Y-83542095D01*
X101147619Y-83494476D01*
X101242857Y-83446857D01*
X101385714Y-83446857D01*
X101480952Y-83494476D01*
X101528571Y-83542095D01*
X101576190Y-83637333D01*
X101576190Y-84018285D01*
X102052380Y-82494476D02*
X102052380Y-83065904D01*
X102052380Y-82780190D02*
X101052380Y-82780190D01*
X101195238Y-82875428D01*
X101290476Y-82970666D01*
X101338095Y-83065904D01*
X101052380Y-81875428D02*
X101052380Y-81780190D01*
X101100000Y-81684952D01*
X101147619Y-81637333D01*
X101242857Y-81589714D01*
X101433333Y-81542095D01*
X101671428Y-81542095D01*
X101861904Y-81589714D01*
X101957142Y-81637333D01*
X102004761Y-81684952D01*
X102052380Y-81780190D01*
X102052380Y-81875428D01*
X102004761Y-81970666D01*
X101957142Y-82018285D01*
X101861904Y-82065904D01*
X101671428Y-82113523D01*
X101433333Y-82113523D01*
X101242857Y-82065904D01*
X101147619Y-82018285D01*
X101100000Y-81970666D01*
X101052380Y-81875428D01*
%TO.C,R9*%
X109053333Y-126436380D02*
X108720000Y-125960190D01*
X108481904Y-126436380D02*
X108481904Y-125436380D01*
X108862857Y-125436380D01*
X108958095Y-125484000D01*
X109005714Y-125531619D01*
X109053333Y-125626857D01*
X109053333Y-125769714D01*
X109005714Y-125864952D01*
X108958095Y-125912571D01*
X108862857Y-125960190D01*
X108481904Y-125960190D01*
X109529523Y-126436380D02*
X109720000Y-126436380D01*
X109815238Y-126388761D01*
X109862857Y-126341142D01*
X109958095Y-126198285D01*
X110005714Y-126007809D01*
X110005714Y-125626857D01*
X109958095Y-125531619D01*
X109910476Y-125484000D01*
X109815238Y-125436380D01*
X109624761Y-125436380D01*
X109529523Y-125484000D01*
X109481904Y-125531619D01*
X109434285Y-125626857D01*
X109434285Y-125864952D01*
X109481904Y-125960190D01*
X109529523Y-126007809D01*
X109624761Y-126055428D01*
X109815238Y-126055428D01*
X109910476Y-126007809D01*
X109958095Y-125960190D01*
X110005714Y-125864952D01*
%TO.C,R8*%
X106005333Y-126436380D02*
X105672000Y-125960190D01*
X105433904Y-126436380D02*
X105433904Y-125436380D01*
X105814857Y-125436380D01*
X105910095Y-125484000D01*
X105957714Y-125531619D01*
X106005333Y-125626857D01*
X106005333Y-125769714D01*
X105957714Y-125864952D01*
X105910095Y-125912571D01*
X105814857Y-125960190D01*
X105433904Y-125960190D01*
X106576761Y-125864952D02*
X106481523Y-125817333D01*
X106433904Y-125769714D01*
X106386285Y-125674476D01*
X106386285Y-125626857D01*
X106433904Y-125531619D01*
X106481523Y-125484000D01*
X106576761Y-125436380D01*
X106767238Y-125436380D01*
X106862476Y-125484000D01*
X106910095Y-125531619D01*
X106957714Y-125626857D01*
X106957714Y-125674476D01*
X106910095Y-125769714D01*
X106862476Y-125817333D01*
X106767238Y-125864952D01*
X106576761Y-125864952D01*
X106481523Y-125912571D01*
X106433904Y-125960190D01*
X106386285Y-126055428D01*
X106386285Y-126245904D01*
X106433904Y-126341142D01*
X106481523Y-126388761D01*
X106576761Y-126436380D01*
X106767238Y-126436380D01*
X106862476Y-126388761D01*
X106910095Y-126341142D01*
X106957714Y-126245904D01*
X106957714Y-126055428D01*
X106910095Y-125960190D01*
X106862476Y-125912571D01*
X106767238Y-125864952D01*
%TO.C,R7*%
X102957333Y-126436380D02*
X102624000Y-125960190D01*
X102385904Y-126436380D02*
X102385904Y-125436380D01*
X102766857Y-125436380D01*
X102862095Y-125484000D01*
X102909714Y-125531619D01*
X102957333Y-125626857D01*
X102957333Y-125769714D01*
X102909714Y-125864952D01*
X102862095Y-125912571D01*
X102766857Y-125960190D01*
X102385904Y-125960190D01*
X103290666Y-125436380D02*
X103957333Y-125436380D01*
X103528761Y-126436380D01*
%TO.C,R6*%
X161996380Y-122594666D02*
X161520190Y-122928000D01*
X161996380Y-123166095D02*
X160996380Y-123166095D01*
X160996380Y-122785142D01*
X161044000Y-122689904D01*
X161091619Y-122642285D01*
X161186857Y-122594666D01*
X161329714Y-122594666D01*
X161424952Y-122642285D01*
X161472571Y-122689904D01*
X161520190Y-122785142D01*
X161520190Y-123166095D01*
X160996380Y-121737523D02*
X160996380Y-121928000D01*
X161044000Y-122023238D01*
X161091619Y-122070857D01*
X161234476Y-122166095D01*
X161424952Y-122213714D01*
X161805904Y-122213714D01*
X161901142Y-122166095D01*
X161948761Y-122118476D01*
X161996380Y-122023238D01*
X161996380Y-121832761D01*
X161948761Y-121737523D01*
X161901142Y-121689904D01*
X161805904Y-121642285D01*
X161567809Y-121642285D01*
X161472571Y-121689904D01*
X161424952Y-121737523D01*
X161377333Y-121832761D01*
X161377333Y-122023238D01*
X161424952Y-122118476D01*
X161472571Y-122166095D01*
X161567809Y-122213714D01*
%TO.C,R5*%
X190740380Y-111418666D02*
X190264190Y-111752000D01*
X190740380Y-111990095D02*
X189740380Y-111990095D01*
X189740380Y-111609142D01*
X189788000Y-111513904D01*
X189835619Y-111466285D01*
X189930857Y-111418666D01*
X190073714Y-111418666D01*
X190168952Y-111466285D01*
X190216571Y-111513904D01*
X190264190Y-111609142D01*
X190264190Y-111990095D01*
X189740380Y-110513904D02*
X189740380Y-110990095D01*
X190216571Y-111037714D01*
X190168952Y-110990095D01*
X190121333Y-110894857D01*
X190121333Y-110656761D01*
X190168952Y-110561523D01*
X190216571Y-110513904D01*
X190311809Y-110466285D01*
X190549904Y-110466285D01*
X190645142Y-110513904D01*
X190692761Y-110561523D01*
X190740380Y-110656761D01*
X190740380Y-110894857D01*
X190692761Y-110990095D01*
X190645142Y-111037714D01*
%TO.C,R4*%
X158329333Y-97268380D02*
X157996000Y-96792190D01*
X157757904Y-97268380D02*
X157757904Y-96268380D01*
X158138857Y-96268380D01*
X158234095Y-96316000D01*
X158281714Y-96363619D01*
X158329333Y-96458857D01*
X158329333Y-96601714D01*
X158281714Y-96696952D01*
X158234095Y-96744571D01*
X158138857Y-96792190D01*
X157757904Y-96792190D01*
X159186476Y-96601714D02*
X159186476Y-97268380D01*
X158948380Y-96220761D02*
X158710285Y-96935047D01*
X159329333Y-96935047D01*
%TO.C,R3*%
X184136380Y-67730666D02*
X183660190Y-68064000D01*
X184136380Y-68302095D02*
X183136380Y-68302095D01*
X183136380Y-67921142D01*
X183184000Y-67825904D01*
X183231619Y-67778285D01*
X183326857Y-67730666D01*
X183469714Y-67730666D01*
X183564952Y-67778285D01*
X183612571Y-67825904D01*
X183660190Y-67921142D01*
X183660190Y-68302095D01*
X183136380Y-67397333D02*
X183136380Y-66778285D01*
X183517333Y-67111619D01*
X183517333Y-66968761D01*
X183564952Y-66873523D01*
X183612571Y-66825904D01*
X183707809Y-66778285D01*
X183945904Y-66778285D01*
X184041142Y-66825904D01*
X184088761Y-66873523D01*
X184136380Y-66968761D01*
X184136380Y-67254476D01*
X184088761Y-67349714D01*
X184041142Y-67397333D01*
%TO.C,R2*%
X152640380Y-100242666D02*
X152164190Y-100576000D01*
X152640380Y-100814095D02*
X151640380Y-100814095D01*
X151640380Y-100433142D01*
X151688000Y-100337904D01*
X151735619Y-100290285D01*
X151830857Y-100242666D01*
X151973714Y-100242666D01*
X152068952Y-100290285D01*
X152116571Y-100337904D01*
X152164190Y-100433142D01*
X152164190Y-100814095D01*
X151735619Y-99861714D02*
X151688000Y-99814095D01*
X151640380Y-99718857D01*
X151640380Y-99480761D01*
X151688000Y-99385523D01*
X151735619Y-99337904D01*
X151830857Y-99290285D01*
X151926095Y-99290285D01*
X152068952Y-99337904D01*
X152640380Y-99909333D01*
X152640380Y-99290285D01*
%TO.C,R1*%
X152640380Y-95162666D02*
X152164190Y-95496000D01*
X152640380Y-95734095D02*
X151640380Y-95734095D01*
X151640380Y-95353142D01*
X151688000Y-95257904D01*
X151735619Y-95210285D01*
X151830857Y-95162666D01*
X151973714Y-95162666D01*
X152068952Y-95210285D01*
X152116571Y-95257904D01*
X152164190Y-95353142D01*
X152164190Y-95734095D01*
X152640380Y-94210285D02*
X152640380Y-94781714D01*
X152640380Y-94496000D02*
X151640380Y-94496000D01*
X151783238Y-94591238D01*
X151878476Y-94686476D01*
X151926095Y-94781714D01*
%TO.C,Q5*%
X154336761Y-122975619D02*
X154241523Y-122928000D01*
X154146285Y-122832761D01*
X154003428Y-122689904D01*
X153908190Y-122642285D01*
X153812952Y-122642285D01*
X153860571Y-122880380D02*
X153765333Y-122832761D01*
X153670095Y-122737523D01*
X153622476Y-122547047D01*
X153622476Y-122213714D01*
X153670095Y-122023238D01*
X153765333Y-121928000D01*
X153860571Y-121880380D01*
X154051047Y-121880380D01*
X154146285Y-121928000D01*
X154241523Y-122023238D01*
X154289142Y-122213714D01*
X154289142Y-122547047D01*
X154241523Y-122737523D01*
X154146285Y-122832761D01*
X154051047Y-122880380D01*
X153860571Y-122880380D01*
X155193904Y-121880380D02*
X154717714Y-121880380D01*
X154670095Y-122356571D01*
X154717714Y-122308952D01*
X154812952Y-122261333D01*
X155051047Y-122261333D01*
X155146285Y-122308952D01*
X155193904Y-122356571D01*
X155241523Y-122451809D01*
X155241523Y-122689904D01*
X155193904Y-122785142D01*
X155146285Y-122832761D01*
X155051047Y-122880380D01*
X154812952Y-122880380D01*
X154717714Y-122832761D01*
X154670095Y-122785142D01*
%TO.C,Q4*%
X129071619Y-121507238D02*
X129024000Y-121602476D01*
X128928761Y-121697714D01*
X128785904Y-121840571D01*
X128738285Y-121935809D01*
X128738285Y-122031047D01*
X128976380Y-121983428D02*
X128928761Y-122078666D01*
X128833523Y-122173904D01*
X128643047Y-122221523D01*
X128309714Y-122221523D01*
X128119238Y-122173904D01*
X128024000Y-122078666D01*
X127976380Y-121983428D01*
X127976380Y-121792952D01*
X128024000Y-121697714D01*
X128119238Y-121602476D01*
X128309714Y-121554857D01*
X128643047Y-121554857D01*
X128833523Y-121602476D01*
X128928761Y-121697714D01*
X128976380Y-121792952D01*
X128976380Y-121983428D01*
X128309714Y-120697714D02*
X128976380Y-120697714D01*
X127928761Y-120935809D02*
X128643047Y-121173904D01*
X128643047Y-120554857D01*
%TO.C,Q2*%
X154336761Y-114339619D02*
X154241523Y-114292000D01*
X154146285Y-114196761D01*
X154003428Y-114053904D01*
X153908190Y-114006285D01*
X153812952Y-114006285D01*
X153860571Y-114244380D02*
X153765333Y-114196761D01*
X153670095Y-114101523D01*
X153622476Y-113911047D01*
X153622476Y-113577714D01*
X153670095Y-113387238D01*
X153765333Y-113292000D01*
X153860571Y-113244380D01*
X154051047Y-113244380D01*
X154146285Y-113292000D01*
X154241523Y-113387238D01*
X154289142Y-113577714D01*
X154289142Y-113911047D01*
X154241523Y-114101523D01*
X154146285Y-114196761D01*
X154051047Y-114244380D01*
X153860571Y-114244380D01*
X154670095Y-113339619D02*
X154717714Y-113292000D01*
X154812952Y-113244380D01*
X155051047Y-113244380D01*
X155146285Y-113292000D01*
X155193904Y-113339619D01*
X155241523Y-113434857D01*
X155241523Y-113530095D01*
X155193904Y-113672952D01*
X154622476Y-114244380D01*
X155241523Y-114244380D01*
%TO.C,Q1*%
X131476761Y-102655619D02*
X131381523Y-102608000D01*
X131286285Y-102512761D01*
X131143428Y-102369904D01*
X131048190Y-102322285D01*
X130952952Y-102322285D01*
X131000571Y-102560380D02*
X130905333Y-102512761D01*
X130810095Y-102417523D01*
X130762476Y-102227047D01*
X130762476Y-101893714D01*
X130810095Y-101703238D01*
X130905333Y-101608000D01*
X131000571Y-101560380D01*
X131191047Y-101560380D01*
X131286285Y-101608000D01*
X131381523Y-101703238D01*
X131429142Y-101893714D01*
X131429142Y-102227047D01*
X131381523Y-102417523D01*
X131286285Y-102512761D01*
X131191047Y-102560380D01*
X131000571Y-102560380D01*
X132381523Y-102560380D02*
X131810095Y-102560380D01*
X132095809Y-102560380D02*
X132095809Y-101560380D01*
X132000571Y-101703238D01*
X131905333Y-101798476D01*
X131810095Y-101846095D01*
%TO.C,D50*%
X149153714Y-57560380D02*
X149153714Y-56560380D01*
X149391809Y-56560380D01*
X149534666Y-56608000D01*
X149629904Y-56703238D01*
X149677523Y-56798476D01*
X149725142Y-56988952D01*
X149725142Y-57131809D01*
X149677523Y-57322285D01*
X149629904Y-57417523D01*
X149534666Y-57512761D01*
X149391809Y-57560380D01*
X149153714Y-57560380D01*
X150629904Y-56560380D02*
X150153714Y-56560380D01*
X150106095Y-57036571D01*
X150153714Y-56988952D01*
X150248952Y-56941333D01*
X150487047Y-56941333D01*
X150582285Y-56988952D01*
X150629904Y-57036571D01*
X150677523Y-57131809D01*
X150677523Y-57369904D01*
X150629904Y-57465142D01*
X150582285Y-57512761D01*
X150487047Y-57560380D01*
X150248952Y-57560380D01*
X150153714Y-57512761D01*
X150106095Y-57465142D01*
X151296571Y-56560380D02*
X151391809Y-56560380D01*
X151487047Y-56608000D01*
X151534666Y-56655619D01*
X151582285Y-56750857D01*
X151629904Y-56941333D01*
X151629904Y-57179428D01*
X151582285Y-57369904D01*
X151534666Y-57465142D01*
X151487047Y-57512761D01*
X151391809Y-57560380D01*
X151296571Y-57560380D01*
X151201333Y-57512761D01*
X151153714Y-57465142D01*
X151106095Y-57369904D01*
X151058476Y-57179428D01*
X151058476Y-56941333D01*
X151106095Y-56750857D01*
X151153714Y-56655619D01*
X151201333Y-56608000D01*
X151296571Y-56560380D01*
%TO.C,D49*%
X106481714Y-122076380D02*
X106481714Y-121076380D01*
X106719809Y-121076380D01*
X106862666Y-121124000D01*
X106957904Y-121219238D01*
X107005523Y-121314476D01*
X107053142Y-121504952D01*
X107053142Y-121647809D01*
X107005523Y-121838285D01*
X106957904Y-121933523D01*
X106862666Y-122028761D01*
X106719809Y-122076380D01*
X106481714Y-122076380D01*
X107910285Y-121409714D02*
X107910285Y-122076380D01*
X107672190Y-121028761D02*
X107434095Y-121743047D01*
X108053142Y-121743047D01*
X108481714Y-122076380D02*
X108672190Y-122076380D01*
X108767428Y-122028761D01*
X108815047Y-121981142D01*
X108910285Y-121838285D01*
X108957904Y-121647809D01*
X108957904Y-121266857D01*
X108910285Y-121171619D01*
X108862666Y-121124000D01*
X108767428Y-121076380D01*
X108576952Y-121076380D01*
X108481714Y-121124000D01*
X108434095Y-121171619D01*
X108386476Y-121266857D01*
X108386476Y-121504952D01*
X108434095Y-121600190D01*
X108481714Y-121647809D01*
X108576952Y-121695428D01*
X108767428Y-121695428D01*
X108862666Y-121647809D01*
X108910285Y-121600190D01*
X108957904Y-121504952D01*
%TO.C,D48*%
X92765714Y-67720380D02*
X92765714Y-66720380D01*
X93003809Y-66720380D01*
X93146666Y-66768000D01*
X93241904Y-66863238D01*
X93289523Y-66958476D01*
X93337142Y-67148952D01*
X93337142Y-67291809D01*
X93289523Y-67482285D01*
X93241904Y-67577523D01*
X93146666Y-67672761D01*
X93003809Y-67720380D01*
X92765714Y-67720380D01*
X94194285Y-67053714D02*
X94194285Y-67720380D01*
X93956190Y-66672761D02*
X93718095Y-67387047D01*
X94337142Y-67387047D01*
X94860952Y-67148952D02*
X94765714Y-67101333D01*
X94718095Y-67053714D01*
X94670476Y-66958476D01*
X94670476Y-66910857D01*
X94718095Y-66815619D01*
X94765714Y-66768000D01*
X94860952Y-66720380D01*
X95051428Y-66720380D01*
X95146666Y-66768000D01*
X95194285Y-66815619D01*
X95241904Y-66910857D01*
X95241904Y-66958476D01*
X95194285Y-67053714D01*
X95146666Y-67101333D01*
X95051428Y-67148952D01*
X94860952Y-67148952D01*
X94765714Y-67196571D01*
X94718095Y-67244190D01*
X94670476Y-67339428D01*
X94670476Y-67529904D01*
X94718095Y-67625142D01*
X94765714Y-67672761D01*
X94860952Y-67720380D01*
X95051428Y-67720380D01*
X95146666Y-67672761D01*
X95194285Y-67625142D01*
X95241904Y-67529904D01*
X95241904Y-67339428D01*
X95194285Y-67244190D01*
X95146666Y-67196571D01*
X95051428Y-67148952D01*
%TO.C,D47*%
X178617714Y-110392380D02*
X178617714Y-109392380D01*
X178855809Y-109392380D01*
X178998666Y-109440000D01*
X179093904Y-109535238D01*
X179141523Y-109630476D01*
X179189142Y-109820952D01*
X179189142Y-109963809D01*
X179141523Y-110154285D01*
X179093904Y-110249523D01*
X178998666Y-110344761D01*
X178855809Y-110392380D01*
X178617714Y-110392380D01*
X180046285Y-109725714D02*
X180046285Y-110392380D01*
X179808190Y-109344761D02*
X179570095Y-110059047D01*
X180189142Y-110059047D01*
X180474857Y-109392380D02*
X181141523Y-109392380D01*
X180712952Y-110392380D01*
%TO.C,D46*%
X141787714Y-73708380D02*
X141787714Y-72708380D01*
X142025809Y-72708380D01*
X142168666Y-72756000D01*
X142263904Y-72851238D01*
X142311523Y-72946476D01*
X142359142Y-73136952D01*
X142359142Y-73279809D01*
X142311523Y-73470285D01*
X142263904Y-73565523D01*
X142168666Y-73660761D01*
X142025809Y-73708380D01*
X141787714Y-73708380D01*
X143216285Y-73041714D02*
X143216285Y-73708380D01*
X142978190Y-72660761D02*
X142740095Y-73375047D01*
X143359142Y-73375047D01*
X144168666Y-72708380D02*
X143978190Y-72708380D01*
X143882952Y-72756000D01*
X143835333Y-72803619D01*
X143740095Y-72946476D01*
X143692476Y-73136952D01*
X143692476Y-73517904D01*
X143740095Y-73613142D01*
X143787714Y-73660761D01*
X143882952Y-73708380D01*
X144073428Y-73708380D01*
X144168666Y-73660761D01*
X144216285Y-73613142D01*
X144263904Y-73517904D01*
X144263904Y-73279809D01*
X144216285Y-73184571D01*
X144168666Y-73136952D01*
X144073428Y-73089333D01*
X143882952Y-73089333D01*
X143787714Y-73136952D01*
X143740095Y-73184571D01*
X143692476Y-73279809D01*
%TO.C,D45*%
X130103714Y-162608380D02*
X130103714Y-161608380D01*
X130341809Y-161608380D01*
X130484666Y-161656000D01*
X130579904Y-161751238D01*
X130627523Y-161846476D01*
X130675142Y-162036952D01*
X130675142Y-162179809D01*
X130627523Y-162370285D01*
X130579904Y-162465523D01*
X130484666Y-162560761D01*
X130341809Y-162608380D01*
X130103714Y-162608380D01*
X131532285Y-161941714D02*
X131532285Y-162608380D01*
X131294190Y-161560761D02*
X131056095Y-162275047D01*
X131675142Y-162275047D01*
X132532285Y-161608380D02*
X132056095Y-161608380D01*
X132008476Y-162084571D01*
X132056095Y-162036952D01*
X132151333Y-161989333D01*
X132389428Y-161989333D01*
X132484666Y-162036952D01*
X132532285Y-162084571D01*
X132579904Y-162179809D01*
X132579904Y-162417904D01*
X132532285Y-162513142D01*
X132484666Y-162560761D01*
X132389428Y-162608380D01*
X132151333Y-162608380D01*
X132056095Y-162560761D01*
X132008476Y-162513142D01*
%TO.C,D44*%
X157027714Y-142288380D02*
X157027714Y-141288380D01*
X157265809Y-141288380D01*
X157408666Y-141336000D01*
X157503904Y-141431238D01*
X157551523Y-141526476D01*
X157599142Y-141716952D01*
X157599142Y-141859809D01*
X157551523Y-142050285D01*
X157503904Y-142145523D01*
X157408666Y-142240761D01*
X157265809Y-142288380D01*
X157027714Y-142288380D01*
X158456285Y-141621714D02*
X158456285Y-142288380D01*
X158218190Y-141240761D02*
X157980095Y-141955047D01*
X158599142Y-141955047D01*
X159408666Y-141621714D02*
X159408666Y-142288380D01*
X159170571Y-141240761D02*
X158932476Y-141955047D01*
X159551523Y-141955047D01*
%TO.C,D43*%
X176331714Y-134160380D02*
X176331714Y-133160380D01*
X176569809Y-133160380D01*
X176712666Y-133208000D01*
X176807904Y-133303238D01*
X176855523Y-133398476D01*
X176903142Y-133588952D01*
X176903142Y-133731809D01*
X176855523Y-133922285D01*
X176807904Y-134017523D01*
X176712666Y-134112761D01*
X176569809Y-134160380D01*
X176331714Y-134160380D01*
X177760285Y-133493714D02*
X177760285Y-134160380D01*
X177522190Y-133112761D02*
X177284095Y-133827047D01*
X177903142Y-133827047D01*
X178188857Y-133160380D02*
X178807904Y-133160380D01*
X178474571Y-133541333D01*
X178617428Y-133541333D01*
X178712666Y-133588952D01*
X178760285Y-133636571D01*
X178807904Y-133731809D01*
X178807904Y-133969904D01*
X178760285Y-134065142D01*
X178712666Y-134112761D01*
X178617428Y-134160380D01*
X178331714Y-134160380D01*
X178236476Y-134112761D01*
X178188857Y-134065142D01*
%TO.C,D42*%
X190773214Y-71784380D02*
X190773214Y-70784380D01*
X191011309Y-70784380D01*
X191154166Y-70832000D01*
X191249404Y-70927238D01*
X191297023Y-71022476D01*
X191344642Y-71212952D01*
X191344642Y-71355809D01*
X191297023Y-71546285D01*
X191249404Y-71641523D01*
X191154166Y-71736761D01*
X191011309Y-71784380D01*
X190773214Y-71784380D01*
X192201785Y-71117714D02*
X192201785Y-71784380D01*
X191963690Y-70736761D02*
X191725595Y-71451047D01*
X192344642Y-71451047D01*
X192677976Y-70879619D02*
X192725595Y-70832000D01*
X192820833Y-70784380D01*
X193058928Y-70784380D01*
X193154166Y-70832000D01*
X193201785Y-70879619D01*
X193249404Y-70974857D01*
X193249404Y-71070095D01*
X193201785Y-71212952D01*
X192630357Y-71784380D01*
X193249404Y-71784380D01*
%TO.C,D41*%
X134421714Y-35504380D02*
X134421714Y-34504380D01*
X134659809Y-34504380D01*
X134802666Y-34552000D01*
X134897904Y-34647238D01*
X134945523Y-34742476D01*
X134993142Y-34932952D01*
X134993142Y-35075809D01*
X134945523Y-35266285D01*
X134897904Y-35361523D01*
X134802666Y-35456761D01*
X134659809Y-35504380D01*
X134421714Y-35504380D01*
X135850285Y-34837714D02*
X135850285Y-35504380D01*
X135612190Y-34456761D02*
X135374095Y-35171047D01*
X135993142Y-35171047D01*
X136897904Y-35504380D02*
X136326476Y-35504380D01*
X136612190Y-35504380D02*
X136612190Y-34504380D01*
X136516952Y-34647238D01*
X136421714Y-34742476D01*
X136326476Y-34790095D01*
%TO.C,D40*%
X130865714Y-127960380D02*
X130865714Y-126960380D01*
X131103809Y-126960380D01*
X131246666Y-127008000D01*
X131341904Y-127103238D01*
X131389523Y-127198476D01*
X131437142Y-127388952D01*
X131437142Y-127531809D01*
X131389523Y-127722285D01*
X131341904Y-127817523D01*
X131246666Y-127912761D01*
X131103809Y-127960380D01*
X130865714Y-127960380D01*
X132294285Y-127293714D02*
X132294285Y-127960380D01*
X132056190Y-126912761D02*
X131818095Y-127627047D01*
X132437142Y-127627047D01*
X133008571Y-126960380D02*
X133103809Y-126960380D01*
X133199047Y-127008000D01*
X133246666Y-127055619D01*
X133294285Y-127150857D01*
X133341904Y-127341333D01*
X133341904Y-127579428D01*
X133294285Y-127769904D01*
X133246666Y-127865142D01*
X133199047Y-127912761D01*
X133103809Y-127960380D01*
X133008571Y-127960380D01*
X132913333Y-127912761D01*
X132865714Y-127865142D01*
X132818095Y-127769904D01*
X132770476Y-127579428D01*
X132770476Y-127341333D01*
X132818095Y-127150857D01*
X132865714Y-127055619D01*
X132913333Y-127008000D01*
X133008571Y-126960380D01*
%TO.C,D39*%
X136453714Y-57560380D02*
X136453714Y-56560380D01*
X136691809Y-56560380D01*
X136834666Y-56608000D01*
X136929904Y-56703238D01*
X136977523Y-56798476D01*
X137025142Y-56988952D01*
X137025142Y-57131809D01*
X136977523Y-57322285D01*
X136929904Y-57417523D01*
X136834666Y-57512761D01*
X136691809Y-57560380D01*
X136453714Y-57560380D01*
X137358476Y-56560380D02*
X137977523Y-56560380D01*
X137644190Y-56941333D01*
X137787047Y-56941333D01*
X137882285Y-56988952D01*
X137929904Y-57036571D01*
X137977523Y-57131809D01*
X137977523Y-57369904D01*
X137929904Y-57465142D01*
X137882285Y-57512761D01*
X137787047Y-57560380D01*
X137501333Y-57560380D01*
X137406095Y-57512761D01*
X137358476Y-57465142D01*
X138453714Y-57560380D02*
X138644190Y-57560380D01*
X138739428Y-57512761D01*
X138787047Y-57465142D01*
X138882285Y-57322285D01*
X138929904Y-57131809D01*
X138929904Y-56750857D01*
X138882285Y-56655619D01*
X138834666Y-56608000D01*
X138739428Y-56560380D01*
X138548952Y-56560380D01*
X138453714Y-56608000D01*
X138406095Y-56655619D01*
X138358476Y-56750857D01*
X138358476Y-56988952D01*
X138406095Y-57084190D01*
X138453714Y-57131809D01*
X138548952Y-57179428D01*
X138739428Y-57179428D01*
X138834666Y-57131809D01*
X138882285Y-57084190D01*
X138929904Y-56988952D01*
%TO.C,D38*%
X169981714Y-74324380D02*
X169981714Y-73324380D01*
X170219809Y-73324380D01*
X170362666Y-73372000D01*
X170457904Y-73467238D01*
X170505523Y-73562476D01*
X170553142Y-73752952D01*
X170553142Y-73895809D01*
X170505523Y-74086285D01*
X170457904Y-74181523D01*
X170362666Y-74276761D01*
X170219809Y-74324380D01*
X169981714Y-74324380D01*
X170886476Y-73324380D02*
X171505523Y-73324380D01*
X171172190Y-73705333D01*
X171315047Y-73705333D01*
X171410285Y-73752952D01*
X171457904Y-73800571D01*
X171505523Y-73895809D01*
X171505523Y-74133904D01*
X171457904Y-74229142D01*
X171410285Y-74276761D01*
X171315047Y-74324380D01*
X171029333Y-74324380D01*
X170934095Y-74276761D01*
X170886476Y-74229142D01*
X172076952Y-73752952D02*
X171981714Y-73705333D01*
X171934095Y-73657714D01*
X171886476Y-73562476D01*
X171886476Y-73514857D01*
X171934095Y-73419619D01*
X171981714Y-73372000D01*
X172076952Y-73324380D01*
X172267428Y-73324380D01*
X172362666Y-73372000D01*
X172410285Y-73419619D01*
X172457904Y-73514857D01*
X172457904Y-73562476D01*
X172410285Y-73657714D01*
X172362666Y-73705333D01*
X172267428Y-73752952D01*
X172076952Y-73752952D01*
X171981714Y-73800571D01*
X171934095Y-73848190D01*
X171886476Y-73943428D01*
X171886476Y-74133904D01*
X171934095Y-74229142D01*
X171981714Y-74276761D01*
X172076952Y-74324380D01*
X172267428Y-74324380D01*
X172362666Y-74276761D01*
X172410285Y-74229142D01*
X172457904Y-74133904D01*
X172457904Y-73943428D01*
X172410285Y-73848190D01*
X172362666Y-73800571D01*
X172267428Y-73752952D01*
%TO.C,D37*%
X105973714Y-80928380D02*
X105973714Y-79928380D01*
X106211809Y-79928380D01*
X106354666Y-79976000D01*
X106449904Y-80071238D01*
X106497523Y-80166476D01*
X106545142Y-80356952D01*
X106545142Y-80499809D01*
X106497523Y-80690285D01*
X106449904Y-80785523D01*
X106354666Y-80880761D01*
X106211809Y-80928380D01*
X105973714Y-80928380D01*
X106878476Y-79928380D02*
X107497523Y-79928380D01*
X107164190Y-80309333D01*
X107307047Y-80309333D01*
X107402285Y-80356952D01*
X107449904Y-80404571D01*
X107497523Y-80499809D01*
X107497523Y-80737904D01*
X107449904Y-80833142D01*
X107402285Y-80880761D01*
X107307047Y-80928380D01*
X107021333Y-80928380D01*
X106926095Y-80880761D01*
X106878476Y-80833142D01*
X107830857Y-79928380D02*
X108497523Y-79928380D01*
X108068952Y-80928380D01*
%TO.C,D36*%
X197159714Y-138224380D02*
X197159714Y-137224380D01*
X197397809Y-137224380D01*
X197540666Y-137272000D01*
X197635904Y-137367238D01*
X197683523Y-137462476D01*
X197731142Y-137652952D01*
X197731142Y-137795809D01*
X197683523Y-137986285D01*
X197635904Y-138081523D01*
X197540666Y-138176761D01*
X197397809Y-138224380D01*
X197159714Y-138224380D01*
X198064476Y-137224380D02*
X198683523Y-137224380D01*
X198350190Y-137605333D01*
X198493047Y-137605333D01*
X198588285Y-137652952D01*
X198635904Y-137700571D01*
X198683523Y-137795809D01*
X198683523Y-138033904D01*
X198635904Y-138129142D01*
X198588285Y-138176761D01*
X198493047Y-138224380D01*
X198207333Y-138224380D01*
X198112095Y-138176761D01*
X198064476Y-138129142D01*
X199540666Y-137224380D02*
X199350190Y-137224380D01*
X199254952Y-137272000D01*
X199207333Y-137319619D01*
X199112095Y-137462476D01*
X199064476Y-137652952D01*
X199064476Y-138033904D01*
X199112095Y-138129142D01*
X199159714Y-138176761D01*
X199254952Y-138224380D01*
X199445428Y-138224380D01*
X199540666Y-138176761D01*
X199588285Y-138129142D01*
X199635904Y-138033904D01*
X199635904Y-137795809D01*
X199588285Y-137700571D01*
X199540666Y-137652952D01*
X199445428Y-137605333D01*
X199254952Y-137605333D01*
X199159714Y-137652952D01*
X199112095Y-137700571D01*
X199064476Y-137795809D01*
%TO.C,D35*%
X199191714Y-53896380D02*
X199191714Y-52896380D01*
X199429809Y-52896380D01*
X199572666Y-52944000D01*
X199667904Y-53039238D01*
X199715523Y-53134476D01*
X199763142Y-53324952D01*
X199763142Y-53467809D01*
X199715523Y-53658285D01*
X199667904Y-53753523D01*
X199572666Y-53848761D01*
X199429809Y-53896380D01*
X199191714Y-53896380D01*
X200096476Y-52896380D02*
X200715523Y-52896380D01*
X200382190Y-53277333D01*
X200525047Y-53277333D01*
X200620285Y-53324952D01*
X200667904Y-53372571D01*
X200715523Y-53467809D01*
X200715523Y-53705904D01*
X200667904Y-53801142D01*
X200620285Y-53848761D01*
X200525047Y-53896380D01*
X200239333Y-53896380D01*
X200144095Y-53848761D01*
X200096476Y-53801142D01*
X201620285Y-52896380D02*
X201144095Y-52896380D01*
X201096476Y-53372571D01*
X201144095Y-53324952D01*
X201239333Y-53277333D01*
X201477428Y-53277333D01*
X201572666Y-53324952D01*
X201620285Y-53372571D01*
X201667904Y-53467809D01*
X201667904Y-53705904D01*
X201620285Y-53801142D01*
X201572666Y-53848761D01*
X201477428Y-53896380D01*
X201239333Y-53896380D01*
X201144095Y-53848761D01*
X201096476Y-53801142D01*
%TO.C,D34*%
X152201714Y-35504380D02*
X152201714Y-34504380D01*
X152439809Y-34504380D01*
X152582666Y-34552000D01*
X152677904Y-34647238D01*
X152725523Y-34742476D01*
X152773142Y-34932952D01*
X152773142Y-35075809D01*
X152725523Y-35266285D01*
X152677904Y-35361523D01*
X152582666Y-35456761D01*
X152439809Y-35504380D01*
X152201714Y-35504380D01*
X153106476Y-34504380D02*
X153725523Y-34504380D01*
X153392190Y-34885333D01*
X153535047Y-34885333D01*
X153630285Y-34932952D01*
X153677904Y-34980571D01*
X153725523Y-35075809D01*
X153725523Y-35313904D01*
X153677904Y-35409142D01*
X153630285Y-35456761D01*
X153535047Y-35504380D01*
X153249333Y-35504380D01*
X153154095Y-35456761D01*
X153106476Y-35409142D01*
X154582666Y-34837714D02*
X154582666Y-35504380D01*
X154344571Y-34456761D02*
X154106476Y-35171047D01*
X154725523Y-35171047D01*
%TO.C,D33*%
X76763714Y-67612380D02*
X76763714Y-66612380D01*
X77001809Y-66612380D01*
X77144666Y-66660000D01*
X77239904Y-66755238D01*
X77287523Y-66850476D01*
X77335142Y-67040952D01*
X77335142Y-67183809D01*
X77287523Y-67374285D01*
X77239904Y-67469523D01*
X77144666Y-67564761D01*
X77001809Y-67612380D01*
X76763714Y-67612380D01*
X77668476Y-66612380D02*
X78287523Y-66612380D01*
X77954190Y-66993333D01*
X78097047Y-66993333D01*
X78192285Y-67040952D01*
X78239904Y-67088571D01*
X78287523Y-67183809D01*
X78287523Y-67421904D01*
X78239904Y-67517142D01*
X78192285Y-67564761D01*
X78097047Y-67612380D01*
X77811333Y-67612380D01*
X77716095Y-67564761D01*
X77668476Y-67517142D01*
X78620857Y-66612380D02*
X79239904Y-66612380D01*
X78906571Y-66993333D01*
X79049428Y-66993333D01*
X79144666Y-67040952D01*
X79192285Y-67088571D01*
X79239904Y-67183809D01*
X79239904Y-67421904D01*
X79192285Y-67517142D01*
X79144666Y-67564761D01*
X79049428Y-67612380D01*
X78763714Y-67612380D01*
X78668476Y-67564761D01*
X78620857Y-67517142D01*
%TO.C,D32*%
X107132380Y-112466285D02*
X106132380Y-112466285D01*
X106132380Y-112228190D01*
X106180000Y-112085333D01*
X106275238Y-111990095D01*
X106370476Y-111942476D01*
X106560952Y-111894857D01*
X106703809Y-111894857D01*
X106894285Y-111942476D01*
X106989523Y-111990095D01*
X107084761Y-112085333D01*
X107132380Y-112228190D01*
X107132380Y-112466285D01*
X106132380Y-111561523D02*
X106132380Y-110942476D01*
X106513333Y-111275809D01*
X106513333Y-111132952D01*
X106560952Y-111037714D01*
X106608571Y-110990095D01*
X106703809Y-110942476D01*
X106941904Y-110942476D01*
X107037142Y-110990095D01*
X107084761Y-111037714D01*
X107132380Y-111132952D01*
X107132380Y-111418666D01*
X107084761Y-111513904D01*
X107037142Y-111561523D01*
X106227619Y-110561523D02*
X106180000Y-110513904D01*
X106132380Y-110418666D01*
X106132380Y-110180571D01*
X106180000Y-110085333D01*
X106227619Y-110037714D01*
X106322857Y-109990095D01*
X106418095Y-109990095D01*
X106560952Y-110037714D01*
X107132380Y-110609142D01*
X107132380Y-109990095D01*
%TO.C,D31*%
X90876380Y-135326285D02*
X89876380Y-135326285D01*
X89876380Y-135088190D01*
X89924000Y-134945333D01*
X90019238Y-134850095D01*
X90114476Y-134802476D01*
X90304952Y-134754857D01*
X90447809Y-134754857D01*
X90638285Y-134802476D01*
X90733523Y-134850095D01*
X90828761Y-134945333D01*
X90876380Y-135088190D01*
X90876380Y-135326285D01*
X89876380Y-134421523D02*
X89876380Y-133802476D01*
X90257333Y-134135809D01*
X90257333Y-133992952D01*
X90304952Y-133897714D01*
X90352571Y-133850095D01*
X90447809Y-133802476D01*
X90685904Y-133802476D01*
X90781142Y-133850095D01*
X90828761Y-133897714D01*
X90876380Y-133992952D01*
X90876380Y-134278666D01*
X90828761Y-134373904D01*
X90781142Y-134421523D01*
X90876380Y-132850095D02*
X90876380Y-133421523D01*
X90876380Y-133135809D02*
X89876380Y-133135809D01*
X90019238Y-133231047D01*
X90114476Y-133326285D01*
X90162095Y-133421523D01*
%TO.C,D30*%
X116996380Y-89098285D02*
X115996380Y-89098285D01*
X115996380Y-88860190D01*
X116044000Y-88717333D01*
X116139238Y-88622095D01*
X116234476Y-88574476D01*
X116424952Y-88526857D01*
X116567809Y-88526857D01*
X116758285Y-88574476D01*
X116853523Y-88622095D01*
X116948761Y-88717333D01*
X116996380Y-88860190D01*
X116996380Y-89098285D01*
X115996380Y-88193523D02*
X115996380Y-87574476D01*
X116377333Y-87907809D01*
X116377333Y-87764952D01*
X116424952Y-87669714D01*
X116472571Y-87622095D01*
X116567809Y-87574476D01*
X116805904Y-87574476D01*
X116901142Y-87622095D01*
X116948761Y-87669714D01*
X116996380Y-87764952D01*
X116996380Y-88050666D01*
X116948761Y-88145904D01*
X116901142Y-88193523D01*
X115996380Y-86955428D02*
X115996380Y-86860190D01*
X116044000Y-86764952D01*
X116091619Y-86717333D01*
X116186857Y-86669714D01*
X116377333Y-86622095D01*
X116615428Y-86622095D01*
X116805904Y-86669714D01*
X116901142Y-86717333D01*
X116948761Y-86764952D01*
X116996380Y-86860190D01*
X116996380Y-86955428D01*
X116948761Y-87050666D01*
X116901142Y-87098285D01*
X116805904Y-87145904D01*
X116615428Y-87193523D01*
X116377333Y-87193523D01*
X116186857Y-87145904D01*
X116091619Y-87098285D01*
X116044000Y-87050666D01*
X115996380Y-86955428D01*
%TO.C,D29*%
X141025714Y-161784380D02*
X141025714Y-160784380D01*
X141263809Y-160784380D01*
X141406666Y-160832000D01*
X141501904Y-160927238D01*
X141549523Y-161022476D01*
X141597142Y-161212952D01*
X141597142Y-161355809D01*
X141549523Y-161546285D01*
X141501904Y-161641523D01*
X141406666Y-161736761D01*
X141263809Y-161784380D01*
X141025714Y-161784380D01*
X141978095Y-160879619D02*
X142025714Y-160832000D01*
X142120952Y-160784380D01*
X142359047Y-160784380D01*
X142454285Y-160832000D01*
X142501904Y-160879619D01*
X142549523Y-160974857D01*
X142549523Y-161070095D01*
X142501904Y-161212952D01*
X141930476Y-161784380D01*
X142549523Y-161784380D01*
X143025714Y-161784380D02*
X143216190Y-161784380D01*
X143311428Y-161736761D01*
X143359047Y-161689142D01*
X143454285Y-161546285D01*
X143501904Y-161355809D01*
X143501904Y-160974857D01*
X143454285Y-160879619D01*
X143406666Y-160832000D01*
X143311428Y-160784380D01*
X143120952Y-160784380D01*
X143025714Y-160832000D01*
X142978095Y-160879619D01*
X142930476Y-160974857D01*
X142930476Y-161212952D01*
X142978095Y-161308190D01*
X143025714Y-161355809D01*
X143120952Y-161403428D01*
X143311428Y-161403428D01*
X143406666Y-161355809D01*
X143454285Y-161308190D01*
X143501904Y-161212952D01*
%TO.C,D28*%
X146756380Y-44394285D02*
X145756380Y-44394285D01*
X145756380Y-44156190D01*
X145804000Y-44013333D01*
X145899238Y-43918095D01*
X145994476Y-43870476D01*
X146184952Y-43822857D01*
X146327809Y-43822857D01*
X146518285Y-43870476D01*
X146613523Y-43918095D01*
X146708761Y-44013333D01*
X146756380Y-44156190D01*
X146756380Y-44394285D01*
X145851619Y-43441904D02*
X145804000Y-43394285D01*
X145756380Y-43299047D01*
X145756380Y-43060952D01*
X145804000Y-42965714D01*
X145851619Y-42918095D01*
X145946857Y-42870476D01*
X146042095Y-42870476D01*
X146184952Y-42918095D01*
X146756380Y-43489523D01*
X146756380Y-42870476D01*
X146184952Y-42299047D02*
X146137333Y-42394285D01*
X146089714Y-42441904D01*
X145994476Y-42489523D01*
X145946857Y-42489523D01*
X145851619Y-42441904D01*
X145804000Y-42394285D01*
X145756380Y-42299047D01*
X145756380Y-42108571D01*
X145804000Y-42013333D01*
X145851619Y-41965714D01*
X145946857Y-41918095D01*
X145994476Y-41918095D01*
X146089714Y-41965714D01*
X146137333Y-42013333D01*
X146184952Y-42108571D01*
X146184952Y-42299047D01*
X146232571Y-42394285D01*
X146280190Y-42441904D01*
X146375428Y-42489523D01*
X146565904Y-42489523D01*
X146661142Y-42441904D01*
X146708761Y-42394285D01*
X146756380Y-42299047D01*
X146756380Y-42108571D01*
X146708761Y-42013333D01*
X146661142Y-41965714D01*
X146565904Y-41918095D01*
X146375428Y-41918095D01*
X146280190Y-41965714D01*
X146232571Y-42013333D01*
X146184952Y-42108571D01*
%TO.C,D27*%
X174045714Y-126436380D02*
X174045714Y-125436380D01*
X174283809Y-125436380D01*
X174426666Y-125484000D01*
X174521904Y-125579238D01*
X174569523Y-125674476D01*
X174617142Y-125864952D01*
X174617142Y-126007809D01*
X174569523Y-126198285D01*
X174521904Y-126293523D01*
X174426666Y-126388761D01*
X174283809Y-126436380D01*
X174045714Y-126436380D01*
X174998095Y-125531619D02*
X175045714Y-125484000D01*
X175140952Y-125436380D01*
X175379047Y-125436380D01*
X175474285Y-125484000D01*
X175521904Y-125531619D01*
X175569523Y-125626857D01*
X175569523Y-125722095D01*
X175521904Y-125864952D01*
X174950476Y-126436380D01*
X175569523Y-126436380D01*
X175902857Y-125436380D02*
X176569523Y-125436380D01*
X176140952Y-126436380D01*
%TO.C,D26*%
X86415714Y-51356380D02*
X86415714Y-50356380D01*
X86653809Y-50356380D01*
X86796666Y-50404000D01*
X86891904Y-50499238D01*
X86939523Y-50594476D01*
X86987142Y-50784952D01*
X86987142Y-50927809D01*
X86939523Y-51118285D01*
X86891904Y-51213523D01*
X86796666Y-51308761D01*
X86653809Y-51356380D01*
X86415714Y-51356380D01*
X87368095Y-50451619D02*
X87415714Y-50404000D01*
X87510952Y-50356380D01*
X87749047Y-50356380D01*
X87844285Y-50404000D01*
X87891904Y-50451619D01*
X87939523Y-50546857D01*
X87939523Y-50642095D01*
X87891904Y-50784952D01*
X87320476Y-51356380D01*
X87939523Y-51356380D01*
X88796666Y-50356380D02*
X88606190Y-50356380D01*
X88510952Y-50404000D01*
X88463333Y-50451619D01*
X88368095Y-50594476D01*
X88320476Y-50784952D01*
X88320476Y-51165904D01*
X88368095Y-51261142D01*
X88415714Y-51308761D01*
X88510952Y-51356380D01*
X88701428Y-51356380D01*
X88796666Y-51308761D01*
X88844285Y-51261142D01*
X88891904Y-51165904D01*
X88891904Y-50927809D01*
X88844285Y-50832571D01*
X88796666Y-50784952D01*
X88701428Y-50737333D01*
X88510952Y-50737333D01*
X88415714Y-50784952D01*
X88368095Y-50832571D01*
X88320476Y-50927809D01*
%TO.C,D25*%
X74731714Y-118920380D02*
X74731714Y-117920380D01*
X74969809Y-117920380D01*
X75112666Y-117968000D01*
X75207904Y-118063238D01*
X75255523Y-118158476D01*
X75303142Y-118348952D01*
X75303142Y-118491809D01*
X75255523Y-118682285D01*
X75207904Y-118777523D01*
X75112666Y-118872761D01*
X74969809Y-118920380D01*
X74731714Y-118920380D01*
X75684095Y-118015619D02*
X75731714Y-117968000D01*
X75826952Y-117920380D01*
X76065047Y-117920380D01*
X76160285Y-117968000D01*
X76207904Y-118015619D01*
X76255523Y-118110857D01*
X76255523Y-118206095D01*
X76207904Y-118348952D01*
X75636476Y-118920380D01*
X76255523Y-118920380D01*
X77160285Y-117920380D02*
X76684095Y-117920380D01*
X76636476Y-118396571D01*
X76684095Y-118348952D01*
X76779333Y-118301333D01*
X77017428Y-118301333D01*
X77112666Y-118348952D01*
X77160285Y-118396571D01*
X77207904Y-118491809D01*
X77207904Y-118729904D01*
X77160285Y-118825142D01*
X77112666Y-118872761D01*
X77017428Y-118920380D01*
X76779333Y-118920380D01*
X76684095Y-118872761D01*
X76636476Y-118825142D01*
%TO.C,D24*%
X122483714Y-143304380D02*
X122483714Y-142304380D01*
X122721809Y-142304380D01*
X122864666Y-142352000D01*
X122959904Y-142447238D01*
X123007523Y-142542476D01*
X123055142Y-142732952D01*
X123055142Y-142875809D01*
X123007523Y-143066285D01*
X122959904Y-143161523D01*
X122864666Y-143256761D01*
X122721809Y-143304380D01*
X122483714Y-143304380D01*
X123436095Y-142399619D02*
X123483714Y-142352000D01*
X123578952Y-142304380D01*
X123817047Y-142304380D01*
X123912285Y-142352000D01*
X123959904Y-142399619D01*
X124007523Y-142494857D01*
X124007523Y-142590095D01*
X123959904Y-142732952D01*
X123388476Y-143304380D01*
X124007523Y-143304380D01*
X124864666Y-142637714D02*
X124864666Y-143304380D01*
X124626571Y-142256761D02*
X124388476Y-142971047D01*
X125007523Y-142971047D01*
%TO.C,D23*%
X207319714Y-121460380D02*
X207319714Y-120460380D01*
X207557809Y-120460380D01*
X207700666Y-120508000D01*
X207795904Y-120603238D01*
X207843523Y-120698476D01*
X207891142Y-120888952D01*
X207891142Y-121031809D01*
X207843523Y-121222285D01*
X207795904Y-121317523D01*
X207700666Y-121412761D01*
X207557809Y-121460380D01*
X207319714Y-121460380D01*
X208272095Y-120555619D02*
X208319714Y-120508000D01*
X208414952Y-120460380D01*
X208653047Y-120460380D01*
X208748285Y-120508000D01*
X208795904Y-120555619D01*
X208843523Y-120650857D01*
X208843523Y-120746095D01*
X208795904Y-120888952D01*
X208224476Y-121460380D01*
X208843523Y-121460380D01*
X209176857Y-120460380D02*
X209795904Y-120460380D01*
X209462571Y-120841333D01*
X209605428Y-120841333D01*
X209700666Y-120888952D01*
X209748285Y-120936571D01*
X209795904Y-121031809D01*
X209795904Y-121269904D01*
X209748285Y-121365142D01*
X209700666Y-121412761D01*
X209605428Y-121460380D01*
X209319714Y-121460380D01*
X209224476Y-121412761D01*
X209176857Y-121365142D01*
%TO.C,D22*%
X178581214Y-89352380D02*
X178581214Y-88352380D01*
X178819309Y-88352380D01*
X178962166Y-88400000D01*
X179057404Y-88495238D01*
X179105023Y-88590476D01*
X179152642Y-88780952D01*
X179152642Y-88923809D01*
X179105023Y-89114285D01*
X179057404Y-89209523D01*
X178962166Y-89304761D01*
X178819309Y-89352380D01*
X178581214Y-89352380D01*
X179533595Y-88447619D02*
X179581214Y-88400000D01*
X179676452Y-88352380D01*
X179914547Y-88352380D01*
X180009785Y-88400000D01*
X180057404Y-88447619D01*
X180105023Y-88542857D01*
X180105023Y-88638095D01*
X180057404Y-88780952D01*
X179485976Y-89352380D01*
X180105023Y-89352380D01*
X180485976Y-88447619D02*
X180533595Y-88400000D01*
X180628833Y-88352380D01*
X180866928Y-88352380D01*
X180962166Y-88400000D01*
X181009785Y-88447619D01*
X181057404Y-88542857D01*
X181057404Y-88638095D01*
X181009785Y-88780952D01*
X180438357Y-89352380D01*
X181057404Y-89352380D01*
%TO.C,D21*%
X194975314Y-85316180D02*
X194975314Y-84316180D01*
X195213409Y-84316180D01*
X195356266Y-84363800D01*
X195451504Y-84459038D01*
X195499123Y-84554276D01*
X195546742Y-84744752D01*
X195546742Y-84887609D01*
X195499123Y-85078085D01*
X195451504Y-85173323D01*
X195356266Y-85268561D01*
X195213409Y-85316180D01*
X194975314Y-85316180D01*
X195927695Y-84411419D02*
X195975314Y-84363800D01*
X196070552Y-84316180D01*
X196308647Y-84316180D01*
X196403885Y-84363800D01*
X196451504Y-84411419D01*
X196499123Y-84506657D01*
X196499123Y-84601895D01*
X196451504Y-84744752D01*
X195880076Y-85316180D01*
X196499123Y-85316180D01*
X197451504Y-85316180D02*
X196880076Y-85316180D01*
X197165790Y-85316180D02*
X197165790Y-84316180D01*
X197070552Y-84459038D01*
X196975314Y-84554276D01*
X196880076Y-84601895D01*
%TO.C,D20*%
X165917714Y-100232380D02*
X165917714Y-99232380D01*
X166155809Y-99232380D01*
X166298666Y-99280000D01*
X166393904Y-99375238D01*
X166441523Y-99470476D01*
X166489142Y-99660952D01*
X166489142Y-99803809D01*
X166441523Y-99994285D01*
X166393904Y-100089523D01*
X166298666Y-100184761D01*
X166155809Y-100232380D01*
X165917714Y-100232380D01*
X166870095Y-99327619D02*
X166917714Y-99280000D01*
X167012952Y-99232380D01*
X167251047Y-99232380D01*
X167346285Y-99280000D01*
X167393904Y-99327619D01*
X167441523Y-99422857D01*
X167441523Y-99518095D01*
X167393904Y-99660952D01*
X166822476Y-100232380D01*
X167441523Y-100232380D01*
X168060571Y-99232380D02*
X168155809Y-99232380D01*
X168251047Y-99280000D01*
X168298666Y-99327619D01*
X168346285Y-99422857D01*
X168393904Y-99613333D01*
X168393904Y-99851428D01*
X168346285Y-100041904D01*
X168298666Y-100137142D01*
X168251047Y-100184761D01*
X168155809Y-100232380D01*
X168060571Y-100232380D01*
X167965333Y-100184761D01*
X167917714Y-100137142D01*
X167870095Y-100041904D01*
X167822476Y-99851428D01*
X167822476Y-99613333D01*
X167870095Y-99422857D01*
X167917714Y-99327619D01*
X167965333Y-99280000D01*
X168060571Y-99232380D01*
%TO.C,D19*%
X91749714Y-126732380D02*
X91749714Y-125732380D01*
X91987809Y-125732380D01*
X92130666Y-125780000D01*
X92225904Y-125875238D01*
X92273523Y-125970476D01*
X92321142Y-126160952D01*
X92321142Y-126303809D01*
X92273523Y-126494285D01*
X92225904Y-126589523D01*
X92130666Y-126684761D01*
X91987809Y-126732380D01*
X91749714Y-126732380D01*
X93273523Y-126732380D02*
X92702095Y-126732380D01*
X92987809Y-126732380D02*
X92987809Y-125732380D01*
X92892571Y-125875238D01*
X92797333Y-125970476D01*
X92702095Y-126018095D01*
X93749714Y-126732380D02*
X93940190Y-126732380D01*
X94035428Y-126684761D01*
X94083047Y-126637142D01*
X94178285Y-126494285D01*
X94225904Y-126303809D01*
X94225904Y-125922857D01*
X94178285Y-125827619D01*
X94130666Y-125780000D01*
X94035428Y-125732380D01*
X93844952Y-125732380D01*
X93749714Y-125780000D01*
X93702095Y-125827619D01*
X93654476Y-125922857D01*
X93654476Y-126160952D01*
X93702095Y-126256190D01*
X93749714Y-126303809D01*
X93844952Y-126351428D01*
X94035428Y-126351428D01*
X94130666Y-126303809D01*
X94178285Y-126256190D01*
X94225904Y-126160952D01*
%TO.C,D18*%
X188777714Y-127960380D02*
X188777714Y-126960380D01*
X189015809Y-126960380D01*
X189158666Y-127008000D01*
X189253904Y-127103238D01*
X189301523Y-127198476D01*
X189349142Y-127388952D01*
X189349142Y-127531809D01*
X189301523Y-127722285D01*
X189253904Y-127817523D01*
X189158666Y-127912761D01*
X189015809Y-127960380D01*
X188777714Y-127960380D01*
X190301523Y-127960380D02*
X189730095Y-127960380D01*
X190015809Y-127960380D02*
X190015809Y-126960380D01*
X189920571Y-127103238D01*
X189825333Y-127198476D01*
X189730095Y-127246095D01*
X190872952Y-127388952D02*
X190777714Y-127341333D01*
X190730095Y-127293714D01*
X190682476Y-127198476D01*
X190682476Y-127150857D01*
X190730095Y-127055619D01*
X190777714Y-127008000D01*
X190872952Y-126960380D01*
X191063428Y-126960380D01*
X191158666Y-127008000D01*
X191206285Y-127055619D01*
X191253904Y-127150857D01*
X191253904Y-127198476D01*
X191206285Y-127293714D01*
X191158666Y-127341333D01*
X191063428Y-127388952D01*
X190872952Y-127388952D01*
X190777714Y-127436571D01*
X190730095Y-127484190D01*
X190682476Y-127579428D01*
X190682476Y-127769904D01*
X190730095Y-127865142D01*
X190777714Y-127912761D01*
X190872952Y-127960380D01*
X191063428Y-127960380D01*
X191158666Y-127912761D01*
X191206285Y-127865142D01*
X191253904Y-127769904D01*
X191253904Y-127579428D01*
X191206285Y-127484190D01*
X191158666Y-127436571D01*
X191063428Y-127388952D01*
%TO.C,D17*%
X120669214Y-117080380D02*
X120669214Y-116080380D01*
X120907309Y-116080380D01*
X121050166Y-116128000D01*
X121145404Y-116223238D01*
X121193023Y-116318476D01*
X121240642Y-116508952D01*
X121240642Y-116651809D01*
X121193023Y-116842285D01*
X121145404Y-116937523D01*
X121050166Y-117032761D01*
X120907309Y-117080380D01*
X120669214Y-117080380D01*
X122193023Y-117080380D02*
X121621595Y-117080380D01*
X121907309Y-117080380D02*
X121907309Y-116080380D01*
X121812071Y-116223238D01*
X121716833Y-116318476D01*
X121621595Y-116366095D01*
X122526357Y-116080380D02*
X123193023Y-116080380D01*
X122764452Y-117080380D01*
%TO.C,D16*%
X210367714Y-70660380D02*
X210367714Y-69660380D01*
X210605809Y-69660380D01*
X210748666Y-69708000D01*
X210843904Y-69803238D01*
X210891523Y-69898476D01*
X210939142Y-70088952D01*
X210939142Y-70231809D01*
X210891523Y-70422285D01*
X210843904Y-70517523D01*
X210748666Y-70612761D01*
X210605809Y-70660380D01*
X210367714Y-70660380D01*
X211891523Y-70660380D02*
X211320095Y-70660380D01*
X211605809Y-70660380D02*
X211605809Y-69660380D01*
X211510571Y-69803238D01*
X211415333Y-69898476D01*
X211320095Y-69946095D01*
X212748666Y-69660380D02*
X212558190Y-69660380D01*
X212462952Y-69708000D01*
X212415333Y-69755619D01*
X212320095Y-69898476D01*
X212272476Y-70088952D01*
X212272476Y-70469904D01*
X212320095Y-70565142D01*
X212367714Y-70612761D01*
X212462952Y-70660380D01*
X212653428Y-70660380D01*
X212748666Y-70612761D01*
X212796285Y-70565142D01*
X212843904Y-70469904D01*
X212843904Y-70231809D01*
X212796285Y-70136571D01*
X212748666Y-70088952D01*
X212653428Y-70041333D01*
X212462952Y-70041333D01*
X212367714Y-70088952D01*
X212320095Y-70136571D01*
X212272476Y-70231809D01*
%TO.C,D15*%
X149915714Y-161084380D02*
X149915714Y-160084380D01*
X150153809Y-160084380D01*
X150296666Y-160132000D01*
X150391904Y-160227238D01*
X150439523Y-160322476D01*
X150487142Y-160512952D01*
X150487142Y-160655809D01*
X150439523Y-160846285D01*
X150391904Y-160941523D01*
X150296666Y-161036761D01*
X150153809Y-161084380D01*
X149915714Y-161084380D01*
X151439523Y-161084380D02*
X150868095Y-161084380D01*
X151153809Y-161084380D02*
X151153809Y-160084380D01*
X151058571Y-160227238D01*
X150963333Y-160322476D01*
X150868095Y-160370095D01*
X152344285Y-160084380D02*
X151868095Y-160084380D01*
X151820476Y-160560571D01*
X151868095Y-160512952D01*
X151963333Y-160465333D01*
X152201428Y-160465333D01*
X152296666Y-160512952D01*
X152344285Y-160560571D01*
X152391904Y-160655809D01*
X152391904Y-160893904D01*
X152344285Y-160989142D01*
X152296666Y-161036761D01*
X152201428Y-161084380D01*
X151963333Y-161084380D01*
X151868095Y-161036761D01*
X151820476Y-160989142D01*
%TO.C,D14*%
X88955714Y-103172380D02*
X88955714Y-102172380D01*
X89193809Y-102172380D01*
X89336666Y-102220000D01*
X89431904Y-102315238D01*
X89479523Y-102410476D01*
X89527142Y-102600952D01*
X89527142Y-102743809D01*
X89479523Y-102934285D01*
X89431904Y-103029523D01*
X89336666Y-103124761D01*
X89193809Y-103172380D01*
X88955714Y-103172380D01*
X90479523Y-103172380D02*
X89908095Y-103172380D01*
X90193809Y-103172380D02*
X90193809Y-102172380D01*
X90098571Y-102315238D01*
X90003333Y-102410476D01*
X89908095Y-102458095D01*
X91336666Y-102505714D02*
X91336666Y-103172380D01*
X91098571Y-102124761D02*
X90860476Y-102839047D01*
X91479523Y-102839047D01*
%TO.C,D13*%
X107243714Y-55928380D02*
X107243714Y-54928380D01*
X107481809Y-54928380D01*
X107624666Y-54976000D01*
X107719904Y-55071238D01*
X107767523Y-55166476D01*
X107815142Y-55356952D01*
X107815142Y-55499809D01*
X107767523Y-55690285D01*
X107719904Y-55785523D01*
X107624666Y-55880761D01*
X107481809Y-55928380D01*
X107243714Y-55928380D01*
X108767523Y-55928380D02*
X108196095Y-55928380D01*
X108481809Y-55928380D02*
X108481809Y-54928380D01*
X108386571Y-55071238D01*
X108291333Y-55166476D01*
X108196095Y-55214095D01*
X109100857Y-54928380D02*
X109719904Y-54928380D01*
X109386571Y-55309333D01*
X109529428Y-55309333D01*
X109624666Y-55356952D01*
X109672285Y-55404571D01*
X109719904Y-55499809D01*
X109719904Y-55737904D01*
X109672285Y-55833142D01*
X109624666Y-55880761D01*
X109529428Y-55928380D01*
X109243714Y-55928380D01*
X109148476Y-55880761D01*
X109100857Y-55833142D01*
%TO.C,D12*%
X119324380Y-101290285D02*
X118324380Y-101290285D01*
X118324380Y-101052190D01*
X118372000Y-100909333D01*
X118467238Y-100814095D01*
X118562476Y-100766476D01*
X118752952Y-100718857D01*
X118895809Y-100718857D01*
X119086285Y-100766476D01*
X119181523Y-100814095D01*
X119276761Y-100909333D01*
X119324380Y-101052190D01*
X119324380Y-101290285D01*
X119324380Y-99766476D02*
X119324380Y-100337904D01*
X119324380Y-100052190D02*
X118324380Y-100052190D01*
X118467238Y-100147428D01*
X118562476Y-100242666D01*
X118610095Y-100337904D01*
X118419619Y-99385523D02*
X118372000Y-99337904D01*
X118324380Y-99242666D01*
X118324380Y-99004571D01*
X118372000Y-98909333D01*
X118419619Y-98861714D01*
X118514857Y-98814095D01*
X118610095Y-98814095D01*
X118752952Y-98861714D01*
X119324380Y-99433142D01*
X119324380Y-98814095D01*
%TO.C,D11*%
X157789714Y-55316380D02*
X157789714Y-54316380D01*
X158027809Y-54316380D01*
X158170666Y-54364000D01*
X158265904Y-54459238D01*
X158313523Y-54554476D01*
X158361142Y-54744952D01*
X158361142Y-54887809D01*
X158313523Y-55078285D01*
X158265904Y-55173523D01*
X158170666Y-55268761D01*
X158027809Y-55316380D01*
X157789714Y-55316380D01*
X159313523Y-55316380D02*
X158742095Y-55316380D01*
X159027809Y-55316380D02*
X159027809Y-54316380D01*
X158932571Y-54459238D01*
X158837333Y-54554476D01*
X158742095Y-54602095D01*
X160265904Y-55316380D02*
X159694476Y-55316380D01*
X159980190Y-55316380D02*
X159980190Y-54316380D01*
X159884952Y-54459238D01*
X159789714Y-54554476D01*
X159694476Y-54602095D01*
%TO.C,D10*%
X109566214Y-74916380D02*
X109566214Y-73916380D01*
X109804309Y-73916380D01*
X109947166Y-73964000D01*
X110042404Y-74059238D01*
X110090023Y-74154476D01*
X110137642Y-74344952D01*
X110137642Y-74487809D01*
X110090023Y-74678285D01*
X110042404Y-74773523D01*
X109947166Y-74868761D01*
X109804309Y-74916380D01*
X109566214Y-74916380D01*
X111090023Y-74916380D02*
X110518595Y-74916380D01*
X110804309Y-74916380D02*
X110804309Y-73916380D01*
X110709071Y-74059238D01*
X110613833Y-74154476D01*
X110518595Y-74202095D01*
X111709071Y-73916380D02*
X111804309Y-73916380D01*
X111899547Y-73964000D01*
X111947166Y-74011619D01*
X111994785Y-74106857D01*
X112042404Y-74297333D01*
X112042404Y-74535428D01*
X111994785Y-74725904D01*
X111947166Y-74821142D01*
X111899547Y-74868761D01*
X111804309Y-74916380D01*
X111709071Y-74916380D01*
X111613833Y-74868761D01*
X111566214Y-74821142D01*
X111518595Y-74725904D01*
X111470976Y-74535428D01*
X111470976Y-74297333D01*
X111518595Y-74106857D01*
X111566214Y-74011619D01*
X111613833Y-73964000D01*
X111709071Y-73916380D01*
%TO.C,D9*%
X123721904Y-107428380D02*
X123721904Y-106428380D01*
X123960000Y-106428380D01*
X124102857Y-106476000D01*
X124198095Y-106571238D01*
X124245714Y-106666476D01*
X124293333Y-106856952D01*
X124293333Y-106999809D01*
X124245714Y-107190285D01*
X124198095Y-107285523D01*
X124102857Y-107380761D01*
X123960000Y-107428380D01*
X123721904Y-107428380D01*
X124769523Y-107428380D02*
X124960000Y-107428380D01*
X125055238Y-107380761D01*
X125102857Y-107333142D01*
X125198095Y-107190285D01*
X125245714Y-106999809D01*
X125245714Y-106618857D01*
X125198095Y-106523619D01*
X125150476Y-106476000D01*
X125055238Y-106428380D01*
X124864761Y-106428380D01*
X124769523Y-106476000D01*
X124721904Y-106523619D01*
X124674285Y-106618857D01*
X124674285Y-106856952D01*
X124721904Y-106952190D01*
X124769523Y-106999809D01*
X124864761Y-107047428D01*
X125055238Y-107047428D01*
X125150476Y-106999809D01*
X125198095Y-106952190D01*
X125245714Y-106856952D01*
%TO.C,D8*%
X158265904Y-115048380D02*
X158265904Y-114048380D01*
X158504000Y-114048380D01*
X158646857Y-114096000D01*
X158742095Y-114191238D01*
X158789714Y-114286476D01*
X158837333Y-114476952D01*
X158837333Y-114619809D01*
X158789714Y-114810285D01*
X158742095Y-114905523D01*
X158646857Y-115000761D01*
X158504000Y-115048380D01*
X158265904Y-115048380D01*
X159408761Y-114476952D02*
X159313523Y-114429333D01*
X159265904Y-114381714D01*
X159218285Y-114286476D01*
X159218285Y-114238857D01*
X159265904Y-114143619D01*
X159313523Y-114096000D01*
X159408761Y-114048380D01*
X159599238Y-114048380D01*
X159694476Y-114096000D01*
X159742095Y-114143619D01*
X159789714Y-114238857D01*
X159789714Y-114286476D01*
X159742095Y-114381714D01*
X159694476Y-114429333D01*
X159599238Y-114476952D01*
X159408761Y-114476952D01*
X159313523Y-114524571D01*
X159265904Y-114572190D01*
X159218285Y-114667428D01*
X159218285Y-114857904D01*
X159265904Y-114953142D01*
X159313523Y-115000761D01*
X159408761Y-115048380D01*
X159599238Y-115048380D01*
X159694476Y-115000761D01*
X159742095Y-114953142D01*
X159789714Y-114857904D01*
X159789714Y-114667428D01*
X159742095Y-114572190D01*
X159694476Y-114524571D01*
X159599238Y-114476952D01*
%TO.C,D7*%
X154201904Y-127240380D02*
X154201904Y-126240380D01*
X154440000Y-126240380D01*
X154582857Y-126288000D01*
X154678095Y-126383238D01*
X154725714Y-126478476D01*
X154773333Y-126668952D01*
X154773333Y-126811809D01*
X154725714Y-127002285D01*
X154678095Y-127097523D01*
X154582857Y-127192761D01*
X154440000Y-127240380D01*
X154201904Y-127240380D01*
X155106666Y-126240380D02*
X155773333Y-126240380D01*
X155344761Y-127240380D01*
%TO.C,D6*%
X127023904Y-45768380D02*
X127023904Y-44768380D01*
X127262000Y-44768380D01*
X127404857Y-44816000D01*
X127500095Y-44911238D01*
X127547714Y-45006476D01*
X127595333Y-45196952D01*
X127595333Y-45339809D01*
X127547714Y-45530285D01*
X127500095Y-45625523D01*
X127404857Y-45720761D01*
X127262000Y-45768380D01*
X127023904Y-45768380D01*
X128452476Y-44768380D02*
X128262000Y-44768380D01*
X128166761Y-44816000D01*
X128119142Y-44863619D01*
X128023904Y-45006476D01*
X127976285Y-45196952D01*
X127976285Y-45577904D01*
X128023904Y-45673142D01*
X128071523Y-45720761D01*
X128166761Y-45768380D01*
X128357238Y-45768380D01*
X128452476Y-45720761D01*
X128500095Y-45673142D01*
X128547714Y-45577904D01*
X128547714Y-45339809D01*
X128500095Y-45244571D01*
X128452476Y-45196952D01*
X128357238Y-45149333D01*
X128166761Y-45149333D01*
X128071523Y-45196952D01*
X128023904Y-45244571D01*
X127976285Y-45339809D01*
%TO.C,D5*%
X93495904Y-80820380D02*
X93495904Y-79820380D01*
X93734000Y-79820380D01*
X93876857Y-79868000D01*
X93972095Y-79963238D01*
X94019714Y-80058476D01*
X94067333Y-80248952D01*
X94067333Y-80391809D01*
X94019714Y-80582285D01*
X93972095Y-80677523D01*
X93876857Y-80772761D01*
X93734000Y-80820380D01*
X93495904Y-80820380D01*
X94972095Y-79820380D02*
X94495904Y-79820380D01*
X94448285Y-80296571D01*
X94495904Y-80248952D01*
X94591142Y-80201333D01*
X94829238Y-80201333D01*
X94924476Y-80248952D01*
X94972095Y-80296571D01*
X95019714Y-80391809D01*
X95019714Y-80629904D01*
X94972095Y-80725142D01*
X94924476Y-80772761D01*
X94829238Y-80820380D01*
X94591142Y-80820380D01*
X94495904Y-80772761D01*
X94448285Y-80725142D01*
%TO.C,D4*%
X105687904Y-140048380D02*
X105687904Y-139048380D01*
X105926000Y-139048380D01*
X106068857Y-139096000D01*
X106164095Y-139191238D01*
X106211714Y-139286476D01*
X106259333Y-139476952D01*
X106259333Y-139619809D01*
X106211714Y-139810285D01*
X106164095Y-139905523D01*
X106068857Y-140000761D01*
X105926000Y-140048380D01*
X105687904Y-140048380D01*
X107116476Y-139381714D02*
X107116476Y-140048380D01*
X106878380Y-139000761D02*
X106640285Y-139715047D01*
X107259333Y-139715047D01*
%TO.C,D3*%
X198976380Y-110720095D02*
X197976380Y-110720095D01*
X197976380Y-110482000D01*
X198024000Y-110339142D01*
X198119238Y-110243904D01*
X198214476Y-110196285D01*
X198404952Y-110148666D01*
X198547809Y-110148666D01*
X198738285Y-110196285D01*
X198833523Y-110243904D01*
X198928761Y-110339142D01*
X198976380Y-110482000D01*
X198976380Y-110720095D01*
X197976380Y-109815333D02*
X197976380Y-109196285D01*
X198357333Y-109529619D01*
X198357333Y-109386761D01*
X198404952Y-109291523D01*
X198452571Y-109243904D01*
X198547809Y-109196285D01*
X198785904Y-109196285D01*
X198881142Y-109243904D01*
X198928761Y-109291523D01*
X198976380Y-109386761D01*
X198976380Y-109672476D01*
X198928761Y-109767714D01*
X198881142Y-109815333D01*
%TO.C,D2*%
X157757904Y-90876380D02*
X157757904Y-89876380D01*
X157996000Y-89876380D01*
X158138857Y-89924000D01*
X158234095Y-90019238D01*
X158281714Y-90114476D01*
X158329333Y-90304952D01*
X158329333Y-90447809D01*
X158281714Y-90638285D01*
X158234095Y-90733523D01*
X158138857Y-90828761D01*
X157996000Y-90876380D01*
X157757904Y-90876380D01*
X158710285Y-89971619D02*
X158757904Y-89924000D01*
X158853142Y-89876380D01*
X159091238Y-89876380D01*
X159186476Y-89924000D01*
X159234095Y-89971619D01*
X159281714Y-90066857D01*
X159281714Y-90162095D01*
X159234095Y-90304952D01*
X158662666Y-90876380D01*
X159281714Y-90876380D01*
%TO.C,D1*%
X178839904Y-65880380D02*
X178839904Y-64880380D01*
X179078000Y-64880380D01*
X179220857Y-64928000D01*
X179316095Y-65023238D01*
X179363714Y-65118476D01*
X179411333Y-65308952D01*
X179411333Y-65451809D01*
X179363714Y-65642285D01*
X179316095Y-65737523D01*
X179220857Y-65832761D01*
X179078000Y-65880380D01*
X178839904Y-65880380D01*
X180363714Y-65880380D02*
X179792285Y-65880380D01*
X180078000Y-65880380D02*
X180078000Y-64880380D01*
X179982761Y-65023238D01*
X179887523Y-65118476D01*
X179792285Y-65166095D01*
%TO.C,C2*%
X162095142Y-84478666D02*
X162142761Y-84526285D01*
X162190380Y-84669142D01*
X162190380Y-84764380D01*
X162142761Y-84907238D01*
X162047523Y-85002476D01*
X161952285Y-85050095D01*
X161761809Y-85097714D01*
X161618952Y-85097714D01*
X161428476Y-85050095D01*
X161333238Y-85002476D01*
X161238000Y-84907238D01*
X161190380Y-84764380D01*
X161190380Y-84669142D01*
X161238000Y-84526285D01*
X161285619Y-84478666D01*
X161285619Y-84097714D02*
X161238000Y-84050095D01*
X161190380Y-83954857D01*
X161190380Y-83716761D01*
X161238000Y-83621523D01*
X161285619Y-83573904D01*
X161380857Y-83526285D01*
X161476095Y-83526285D01*
X161618952Y-83573904D01*
X162190380Y-84145333D01*
X162190380Y-83526285D01*
%TO.C,C1*%
X137843142Y-109386666D02*
X137890761Y-109434285D01*
X137938380Y-109577142D01*
X137938380Y-109672380D01*
X137890761Y-109815238D01*
X137795523Y-109910476D01*
X137700285Y-109958095D01*
X137509809Y-110005714D01*
X137366952Y-110005714D01*
X137176476Y-109958095D01*
X137081238Y-109910476D01*
X136986000Y-109815238D01*
X136938380Y-109672380D01*
X136938380Y-109577142D01*
X136986000Y-109434285D01*
X137033619Y-109386666D01*
X137938380Y-108434285D02*
X137938380Y-109005714D01*
X137938380Y-108720000D02*
X136938380Y-108720000D01*
X137081238Y-108815238D01*
X137176476Y-108910476D01*
X137224095Y-109005714D01*
%TO.C,BZ1*%
X145180571Y-142134952D02*
X145228190Y-141992095D01*
X145275809Y-141944476D01*
X145371047Y-141896857D01*
X145513904Y-141896857D01*
X145609142Y-141944476D01*
X145656761Y-141992095D01*
X145704380Y-142087333D01*
X145704380Y-142468285D01*
X144704380Y-142468285D01*
X144704380Y-142134952D01*
X144752000Y-142039714D01*
X144799619Y-141992095D01*
X144894857Y-141944476D01*
X144990095Y-141944476D01*
X145085333Y-141992095D01*
X145132952Y-142039714D01*
X145180571Y-142134952D01*
X145180571Y-142468285D01*
X144704380Y-141563523D02*
X144704380Y-140896857D01*
X145704380Y-141563523D01*
X145704380Y-140896857D01*
X145704380Y-139992095D02*
X145704380Y-140563523D01*
X145704380Y-140277809D02*
X144704380Y-140277809D01*
X144847238Y-140373047D01*
X144942476Y-140468285D01*
X144990095Y-140563523D01*
%TD*%
M02*
