M48
; DRILL file {KiCad (5.1.9)-1} date 12/13/21 22:42:02
; FORMAT={-:-/ absolute / inch / decimal}
; #@! TF.CreationDate,2021-12-13T22:42:02-05:00
; #@! TF.GenerationSoftware,Kicad,Pcbnew,(5.1.9)-1
; #@! TF.FileFunction,Plated,1,2,PTH
FMAT,2
INCH
T1C0.0157
T2C0.0299
T3C0.0315
T4C0.0354
T5C0.0492
T6C0.0591
%
G90
G05
T1
X3.46Y-2.48
X3.7586Y-2.6614
X3.8Y-4.84
X3.8802Y-4.9202
X3.94Y-4.28
X3.98Y-4.66
X4.04Y-3.12
X4.04Y-3.2
X4.1Y-4.78
X4.2Y-5.1
X4.24Y-3.04
X4.2602Y-4.9802
X4.28Y-3.08
X4.28Y-4.46
X4.3204Y-4.92
X4.33Y-3.13
X4.34Y-2.94
X4.34Y-3.24
X4.34Y-4.52
X4.38Y-2.98
X4.4Y-4.62
X4.42Y-3.04
X4.5Y-3.3
X4.5152Y-4.4248
X4.54Y-4.62
X4.56Y-3.24
X4.56Y-4.38
X4.5752Y-4.4848
X4.58Y-3.08
X4.6Y-3.82
X4.62Y-4.44
X4.64Y-3.02
X4.68Y-4.5
X4.68Y-4.5
X4.7Y-3.2133
X4.78Y-3.1333
X4.98Y-4.32
X4.98Y-4.42
X5.06Y-4.56
X5.08Y-4.66
X5.1Y-4.56
X5.1Y-4.68
X5.16Y-2.06
X5.275Y-5.375
X5.29Y-4.43
X5.3Y-4.7
X5.3Y-5.0
X5.32Y-2.66
X5.32Y-5.1
X5.325Y-5.425
X5.36Y-3.12
X5.36Y-3.24
X5.4Y-2.66
X5.4Y-5.0
X5.42Y-5.1
X5.46Y-3.52
X5.46Y-3.56
X5.46Y-5.36
X5.5Y-3.52
X5.5Y-3.56
X5.53Y-5.06
X5.53Y-5.14
X5.54Y-3.52
X5.54Y-3.56
X5.5508Y-4.3908
X5.5708Y-4.6908
X5.573Y-5.707
X5.58Y-1.76
X5.58Y-3.52
X5.58Y-3.56
X5.58Y-3.6
X5.58Y-3.64
X5.58Y-3.68
X5.58Y-3.72
X5.58Y-3.76
X5.62Y-3.52
X5.62Y-3.56
X5.62Y-3.6
X5.62Y-3.64
X5.62Y-3.68
X5.62Y-3.72
X5.62Y-3.76
X5.62Y-4.96
X5.62Y-5.04
X5.64Y-2.56
X5.64Y-2.62
X5.64Y-4.04
X5.64Y-4.14
X5.66Y-3.52
X5.66Y-3.56
X5.66Y-3.72
X5.66Y-3.76
X5.68Y-4.96
X5.68Y-5.08
X5.7Y-3.52
X5.7Y-3.56
X5.7Y-3.72
X5.7Y-3.76
X5.7308Y-4.0892
X5.74Y-3.52
X5.74Y-3.56
X5.74Y-5.38
X5.74Y-5.94
X5.747Y-5.707
X5.75Y-2.21
X5.78Y-2.62
X5.78Y-5.42
X5.81Y-2.27
X5.81Y-5.31
X5.82Y-2.58
X5.85Y-5.35
X5.92Y-4.96
X5.92Y-5.04
X5.94Y-2.56
X5.98Y-4.08
X5.98Y-4.92
X6.01Y-4.33
X6.0207Y-2.56
X6.04Y-2.36
X6.04Y-4.86
X6.04Y-5.04
X6.08Y-4.26
X6.1Y-2.3
X6.1Y-3.86
X6.16Y-4.82
X6.17Y-3.93
X6.22Y-4.76
X6.26Y-4.44
X6.31Y-4.15
X6.38Y-4.22
X6.44Y-3.65
X6.49Y-3.7
X6.5015Y-3.0915
X6.54Y-4.08
X6.54Y-4.76
X6.553Y-3.04
X6.58Y-4.62
X6.58Y-4.7
X6.62Y-4.08
X6.62Y-4.76
X6.72Y-3.2
X6.8Y-3.2
X6.89Y-2.95
X6.9365Y-2.9165
X6.9586Y-4.9386
X7.01Y-2.99
X7.041Y-4.601
X7.041Y-4.821
X7.181Y-3.281
X7.2Y-3.4
X7.2Y-4.4
X7.281Y-3.281
X7.32Y-4.48
X7.32Y-4.72
X7.32Y-4.8
X7.359Y-3.281
X7.38Y-4.54
X7.419Y-3.341
X7.74Y-2.84
X7.76Y-5.02
X7.8Y-5.4
T3
X4.96Y-3.26
X4.96Y-3.3387
X4.96Y-3.4175
X5.5Y-3.64
X5.5Y-3.74
X5.5Y-3.84
X5.5Y-3.94
X5.5Y-4.04
X5.5Y-4.14
X5.5Y-4.24
X5.5Y-4.34
X5.5Y-4.44
X5.5Y-4.54
X5.5Y-4.64
X5.5Y-4.74
X5.5Y-4.84
X5.5Y-4.94
X5.58Y-2.44
X5.7178Y-2.44
X5.8Y-3.64
X5.8Y-3.74
X5.8Y-3.84
X5.8Y-3.94
X5.8Y-4.04
X5.8Y-4.14
X5.8Y-4.24
X5.8Y-4.34
X5.8Y-4.44
X5.8Y-4.54
X5.8Y-4.64
X5.8Y-4.74
X5.8Y-4.84
X5.8Y-4.94
X6.22Y-3.28
X6.22Y-3.3587
T4
X2.94Y-4.82
X3.02Y-2.8
X3.04Y-4.82
X3.12Y-2.8
X3.34Y-5.48
X3.4Y-2.16
X3.44Y-5.48
X3.5Y-2.16
X3.5Y-4.2
X3.6Y-4.2
X3.66Y-3.32
X3.76Y-3.32
X4.14Y-5.34
X4.22Y-2.34
X4.24Y-5.34
X4.32Y-2.34
X4.82Y-5.78
X4.92Y-5.78
X4.98Y-1.94
X5.08Y-1.94
X5.12Y-6.54
X5.22Y-6.54
X5.26Y-1.2
X5.36Y-1.2
X5.58Y-3.04
X5.68Y-3.04
X5.9Y-6.48
X6.0Y-6.48
X6.04Y-1.2
X6.14Y-1.2
X6.18Y-5.74
X6.28Y-1.98
X6.28Y-5.74
X6.38Y-1.98
X6.94Y-5.42
X7.02Y-2.42
X7.04Y-5.42
X7.12Y-2.42
X7.66Y-4.28
X7.66Y-4.38
X7.674Y-3.497
X7.76Y-5.58
X7.774Y-3.497
X7.84Y-2.26
X7.86Y-5.58
X7.94Y-2.26
X8.16Y-4.92
X8.26Y-4.92
X8.28Y-2.92
X8.38Y-2.92
T5
X4.96Y-3.1773
X4.96Y-3.5002
T6
X5.58Y-5.26
X5.58Y-5.8624
T2
G00X5.22Y-2.7651
M15
G01X5.22Y-2.8749
M16
G05
G00X5.4625Y-3.0001
M15
G01X5.3527Y-3.0001
M16
G05
G00X5.5952Y-2.7651
M15
G01X5.5952Y-2.8749
M16
G05
G00X5.7239Y-2.7651
M15
G01X5.7239Y-2.8749
M16
G05
G00X5.9665Y-3.0001
M15
G01X5.8566Y-3.0001
M16
G05
G00X6.0991Y-2.7651
M15
G01X6.0991Y-2.8749
M16
G05
T0
M30
