%TF.GenerationSoftware,KiCad,Pcbnew,(5.1.9)-1*%
%TF.CreationDate,2021-12-13T22:42:44-05:00*%
%TF.ProjectId,Ornament,4f726e61-6d65-46e7-942e-6b696361645f,rev?*%
%TF.SameCoordinates,Original*%
%TF.FileFunction,Profile,NP*%
%FSLAX46Y46*%
G04 Gerber Fmt 4.6, Leading zero omitted, Abs format (unit mm)*
G04 Created by KiCad (PCBNEW (5.1.9)-1) date 2021-12-13 22:42:44*
%MOMM*%
%LPD*%
G01*
G04 APERTURE LIST*
%TA.AperFunction,Profile*%
%ADD10C,0.050000*%
%TD*%
G04 APERTURE END LIST*
D10*
X133604000Y-23749000D02*
X144653000Y-30607000D01*
X127508000Y-32258000D02*
X133604000Y-23749000D01*
X137668000Y-38735000D02*
X127508000Y-32258000D01*
X137668000Y-48387000D02*
X137668000Y-38735000D01*
X125857000Y-42418000D02*
X137668000Y-48387000D01*
X120269000Y-51054000D02*
X125857000Y-42418000D01*
X131318000Y-57658000D02*
X120269000Y-51054000D01*
X131064000Y-66421000D02*
X131318000Y-57658000D01*
X122809000Y-70739000D02*
X131064000Y-66421000D01*
X114046000Y-66294000D02*
X122809000Y-70739000D01*
X114808000Y-53467000D02*
X114046000Y-66294000D01*
X103251000Y-52197000D02*
X114808000Y-53467000D01*
X102616000Y-66802000D02*
X103251000Y-52197000D01*
X93472000Y-62230000D02*
X102616000Y-66802000D01*
X92583000Y-48768000D02*
X93472000Y-62230000D01*
X81788000Y-49403000D02*
X92583000Y-48768000D01*
X82804000Y-63119000D02*
X81788000Y-49403000D01*
X70866000Y-68834000D02*
X82804000Y-63119000D01*
X75438000Y-78359000D02*
X70866000Y-68834000D01*
X86487000Y-73025000D02*
X75438000Y-78359000D01*
X94996000Y-77851000D02*
X86487000Y-73025000D01*
X83947000Y-84582000D02*
X94996000Y-77851000D01*
X89027000Y-93853000D02*
X83947000Y-84582000D01*
X100330000Y-87884000D02*
X89027000Y-93853000D01*
X108204000Y-92456000D02*
X100330000Y-87884000D01*
X108331000Y-101219000D02*
X108204000Y-92456000D01*
X99949000Y-106299000D02*
X108331000Y-101219000D01*
X88519000Y-99187000D02*
X99949000Y-106299000D01*
X81534000Y-108458000D02*
X88519000Y-99187000D01*
X94488000Y-116078000D02*
X81534000Y-108458000D01*
X85725000Y-121412000D02*
X94488000Y-116078000D01*
X73279000Y-115316000D02*
X85725000Y-121412000D01*
X68580000Y-124460000D02*
X73279000Y-115316000D01*
X81280000Y-130683000D02*
X68580000Y-124460000D01*
X80391000Y-143256000D02*
X81280000Y-130683000D01*
X91313000Y-144018000D02*
X80391000Y-143256000D01*
X92075000Y-132461000D02*
X91313000Y-144018000D01*
X100838000Y-127635000D02*
X92075000Y-132461000D01*
X101092000Y-140335000D02*
X100838000Y-127635000D01*
X112141000Y-140716000D02*
X101092000Y-140335000D01*
X112395000Y-128397000D02*
X112141000Y-140716000D01*
X120650000Y-124079000D02*
X112395000Y-128397000D01*
X128651000Y-128651000D02*
X120650000Y-124079000D01*
X129032000Y-137922000D02*
X128651000Y-128651000D01*
X116840000Y-143764000D02*
X129032000Y-137922000D01*
X121539000Y-154178000D02*
X116840000Y-143764000D01*
X135255000Y-147447000D02*
X121539000Y-154178000D01*
X135382000Y-157353000D02*
X135255000Y-147447000D01*
X123825000Y-164592000D02*
X135382000Y-157353000D01*
X129794000Y-173101000D02*
X123825000Y-164592000D01*
X141859000Y-165735000D02*
X129794000Y-173101000D01*
X152908000Y-172720000D02*
X141859000Y-165735000D01*
X159131000Y-163957000D02*
X152908000Y-172720000D01*
X148844000Y-157607000D02*
X159131000Y-163957000D01*
X148844000Y-147955000D02*
X148844000Y-157607000D01*
X160782000Y-154051000D02*
X148844000Y-147955000D01*
X166243000Y-145288000D02*
X160782000Y-154051000D01*
X155194000Y-138684000D02*
X166243000Y-145288000D01*
X155702000Y-129794000D02*
X155194000Y-138684000D01*
X163703000Y-125730000D02*
X155702000Y-129794000D01*
X172212000Y-129921000D02*
X163703000Y-125730000D01*
X171577000Y-143002000D02*
X172212000Y-129921000D01*
X183261000Y-144145000D02*
X171577000Y-143002000D01*
X183896000Y-129540000D02*
X183261000Y-144145000D01*
X193040000Y-134112000D02*
X183896000Y-129540000D01*
X193802000Y-147574000D02*
X193040000Y-134112000D01*
X204724000Y-146939000D02*
X193802000Y-147574000D01*
X203708000Y-133223000D02*
X204724000Y-146939000D01*
X215646000Y-127508000D02*
X203708000Y-133223000D01*
X210947000Y-117983000D02*
X215646000Y-127508000D01*
X200025000Y-123317000D02*
X210947000Y-117983000D01*
X191389000Y-118491000D02*
X200025000Y-123317000D01*
X202438000Y-111633000D02*
X191389000Y-118491000D01*
X197358000Y-102616000D02*
X202438000Y-111633000D01*
X186182000Y-108458000D02*
X197358000Y-102616000D01*
X178181000Y-103632000D02*
X186182000Y-108458000D01*
X178435000Y-95123000D02*
X178181000Y-103632000D01*
X186563000Y-90170000D02*
X178435000Y-95123000D01*
X197993000Y-97155000D02*
X186563000Y-90170000D01*
X204978000Y-87884000D02*
X197993000Y-97155000D01*
X192024000Y-80264000D02*
X204978000Y-87884000D01*
X200787000Y-74930000D02*
X192024000Y-80264000D01*
X213233000Y-81153000D02*
X200787000Y-74930000D01*
X218059000Y-71882000D02*
X213233000Y-81153000D01*
X205105000Y-65659000D02*
X218059000Y-71882000D01*
X206121000Y-52959000D02*
X205105000Y-65659000D01*
X195199000Y-52324000D02*
X206121000Y-52959000D01*
X194437000Y-63881000D02*
X195199000Y-52324000D01*
X185674000Y-68707000D02*
X194437000Y-63881000D01*
X185293000Y-56007000D02*
X185674000Y-68707000D01*
X174371000Y-55626000D02*
X185293000Y-56007000D01*
X174117000Y-67818000D02*
X174371000Y-55626000D01*
X165354000Y-72009000D02*
X174117000Y-67818000D01*
X157988000Y-67056000D02*
X165354000Y-72009000D01*
X157480000Y-58293000D02*
X157988000Y-67056000D01*
X169672000Y-52451000D02*
X157480000Y-58293000D01*
X164846000Y-42164000D02*
X169672000Y-52451000D01*
X151257000Y-48768000D02*
X164846000Y-42164000D01*
X151130000Y-38989000D02*
X151257000Y-48768000D01*
X162687000Y-31750000D02*
X151130000Y-38989000D01*
X156591000Y-23368000D02*
X162687000Y-31750000D01*
X144653000Y-30607000D02*
X156591000Y-23368000D01*
M02*
