%TF.GenerationSoftware,KiCad,Pcbnew,(5.1.9)-1*%
%TF.CreationDate,2021-12-13T22:42:44-05:00*%
%TF.ProjectId,Ornament,4f726e61-6d65-46e7-942e-6b696361645f,rev?*%
%TF.SameCoordinates,Original*%
%TF.FileFunction,Soldermask,Top*%
%TF.FilePolarity,Negative*%
%FSLAX46Y46*%
G04 Gerber Fmt 4.6, Leading zero omitted, Abs format (unit mm)*
G04 Created by KiCad (PCBNEW (5.1.9)-1) date 2021-12-13 22:42:44*
%MOMM*%
%LPD*%
G01*
G04 APERTURE LIST*
%ADD10R,1.500000X0.450000*%
%ADD11C,4.500000*%
%ADD12O,1.600000X4.500000*%
%ADD13O,4.500000X1.600000*%
%ADD14C,1.600000*%
%ADD15R,6.400000X5.800000*%
%ADD16R,2.200000X1.200000*%
%ADD17O,1.600000X1.600000*%
%ADD18R,1.600000X1.600000*%
%ADD19C,1.875000*%
%ADD20C,1.300000*%
%ADD21C,1.800000*%
%ADD22R,1.800000X1.800000*%
%ADD23O,3.000000X3.000000*%
%ADD24C,3.000000*%
%ADD25C,0.800000*%
G04 APERTURE END LIST*
D10*
%TO.C,Q3*%
X133410000Y-117998000D03*
X133410000Y-116698000D03*
X130750000Y-117348000D03*
%TD*%
D11*
%TO.C,REF\u002A\u002A*%
X144272000Y-35560000D03*
%TD*%
%TO.C,R45*%
G36*
G01*
X145172000Y-50917000D02*
X145172000Y-49667000D01*
G75*
G02*
X145422000Y-49417000I250000J0D01*
G01*
X146222000Y-49417000D01*
G75*
G02*
X146472000Y-49667000I0J-250000D01*
G01*
X146472000Y-50917000D01*
G75*
G02*
X146222000Y-51167000I-250000J0D01*
G01*
X145422000Y-51167000D01*
G75*
G02*
X145172000Y-50917000I0J250000D01*
G01*
G37*
G36*
G01*
X142072000Y-50917000D02*
X142072000Y-49667000D01*
G75*
G02*
X142322000Y-49417000I250000J0D01*
G01*
X143122000Y-49417000D01*
G75*
G02*
X143372000Y-49667000I0J-250000D01*
G01*
X143372000Y-50917000D01*
G75*
G02*
X143122000Y-51167000I-250000J0D01*
G01*
X142322000Y-51167000D01*
G75*
G02*
X142072000Y-50917000I0J250000D01*
G01*
G37*
%TD*%
D12*
%TO.C,BT1*%
X145388000Y-71628000D03*
D13*
X150153000Y-76203000D03*
D12*
X154918000Y-71628000D03*
D13*
X137353000Y-76203000D03*
D12*
X142118000Y-71628000D03*
X132588000Y-71628000D03*
%TD*%
D14*
%TO.C,C3*%
X145232000Y-61976000D03*
X141732000Y-61976000D03*
%TD*%
%TO.C,R68*%
G36*
G01*
X150251000Y-122820000D02*
X151501000Y-122820000D01*
G75*
G02*
X151751000Y-123070000I0J-250000D01*
G01*
X151751000Y-123870000D01*
G75*
G02*
X151501000Y-124120000I-250000J0D01*
G01*
X150251000Y-124120000D01*
G75*
G02*
X150001000Y-123870000I0J250000D01*
G01*
X150001000Y-123070000D01*
G75*
G02*
X150251000Y-122820000I250000J0D01*
G01*
G37*
G36*
G01*
X150251000Y-119720000D02*
X151501000Y-119720000D01*
G75*
G02*
X151751000Y-119970000I0J-250000D01*
G01*
X151751000Y-120770000D01*
G75*
G02*
X151501000Y-121020000I-250000J0D01*
G01*
X150251000Y-121020000D01*
G75*
G02*
X150001000Y-120770000I0J250000D01*
G01*
X150001000Y-119970000D01*
G75*
G02*
X150251000Y-119720000I250000J0D01*
G01*
G37*
%TD*%
%TO.C,R67*%
G36*
G01*
X136769000Y-120512000D02*
X135519000Y-120512000D01*
G75*
G02*
X135269000Y-120262000I0J250000D01*
G01*
X135269000Y-119462000D01*
G75*
G02*
X135519000Y-119212000I250000J0D01*
G01*
X136769000Y-119212000D01*
G75*
G02*
X137019000Y-119462000I0J-250000D01*
G01*
X137019000Y-120262000D01*
G75*
G02*
X136769000Y-120512000I-250000J0D01*
G01*
G37*
G36*
G01*
X136769000Y-123612000D02*
X135519000Y-123612000D01*
G75*
G02*
X135269000Y-123362000I0J250000D01*
G01*
X135269000Y-122562000D01*
G75*
G02*
X135519000Y-122312000I250000J0D01*
G01*
X136769000Y-122312000D01*
G75*
G02*
X137019000Y-122562000I0J-250000D01*
G01*
X137019000Y-123362000D01*
G75*
G02*
X136769000Y-123612000I-250000J0D01*
G01*
G37*
%TD*%
%TO.C,R66*%
G36*
G01*
X136769000Y-115432000D02*
X135519000Y-115432000D01*
G75*
G02*
X135269000Y-115182000I0J250000D01*
G01*
X135269000Y-114382000D01*
G75*
G02*
X135519000Y-114132000I250000J0D01*
G01*
X136769000Y-114132000D01*
G75*
G02*
X137019000Y-114382000I0J-250000D01*
G01*
X137019000Y-115182000D01*
G75*
G02*
X136769000Y-115432000I-250000J0D01*
G01*
G37*
G36*
G01*
X136769000Y-118532000D02*
X135519000Y-118532000D01*
G75*
G02*
X135269000Y-118282000I0J250000D01*
G01*
X135269000Y-117482000D01*
G75*
G02*
X135519000Y-117232000I250000J0D01*
G01*
X136769000Y-117232000D01*
G75*
G02*
X137019000Y-117482000I0J-250000D01*
G01*
X137019000Y-118282000D01*
G75*
G02*
X136769000Y-118532000I-250000J0D01*
G01*
G37*
%TD*%
%TO.C,R65*%
G36*
G01*
X150251000Y-117408000D02*
X151501000Y-117408000D01*
G75*
G02*
X151751000Y-117658000I0J-250000D01*
G01*
X151751000Y-118458000D01*
G75*
G02*
X151501000Y-118708000I-250000J0D01*
G01*
X150251000Y-118708000D01*
G75*
G02*
X150001000Y-118458000I0J250000D01*
G01*
X150001000Y-117658000D01*
G75*
G02*
X150251000Y-117408000I250000J0D01*
G01*
G37*
G36*
G01*
X150251000Y-114308000D02*
X151501000Y-114308000D01*
G75*
G02*
X151751000Y-114558000I0J-250000D01*
G01*
X151751000Y-115358000D01*
G75*
G02*
X151501000Y-115608000I-250000J0D01*
G01*
X150251000Y-115608000D01*
G75*
G02*
X150001000Y-115358000I0J250000D01*
G01*
X150001000Y-114558000D01*
G75*
G02*
X150251000Y-114308000I250000J0D01*
G01*
G37*
%TD*%
%TO.C,R64*%
G36*
G01*
X136769000Y-99710000D02*
X135519000Y-99710000D01*
G75*
G02*
X135269000Y-99460000I0J250000D01*
G01*
X135269000Y-98660000D01*
G75*
G02*
X135519000Y-98410000I250000J0D01*
G01*
X136769000Y-98410000D01*
G75*
G02*
X137019000Y-98660000I0J-250000D01*
G01*
X137019000Y-99460000D01*
G75*
G02*
X136769000Y-99710000I-250000J0D01*
G01*
G37*
G36*
G01*
X136769000Y-102810000D02*
X135519000Y-102810000D01*
G75*
G02*
X135269000Y-102560000I0J250000D01*
G01*
X135269000Y-101760000D01*
G75*
G02*
X135519000Y-101510000I250000J0D01*
G01*
X136769000Y-101510000D01*
G75*
G02*
X137019000Y-101760000I0J-250000D01*
G01*
X137019000Y-102560000D01*
G75*
G02*
X136769000Y-102810000I-250000J0D01*
G01*
G37*
%TD*%
D15*
%TO.C,U2*%
X141224000Y-84328000D03*
D16*
X147524000Y-82048000D03*
X147524000Y-86608000D03*
%TD*%
D17*
%TO.C,U1*%
X147320000Y-92456000D03*
X139700000Y-125476000D03*
X147320000Y-94996000D03*
X139700000Y-122936000D03*
X147320000Y-97536000D03*
X139700000Y-120396000D03*
X147320000Y-100076000D03*
X139700000Y-117856000D03*
X147320000Y-102616000D03*
X139700000Y-115316000D03*
X147320000Y-105156000D03*
X139700000Y-112776000D03*
X147320000Y-107696000D03*
X139700000Y-110236000D03*
X147320000Y-110236000D03*
X139700000Y-107696000D03*
X147320000Y-112776000D03*
X139700000Y-105156000D03*
X147320000Y-115316000D03*
X139700000Y-102616000D03*
X147320000Y-117856000D03*
X139700000Y-100076000D03*
X147320000Y-120396000D03*
X139700000Y-97536000D03*
X147320000Y-122936000D03*
X139700000Y-94996000D03*
X147320000Y-125476000D03*
D18*
X139700000Y-92456000D03*
%TD*%
D19*
%TO.C,S1*%
X125984000Y-88904000D03*
X125984000Y-80704000D03*
D20*
X125984000Y-86804000D03*
X125984000Y-84804000D03*
X125984000Y-82804000D03*
%TD*%
%TO.C,R63*%
G36*
G01*
X131206000Y-87259000D02*
X131206000Y-88509000D01*
G75*
G02*
X130956000Y-88759000I-250000J0D01*
G01*
X130156000Y-88759000D01*
G75*
G02*
X129906000Y-88509000I0J250000D01*
G01*
X129906000Y-87259000D01*
G75*
G02*
X130156000Y-87009000I250000J0D01*
G01*
X130956000Y-87009000D01*
G75*
G02*
X131206000Y-87259000I0J-250000D01*
G01*
G37*
G36*
G01*
X134306000Y-87259000D02*
X134306000Y-88509000D01*
G75*
G02*
X134056000Y-88759000I-250000J0D01*
G01*
X133256000Y-88759000D01*
G75*
G02*
X133006000Y-88509000I0J250000D01*
G01*
X133006000Y-87259000D01*
G75*
G02*
X133256000Y-87009000I250000J0D01*
G01*
X134056000Y-87009000D01*
G75*
G02*
X134306000Y-87259000I0J-250000D01*
G01*
G37*
%TD*%
%TO.C,R62*%
G36*
G01*
X131180000Y-89799000D02*
X131180000Y-91049000D01*
G75*
G02*
X130930000Y-91299000I-250000J0D01*
G01*
X130130000Y-91299000D01*
G75*
G02*
X129880000Y-91049000I0J250000D01*
G01*
X129880000Y-89799000D01*
G75*
G02*
X130130000Y-89549000I250000J0D01*
G01*
X130930000Y-89549000D01*
G75*
G02*
X131180000Y-89799000I0J-250000D01*
G01*
G37*
G36*
G01*
X134280000Y-89799000D02*
X134280000Y-91049000D01*
G75*
G02*
X134030000Y-91299000I-250000J0D01*
G01*
X133230000Y-91299000D01*
G75*
G02*
X132980000Y-91049000I0J250000D01*
G01*
X132980000Y-89799000D01*
G75*
G02*
X133230000Y-89549000I250000J0D01*
G01*
X134030000Y-89549000D01*
G75*
G02*
X134280000Y-89799000I0J-250000D01*
G01*
G37*
%TD*%
%TO.C,R61*%
G36*
G01*
X131180000Y-92339000D02*
X131180000Y-93589000D01*
G75*
G02*
X130930000Y-93839000I-250000J0D01*
G01*
X130130000Y-93839000D01*
G75*
G02*
X129880000Y-93589000I0J250000D01*
G01*
X129880000Y-92339000D01*
G75*
G02*
X130130000Y-92089000I250000J0D01*
G01*
X130930000Y-92089000D01*
G75*
G02*
X131180000Y-92339000I0J-250000D01*
G01*
G37*
G36*
G01*
X134280000Y-92339000D02*
X134280000Y-93589000D01*
G75*
G02*
X134030000Y-93839000I-250000J0D01*
G01*
X133230000Y-93839000D01*
G75*
G02*
X132980000Y-93589000I0J250000D01*
G01*
X132980000Y-92339000D01*
G75*
G02*
X133230000Y-92089000I250000J0D01*
G01*
X134030000Y-92089000D01*
G75*
G02*
X134280000Y-92339000I0J-250000D01*
G01*
G37*
%TD*%
%TO.C,R60*%
G36*
G01*
X94880000Y-72253000D02*
X94880000Y-71003000D01*
G75*
G02*
X95130000Y-70753000I250000J0D01*
G01*
X95930000Y-70753000D01*
G75*
G02*
X96180000Y-71003000I0J-250000D01*
G01*
X96180000Y-72253000D01*
G75*
G02*
X95930000Y-72503000I-250000J0D01*
G01*
X95130000Y-72503000D01*
G75*
G02*
X94880000Y-72253000I0J250000D01*
G01*
G37*
G36*
G01*
X91780000Y-72253000D02*
X91780000Y-71003000D01*
G75*
G02*
X92030000Y-70753000I250000J0D01*
G01*
X92830000Y-70753000D01*
G75*
G02*
X93080000Y-71003000I0J-250000D01*
G01*
X93080000Y-72253000D01*
G75*
G02*
X92830000Y-72503000I-250000J0D01*
G01*
X92030000Y-72503000D01*
G75*
G02*
X91780000Y-72253000I0J250000D01*
G01*
G37*
%TD*%
%TO.C,R59*%
G36*
G01*
X139309000Y-154548000D02*
X138059000Y-154548000D01*
G75*
G02*
X137809000Y-154298000I0J250000D01*
G01*
X137809000Y-153498000D01*
G75*
G02*
X138059000Y-153248000I250000J0D01*
G01*
X139309000Y-153248000D01*
G75*
G02*
X139559000Y-153498000I0J-250000D01*
G01*
X139559000Y-154298000D01*
G75*
G02*
X139309000Y-154548000I-250000J0D01*
G01*
G37*
G36*
G01*
X139309000Y-157648000D02*
X138059000Y-157648000D01*
G75*
G02*
X137809000Y-157398000I0J250000D01*
G01*
X137809000Y-156598000D01*
G75*
G02*
X138059000Y-156348000I250000J0D01*
G01*
X139309000Y-156348000D01*
G75*
G02*
X139559000Y-156598000I0J-250000D01*
G01*
X139559000Y-157398000D01*
G75*
G02*
X139309000Y-157648000I-250000J0D01*
G01*
G37*
%TD*%
%TO.C,R55*%
G36*
G01*
X180732000Y-114925000D02*
X180732000Y-113675000D01*
G75*
G02*
X180982000Y-113425000I250000J0D01*
G01*
X181782000Y-113425000D01*
G75*
G02*
X182032000Y-113675000I0J-250000D01*
G01*
X182032000Y-114925000D01*
G75*
G02*
X181782000Y-115175000I-250000J0D01*
G01*
X180982000Y-115175000D01*
G75*
G02*
X180732000Y-114925000I0J250000D01*
G01*
G37*
G36*
G01*
X177632000Y-114925000D02*
X177632000Y-113675000D01*
G75*
G02*
X177882000Y-113425000I250000J0D01*
G01*
X178682000Y-113425000D01*
G75*
G02*
X178932000Y-113675000I0J-250000D01*
G01*
X178932000Y-114925000D01*
G75*
G02*
X178682000Y-115175000I-250000J0D01*
G01*
X177882000Y-115175000D01*
G75*
G02*
X177632000Y-114925000I0J250000D01*
G01*
G37*
%TD*%
%TO.C,R54*%
G36*
G01*
X178192000Y-132197000D02*
X178192000Y-130947000D01*
G75*
G02*
X178442000Y-130697000I250000J0D01*
G01*
X179242000Y-130697000D01*
G75*
G02*
X179492000Y-130947000I0J-250000D01*
G01*
X179492000Y-132197000D01*
G75*
G02*
X179242000Y-132447000I-250000J0D01*
G01*
X178442000Y-132447000D01*
G75*
G02*
X178192000Y-132197000I0J250000D01*
G01*
G37*
G36*
G01*
X175092000Y-132197000D02*
X175092000Y-130947000D01*
G75*
G02*
X175342000Y-130697000I250000J0D01*
G01*
X176142000Y-130697000D01*
G75*
G02*
X176392000Y-130947000I0J-250000D01*
G01*
X176392000Y-132197000D01*
G75*
G02*
X176142000Y-132447000I-250000J0D01*
G01*
X175342000Y-132447000D01*
G75*
G02*
X175092000Y-132197000I0J250000D01*
G01*
G37*
%TD*%
%TO.C,R53*%
G36*
G01*
X182996000Y-75575000D02*
X182996000Y-76825000D01*
G75*
G02*
X182746000Y-77075000I-250000J0D01*
G01*
X181946000Y-77075000D01*
G75*
G02*
X181696000Y-76825000I0J250000D01*
G01*
X181696000Y-75575000D01*
G75*
G02*
X181946000Y-75325000I250000J0D01*
G01*
X182746000Y-75325000D01*
G75*
G02*
X182996000Y-75575000I0J-250000D01*
G01*
G37*
G36*
G01*
X186096000Y-75575000D02*
X186096000Y-76825000D01*
G75*
G02*
X185846000Y-77075000I-250000J0D01*
G01*
X185046000Y-77075000D01*
G75*
G02*
X184796000Y-76825000I0J250000D01*
G01*
X184796000Y-75575000D01*
G75*
G02*
X185046000Y-75325000I250000J0D01*
G01*
X185846000Y-75325000D01*
G75*
G02*
X186096000Y-75575000I0J-250000D01*
G01*
G37*
%TD*%
%TO.C,R52*%
G36*
G01*
X139075000Y-44054000D02*
X140325000Y-44054000D01*
G75*
G02*
X140575000Y-44304000I0J-250000D01*
G01*
X140575000Y-45104000D01*
G75*
G02*
X140325000Y-45354000I-250000J0D01*
G01*
X139075000Y-45354000D01*
G75*
G02*
X138825000Y-45104000I0J250000D01*
G01*
X138825000Y-44304000D01*
G75*
G02*
X139075000Y-44054000I250000J0D01*
G01*
G37*
G36*
G01*
X139075000Y-40954000D02*
X140325000Y-40954000D01*
G75*
G02*
X140575000Y-41204000I0J-250000D01*
G01*
X140575000Y-42004000D01*
G75*
G02*
X140325000Y-42254000I-250000J0D01*
G01*
X139075000Y-42254000D01*
G75*
G02*
X138825000Y-42004000I0J250000D01*
G01*
X138825000Y-41204000D01*
G75*
G02*
X139075000Y-40954000I250000J0D01*
G01*
G37*
%TD*%
%TO.C,R51*%
G36*
G01*
X196205000Y-133212000D02*
X194955000Y-133212000D01*
G75*
G02*
X194705000Y-132962000I0J250000D01*
G01*
X194705000Y-132162000D01*
G75*
G02*
X194955000Y-131912000I250000J0D01*
G01*
X196205000Y-131912000D01*
G75*
G02*
X196455000Y-132162000I0J-250000D01*
G01*
X196455000Y-132962000D01*
G75*
G02*
X196205000Y-133212000I-250000J0D01*
G01*
G37*
G36*
G01*
X196205000Y-136312000D02*
X194955000Y-136312000D01*
G75*
G02*
X194705000Y-136062000I0J250000D01*
G01*
X194705000Y-135262000D01*
G75*
G02*
X194955000Y-135012000I250000J0D01*
G01*
X196205000Y-135012000D01*
G75*
G02*
X196455000Y-135262000I0J-250000D01*
G01*
X196455000Y-136062000D01*
G75*
G02*
X196205000Y-136312000I-250000J0D01*
G01*
G37*
%TD*%
%TO.C,R50*%
G36*
G01*
X198745000Y-133212000D02*
X197495000Y-133212000D01*
G75*
G02*
X197245000Y-132962000I0J250000D01*
G01*
X197245000Y-132162000D01*
G75*
G02*
X197495000Y-131912000I250000J0D01*
G01*
X198745000Y-131912000D01*
G75*
G02*
X198995000Y-132162000I0J-250000D01*
G01*
X198995000Y-132962000D01*
G75*
G02*
X198745000Y-133212000I-250000J0D01*
G01*
G37*
G36*
G01*
X198745000Y-136312000D02*
X197495000Y-136312000D01*
G75*
G02*
X197245000Y-136062000I0J250000D01*
G01*
X197245000Y-135262000D01*
G75*
G02*
X197495000Y-135012000I250000J0D01*
G01*
X198745000Y-135012000D01*
G75*
G02*
X198995000Y-135262000I0J-250000D01*
G01*
X198995000Y-136062000D01*
G75*
G02*
X198745000Y-136312000I-250000J0D01*
G01*
G37*
%TD*%
%TO.C,R49*%
G36*
G01*
X201285000Y-133212000D02*
X200035000Y-133212000D01*
G75*
G02*
X199785000Y-132962000I0J250000D01*
G01*
X199785000Y-132162000D01*
G75*
G02*
X200035000Y-131912000I250000J0D01*
G01*
X201285000Y-131912000D01*
G75*
G02*
X201535000Y-132162000I0J-250000D01*
G01*
X201535000Y-132962000D01*
G75*
G02*
X201285000Y-133212000I-250000J0D01*
G01*
G37*
G36*
G01*
X201285000Y-136312000D02*
X200035000Y-136312000D01*
G75*
G02*
X199785000Y-136062000I0J250000D01*
G01*
X199785000Y-135262000D01*
G75*
G02*
X200035000Y-135012000I250000J0D01*
G01*
X201285000Y-135012000D01*
G75*
G02*
X201535000Y-135262000I0J-250000D01*
G01*
X201535000Y-136062000D01*
G75*
G02*
X201285000Y-136312000I-250000J0D01*
G01*
G37*
%TD*%
%TO.C,R48*%
G36*
G01*
X172122000Y-80381000D02*
X172122000Y-79131000D01*
G75*
G02*
X172372000Y-78881000I250000J0D01*
G01*
X173172000Y-78881000D01*
G75*
G02*
X173422000Y-79131000I0J-250000D01*
G01*
X173422000Y-80381000D01*
G75*
G02*
X173172000Y-80631000I-250000J0D01*
G01*
X172372000Y-80631000D01*
G75*
G02*
X172122000Y-80381000I0J250000D01*
G01*
G37*
G36*
G01*
X169022000Y-80381000D02*
X169022000Y-79131000D01*
G75*
G02*
X169272000Y-78881000I250000J0D01*
G01*
X170072000Y-78881000D01*
G75*
G02*
X170322000Y-79131000I0J-250000D01*
G01*
X170322000Y-80381000D01*
G75*
G02*
X170072000Y-80631000I-250000J0D01*
G01*
X169272000Y-80631000D01*
G75*
G02*
X169022000Y-80381000I0J250000D01*
G01*
G37*
%TD*%
%TO.C,R47*%
G36*
G01*
X198744000Y-62875000D02*
X198744000Y-64125000D01*
G75*
G02*
X198494000Y-64375000I-250000J0D01*
G01*
X197694000Y-64375000D01*
G75*
G02*
X197444000Y-64125000I0J250000D01*
G01*
X197444000Y-62875000D01*
G75*
G02*
X197694000Y-62625000I250000J0D01*
G01*
X198494000Y-62625000D01*
G75*
G02*
X198744000Y-62875000I0J-250000D01*
G01*
G37*
G36*
G01*
X201844000Y-62875000D02*
X201844000Y-64125000D01*
G75*
G02*
X201594000Y-64375000I-250000J0D01*
G01*
X200794000Y-64375000D01*
G75*
G02*
X200544000Y-64125000I0J250000D01*
G01*
X200544000Y-62875000D01*
G75*
G02*
X200794000Y-62625000I250000J0D01*
G01*
X201594000Y-62625000D01*
G75*
G02*
X201844000Y-62875000I0J-250000D01*
G01*
G37*
%TD*%
%TO.C,R46*%
G36*
G01*
X145172000Y-48377000D02*
X145172000Y-47127000D01*
G75*
G02*
X145422000Y-46877000I250000J0D01*
G01*
X146222000Y-46877000D01*
G75*
G02*
X146472000Y-47127000I0J-250000D01*
G01*
X146472000Y-48377000D01*
G75*
G02*
X146222000Y-48627000I-250000J0D01*
G01*
X145422000Y-48627000D01*
G75*
G02*
X145172000Y-48377000I0J250000D01*
G01*
G37*
G36*
G01*
X142072000Y-48377000D02*
X142072000Y-47127000D01*
G75*
G02*
X142322000Y-46877000I250000J0D01*
G01*
X143122000Y-46877000D01*
G75*
G02*
X143372000Y-47127000I0J-250000D01*
G01*
X143372000Y-48377000D01*
G75*
G02*
X143122000Y-48627000I-250000J0D01*
G01*
X142322000Y-48627000D01*
G75*
G02*
X142072000Y-48377000I0J250000D01*
G01*
G37*
%TD*%
%TO.C,R44*%
G36*
G01*
X145146000Y-53457000D02*
X145146000Y-52207000D01*
G75*
G02*
X145396000Y-51957000I250000J0D01*
G01*
X146196000Y-51957000D01*
G75*
G02*
X146446000Y-52207000I0J-250000D01*
G01*
X146446000Y-53457000D01*
G75*
G02*
X146196000Y-53707000I-250000J0D01*
G01*
X145396000Y-53707000D01*
G75*
G02*
X145146000Y-53457000I0J250000D01*
G01*
G37*
G36*
G01*
X142046000Y-53457000D02*
X142046000Y-52207000D01*
G75*
G02*
X142296000Y-51957000I250000J0D01*
G01*
X143096000Y-51957000D01*
G75*
G02*
X143346000Y-52207000I0J-250000D01*
G01*
X143346000Y-53457000D01*
G75*
G02*
X143096000Y-53707000I-250000J0D01*
G01*
X142296000Y-53707000D01*
G75*
G02*
X142046000Y-53457000I0J250000D01*
G01*
G37*
%TD*%
%TO.C,R43*%
G36*
G01*
X108088000Y-85461000D02*
X108088000Y-84211000D01*
G75*
G02*
X108338000Y-83961000I250000J0D01*
G01*
X109138000Y-83961000D01*
G75*
G02*
X109388000Y-84211000I0J-250000D01*
G01*
X109388000Y-85461000D01*
G75*
G02*
X109138000Y-85711000I-250000J0D01*
G01*
X108338000Y-85711000D01*
G75*
G02*
X108088000Y-85461000I0J250000D01*
G01*
G37*
G36*
G01*
X104988000Y-85461000D02*
X104988000Y-84211000D01*
G75*
G02*
X105238000Y-83961000I250000J0D01*
G01*
X106038000Y-83961000D01*
G75*
G02*
X106288000Y-84211000I0J-250000D01*
G01*
X106288000Y-85461000D01*
G75*
G02*
X106038000Y-85711000I-250000J0D01*
G01*
X105238000Y-85711000D01*
G75*
G02*
X104988000Y-85461000I0J250000D01*
G01*
G37*
%TD*%
%TO.C,R42*%
G36*
G01*
X83429000Y-69712000D02*
X82179000Y-69712000D01*
G75*
G02*
X81929000Y-69462000I0J250000D01*
G01*
X81929000Y-68662000D01*
G75*
G02*
X82179000Y-68412000I250000J0D01*
G01*
X83429000Y-68412000D01*
G75*
G02*
X83679000Y-68662000I0J-250000D01*
G01*
X83679000Y-69462000D01*
G75*
G02*
X83429000Y-69712000I-250000J0D01*
G01*
G37*
G36*
G01*
X83429000Y-72812000D02*
X82179000Y-72812000D01*
G75*
G02*
X81929000Y-72562000I0J250000D01*
G01*
X81929000Y-71762000D01*
G75*
G02*
X82179000Y-71512000I250000J0D01*
G01*
X83429000Y-71512000D01*
G75*
G02*
X83679000Y-71762000I0J-250000D01*
G01*
X83679000Y-72562000D01*
G75*
G02*
X83429000Y-72812000I-250000J0D01*
G01*
G37*
%TD*%
%TO.C,R41*%
G36*
G01*
X104050000Y-114417000D02*
X104050000Y-113167000D01*
G75*
G02*
X104300000Y-112917000I250000J0D01*
G01*
X105100000Y-112917000D01*
G75*
G02*
X105350000Y-113167000I0J-250000D01*
G01*
X105350000Y-114417000D01*
G75*
G02*
X105100000Y-114667000I-250000J0D01*
G01*
X104300000Y-114667000D01*
G75*
G02*
X104050000Y-114417000I0J250000D01*
G01*
G37*
G36*
G01*
X100950000Y-114417000D02*
X100950000Y-113167000D01*
G75*
G02*
X101200000Y-112917000I250000J0D01*
G01*
X102000000Y-112917000D01*
G75*
G02*
X102250000Y-113167000I0J-250000D01*
G01*
X102250000Y-114417000D01*
G75*
G02*
X102000000Y-114667000I-250000J0D01*
G01*
X101200000Y-114667000D01*
G75*
G02*
X100950000Y-114417000I0J250000D01*
G01*
G37*
%TD*%
%TO.C,R40*%
G36*
G01*
X87260000Y-134229000D02*
X87260000Y-132979000D01*
G75*
G02*
X87510000Y-132729000I250000J0D01*
G01*
X88310000Y-132729000D01*
G75*
G02*
X88560000Y-132979000I0J-250000D01*
G01*
X88560000Y-134229000D01*
G75*
G02*
X88310000Y-134479000I-250000J0D01*
G01*
X87510000Y-134479000D01*
G75*
G02*
X87260000Y-134229000I0J250000D01*
G01*
G37*
G36*
G01*
X84160000Y-134229000D02*
X84160000Y-132979000D01*
G75*
G02*
X84410000Y-132729000I250000J0D01*
G01*
X85210000Y-132729000D01*
G75*
G02*
X85460000Y-132979000I0J-250000D01*
G01*
X85460000Y-134229000D01*
G75*
G02*
X85210000Y-134479000I-250000J0D01*
G01*
X84410000Y-134479000D01*
G75*
G02*
X84160000Y-134229000I0J250000D01*
G01*
G37*
%TD*%
%TO.C,R39*%
G36*
G01*
X85969000Y-62092000D02*
X84719000Y-62092000D01*
G75*
G02*
X84469000Y-61842000I0J250000D01*
G01*
X84469000Y-61042000D01*
G75*
G02*
X84719000Y-60792000I250000J0D01*
G01*
X85969000Y-60792000D01*
G75*
G02*
X86219000Y-61042000I0J-250000D01*
G01*
X86219000Y-61842000D01*
G75*
G02*
X85969000Y-62092000I-250000J0D01*
G01*
G37*
G36*
G01*
X85969000Y-65192000D02*
X84719000Y-65192000D01*
G75*
G02*
X84469000Y-64942000I0J250000D01*
G01*
X84469000Y-64142000D01*
G75*
G02*
X84719000Y-63892000I250000J0D01*
G01*
X85969000Y-63892000D01*
G75*
G02*
X86219000Y-64142000I0J-250000D01*
G01*
X86219000Y-64942000D01*
G75*
G02*
X85969000Y-65192000I-250000J0D01*
G01*
G37*
%TD*%
%TO.C,R38*%
G36*
G01*
X88509000Y-62092000D02*
X87259000Y-62092000D01*
G75*
G02*
X87009000Y-61842000I0J250000D01*
G01*
X87009000Y-61042000D01*
G75*
G02*
X87259000Y-60792000I250000J0D01*
G01*
X88509000Y-60792000D01*
G75*
G02*
X88759000Y-61042000I0J-250000D01*
G01*
X88759000Y-61842000D01*
G75*
G02*
X88509000Y-62092000I-250000J0D01*
G01*
G37*
G36*
G01*
X88509000Y-65192000D02*
X87259000Y-65192000D01*
G75*
G02*
X87009000Y-64942000I0J250000D01*
G01*
X87009000Y-64142000D01*
G75*
G02*
X87259000Y-63892000I250000J0D01*
G01*
X88509000Y-63892000D01*
G75*
G02*
X88759000Y-64142000I0J-250000D01*
G01*
X88759000Y-64942000D01*
G75*
G02*
X88509000Y-65192000I-250000J0D01*
G01*
G37*
%TD*%
%TO.C,R37*%
G36*
G01*
X91049000Y-62092000D02*
X89799000Y-62092000D01*
G75*
G02*
X89549000Y-61842000I0J250000D01*
G01*
X89549000Y-61042000D01*
G75*
G02*
X89799000Y-60792000I250000J0D01*
G01*
X91049000Y-60792000D01*
G75*
G02*
X91299000Y-61042000I0J-250000D01*
G01*
X91299000Y-61842000D01*
G75*
G02*
X91049000Y-62092000I-250000J0D01*
G01*
G37*
G36*
G01*
X91049000Y-65192000D02*
X89799000Y-65192000D01*
G75*
G02*
X89549000Y-64942000I0J250000D01*
G01*
X89549000Y-64142000D01*
G75*
G02*
X89799000Y-63892000I250000J0D01*
G01*
X91049000Y-63892000D01*
G75*
G02*
X91299000Y-64142000I0J-250000D01*
G01*
X91299000Y-64942000D01*
G75*
G02*
X91049000Y-65192000I-250000J0D01*
G01*
G37*
%TD*%
%TO.C,R36*%
G36*
G01*
X143647000Y-57822000D02*
X144897000Y-57822000D01*
G75*
G02*
X145147000Y-58072000I0J-250000D01*
G01*
X145147000Y-58872000D01*
G75*
G02*
X144897000Y-59122000I-250000J0D01*
G01*
X143647000Y-59122000D01*
G75*
G02*
X143397000Y-58872000I0J250000D01*
G01*
X143397000Y-58072000D01*
G75*
G02*
X143647000Y-57822000I250000J0D01*
G01*
G37*
G36*
G01*
X143647000Y-54722000D02*
X144897000Y-54722000D01*
G75*
G02*
X145147000Y-54972000I0J-250000D01*
G01*
X145147000Y-55772000D01*
G75*
G02*
X144897000Y-56022000I-250000J0D01*
G01*
X143647000Y-56022000D01*
G75*
G02*
X143397000Y-55772000I0J250000D01*
G01*
X143397000Y-54972000D01*
G75*
G02*
X143647000Y-54722000I250000J0D01*
G01*
G37*
%TD*%
%TO.C,R35*%
G36*
G01*
X83196000Y-124577000D02*
X83196000Y-123327000D01*
G75*
G02*
X83446000Y-123077000I250000J0D01*
G01*
X84246000Y-123077000D01*
G75*
G02*
X84496000Y-123327000I0J-250000D01*
G01*
X84496000Y-124577000D01*
G75*
G02*
X84246000Y-124827000I-250000J0D01*
G01*
X83446000Y-124827000D01*
G75*
G02*
X83196000Y-124577000I0J250000D01*
G01*
G37*
G36*
G01*
X80096000Y-124577000D02*
X80096000Y-123327000D01*
G75*
G02*
X80346000Y-123077000I250000J0D01*
G01*
X81146000Y-123077000D01*
G75*
G02*
X81396000Y-123327000I0J-250000D01*
G01*
X81396000Y-124577000D01*
G75*
G02*
X81146000Y-124827000I-250000J0D01*
G01*
X80346000Y-124827000D01*
G75*
G02*
X80096000Y-124577000I0J250000D01*
G01*
G37*
%TD*%
%TO.C,R31*%
G36*
G01*
X176186000Y-121529000D02*
X176186000Y-120279000D01*
G75*
G02*
X176436000Y-120029000I250000J0D01*
G01*
X177236000Y-120029000D01*
G75*
G02*
X177486000Y-120279000I0J-250000D01*
G01*
X177486000Y-121529000D01*
G75*
G02*
X177236000Y-121779000I-250000J0D01*
G01*
X176436000Y-121779000D01*
G75*
G02*
X176186000Y-121529000I0J250000D01*
G01*
G37*
G36*
G01*
X173086000Y-121529000D02*
X173086000Y-120279000D01*
G75*
G02*
X173336000Y-120029000I250000J0D01*
G01*
X174136000Y-120029000D01*
G75*
G02*
X174386000Y-120279000I0J-250000D01*
G01*
X174386000Y-121529000D01*
G75*
G02*
X174136000Y-121779000I-250000J0D01*
G01*
X173336000Y-121779000D01*
G75*
G02*
X173086000Y-121529000I0J250000D01*
G01*
G37*
%TD*%
%TO.C,R30*%
G36*
G01*
X201051000Y-127366000D02*
X202301000Y-127366000D01*
G75*
G02*
X202551000Y-127616000I0J-250000D01*
G01*
X202551000Y-128416000D01*
G75*
G02*
X202301000Y-128666000I-250000J0D01*
G01*
X201051000Y-128666000D01*
G75*
G02*
X200801000Y-128416000I0J250000D01*
G01*
X200801000Y-127616000D01*
G75*
G02*
X201051000Y-127366000I250000J0D01*
G01*
G37*
G36*
G01*
X201051000Y-124266000D02*
X202301000Y-124266000D01*
G75*
G02*
X202551000Y-124516000I0J-250000D01*
G01*
X202551000Y-125316000D01*
G75*
G02*
X202301000Y-125566000I-250000J0D01*
G01*
X201051000Y-125566000D01*
G75*
G02*
X200801000Y-125316000I0J250000D01*
G01*
X200801000Y-124516000D01*
G75*
G02*
X201051000Y-124266000I250000J0D01*
G01*
G37*
%TD*%
%TO.C,R29*%
G36*
G01*
X180732000Y-84953000D02*
X180732000Y-83703000D01*
G75*
G02*
X180982000Y-83453000I250000J0D01*
G01*
X181782000Y-83453000D01*
G75*
G02*
X182032000Y-83703000I0J-250000D01*
G01*
X182032000Y-84953000D01*
G75*
G02*
X181782000Y-85203000I-250000J0D01*
G01*
X180982000Y-85203000D01*
G75*
G02*
X180732000Y-84953000I0J250000D01*
G01*
G37*
G36*
G01*
X177632000Y-84953000D02*
X177632000Y-83703000D01*
G75*
G02*
X177882000Y-83453000I250000J0D01*
G01*
X178682000Y-83453000D01*
G75*
G02*
X178932000Y-83703000I0J-250000D01*
G01*
X178932000Y-84953000D01*
G75*
G02*
X178682000Y-85203000I-250000J0D01*
G01*
X177882000Y-85203000D01*
G75*
G02*
X177632000Y-84953000I0J250000D01*
G01*
G37*
%TD*%
%TO.C,R28*%
G36*
G01*
X192141000Y-87492000D02*
X190891000Y-87492000D01*
G75*
G02*
X190641000Y-87242000I0J250000D01*
G01*
X190641000Y-86442000D01*
G75*
G02*
X190891000Y-86192000I250000J0D01*
G01*
X192141000Y-86192000D01*
G75*
G02*
X192391000Y-86442000I0J-250000D01*
G01*
X192391000Y-87242000D01*
G75*
G02*
X192141000Y-87492000I-250000J0D01*
G01*
G37*
G36*
G01*
X192141000Y-90592000D02*
X190891000Y-90592000D01*
G75*
G02*
X190641000Y-90342000I0J250000D01*
G01*
X190641000Y-89542000D01*
G75*
G02*
X190891000Y-89292000I250000J0D01*
G01*
X192141000Y-89292000D01*
G75*
G02*
X192391000Y-89542000I0J-250000D01*
G01*
X192391000Y-90342000D01*
G75*
G02*
X192141000Y-90592000I-250000J0D01*
G01*
G37*
%TD*%
%TO.C,R27*%
G36*
G01*
X199761000Y-70220000D02*
X198511000Y-70220000D01*
G75*
G02*
X198261000Y-69970000I0J250000D01*
G01*
X198261000Y-69170000D01*
G75*
G02*
X198511000Y-68920000I250000J0D01*
G01*
X199761000Y-68920000D01*
G75*
G02*
X200011000Y-69170000I0J-250000D01*
G01*
X200011000Y-69970000D01*
G75*
G02*
X199761000Y-70220000I-250000J0D01*
G01*
G37*
G36*
G01*
X199761000Y-73320000D02*
X198511000Y-73320000D01*
G75*
G02*
X198261000Y-73070000I0J250000D01*
G01*
X198261000Y-72270000D01*
G75*
G02*
X198511000Y-72020000I250000J0D01*
G01*
X199761000Y-72020000D01*
G75*
G02*
X200011000Y-72270000I0J-250000D01*
G01*
X200011000Y-73070000D01*
G75*
G02*
X199761000Y-73320000I-250000J0D01*
G01*
G37*
%TD*%
%TO.C,R26*%
G36*
G01*
X202301000Y-70220000D02*
X201051000Y-70220000D01*
G75*
G02*
X200801000Y-69970000I0J250000D01*
G01*
X200801000Y-69170000D01*
G75*
G02*
X201051000Y-68920000I250000J0D01*
G01*
X202301000Y-68920000D01*
G75*
G02*
X202551000Y-69170000I0J-250000D01*
G01*
X202551000Y-69970000D01*
G75*
G02*
X202301000Y-70220000I-250000J0D01*
G01*
G37*
G36*
G01*
X202301000Y-73320000D02*
X201051000Y-73320000D01*
G75*
G02*
X200801000Y-73070000I0J250000D01*
G01*
X200801000Y-72270000D01*
G75*
G02*
X201051000Y-72020000I250000J0D01*
G01*
X202301000Y-72020000D01*
G75*
G02*
X202551000Y-72270000I0J-250000D01*
G01*
X202551000Y-73070000D01*
G75*
G02*
X202301000Y-73320000I-250000J0D01*
G01*
G37*
%TD*%
%TO.C,R25*%
G36*
G01*
X135519000Y-90816000D02*
X136769000Y-90816000D01*
G75*
G02*
X137019000Y-91066000I0J-250000D01*
G01*
X137019000Y-91866000D01*
G75*
G02*
X136769000Y-92116000I-250000J0D01*
G01*
X135519000Y-92116000D01*
G75*
G02*
X135269000Y-91866000I0J250000D01*
G01*
X135269000Y-91066000D01*
G75*
G02*
X135519000Y-90816000I250000J0D01*
G01*
G37*
G36*
G01*
X135519000Y-87716000D02*
X136769000Y-87716000D01*
G75*
G02*
X137019000Y-87966000I0J-250000D01*
G01*
X137019000Y-88766000D01*
G75*
G02*
X136769000Y-89016000I-250000J0D01*
G01*
X135519000Y-89016000D01*
G75*
G02*
X135269000Y-88766000I0J250000D01*
G01*
X135269000Y-87966000D01*
G75*
G02*
X135519000Y-87716000I250000J0D01*
G01*
G37*
%TD*%
%TO.C,R24*%
G36*
G01*
X204841000Y-70220000D02*
X203591000Y-70220000D01*
G75*
G02*
X203341000Y-69970000I0J250000D01*
G01*
X203341000Y-69170000D01*
G75*
G02*
X203591000Y-68920000I250000J0D01*
G01*
X204841000Y-68920000D01*
G75*
G02*
X205091000Y-69170000I0J-250000D01*
G01*
X205091000Y-69970000D01*
G75*
G02*
X204841000Y-70220000I-250000J0D01*
G01*
G37*
G36*
G01*
X204841000Y-73320000D02*
X203591000Y-73320000D01*
G75*
G02*
X203341000Y-73070000I0J250000D01*
G01*
X203341000Y-72270000D01*
G75*
G02*
X203591000Y-72020000I250000J0D01*
G01*
X204841000Y-72020000D01*
G75*
G02*
X205091000Y-72270000I0J-250000D01*
G01*
X205091000Y-73070000D01*
G75*
G02*
X204841000Y-73320000I-250000J0D01*
G01*
G37*
%TD*%
%TO.C,R23*%
G36*
G01*
X190108000Y-124343000D02*
X190108000Y-125593000D01*
G75*
G02*
X189858000Y-125843000I-250000J0D01*
G01*
X189058000Y-125843000D01*
G75*
G02*
X188808000Y-125593000I0J250000D01*
G01*
X188808000Y-124343000D01*
G75*
G02*
X189058000Y-124093000I250000J0D01*
G01*
X189858000Y-124093000D01*
G75*
G02*
X190108000Y-124343000I0J-250000D01*
G01*
G37*
G36*
G01*
X193208000Y-124343000D02*
X193208000Y-125593000D01*
G75*
G02*
X192958000Y-125843000I-250000J0D01*
G01*
X192158000Y-125843000D01*
G75*
G02*
X191908000Y-125593000I0J250000D01*
G01*
X191908000Y-124343000D01*
G75*
G02*
X192158000Y-124093000I250000J0D01*
G01*
X192958000Y-124093000D01*
G75*
G02*
X193208000Y-124343000I0J-250000D01*
G01*
G37*
%TD*%
%TO.C,R22*%
G36*
G01*
X146929000Y-154548000D02*
X145679000Y-154548000D01*
G75*
G02*
X145429000Y-154298000I0J250000D01*
G01*
X145429000Y-153498000D01*
G75*
G02*
X145679000Y-153248000I250000J0D01*
G01*
X146929000Y-153248000D01*
G75*
G02*
X147179000Y-153498000I0J-250000D01*
G01*
X147179000Y-154298000D01*
G75*
G02*
X146929000Y-154548000I-250000J0D01*
G01*
G37*
G36*
G01*
X146929000Y-157648000D02*
X145679000Y-157648000D01*
G75*
G02*
X145429000Y-157398000I0J250000D01*
G01*
X145429000Y-156598000D01*
G75*
G02*
X145679000Y-156348000I250000J0D01*
G01*
X146929000Y-156348000D01*
G75*
G02*
X147179000Y-156598000I0J-250000D01*
G01*
X147179000Y-157398000D01*
G75*
G02*
X146929000Y-157648000I-250000J0D01*
G01*
G37*
%TD*%
%TO.C,R21*%
G36*
G01*
X95594000Y-112151000D02*
X95594000Y-113401000D01*
G75*
G02*
X95344000Y-113651000I-250000J0D01*
G01*
X94544000Y-113651000D01*
G75*
G02*
X94294000Y-113401000I0J250000D01*
G01*
X94294000Y-112151000D01*
G75*
G02*
X94544000Y-111901000I250000J0D01*
G01*
X95344000Y-111901000D01*
G75*
G02*
X95594000Y-112151000I0J-250000D01*
G01*
G37*
G36*
G01*
X98694000Y-112151000D02*
X98694000Y-113401000D01*
G75*
G02*
X98444000Y-113651000I-250000J0D01*
G01*
X97644000Y-113651000D01*
G75*
G02*
X97394000Y-113401000I0J250000D01*
G01*
X97394000Y-112151000D01*
G75*
G02*
X97644000Y-111901000I250000J0D01*
G01*
X98444000Y-111901000D01*
G75*
G02*
X98694000Y-112151000I0J-250000D01*
G01*
G37*
%TD*%
%TO.C,R20*%
G36*
G01*
X95594000Y-109611000D02*
X95594000Y-110861000D01*
G75*
G02*
X95344000Y-111111000I-250000J0D01*
G01*
X94544000Y-111111000D01*
G75*
G02*
X94294000Y-110861000I0J250000D01*
G01*
X94294000Y-109611000D01*
G75*
G02*
X94544000Y-109361000I250000J0D01*
G01*
X95344000Y-109361000D01*
G75*
G02*
X95594000Y-109611000I0J-250000D01*
G01*
G37*
G36*
G01*
X98694000Y-109611000D02*
X98694000Y-110861000D01*
G75*
G02*
X98444000Y-111111000I-250000J0D01*
G01*
X97644000Y-111111000D01*
G75*
G02*
X97394000Y-110861000I0J250000D01*
G01*
X97394000Y-109611000D01*
G75*
G02*
X97644000Y-109361000I250000J0D01*
G01*
X98444000Y-109361000D01*
G75*
G02*
X98694000Y-109611000I0J-250000D01*
G01*
G37*
%TD*%
%TO.C,R19*%
G36*
G01*
X95620000Y-107071000D02*
X95620000Y-108321000D01*
G75*
G02*
X95370000Y-108571000I-250000J0D01*
G01*
X94570000Y-108571000D01*
G75*
G02*
X94320000Y-108321000I0J250000D01*
G01*
X94320000Y-107071000D01*
G75*
G02*
X94570000Y-106821000I250000J0D01*
G01*
X95370000Y-106821000D01*
G75*
G02*
X95620000Y-107071000I0J-250000D01*
G01*
G37*
G36*
G01*
X98720000Y-107071000D02*
X98720000Y-108321000D01*
G75*
G02*
X98470000Y-108571000I-250000J0D01*
G01*
X97670000Y-108571000D01*
G75*
G02*
X97420000Y-108321000I0J250000D01*
G01*
X97420000Y-107071000D01*
G75*
G02*
X97670000Y-106821000I250000J0D01*
G01*
X98470000Y-106821000D01*
G75*
G02*
X98720000Y-107071000I0J-250000D01*
G01*
G37*
%TD*%
%TO.C,R18*%
G36*
G01*
X121020000Y-111643000D02*
X121020000Y-112893000D01*
G75*
G02*
X120770000Y-113143000I-250000J0D01*
G01*
X119970000Y-113143000D01*
G75*
G02*
X119720000Y-112893000I0J250000D01*
G01*
X119720000Y-111643000D01*
G75*
G02*
X119970000Y-111393000I250000J0D01*
G01*
X120770000Y-111393000D01*
G75*
G02*
X121020000Y-111643000I0J-250000D01*
G01*
G37*
G36*
G01*
X124120000Y-111643000D02*
X124120000Y-112893000D01*
G75*
G02*
X123870000Y-113143000I-250000J0D01*
G01*
X123070000Y-113143000D01*
G75*
G02*
X122820000Y-112893000I0J250000D01*
G01*
X122820000Y-111643000D01*
G75*
G02*
X123070000Y-111393000I250000J0D01*
G01*
X123870000Y-111393000D01*
G75*
G02*
X124120000Y-111643000I0J-250000D01*
G01*
G37*
%TD*%
%TO.C,R17*%
G36*
G01*
X109104000Y-66157000D02*
X109104000Y-64907000D01*
G75*
G02*
X109354000Y-64657000I250000J0D01*
G01*
X110154000Y-64657000D01*
G75*
G02*
X110404000Y-64907000I0J-250000D01*
G01*
X110404000Y-66157000D01*
G75*
G02*
X110154000Y-66407000I-250000J0D01*
G01*
X109354000Y-66407000D01*
G75*
G02*
X109104000Y-66157000I0J250000D01*
G01*
G37*
G36*
G01*
X106004000Y-66157000D02*
X106004000Y-64907000D01*
G75*
G02*
X106254000Y-64657000I250000J0D01*
G01*
X107054000Y-64657000D01*
G75*
G02*
X107304000Y-64907000I0J-250000D01*
G01*
X107304000Y-66157000D01*
G75*
G02*
X107054000Y-66407000I-250000J0D01*
G01*
X106254000Y-66407000D01*
G75*
G02*
X106004000Y-66157000I0J250000D01*
G01*
G37*
%TD*%
%TO.C,R16*%
G36*
G01*
X116215000Y-106564000D02*
X117465000Y-106564000D01*
G75*
G02*
X117715000Y-106814000I0J-250000D01*
G01*
X117715000Y-107614000D01*
G75*
G02*
X117465000Y-107864000I-250000J0D01*
G01*
X116215000Y-107864000D01*
G75*
G02*
X115965000Y-107614000I0J250000D01*
G01*
X115965000Y-106814000D01*
G75*
G02*
X116215000Y-106564000I250000J0D01*
G01*
G37*
G36*
G01*
X116215000Y-103464000D02*
X117465000Y-103464000D01*
G75*
G02*
X117715000Y-103714000I0J-250000D01*
G01*
X117715000Y-104514000D01*
G75*
G02*
X117465000Y-104764000I-250000J0D01*
G01*
X116215000Y-104764000D01*
G75*
G02*
X115965000Y-104514000I0J250000D01*
G01*
X115965000Y-103714000D01*
G75*
G02*
X116215000Y-103464000I250000J0D01*
G01*
G37*
%TD*%
%TO.C,R15*%
G36*
G01*
X154315000Y-52716000D02*
X155565000Y-52716000D01*
G75*
G02*
X155815000Y-52966000I0J-250000D01*
G01*
X155815000Y-53766000D01*
G75*
G02*
X155565000Y-54016000I-250000J0D01*
G01*
X154315000Y-54016000D01*
G75*
G02*
X154065000Y-53766000I0J250000D01*
G01*
X154065000Y-52966000D01*
G75*
G02*
X154315000Y-52716000I250000J0D01*
G01*
G37*
G36*
G01*
X154315000Y-49616000D02*
X155565000Y-49616000D01*
G75*
G02*
X155815000Y-49866000I0J-250000D01*
G01*
X155815000Y-50666000D01*
G75*
G02*
X155565000Y-50916000I-250000J0D01*
G01*
X154315000Y-50916000D01*
G75*
G02*
X154065000Y-50666000I0J250000D01*
G01*
X154065000Y-49866000D01*
G75*
G02*
X154315000Y-49616000I250000J0D01*
G01*
G37*
%TD*%
%TO.C,R14*%
G36*
G01*
X135038000Y-50409000D02*
X135038000Y-49159000D01*
G75*
G02*
X135288000Y-48909000I250000J0D01*
G01*
X136088000Y-48909000D01*
G75*
G02*
X136338000Y-49159000I0J-250000D01*
G01*
X136338000Y-50409000D01*
G75*
G02*
X136088000Y-50659000I-250000J0D01*
G01*
X135288000Y-50659000D01*
G75*
G02*
X135038000Y-50409000I0J250000D01*
G01*
G37*
G36*
G01*
X131938000Y-50409000D02*
X131938000Y-49159000D01*
G75*
G02*
X132188000Y-48909000I250000J0D01*
G01*
X132988000Y-48909000D01*
G75*
G02*
X133238000Y-49159000I0J-250000D01*
G01*
X133238000Y-50409000D01*
G75*
G02*
X132988000Y-50659000I-250000J0D01*
G01*
X132188000Y-50659000D01*
G75*
G02*
X131938000Y-50409000I0J250000D01*
G01*
G37*
%TD*%
%TO.C,R13*%
G36*
G01*
X135012000Y-52949000D02*
X135012000Y-51699000D01*
G75*
G02*
X135262000Y-51449000I250000J0D01*
G01*
X136062000Y-51449000D01*
G75*
G02*
X136312000Y-51699000I0J-250000D01*
G01*
X136312000Y-52949000D01*
G75*
G02*
X136062000Y-53199000I-250000J0D01*
G01*
X135262000Y-53199000D01*
G75*
G02*
X135012000Y-52949000I0J250000D01*
G01*
G37*
G36*
G01*
X131912000Y-52949000D02*
X131912000Y-51699000D01*
G75*
G02*
X132162000Y-51449000I250000J0D01*
G01*
X132962000Y-51449000D01*
G75*
G02*
X133212000Y-51699000I0J-250000D01*
G01*
X133212000Y-52949000D01*
G75*
G02*
X132962000Y-53199000I-250000J0D01*
G01*
X132162000Y-53199000D01*
G75*
G02*
X131912000Y-52949000I0J250000D01*
G01*
G37*
%TD*%
%TO.C,R12*%
G36*
G01*
X135012000Y-55489000D02*
X135012000Y-54239000D01*
G75*
G02*
X135262000Y-53989000I250000J0D01*
G01*
X136062000Y-53989000D01*
G75*
G02*
X136312000Y-54239000I0J-250000D01*
G01*
X136312000Y-55489000D01*
G75*
G02*
X136062000Y-55739000I-250000J0D01*
G01*
X135262000Y-55739000D01*
G75*
G02*
X135012000Y-55489000I0J250000D01*
G01*
G37*
G36*
G01*
X131912000Y-55489000D02*
X131912000Y-54239000D01*
G75*
G02*
X132162000Y-53989000I250000J0D01*
G01*
X132962000Y-53989000D01*
G75*
G02*
X133212000Y-54239000I0J-250000D01*
G01*
X133212000Y-55489000D01*
G75*
G02*
X132962000Y-55739000I-250000J0D01*
G01*
X132162000Y-55739000D01*
G75*
G02*
X131912000Y-55489000I0J250000D01*
G01*
G37*
%TD*%
%TO.C,R11*%
G36*
G01*
X161427000Y-117740000D02*
X162677000Y-117740000D01*
G75*
G02*
X162927000Y-117990000I0J-250000D01*
G01*
X162927000Y-118790000D01*
G75*
G02*
X162677000Y-119040000I-250000J0D01*
G01*
X161427000Y-119040000D01*
G75*
G02*
X161177000Y-118790000I0J250000D01*
G01*
X161177000Y-117990000D01*
G75*
G02*
X161427000Y-117740000I250000J0D01*
G01*
G37*
G36*
G01*
X161427000Y-114640000D02*
X162677000Y-114640000D01*
G75*
G02*
X162927000Y-114890000I0J-250000D01*
G01*
X162927000Y-115690000D01*
G75*
G02*
X162677000Y-115940000I-250000J0D01*
G01*
X161427000Y-115940000D01*
G75*
G02*
X161177000Y-115690000I0J250000D01*
G01*
X161177000Y-114890000D01*
G75*
G02*
X161427000Y-114640000I250000J0D01*
G01*
G37*
%TD*%
%TO.C,R10*%
G36*
G01*
X99685000Y-81904000D02*
X98435000Y-81904000D01*
G75*
G02*
X98185000Y-81654000I0J250000D01*
G01*
X98185000Y-80854000D01*
G75*
G02*
X98435000Y-80604000I250000J0D01*
G01*
X99685000Y-80604000D01*
G75*
G02*
X99935000Y-80854000I0J-250000D01*
G01*
X99935000Y-81654000D01*
G75*
G02*
X99685000Y-81904000I-250000J0D01*
G01*
G37*
G36*
G01*
X99685000Y-85004000D02*
X98435000Y-85004000D01*
G75*
G02*
X98185000Y-84754000I0J250000D01*
G01*
X98185000Y-83954000D01*
G75*
G02*
X98435000Y-83704000I250000J0D01*
G01*
X99685000Y-83704000D01*
G75*
G02*
X99935000Y-83954000I0J-250000D01*
G01*
X99935000Y-84754000D01*
G75*
G02*
X99685000Y-85004000I-250000J0D01*
G01*
G37*
%TD*%
%TO.C,R9*%
G36*
G01*
X108595000Y-130440000D02*
X109845000Y-130440000D01*
G75*
G02*
X110095000Y-130690000I0J-250000D01*
G01*
X110095000Y-131490000D01*
G75*
G02*
X109845000Y-131740000I-250000J0D01*
G01*
X108595000Y-131740000D01*
G75*
G02*
X108345000Y-131490000I0J250000D01*
G01*
X108345000Y-130690000D01*
G75*
G02*
X108595000Y-130440000I250000J0D01*
G01*
G37*
G36*
G01*
X108595000Y-127340000D02*
X109845000Y-127340000D01*
G75*
G02*
X110095000Y-127590000I0J-250000D01*
G01*
X110095000Y-128390000D01*
G75*
G02*
X109845000Y-128640000I-250000J0D01*
G01*
X108595000Y-128640000D01*
G75*
G02*
X108345000Y-128390000I0J250000D01*
G01*
X108345000Y-127590000D01*
G75*
G02*
X108595000Y-127340000I250000J0D01*
G01*
G37*
%TD*%
%TO.C,R8*%
G36*
G01*
X106055000Y-130440000D02*
X107305000Y-130440000D01*
G75*
G02*
X107555000Y-130690000I0J-250000D01*
G01*
X107555000Y-131490000D01*
G75*
G02*
X107305000Y-131740000I-250000J0D01*
G01*
X106055000Y-131740000D01*
G75*
G02*
X105805000Y-131490000I0J250000D01*
G01*
X105805000Y-130690000D01*
G75*
G02*
X106055000Y-130440000I250000J0D01*
G01*
G37*
G36*
G01*
X106055000Y-127340000D02*
X107305000Y-127340000D01*
G75*
G02*
X107555000Y-127590000I0J-250000D01*
G01*
X107555000Y-128390000D01*
G75*
G02*
X107305000Y-128640000I-250000J0D01*
G01*
X106055000Y-128640000D01*
G75*
G02*
X105805000Y-128390000I0J250000D01*
G01*
X105805000Y-127590000D01*
G75*
G02*
X106055000Y-127340000I250000J0D01*
G01*
G37*
%TD*%
%TO.C,R7*%
G36*
G01*
X103515000Y-130440000D02*
X104765000Y-130440000D01*
G75*
G02*
X105015000Y-130690000I0J-250000D01*
G01*
X105015000Y-131490000D01*
G75*
G02*
X104765000Y-131740000I-250000J0D01*
G01*
X103515000Y-131740000D01*
G75*
G02*
X103265000Y-131490000I0J250000D01*
G01*
X103265000Y-130690000D01*
G75*
G02*
X103515000Y-130440000I250000J0D01*
G01*
G37*
G36*
G01*
X103515000Y-127340000D02*
X104765000Y-127340000D01*
G75*
G02*
X105015000Y-127590000I0J-250000D01*
G01*
X105015000Y-128390000D01*
G75*
G02*
X104765000Y-128640000I-250000J0D01*
G01*
X103515000Y-128640000D01*
G75*
G02*
X103265000Y-128390000I0J250000D01*
G01*
X103265000Y-127590000D01*
G75*
G02*
X103515000Y-127340000I250000J0D01*
G01*
G37*
%TD*%
%TO.C,R6*%
G36*
G01*
X160137000Y-120994000D02*
X158887000Y-120994000D01*
G75*
G02*
X158637000Y-120744000I0J250000D01*
G01*
X158637000Y-119944000D01*
G75*
G02*
X158887000Y-119694000I250000J0D01*
G01*
X160137000Y-119694000D01*
G75*
G02*
X160387000Y-119944000I0J-250000D01*
G01*
X160387000Y-120744000D01*
G75*
G02*
X160137000Y-120994000I-250000J0D01*
G01*
G37*
G36*
G01*
X160137000Y-124094000D02*
X158887000Y-124094000D01*
G75*
G02*
X158637000Y-123844000I0J250000D01*
G01*
X158637000Y-123044000D01*
G75*
G02*
X158887000Y-122794000I250000J0D01*
G01*
X160137000Y-122794000D01*
G75*
G02*
X160387000Y-123044000I0J-250000D01*
G01*
X160387000Y-123844000D01*
G75*
G02*
X160137000Y-124094000I-250000J0D01*
G01*
G37*
%TD*%
%TO.C,R5*%
G36*
G01*
X187843000Y-112152000D02*
X189093000Y-112152000D01*
G75*
G02*
X189343000Y-112402000I0J-250000D01*
G01*
X189343000Y-113202000D01*
G75*
G02*
X189093000Y-113452000I-250000J0D01*
G01*
X187843000Y-113452000D01*
G75*
G02*
X187593000Y-113202000I0J250000D01*
G01*
X187593000Y-112402000D01*
G75*
G02*
X187843000Y-112152000I250000J0D01*
G01*
G37*
G36*
G01*
X187843000Y-109052000D02*
X189093000Y-109052000D01*
G75*
G02*
X189343000Y-109302000I0J-250000D01*
G01*
X189343000Y-110102000D01*
G75*
G02*
X189093000Y-110352000I-250000J0D01*
G01*
X187843000Y-110352000D01*
G75*
G02*
X187593000Y-110102000I0J250000D01*
G01*
X187593000Y-109302000D01*
G75*
G02*
X187843000Y-109052000I250000J0D01*
G01*
G37*
%TD*%
%TO.C,R4*%
G36*
G01*
X158104000Y-94371000D02*
X158104000Y-95621000D01*
G75*
G02*
X157854000Y-95871000I-250000J0D01*
G01*
X157054000Y-95871000D01*
G75*
G02*
X156804000Y-95621000I0J250000D01*
G01*
X156804000Y-94371000D01*
G75*
G02*
X157054000Y-94121000I250000J0D01*
G01*
X157854000Y-94121000D01*
G75*
G02*
X158104000Y-94371000I0J-250000D01*
G01*
G37*
G36*
G01*
X161204000Y-94371000D02*
X161204000Y-95621000D01*
G75*
G02*
X160954000Y-95871000I-250000J0D01*
G01*
X160154000Y-95871000D01*
G75*
G02*
X159904000Y-95621000I0J250000D01*
G01*
X159904000Y-94371000D01*
G75*
G02*
X160154000Y-94121000I250000J0D01*
G01*
X160954000Y-94121000D01*
G75*
G02*
X161204000Y-94371000I0J-250000D01*
G01*
G37*
%TD*%
%TO.C,R3*%
G36*
G01*
X181239000Y-68464000D02*
X182489000Y-68464000D01*
G75*
G02*
X182739000Y-68714000I0J-250000D01*
G01*
X182739000Y-69514000D01*
G75*
G02*
X182489000Y-69764000I-250000J0D01*
G01*
X181239000Y-69764000D01*
G75*
G02*
X180989000Y-69514000I0J250000D01*
G01*
X180989000Y-68714000D01*
G75*
G02*
X181239000Y-68464000I250000J0D01*
G01*
G37*
G36*
G01*
X181239000Y-65364000D02*
X182489000Y-65364000D01*
G75*
G02*
X182739000Y-65614000I0J-250000D01*
G01*
X182739000Y-66414000D01*
G75*
G02*
X182489000Y-66664000I-250000J0D01*
G01*
X181239000Y-66664000D01*
G75*
G02*
X180989000Y-66414000I0J250000D01*
G01*
X180989000Y-65614000D01*
G75*
G02*
X181239000Y-65364000I250000J0D01*
G01*
G37*
%TD*%
%TO.C,R2*%
G36*
G01*
X149743000Y-100976000D02*
X150993000Y-100976000D01*
G75*
G02*
X151243000Y-101226000I0J-250000D01*
G01*
X151243000Y-102026000D01*
G75*
G02*
X150993000Y-102276000I-250000J0D01*
G01*
X149743000Y-102276000D01*
G75*
G02*
X149493000Y-102026000I0J250000D01*
G01*
X149493000Y-101226000D01*
G75*
G02*
X149743000Y-100976000I250000J0D01*
G01*
G37*
G36*
G01*
X149743000Y-97876000D02*
X150993000Y-97876000D01*
G75*
G02*
X151243000Y-98126000I0J-250000D01*
G01*
X151243000Y-98926000D01*
G75*
G02*
X150993000Y-99176000I-250000J0D01*
G01*
X149743000Y-99176000D01*
G75*
G02*
X149493000Y-98926000I0J250000D01*
G01*
X149493000Y-98126000D01*
G75*
G02*
X149743000Y-97876000I250000J0D01*
G01*
G37*
%TD*%
%TO.C,R1*%
G36*
G01*
X149743000Y-95896000D02*
X150993000Y-95896000D01*
G75*
G02*
X151243000Y-96146000I0J-250000D01*
G01*
X151243000Y-96946000D01*
G75*
G02*
X150993000Y-97196000I-250000J0D01*
G01*
X149743000Y-97196000D01*
G75*
G02*
X149493000Y-96946000I0J250000D01*
G01*
X149493000Y-96146000D01*
G75*
G02*
X149743000Y-95896000I250000J0D01*
G01*
G37*
G36*
G01*
X149743000Y-92796000D02*
X150993000Y-92796000D01*
G75*
G02*
X151243000Y-93046000I0J-250000D01*
G01*
X151243000Y-93846000D01*
G75*
G02*
X150993000Y-94096000I-250000J0D01*
G01*
X149743000Y-94096000D01*
G75*
G02*
X149493000Y-93846000I0J250000D01*
G01*
X149493000Y-93046000D01*
G75*
G02*
X149743000Y-92796000I250000J0D01*
G01*
G37*
%TD*%
D10*
%TO.C,Q5*%
X156270000Y-119888000D03*
X153610000Y-120538000D03*
X153610000Y-119238000D03*
%TD*%
%TO.C,Q4*%
X130750000Y-121412000D03*
X133410000Y-120762000D03*
X133410000Y-122062000D03*
%TD*%
%TO.C,Q2*%
X156270000Y-116332000D03*
X153610000Y-116982000D03*
X153610000Y-115682000D03*
%TD*%
%TO.C,Q1*%
X130750000Y-99568000D03*
X133410000Y-98918000D03*
X133410000Y-100218000D03*
%TD*%
%TO.C,D50*%
G36*
G01*
X151143000Y-59553000D02*
X151143000Y-58303000D01*
G75*
G02*
X151393000Y-58053000I250000J0D01*
G01*
X152318000Y-58053000D01*
G75*
G02*
X152568000Y-58303000I0J-250000D01*
G01*
X152568000Y-59553000D01*
G75*
G02*
X152318000Y-59803000I-250000J0D01*
G01*
X151393000Y-59803000D01*
G75*
G02*
X151143000Y-59553000I0J250000D01*
G01*
G37*
G36*
G01*
X148168000Y-59553000D02*
X148168000Y-58303000D01*
G75*
G02*
X148418000Y-58053000I250000J0D01*
G01*
X149343000Y-58053000D01*
G75*
G02*
X149593000Y-58303000I0J-250000D01*
G01*
X149593000Y-59553000D01*
G75*
G02*
X149343000Y-59803000I-250000J0D01*
G01*
X148418000Y-59803000D01*
G75*
G02*
X148168000Y-59553000I0J250000D01*
G01*
G37*
%TD*%
%TO.C,D49*%
G36*
G01*
X108471000Y-124069000D02*
X108471000Y-122819000D01*
G75*
G02*
X108721000Y-122569000I250000J0D01*
G01*
X109646000Y-122569000D01*
G75*
G02*
X109896000Y-122819000I0J-250000D01*
G01*
X109896000Y-124069000D01*
G75*
G02*
X109646000Y-124319000I-250000J0D01*
G01*
X108721000Y-124319000D01*
G75*
G02*
X108471000Y-124069000I0J250000D01*
G01*
G37*
G36*
G01*
X105496000Y-124069000D02*
X105496000Y-122819000D01*
G75*
G02*
X105746000Y-122569000I250000J0D01*
G01*
X106671000Y-122569000D01*
G75*
G02*
X106921000Y-122819000I0J-250000D01*
G01*
X106921000Y-124069000D01*
G75*
G02*
X106671000Y-124319000I-250000J0D01*
G01*
X105746000Y-124319000D01*
G75*
G02*
X105496000Y-124069000I0J250000D01*
G01*
G37*
%TD*%
%TO.C,D48*%
G36*
G01*
X94755000Y-69713000D02*
X94755000Y-68463000D01*
G75*
G02*
X95005000Y-68213000I250000J0D01*
G01*
X95930000Y-68213000D01*
G75*
G02*
X96180000Y-68463000I0J-250000D01*
G01*
X96180000Y-69713000D01*
G75*
G02*
X95930000Y-69963000I-250000J0D01*
G01*
X95005000Y-69963000D01*
G75*
G02*
X94755000Y-69713000I0J250000D01*
G01*
G37*
G36*
G01*
X91780000Y-69713000D02*
X91780000Y-68463000D01*
G75*
G02*
X92030000Y-68213000I250000J0D01*
G01*
X92955000Y-68213000D01*
G75*
G02*
X93205000Y-68463000I0J-250000D01*
G01*
X93205000Y-69713000D01*
G75*
G02*
X92955000Y-69963000I-250000J0D01*
G01*
X92030000Y-69963000D01*
G75*
G02*
X91780000Y-69713000I0J250000D01*
G01*
G37*
%TD*%
%TO.C,D47*%
G36*
G01*
X180607000Y-112385000D02*
X180607000Y-111135000D01*
G75*
G02*
X180857000Y-110885000I250000J0D01*
G01*
X181782000Y-110885000D01*
G75*
G02*
X182032000Y-111135000I0J-250000D01*
G01*
X182032000Y-112385000D01*
G75*
G02*
X181782000Y-112635000I-250000J0D01*
G01*
X180857000Y-112635000D01*
G75*
G02*
X180607000Y-112385000I0J250000D01*
G01*
G37*
G36*
G01*
X177632000Y-112385000D02*
X177632000Y-111135000D01*
G75*
G02*
X177882000Y-110885000I250000J0D01*
G01*
X178807000Y-110885000D01*
G75*
G02*
X179057000Y-111135000I0J-250000D01*
G01*
X179057000Y-112385000D01*
G75*
G02*
X178807000Y-112635000I-250000J0D01*
G01*
X177882000Y-112635000D01*
G75*
G02*
X177632000Y-112385000I0J250000D01*
G01*
G37*
%TD*%
D21*
%TO.C,D46*%
X144272000Y-77216000D03*
D22*
X141732000Y-77216000D03*
%TD*%
D21*
%TO.C,D45*%
X132588000Y-166116000D03*
D22*
X130048000Y-166116000D03*
%TD*%
D21*
%TO.C,D44*%
X159512000Y-145796000D03*
D22*
X156972000Y-145796000D03*
%TD*%
D21*
%TO.C,D43*%
X178816000Y-137668000D03*
D22*
X176276000Y-137668000D03*
%TD*%
%TO.C,D42*%
G36*
G01*
X192762500Y-73777000D02*
X192762500Y-72527000D01*
G75*
G02*
X193012500Y-72277000I250000J0D01*
G01*
X193937500Y-72277000D01*
G75*
G02*
X194187500Y-72527000I0J-250000D01*
G01*
X194187500Y-73777000D01*
G75*
G02*
X193937500Y-74027000I-250000J0D01*
G01*
X193012500Y-74027000D01*
G75*
G02*
X192762500Y-73777000I0J250000D01*
G01*
G37*
G36*
G01*
X189787500Y-73777000D02*
X189787500Y-72527000D01*
G75*
G02*
X190037500Y-72277000I250000J0D01*
G01*
X190962500Y-72277000D01*
G75*
G02*
X191212500Y-72527000I0J-250000D01*
G01*
X191212500Y-73777000D01*
G75*
G02*
X190962500Y-74027000I-250000J0D01*
G01*
X190037500Y-74027000D01*
G75*
G02*
X189787500Y-73777000I0J250000D01*
G01*
G37*
%TD*%
D21*
%TO.C,D41*%
X133604000Y-30480000D03*
D22*
X136144000Y-30480000D03*
%TD*%
%TO.C,D40*%
G36*
G01*
X132855000Y-126101000D02*
X132855000Y-124851000D01*
G75*
G02*
X133105000Y-124601000I250000J0D01*
G01*
X134030000Y-124601000D01*
G75*
G02*
X134280000Y-124851000I0J-250000D01*
G01*
X134280000Y-126101000D01*
G75*
G02*
X134030000Y-126351000I-250000J0D01*
G01*
X133105000Y-126351000D01*
G75*
G02*
X132855000Y-126101000I0J250000D01*
G01*
G37*
G36*
G01*
X129880000Y-126101000D02*
X129880000Y-124851000D01*
G75*
G02*
X130130000Y-124601000I250000J0D01*
G01*
X131055000Y-124601000D01*
G75*
G02*
X131305000Y-124851000I0J-250000D01*
G01*
X131305000Y-126101000D01*
G75*
G02*
X131055000Y-126351000I-250000J0D01*
G01*
X130130000Y-126351000D01*
G75*
G02*
X129880000Y-126101000I0J250000D01*
G01*
G37*
%TD*%
%TO.C,D39*%
G36*
G01*
X138443000Y-59553000D02*
X138443000Y-58303000D01*
G75*
G02*
X138693000Y-58053000I250000J0D01*
G01*
X139618000Y-58053000D01*
G75*
G02*
X139868000Y-58303000I0J-250000D01*
G01*
X139868000Y-59553000D01*
G75*
G02*
X139618000Y-59803000I-250000J0D01*
G01*
X138693000Y-59803000D01*
G75*
G02*
X138443000Y-59553000I0J250000D01*
G01*
G37*
G36*
G01*
X135468000Y-59553000D02*
X135468000Y-58303000D01*
G75*
G02*
X135718000Y-58053000I250000J0D01*
G01*
X136643000Y-58053000D01*
G75*
G02*
X136893000Y-58303000I0J-250000D01*
G01*
X136893000Y-59553000D01*
G75*
G02*
X136643000Y-59803000I-250000J0D01*
G01*
X135718000Y-59803000D01*
G75*
G02*
X135468000Y-59553000I0J250000D01*
G01*
G37*
%TD*%
%TO.C,D38*%
G36*
G01*
X171971000Y-76317000D02*
X171971000Y-75067000D01*
G75*
G02*
X172221000Y-74817000I250000J0D01*
G01*
X173146000Y-74817000D01*
G75*
G02*
X173396000Y-75067000I0J-250000D01*
G01*
X173396000Y-76317000D01*
G75*
G02*
X173146000Y-76567000I-250000J0D01*
G01*
X172221000Y-76567000D01*
G75*
G02*
X171971000Y-76317000I0J250000D01*
G01*
G37*
G36*
G01*
X168996000Y-76317000D02*
X168996000Y-75067000D01*
G75*
G02*
X169246000Y-74817000I250000J0D01*
G01*
X170171000Y-74817000D01*
G75*
G02*
X170421000Y-75067000I0J-250000D01*
G01*
X170421000Y-76317000D01*
G75*
G02*
X170171000Y-76567000I-250000J0D01*
G01*
X169246000Y-76567000D01*
G75*
G02*
X168996000Y-76317000I0J250000D01*
G01*
G37*
%TD*%
%TO.C,D37*%
G36*
G01*
X107963000Y-82921000D02*
X107963000Y-81671000D01*
G75*
G02*
X108213000Y-81421000I250000J0D01*
G01*
X109138000Y-81421000D01*
G75*
G02*
X109388000Y-81671000I0J-250000D01*
G01*
X109388000Y-82921000D01*
G75*
G02*
X109138000Y-83171000I-250000J0D01*
G01*
X108213000Y-83171000D01*
G75*
G02*
X107963000Y-82921000I0J250000D01*
G01*
G37*
G36*
G01*
X104988000Y-82921000D02*
X104988000Y-81671000D01*
G75*
G02*
X105238000Y-81421000I250000J0D01*
G01*
X106163000Y-81421000D01*
G75*
G02*
X106413000Y-81671000I0J-250000D01*
G01*
X106413000Y-82921000D01*
G75*
G02*
X106163000Y-83171000I-250000J0D01*
G01*
X105238000Y-83171000D01*
G75*
G02*
X104988000Y-82921000I0J250000D01*
G01*
G37*
%TD*%
D21*
%TO.C,D36*%
X199644000Y-141732000D03*
D22*
X197104000Y-141732000D03*
%TD*%
D21*
%TO.C,D35*%
X201676000Y-57404000D03*
D22*
X199136000Y-57404000D03*
%TD*%
D21*
%TO.C,D34*%
X153416000Y-30480000D03*
D22*
X155956000Y-30480000D03*
%TD*%
D21*
%TO.C,D33*%
X79248000Y-71120000D03*
D22*
X76708000Y-71120000D03*
%TD*%
%TO.C,D32*%
G36*
G01*
X103899000Y-111877000D02*
X103899000Y-110627000D01*
G75*
G02*
X104149000Y-110377000I250000J0D01*
G01*
X105074000Y-110377000D01*
G75*
G02*
X105324000Y-110627000I0J-250000D01*
G01*
X105324000Y-111877000D01*
G75*
G02*
X105074000Y-112127000I-250000J0D01*
G01*
X104149000Y-112127000D01*
G75*
G02*
X103899000Y-111877000I0J250000D01*
G01*
G37*
G36*
G01*
X100924000Y-111877000D02*
X100924000Y-110627000D01*
G75*
G02*
X101174000Y-110377000I250000J0D01*
G01*
X102099000Y-110377000D01*
G75*
G02*
X102349000Y-110627000I0J-250000D01*
G01*
X102349000Y-111877000D01*
G75*
G02*
X102099000Y-112127000I-250000J0D01*
G01*
X101174000Y-112127000D01*
G75*
G02*
X100924000Y-111877000I0J250000D01*
G01*
G37*
%TD*%
D21*
%TO.C,D31*%
X87376000Y-139192000D03*
D22*
X84836000Y-139192000D03*
%TD*%
%TO.C,D30*%
G36*
G01*
X118989000Y-87109000D02*
X117739000Y-87109000D01*
G75*
G02*
X117489000Y-86859000I0J250000D01*
G01*
X117489000Y-85934000D01*
G75*
G02*
X117739000Y-85684000I250000J0D01*
G01*
X118989000Y-85684000D01*
G75*
G02*
X119239000Y-85934000I0J-250000D01*
G01*
X119239000Y-86859000D01*
G75*
G02*
X118989000Y-87109000I-250000J0D01*
G01*
G37*
G36*
G01*
X118989000Y-90084000D02*
X117739000Y-90084000D01*
G75*
G02*
X117489000Y-89834000I0J250000D01*
G01*
X117489000Y-88909000D01*
G75*
G02*
X117739000Y-88659000I250000J0D01*
G01*
X118989000Y-88659000D01*
G75*
G02*
X119239000Y-88909000I0J-250000D01*
G01*
X119239000Y-89834000D01*
G75*
G02*
X118989000Y-90084000I-250000J0D01*
G01*
G37*
%TD*%
%TO.C,D29*%
G36*
G01*
X141465000Y-158887000D02*
X141465000Y-160137000D01*
G75*
G02*
X141215000Y-160387000I-250000J0D01*
G01*
X140290000Y-160387000D01*
G75*
G02*
X140040000Y-160137000I0J250000D01*
G01*
X140040000Y-158887000D01*
G75*
G02*
X140290000Y-158637000I250000J0D01*
G01*
X141215000Y-158637000D01*
G75*
G02*
X141465000Y-158887000I0J-250000D01*
G01*
G37*
G36*
G01*
X144440000Y-158887000D02*
X144440000Y-160137000D01*
G75*
G02*
X144190000Y-160387000I-250000J0D01*
G01*
X143265000Y-160387000D01*
G75*
G02*
X143015000Y-160137000I0J250000D01*
G01*
X143015000Y-158887000D01*
G75*
G02*
X143265000Y-158637000I250000J0D01*
G01*
X144190000Y-158637000D01*
G75*
G02*
X144440000Y-158887000I0J-250000D01*
G01*
G37*
%TD*%
%TO.C,D28*%
G36*
G01*
X144897000Y-42913000D02*
X143647000Y-42913000D01*
G75*
G02*
X143397000Y-42663000I0J250000D01*
G01*
X143397000Y-41738000D01*
G75*
G02*
X143647000Y-41488000I250000J0D01*
G01*
X144897000Y-41488000D01*
G75*
G02*
X145147000Y-41738000I0J-250000D01*
G01*
X145147000Y-42663000D01*
G75*
G02*
X144897000Y-42913000I-250000J0D01*
G01*
G37*
G36*
G01*
X144897000Y-45888000D02*
X143647000Y-45888000D01*
G75*
G02*
X143397000Y-45638000I0J250000D01*
G01*
X143397000Y-44713000D01*
G75*
G02*
X143647000Y-44463000I250000J0D01*
G01*
X144897000Y-44463000D01*
G75*
G02*
X145147000Y-44713000I0J-250000D01*
G01*
X145147000Y-45638000D01*
G75*
G02*
X144897000Y-45888000I-250000J0D01*
G01*
G37*
%TD*%
%TO.C,D27*%
G36*
G01*
X176035000Y-124069000D02*
X176035000Y-122819000D01*
G75*
G02*
X176285000Y-122569000I250000J0D01*
G01*
X177210000Y-122569000D01*
G75*
G02*
X177460000Y-122819000I0J-250000D01*
G01*
X177460000Y-124069000D01*
G75*
G02*
X177210000Y-124319000I-250000J0D01*
G01*
X176285000Y-124319000D01*
G75*
G02*
X176035000Y-124069000I0J250000D01*
G01*
G37*
G36*
G01*
X173060000Y-124069000D02*
X173060000Y-122819000D01*
G75*
G02*
X173310000Y-122569000I250000J0D01*
G01*
X174235000Y-122569000D01*
G75*
G02*
X174485000Y-122819000I0J-250000D01*
G01*
X174485000Y-124069000D01*
G75*
G02*
X174235000Y-124319000I-250000J0D01*
G01*
X173310000Y-124319000D01*
G75*
G02*
X173060000Y-124069000I0J250000D01*
G01*
G37*
%TD*%
D21*
%TO.C,D26*%
X88900000Y-54864000D03*
D22*
X86360000Y-54864000D03*
%TD*%
D21*
%TO.C,D25*%
X77216000Y-122428000D03*
D22*
X74676000Y-122428000D03*
%TD*%
D21*
%TO.C,D24*%
X124968000Y-146812000D03*
D22*
X122428000Y-146812000D03*
%TD*%
D21*
%TO.C,D23*%
X209804000Y-124968000D03*
D22*
X207264000Y-124968000D03*
%TD*%
%TO.C,D22*%
G36*
G01*
X180570500Y-87493000D02*
X180570500Y-86243000D01*
G75*
G02*
X180820500Y-85993000I250000J0D01*
G01*
X181745500Y-85993000D01*
G75*
G02*
X181995500Y-86243000I0J-250000D01*
G01*
X181995500Y-87493000D01*
G75*
G02*
X181745500Y-87743000I-250000J0D01*
G01*
X180820500Y-87743000D01*
G75*
G02*
X180570500Y-87493000I0J250000D01*
G01*
G37*
G36*
G01*
X177595500Y-87493000D02*
X177595500Y-86243000D01*
G75*
G02*
X177845500Y-85993000I250000J0D01*
G01*
X178770500Y-85993000D01*
G75*
G02*
X179020500Y-86243000I0J-250000D01*
G01*
X179020500Y-87493000D01*
G75*
G02*
X178770500Y-87743000I-250000J0D01*
G01*
X177845500Y-87743000D01*
G75*
G02*
X177595500Y-87493000I0J250000D01*
G01*
G37*
%TD*%
D21*
%TO.C,D21*%
X197459600Y-88823800D03*
D22*
X194919600Y-88823800D03*
%TD*%
%TO.C,D20*%
G36*
G01*
X167907000Y-102225000D02*
X167907000Y-100975000D01*
G75*
G02*
X168157000Y-100725000I250000J0D01*
G01*
X169082000Y-100725000D01*
G75*
G02*
X169332000Y-100975000I0J-250000D01*
G01*
X169332000Y-102225000D01*
G75*
G02*
X169082000Y-102475000I-250000J0D01*
G01*
X168157000Y-102475000D01*
G75*
G02*
X167907000Y-102225000I0J250000D01*
G01*
G37*
G36*
G01*
X164932000Y-102225000D02*
X164932000Y-100975000D01*
G75*
G02*
X165182000Y-100725000I250000J0D01*
G01*
X166107000Y-100725000D01*
G75*
G02*
X166357000Y-100975000I0J-250000D01*
G01*
X166357000Y-102225000D01*
G75*
G02*
X166107000Y-102475000I-250000J0D01*
G01*
X165182000Y-102475000D01*
G75*
G02*
X164932000Y-102225000I0J250000D01*
G01*
G37*
%TD*%
%TO.C,D19*%
G36*
G01*
X92189000Y-123835000D02*
X92189000Y-125085000D01*
G75*
G02*
X91939000Y-125335000I-250000J0D01*
G01*
X91014000Y-125335000D01*
G75*
G02*
X90764000Y-125085000I0J250000D01*
G01*
X90764000Y-123835000D01*
G75*
G02*
X91014000Y-123585000I250000J0D01*
G01*
X91939000Y-123585000D01*
G75*
G02*
X92189000Y-123835000I0J-250000D01*
G01*
G37*
G36*
G01*
X95164000Y-123835000D02*
X95164000Y-125085000D01*
G75*
G02*
X94914000Y-125335000I-250000J0D01*
G01*
X93989000Y-125335000D01*
G75*
G02*
X93739000Y-125085000I0J250000D01*
G01*
X93739000Y-123835000D01*
G75*
G02*
X93989000Y-123585000I250000J0D01*
G01*
X94914000Y-123585000D01*
G75*
G02*
X95164000Y-123835000I0J-250000D01*
G01*
G37*
%TD*%
%TO.C,D18*%
G36*
G01*
X194867500Y-128133000D02*
X194867500Y-126883000D01*
G75*
G02*
X195117500Y-126633000I250000J0D01*
G01*
X196042500Y-126633000D01*
G75*
G02*
X196292500Y-126883000I0J-250000D01*
G01*
X196292500Y-128133000D01*
G75*
G02*
X196042500Y-128383000I-250000J0D01*
G01*
X195117500Y-128383000D01*
G75*
G02*
X194867500Y-128133000I0J250000D01*
G01*
G37*
G36*
G01*
X191892500Y-128133000D02*
X191892500Y-126883000D01*
G75*
G02*
X192142500Y-126633000I250000J0D01*
G01*
X193067500Y-126633000D01*
G75*
G02*
X193317500Y-126883000I0J-250000D01*
G01*
X193317500Y-128133000D01*
G75*
G02*
X193067500Y-128383000I-250000J0D01*
G01*
X192142500Y-128383000D01*
G75*
G02*
X191892500Y-128133000I0J250000D01*
G01*
G37*
%TD*%
%TO.C,D17*%
G36*
G01*
X121108500Y-114183000D02*
X121108500Y-115433000D01*
G75*
G02*
X120858500Y-115683000I-250000J0D01*
G01*
X119933500Y-115683000D01*
G75*
G02*
X119683500Y-115433000I0J250000D01*
G01*
X119683500Y-114183000D01*
G75*
G02*
X119933500Y-113933000I250000J0D01*
G01*
X120858500Y-113933000D01*
G75*
G02*
X121108500Y-114183000I0J-250000D01*
G01*
G37*
G36*
G01*
X124083500Y-114183000D02*
X124083500Y-115433000D01*
G75*
G02*
X123833500Y-115683000I-250000J0D01*
G01*
X122908500Y-115683000D01*
G75*
G02*
X122658500Y-115433000I0J250000D01*
G01*
X122658500Y-114183000D01*
G75*
G02*
X122908500Y-113933000I250000J0D01*
G01*
X123833500Y-113933000D01*
G75*
G02*
X124083500Y-114183000I0J-250000D01*
G01*
G37*
%TD*%
D21*
%TO.C,D16*%
X212852000Y-74168000D03*
D22*
X210312000Y-74168000D03*
%TD*%
%TO.C,D15*%
X149860000Y-164592000D03*
D21*
X152400000Y-164592000D03*
%TD*%
%TO.C,D14*%
X91440000Y-106680000D03*
D22*
X88900000Y-106680000D03*
%TD*%
D21*
%TO.C,D13*%
X109728000Y-59436000D03*
D22*
X107188000Y-59436000D03*
%TD*%
%TO.C,D12*%
G36*
G01*
X117465000Y-99337500D02*
X116215000Y-99337500D01*
G75*
G02*
X115965000Y-99087500I0J250000D01*
G01*
X115965000Y-98162500D01*
G75*
G02*
X116215000Y-97912500I250000J0D01*
G01*
X117465000Y-97912500D01*
G75*
G02*
X117715000Y-98162500I0J-250000D01*
G01*
X117715000Y-99087500D01*
G75*
G02*
X117465000Y-99337500I-250000J0D01*
G01*
G37*
G36*
G01*
X117465000Y-102312500D02*
X116215000Y-102312500D01*
G75*
G02*
X115965000Y-102062500I0J250000D01*
G01*
X115965000Y-101137500D01*
G75*
G02*
X116215000Y-100887500I250000J0D01*
G01*
X117465000Y-100887500D01*
G75*
G02*
X117715000Y-101137500I0J-250000D01*
G01*
X117715000Y-102062500D01*
G75*
G02*
X117465000Y-102312500I-250000J0D01*
G01*
G37*
%TD*%
D21*
%TO.C,D11*%
X162052000Y-50292000D03*
D22*
X159512000Y-50292000D03*
%TD*%
%TO.C,D10*%
G36*
G01*
X110005500Y-72019000D02*
X110005500Y-73269000D01*
G75*
G02*
X109755500Y-73519000I-250000J0D01*
G01*
X108830500Y-73519000D01*
G75*
G02*
X108580500Y-73269000I0J250000D01*
G01*
X108580500Y-72019000D01*
G75*
G02*
X108830500Y-71769000I250000J0D01*
G01*
X109755500Y-71769000D01*
G75*
G02*
X110005500Y-72019000I0J-250000D01*
G01*
G37*
G36*
G01*
X112980500Y-72019000D02*
X112980500Y-73269000D01*
G75*
G02*
X112730500Y-73519000I-250000J0D01*
G01*
X111805500Y-73519000D01*
G75*
G02*
X111555500Y-73269000I0J250000D01*
G01*
X111555500Y-72019000D01*
G75*
G02*
X111805500Y-71769000I250000J0D01*
G01*
X112730500Y-71769000D01*
G75*
G02*
X112980500Y-72019000I0J-250000D01*
G01*
G37*
%TD*%
%TO.C,D9*%
G36*
G01*
X123685000Y-104531000D02*
X123685000Y-105781000D01*
G75*
G02*
X123435000Y-106031000I-250000J0D01*
G01*
X122510000Y-106031000D01*
G75*
G02*
X122260000Y-105781000I0J250000D01*
G01*
X122260000Y-104531000D01*
G75*
G02*
X122510000Y-104281000I250000J0D01*
G01*
X123435000Y-104281000D01*
G75*
G02*
X123685000Y-104531000I0J-250000D01*
G01*
G37*
G36*
G01*
X126660000Y-104531000D02*
X126660000Y-105781000D01*
G75*
G02*
X126410000Y-106031000I-250000J0D01*
G01*
X125485000Y-106031000D01*
G75*
G02*
X125235000Y-105781000I0J250000D01*
G01*
X125235000Y-104531000D01*
G75*
G02*
X125485000Y-104281000I250000J0D01*
G01*
X126410000Y-104281000D01*
G75*
G02*
X126660000Y-104531000I0J-250000D01*
G01*
G37*
%TD*%
%TO.C,D8*%
G36*
G01*
X158229000Y-112151000D02*
X158229000Y-113401000D01*
G75*
G02*
X157979000Y-113651000I-250000J0D01*
G01*
X157054000Y-113651000D01*
G75*
G02*
X156804000Y-113401000I0J250000D01*
G01*
X156804000Y-112151000D01*
G75*
G02*
X157054000Y-111901000I250000J0D01*
G01*
X157979000Y-111901000D01*
G75*
G02*
X158229000Y-112151000I0J-250000D01*
G01*
G37*
G36*
G01*
X161204000Y-112151000D02*
X161204000Y-113401000D01*
G75*
G02*
X160954000Y-113651000I-250000J0D01*
G01*
X160029000Y-113651000D01*
G75*
G02*
X159779000Y-113401000I0J250000D01*
G01*
X159779000Y-112151000D01*
G75*
G02*
X160029000Y-111901000I250000J0D01*
G01*
X160954000Y-111901000D01*
G75*
G02*
X161204000Y-112151000I0J-250000D01*
G01*
G37*
%TD*%
%TO.C,D7*%
G36*
G01*
X154165000Y-124343000D02*
X154165000Y-125593000D01*
G75*
G02*
X153915000Y-125843000I-250000J0D01*
G01*
X152990000Y-125843000D01*
G75*
G02*
X152740000Y-125593000I0J250000D01*
G01*
X152740000Y-124343000D01*
G75*
G02*
X152990000Y-124093000I250000J0D01*
G01*
X153915000Y-124093000D01*
G75*
G02*
X154165000Y-124343000I0J-250000D01*
G01*
G37*
G36*
G01*
X157140000Y-124343000D02*
X157140000Y-125593000D01*
G75*
G02*
X156890000Y-125843000I-250000J0D01*
G01*
X155965000Y-125843000D01*
G75*
G02*
X155715000Y-125593000I0J250000D01*
G01*
X155715000Y-124343000D01*
G75*
G02*
X155965000Y-124093000I250000J0D01*
G01*
X156890000Y-124093000D01*
G75*
G02*
X157140000Y-124343000I0J-250000D01*
G01*
G37*
%TD*%
D21*
%TO.C,D6*%
X129032000Y-49276000D03*
D22*
X126492000Y-49276000D03*
%TD*%
D21*
%TO.C,D5*%
X95504000Y-84328000D03*
D22*
X92964000Y-84328000D03*
%TD*%
D21*
%TO.C,D4*%
X105156000Y-135636000D03*
D22*
X107696000Y-135636000D03*
%TD*%
D21*
%TO.C,D3*%
X194564000Y-111252000D03*
D22*
X194564000Y-108712000D03*
%TD*%
%TO.C,D2*%
G36*
G01*
X158265500Y-91831000D02*
X158265500Y-93081000D01*
G75*
G02*
X158015500Y-93331000I-250000J0D01*
G01*
X157090500Y-93331000D01*
G75*
G02*
X156840500Y-93081000I0J250000D01*
G01*
X156840500Y-91831000D01*
G75*
G02*
X157090500Y-91581000I250000J0D01*
G01*
X158015500Y-91581000D01*
G75*
G02*
X158265500Y-91831000I0J-250000D01*
G01*
G37*
G36*
G01*
X161240500Y-91831000D02*
X161240500Y-93081000D01*
G75*
G02*
X160990500Y-93331000I-250000J0D01*
G01*
X160065500Y-93331000D01*
G75*
G02*
X159815500Y-93081000I0J250000D01*
G01*
X159815500Y-91831000D01*
G75*
G02*
X160065500Y-91581000I250000J0D01*
G01*
X160990500Y-91581000D01*
G75*
G02*
X161240500Y-91831000I0J-250000D01*
G01*
G37*
%TD*%
D21*
%TO.C,D1*%
X178308000Y-61468000D03*
D22*
X180848000Y-61468000D03*
%TD*%
D14*
%TO.C,C2*%
X157988000Y-85312000D03*
D18*
X157988000Y-83312000D03*
%TD*%
%TO.C,C1*%
G36*
G01*
X134985999Y-110120000D02*
X136286001Y-110120000D01*
G75*
G02*
X136536000Y-110369999I0J-249999D01*
G01*
X136536000Y-111195001D01*
G75*
G02*
X136286001Y-111445000I-249999J0D01*
G01*
X134985999Y-111445000D01*
G75*
G02*
X134736000Y-111195001I0J249999D01*
G01*
X134736000Y-110369999D01*
G75*
G02*
X134985999Y-110120000I249999J0D01*
G01*
G37*
G36*
G01*
X134985999Y-106995000D02*
X136286001Y-106995000D01*
G75*
G02*
X136536000Y-107244999I0J-249999D01*
G01*
X136536000Y-108070001D01*
G75*
G02*
X136286001Y-108320000I-249999J0D01*
G01*
X134985999Y-108320000D01*
G75*
G02*
X134736000Y-108070001I0J249999D01*
G01*
X134736000Y-107244999D01*
G75*
G02*
X134985999Y-106995000I249999J0D01*
G01*
G37*
%TD*%
D23*
%TO.C,BZ1*%
X141732000Y-148904000D03*
D24*
X141732000Y-133604000D03*
%TD*%
D25*
X136144000Y-79248000D03*
X136144000Y-82296000D03*
X143256000Y-102616000D03*
X143256000Y-105156000D03*
X128524000Y-115824000D03*
X129540000Y-115824000D03*
X129032000Y-118364000D03*
X129540000Y-118872000D03*
X137668000Y-129540000D03*
X135128000Y-129540000D03*
X138684000Y-136144000D03*
X145796000Y-150876000D03*
X176747500Y-125439500D03*
X100076000Y-108712000D03*
X118872000Y-114300000D03*
X118872000Y-114300000D03*
X196596000Y-72136000D03*
X175006000Y-74930000D03*
X182880000Y-86360000D03*
X139700000Y-89408000D03*
X140716000Y-89408000D03*
X141732000Y-89408000D03*
X142748000Y-89408000D03*
X143764000Y-89408000D03*
X144780000Y-89408000D03*
X145796000Y-89408000D03*
X139700000Y-90424000D03*
X140716000Y-90424000D03*
X141732000Y-90424000D03*
X142748000Y-90424000D03*
X143764000Y-90424000D03*
X144780000Y-90424000D03*
X145796000Y-90424000D03*
X138684000Y-89408000D03*
X138684000Y-90424000D03*
X141732000Y-91440000D03*
X142748000Y-91440000D03*
X141732000Y-92456000D03*
X142748000Y-92456000D03*
X141732000Y-93472000D03*
X142748000Y-93472000D03*
X141732000Y-94488000D03*
X142748000Y-94488000D03*
X141732000Y-95504000D03*
X142748000Y-95504000D03*
X143764000Y-94488000D03*
X143764000Y-95504000D03*
X144780000Y-94488000D03*
X144780000Y-95504000D03*
X131064000Y-52324000D03*
X141732000Y-44704000D03*
X182880000Y-111760000D03*
X151892000Y-124968000D03*
X197104000Y-127508000D03*
X198120000Y-137160000D03*
X87884000Y-62992000D03*
X95467500Y-67600500D03*
X110236000Y-82296000D03*
X106680000Y-129540000D03*
X116840000Y-97028000D03*
X159004000Y-112776000D03*
X102616000Y-81280000D03*
X102616000Y-79248000D03*
X151892000Y-103632000D03*
X145561999Y-103866001D03*
X154940000Y-98044000D03*
X156718000Y-99822000D03*
X162052000Y-107188000D03*
X160274000Y-105410000D03*
X108712000Y-78232000D03*
X111252000Y-75692000D03*
X96520000Y-122936000D03*
X98556483Y-124972483D03*
X115824000Y-82296000D03*
X114300000Y-83820000D03*
X185928000Y-121920000D03*
X185928000Y-119888000D03*
X187452000Y-115316000D03*
X185928000Y-113792000D03*
X168148000Y-103632000D03*
X166116000Y-103632000D03*
X117348000Y-112776000D03*
X115824000Y-111252000D03*
X134366000Y-112522000D03*
X140989999Y-111525999D03*
X152654000Y-109982000D03*
X154432000Y-108204000D03*
X145796000Y-136652000D03*
X147574000Y-134874000D03*
X144272000Y-125984000D03*
X144272000Y-129032000D03*
X154940000Y-58420000D03*
X153416000Y-59944000D03*
X166445314Y-77216000D03*
X165137657Y-78523657D03*
X163576000Y-92710000D03*
X164846000Y-93980000D03*
X101092000Y-118364000D03*
X104140000Y-121412000D03*
X115316000Y-117348000D03*
X111760000Y-117348000D03*
X121412000Y-79586219D03*
X119380000Y-81618219D03*
X188442000Y-84862000D03*
X186918000Y-83338000D03*
X184938000Y-83338000D03*
X182398000Y-83338000D03*
X134620000Y-119380000D03*
X141497999Y-119145999D03*
X142748000Y-125984000D03*
X142748000Y-128016000D03*
X168148000Y-120904000D03*
X166116000Y-120904000D03*
X157988000Y-120904000D03*
X156464000Y-122428000D03*
X150368000Y-125984000D03*
X150368000Y-128016000D03*
X140462000Y-130556000D03*
X140462000Y-128524000D03*
X126492000Y-109728000D03*
X126492000Y-112268000D03*
X134620000Y-127000000D03*
X137160000Y-127000000D03*
X117856000Y-76708000D03*
X116332000Y-78232000D03*
X112268000Y-77216000D03*
X109982000Y-79502000D03*
X172720000Y-81280000D03*
X170688000Y-81280000D03*
X152925034Y-65024000D03*
X150876000Y-65024000D03*
X147828000Y-65532000D03*
X143256000Y-65024000D03*
X116210999Y-113913001D03*
X114686999Y-112389001D03*
X110236000Y-114808000D03*
X108712000Y-113284000D03*
X178842000Y-122454000D03*
X178842000Y-116866000D03*
X167132000Y-119380000D03*
X167132000Y-117348000D03*
X107696000Y-77216000D03*
X110236000Y-74676000D03*
X135128000Y-67564000D03*
X137160000Y-67564000D03*
X146812000Y-66548000D03*
X143256000Y-66548000D03*
X147574000Y-57658000D03*
X146050000Y-56134000D03*
X176187999Y-74079999D03*
X178054000Y-75946000D03*
X135255000Y-137795000D03*
X133985000Y-136525000D03*
X109736966Y-124968000D03*
X108208483Y-126496483D03*
X153416000Y-123444000D03*
X153416000Y-128016000D03*
X148590000Y-135890000D03*
X146812000Y-137668000D03*
X145975005Y-144959005D03*
X141552995Y-144959005D03*
M02*
